<?xml version="1.0" encoding="utf-8"?>
<!-- Generator: Adobe Illustrator 27.5.0, SVG Export Plug-In . SVG Version: 6.00 Build 0)  -->
<svg version="1.1" xmlns="http://www.w3.org/2000/svg" xmlns:xlink="http://www.w3.org/1999/xlink" x="0px" y="0px"
	 viewBox="0 0 500 500" style="enable-background:new 0 0 500 500;" xml:space="preserve">
<g id="BACKGROUND">
	<g>
		<rect style="fill:#FFFFFF;" width="500" height="500"/>
		<g>
			<path style="fill:#F6921E;" d="M204.868,448.893c0,0,6.1-27.895,12.964-21.293c6.863,6.603,11.947-35.086,19.573-26.748
				c7.626,8.338-3.05,25.943,12.201,21.905c15.251-4.038,13.726,7.079,10.93,14.622c-2.796,7.544,13.98,11.514,13.98,11.514H204.868
				z"/>
			<g>
				<g>
					<path style="fill:#F67406;" d="M390.289,448.903c0,0,7.52-59.409,25.901-60.613c18.382-1.204-7.938,46.162,12.115,36.528
						c20.053-9.634,4.178,16.859,21.306,11.24c17.128-5.62,17.546,12.845,17.546,12.845H390.289z"/>
				</g>
				<g>
					<path style="fill:#401A4C;" d="M401.749,448.903c0,0,0.11-0.894,0.301-2.459c0.202-1.563,0.5-3.796,0.933-6.465
						c0.429-2.669,0.98-5.774,1.631-9.09c0.351-1.653,0.666-3.371,1.072-5.098c0.392-1.73,0.777-3.492,1.234-5.236
						c0.226-0.873,0.451-1.745,0.676-2.615c0.249-0.863,0.498-1.722,0.744-2.574c0.47-1.712,1.022-3.37,1.553-4.974
						c0.496-1.617,1.116-3.131,1.654-4.584c0.511-1.464,1.172-2.778,1.7-4.022c0.507-1.256,1.153-2.321,1.664-3.293
						c0.261-0.483,0.506-0.935,0.732-1.353c0.251-0.403,0.507-0.759,0.725-1.087c0.883-1.306,1.388-2.052,1.388-2.052
						s-0.49,0.756-1.347,2.078c-0.211,0.332-0.459,0.691-0.702,1.099c-0.218,0.422-0.453,0.878-0.705,1.365
						c-0.49,0.981-1.112,2.053-1.615,3.308c-0.519,1.246-1.169,2.558-1.669,4.024c-0.527,1.454-1.135,2.968-1.62,4.586
						c-0.52,1.605-1.06,3.263-1.518,4.976c-0.24,0.853-0.483,1.712-0.726,2.575c-0.219,0.869-0.439,1.742-0.659,2.615
						c-0.468,1.739-0.864,3.495-1.267,5.221c-0.418,1.723-0.744,3.437-1.105,5.086c-0.672,3.309-1.244,6.409-1.689,9.073
						C402.223,445.33,401.749,448.903,401.749,448.903z"/>
				</g>
				<g>
					<path style="fill:#401A4C;" d="M425.903,448.903c0,0,0.157-1.245,0.536-3.089c0.202-0.919,0.429-1.994,0.745-3.128
						c0.303-1.138,0.675-2.337,1.069-3.53c0.421-1.184,0.876-2.356,1.352-3.434c0.473-1.08,0.993-2.051,1.449-2.875
						c0.247-0.402,0.473-0.77,0.673-1.096c0.197-0.328,0.411-0.587,0.565-0.813c0.32-0.445,0.503-0.7,0.503-0.7
						s-0.169,0.264-0.464,0.726c-0.141,0.235-0.34,0.502-0.518,0.84c-0.185,0.333-0.393,0.709-0.62,1.119
						c-0.22,0.414-0.434,0.875-0.673,1.355c-0.239,0.481-0.444,1.01-0.69,1.541c-0.463,1.076-0.902,2.247-1.31,3.428
						c-0.821,2.362-1.473,4.78-1.927,6.602C426.141,447.672,425.903,448.903,425.903,448.903z"/>
				</g>
				<g>
					<path style="fill:#401A4C;" d="M456.609,439.57c0,0-0.173,0.586-0.432,1.464c-0.27,0.873-0.63,2.037-0.991,3.202
						c-0.374,1.159-0.724,2.325-0.984,3.2c-0.261,0.875-0.413,1.467-0.413,1.467s0.071-0.608,0.259-1.506
						c0.185-0.899,0.512-2.078,0.868-3.246c0.374-1.163,0.775-2.316,1.111-3.169C456.362,440.129,456.609,439.57,456.609,439.57z"/>
				</g>
			</g>
			<g>
				<path style="fill:#401A4C;" d="M235.009,406.498c-0.874,3.489-1.668,6.997-2.434,10.51c-0.752,3.516-1.432,7.047-2.041,10.59
					c-0.631,3.539-1.168,7.094-1.617,10.661c-0.41,3.571-0.73,7.152-0.902,10.746c0.061-3.597,0.316-7.191,0.715-10.768
					c0.418-3.575,0.923-7.139,1.526-10.688C231.559,420.473,233.052,413.424,235.009,406.498z"/>
			</g>
			<g>
				<path style="fill:#401A4C;" d="M215.847,432.683c-0.57,1.309-1.095,2.636-1.606,3.966c-0.503,1.333-0.998,2.67-1.42,4.03
					c-0.438,1.354-0.83,2.724-1.15,4.11c-0.308,1.388-0.563,2.791-0.672,4.216c0.005-2.868,0.704-5.688,1.552-8.413
					C213.45,437.876,214.52,435.214,215.847,432.683z"/>
			</g>
			<g>
				<path style="fill:#401A4C;" d="M256.007,427.752c-0.74,0.669-1.379,1.438-1.975,2.234c-0.609,0.786-1.151,1.621-1.674,2.465
					c-1.029,1.7-1.904,3.491-2.659,5.328c-0.792,1.825-1.382,3.728-1.955,5.633c-0.279,0.955-0.503,1.926-0.759,2.888l-0.64,2.921
					l0.505-2.951c0.229-0.971,0.429-1.951,0.684-2.916c0.531-1.925,1.126-3.839,1.903-5.684c0.781-1.84,1.659-3.646,2.736-5.335
					C253.26,430.661,254.477,429.04,256.007,427.752z"/>
			</g>
		</g>
		<g>
			<path style="fill:none;stroke:#D3D1E8;stroke-miterlimit:10;" d="M181.614,418.151L181.614,418.151
				c-6.093,0-11.078-4.985-11.078-11.078v-19.701c0-6.093,4.985-11.078,11.078-11.078l0,0c6.093,0,11.078,4.985,11.078,11.078
				v19.701C192.692,413.166,187.707,418.151,181.614,418.151z"/>
			<path style="fill:none;stroke:#D3D1E8;stroke-miterlimit:10;" d="M187.177,418.151L187.177,418.151
				c-6.093,0-11.078-4.985-11.078-11.078v-19.701c0-6.093,4.985-11.078,11.078-11.078h0c6.093,0,11.078,4.985,11.078,11.078v19.701
				C198.255,413.166,193.27,418.151,187.177,418.151z"/>
			<rect x="161.202" y="394.302" style="fill:#E3E2EF;" width="49.725" height="54.92"/>
			<rect x="200.71" y="394.302" style="fill:#D3D1E8;" width="10.217" height="54.92"/>
		</g>
		<path style="fill:#F6921E;" d="M380.724,149.169h69.674c0,0-1.65-7.929-13.092-7.929c4.416-11.327-20.087-18.69-26.242-7.363
			C402.643,114.62,364.878,126.726,380.724,149.169z"/>
		<path style="fill:#E3E2EF;" d="M42.935,146.944h57.217c0,0-1.355-6.512-10.751-6.512c3.627-9.302-16.495-15.349-21.55-6.046
			C60.935,118.572,29.922,128.514,42.935,146.944z"/>
		<path style="fill:#E3E2EF;" d="M64.692,110.858h54.636c0,0,3.569-15.953-19.458-9.365c-2.714-17.019-23.38-18.666-27.321-7.686
			C59.872,81.131,51.992,107.047,64.692,110.858z"/>
	</g>
</g>
<g id="OBJECTS">
	<g>
		<g>
			<path style="fill:#5986E4;" d="M269.144,435.013h8.305V244.17h-8.305c-6.686,0-12.107,5.42-12.107,12.107v166.63
				C257.038,429.593,262.458,435.013,269.144,435.013z"/>
			<path style="fill:#356FE4;" d="M272.111,435.013h8.306V244.17h-8.306c-6.686,0-12.107,5.42-12.107,12.107v166.63
				C260.005,429.593,265.425,435.013,272.111,435.013z"/>
			<path style="fill:#E3BAA1;" d="M168.921,257.053c0,0,4.215,1.475,4.773,0.397c0.558-1.078-4.898-5.707-9.977-1.778"/>
			<path style="fill:#5986E4;" d="M96.624,204.301c-3.972-3.625-9.722-9.125-6.472-22.625c0.75-3-4.857-10.534,1.946-9.892
				c6.804,0.642,1.43-6.108,9.492-3.608s4.187-4.366,11.812-0.558c7.625,3.808,4.25-3.442,7.875-3.317s9.357,16.5-5.759,15.625
				c-4.991-0.375-5.354,3.75-9.11,0.75c-3.756-3-3.006,4-6.006,2.75c-3-1.25-1.959,9.125-1.959,9.125L96.624,204.301z"/>
			<g>
				<path style="fill:#E3BAA1;" d="M181.3,220.825c2.462-1.625,7.803-6.48,7.359-7.226c-0.444-0.746-4.097,1.115-4.097,1.115
					s3.696-2.919,3.094-3.973c-0.602-1.054-4.789,1.409-4.789,1.409s3.846-3.26,2.988-4.054c-0.858-0.794-5.044,2.18-5.044,2.18
					s3.282-2.967,2.632-3.608s-5.228,1.691-10.225,4.851c0,0,3.529-2.737,2.927-3.791c-0.602-1.054-7.453,1.01-6.915,7.408"/>
				<path style="fill:#E3BAA1;" d="M174.311,224.729c0,0,11.04-4.651,9.928-8.36c-1.112-3.709-5.422-10.647-16.041-1.353
					C157.58,224.31,174.311,224.729,174.311,224.729z"/>
				<g>
					<path style="fill:#F67406;" d="M123.753,216.825c0,0-17.779-7.66-23.913-1.386l21.072,26.24
						c5.323-3.407,10.633-6.829,15.47-10.884L123.753,216.825z"/>
				</g>
				<path style="fill:#E3BAA1;" d="M139.264,233.983l-2.882-3.188c-4.837,4.054-10.148,7.477-15.47,10.884l2.549,3.175
					c3.887,4.84,10.023,9.712,15.932,7.809c16.262-5.237,38.354-30.521,38.354-30.521l-8.451-8.884L139.264,233.983z"/>
				<g>
					<path style="fill:#401A4C;" d="M178.193,212.128c0,0,0.227-0.199,0.574-0.486c0.347-0.287,0.825-0.645,1.293-1.014
						c0.481-0.353,0.95-0.718,1.304-0.991c0.355-0.271,0.583-0.47,0.583-0.47s-0.166,0.255-0.476,0.588
						c-0.307,0.335-0.767,0.727-1.24,1.099c-0.485,0.357-0.982,0.695-1.374,0.919C178.465,211.998,178.193,212.128,178.193,212.128z
						"/>
				</g>
				<g>
					<path style="fill:#401A4C;" d="M180.426,213.97l4.052-3.336c0,0-0.194,0.269-0.526,0.639c-0.329,0.372-0.813,0.825-1.319,1.25
						c-0.517,0.412-1.055,0.798-1.482,1.051C180.727,213.829,180.426,213.97,180.426,213.97z"/>
				</g>
				<g>
					<path style="fill:#401A4C;" d="M182.797,216.002c0,0,0.228-0.212,0.576-0.516c0.348-0.305,0.831-0.685,1.305-1.076
						c0.48-0.381,0.96-0.762,1.321-1.047c0.361-0.285,0.586-0.499,0.586-0.499s-0.161,0.268-0.476,0.615
						c-0.311,0.349-0.776,0.76-1.254,1.153c-0.49,0.378-0.991,0.739-1.387,0.982C183.072,215.857,182.797,216.002,182.797,216.002z"
						/>
				</g>
			</g>
			<g>
				<path style="fill:#F67406;" d="M276.328,194.147v146.747c0,3.33-2.699,6.029-6.029,6.029h-91.166
					c-3.33,0-6.029-2.699-6.029-6.029V194.147c0-3.33,2.699-6.029,6.029-6.029h91.166
					C273.628,188.118,276.328,190.817,276.328,194.147z"/>
				<path style="fill:#FFAA24;" d="M218.577,322.661v-1.139c0-1.456,1.191-2.647,2.647-2.647v-10.183h-6.837v13.969H218.577z"/>
				<rect x="214.386" y="322.661" style="fill:#FFAA24;" width="4.191" height="13.969"/>
				<path style="fill:#FFAA24;" d="M214.386,308.692h-0.074c-2.03,0-3.676,1.646-3.676,3.676v10.293h3.75V308.692z"/>
				<rect x="223.871" y="322.661" style="fill:#FFAA24;" width="4.191" height="13.969"/>
				<path style="fill:#FFAA24;" d="M221.224,318.875c1.456,0,2.647,1.191,2.647,2.647v1.139h4.191v-13.969h-6.837V318.875z"/>
				<path style="fill:#FFAA24;" d="M231.811,322.661v-10.293c0-2.03-1.646-3.676-3.676-3.676h-0.074v13.969H231.811z"/>
				<path style="fill:#FFAA24;" d="M210.637,322.661v10.293c0,2.03,1.646,3.676,3.676,3.676h0.074v-13.969H210.637z"/>
				<path style="fill:#FFAA24;" d="M228.061,336.63h0.074c2.03,0,3.676-1.646,3.676-3.676v-10.293h-3.749V336.63z"/>
				<path style="fill:#FFAA24;" d="M218.577,321.522v15.109h5.294v-15.109c0-1.456-1.191-2.647-2.647-2.647
					C219.768,318.875,218.577,320.066,218.577,321.522z"/>
				<g>
					<g>
						<path style="fill:none;stroke:#401A4C;stroke-width:0.2835;stroke-miterlimit:10;" d="M214.386,308.692v13.969h4.191v-1.139
							c0-1.456,1.191-2.647,2.647-2.647v-10.183"/>
						<polyline style="fill:none;stroke:#401A4C;stroke-width:0.2835;stroke-miterlimit:10;" points="218.577,336.63 
							218.577,322.661 214.386,322.661 214.386,336.63 						"/>
						<polyline style="fill:none;stroke:#401A4C;stroke-width:0.2835;stroke-miterlimit:10;" points="210.637,322.661 
							214.386,322.661 214.386,308.692 214.313,308.692 						"/>
						<polyline style="fill:none;stroke:#401A4C;stroke-width:0.2835;stroke-miterlimit:10;" points="228.061,336.63 
							228.061,322.661 223.871,322.661 223.871,336.63 						"/>
						<path style="fill:none;stroke:#401A4C;stroke-width:0.2835;stroke-miterlimit:10;" d="M221.224,308.692v10.183
							c1.456,0,2.647,1.191,2.647,2.647v1.139h4.191v-13.969"/>
						<polyline style="fill:none;stroke:#401A4C;stroke-width:0.2835;stroke-miterlimit:10;" points="228.135,308.692 
							228.061,308.692 228.061,322.661 231.811,322.661 						"/>
						<polyline style="fill:none;stroke:#401A4C;stroke-width:0.2835;stroke-miterlimit:10;" points="214.313,336.63 
							214.386,336.63 214.386,322.661 210.637,322.661 						"/>
						<polyline style="fill:none;stroke:#401A4C;stroke-width:0.2835;stroke-miterlimit:10;" points="231.811,322.661 
							228.061,322.661 228.061,336.63 228.135,336.63 						"/>
					</g>
					<path style="fill:none;stroke:#401A4C;stroke-width:0.2835;stroke-miterlimit:10;" d="M223.871,336.63v-15.109
						c0-1.456-1.191-2.647-2.647-2.647c-1.456,0-2.647,1.191-2.647,2.647v15.109"/>
				</g>
				
					<rect x="227.216" y="315.162" transform="matrix(6.123234e-17 -1 1 6.123234e-17 -77.0654 563.8461)" style="fill:#F1F1F1;" width="32.349" height="10.587"/>
				
					<rect x="227.216" y="279.872" transform="matrix(6.123234e-17 -1 1 6.123234e-17 -41.7754 528.5561)" style="fill:#F1F1F1;" width="32.349" height="10.587"/>
				
					<rect x="227.216" y="244.582" transform="matrix(6.123234e-17 -1 1 6.123234e-17 -6.4854 493.2661)" style="fill:#F1F1F1;" width="32.349" height="10.587"/>
				
					<rect x="227.216" y="209.292" transform="matrix(6.123234e-17 -1 1 6.123234e-17 28.8045 457.9761)" style="fill:#F1F1F1;" width="32.349" height="10.587"/>
				
					<rect x="194.152" y="323.929" transform="matrix(6.123234e-17 -1 1 6.123234e-17 -134.8339 529.64)" style="fill:#F1F1F1;" width="6.502" height="16.616"/>
				
					<rect x="194.763" y="314.578" transform="matrix(6.123234e-17 -1 1 6.123234e-17 -125.4831 520.2892)" style="fill:#F1F1F1;" width="5.28" height="16.616"/>
				
					<rect x="194.302" y="305.377" transform="matrix(6.123234e-17 -1 1 6.123234e-17 -116.2821 511.0882)" style="fill:#F1F1F1;" width="6.203" height="16.616"/>
				
					<rect x="194.238" y="295.651" transform="matrix(6.123234e-17 -1 1 6.123234e-17 -106.5561 501.3622)" style="fill:#F1F1F1;" width="6.33" height="16.616"/>
				
					<rect x="194.164" y="285.787" transform="matrix(6.123234e-17 -1 1 6.123234e-17 -96.692 491.4981)" style="fill:#F1F1F1;" width="6.479" height="16.616"/>
				
					<rect x="194.729" y="276.414" transform="matrix(6.123234e-17 -1 1 6.123234e-17 -87.3186 482.1247)" style="fill:#F1F1F1;" width="5.348" height="16.616"/>
				
					<rect x="194.317" y="267.194" transform="matrix(6.123234e-17 -1 1 6.123234e-17 -78.0986 472.9047)" style="fill:#F1F1F1;" width="6.172" height="16.616"/>
				
					<rect x="194.064" y="257.309" transform="matrix(6.123234e-17 -1 1 6.123234e-17 -68.2133 463.0194)" style="fill:#F1F1F1;" width="6.679" height="16.616"/>
				
					<rect x="193.226" y="246.333" transform="matrix(6.123234e-17 -1 1 6.123234e-17 -57.2375 452.0436)" style="fill:#F1F1F1;" width="8.353" height="16.616"/>
				
					<rect x="251.656" y="324.867" transform="matrix(6.123234e-17 -1 1 6.123234e-17 -65.2702 588.2868)" style="fill:#401A4C;" width="19.704" height="3.823"/>
				
					<rect x="251.656" y="296.929" transform="matrix(6.123234e-17 -1 1 6.123234e-17 -37.3323 560.3489)" style="fill:#401A4C;" width="19.704" height="3.823"/>
				
					<rect x="236.658" y="221.35" transform="matrix(6.123234e-17 -1 1 6.123234e-17 38.247 484.7695)" style="fill:#401A4C;" width="49.7" height="3.823"/>
				<circle style="fill:#F67406;stroke:#F1F1F1;stroke-width:0.5669;stroke-miterlimit:10;" cx="197.403" cy="216.718" r="16.983"/>
				
					<ellipse style="fill:#F67406;stroke:#F1F1F1;stroke-width:0.5669;stroke-miterlimit:10;" cx="197.403" cy="216.718" rx="16.983" ry="13.307"/>
				<path style="fill:#F67406;stroke:#F1F1F1;stroke-width:0.5669;stroke-miterlimit:10;" d="M197.403,211.939
					c9.38,0,16.983,2.14,16.983,4.779s-7.604,4.779-16.983,4.779c-9.38,0-16.983-2.14-16.983-4.779S188.023,211.939,197.403,211.939
					z"/>
				
					<line style="fill:#F67406;stroke:#F1F1F1;stroke-width:0.5669;stroke-miterlimit:10;" x1="197.403" y1="233.701" x2="197.403" y2="199.811"/>
				
					<line style="fill:#F67406;stroke:#F1F1F1;stroke-width:0.5669;stroke-miterlimit:10;" x1="189.095" y1="231.542" x2="189.095" y2="201.97"/>
				
					<line style="fill:#F67406;stroke:#F1F1F1;stroke-width:0.5669;stroke-miterlimit:10;" x1="205.711" y1="231.542" x2="205.711" y2="201.97"/>
			</g>
			<g>
				<path style="fill:#76768C;" d="M64.632,437.664l-1.082,8.658h32.381c0,0-2.251-3.723-11.169-5.368
					c-0.346-3.03-0.346-3.03-0.346-3.03L64.632,437.664z"/>
				<rect x="63.377" y="446.322" style="fill:#B4B4D5;" width="32.555" height="2.771"/>
				<g>
					<path style="fill:#401A4C;" d="M64.028,442.226c0,0,0.363,0.013,0.891,0.154c0.522,0.147,1.21,0.446,1.767,0.945
						c0.264,0.26,0.513,0.544,0.671,0.856c0.096,0.147,0.154,0.306,0.2,0.459c0.057,0.149,0.096,0.293,0.113,0.431
						c0.063,0.27,0.048,0.5,0.042,0.658c-0.004,0.157-0.006,0.247-0.006,0.247c-0.018,0.004-0.02-0.367-0.191-0.867
						c-0.064-0.253-0.2-0.532-0.37-0.804c-0.155-0.284-0.397-0.538-0.649-0.771c-0.503-0.477-1.146-0.79-1.629-1.004
						C64.378,442.32,64.028,442.226,64.028,442.226z"/>
				</g>
				<g>
					<path style="fill:#401A4C;" d="M81.732,437.318c0.08,1.847,0.126,3.694,0.131,5.541l-0.134-0.131
						c1.419-0.031,2.831,0.076,4.234,0.261c1.397,0.207,2.793,0.528,4.081,1.112c-1.333-0.465-2.721-0.705-4.112-0.871
						c-1.392-0.166-2.799-0.233-4.197-0.24c-0.072,0.002-0.132-0.059-0.134-0.131C81.606,441.012,81.652,439.165,81.732,437.318z"/>
				</g>
				<g>
					<path style="fill:#401A4C;" d="M91.002,442.585c0,0-0.13,0.202-0.302,0.51c-0.174,0.306-0.406,0.711-0.592,1.135
						c-0.208,0.415-0.366,0.852-0.483,1.183c-0.122,0.331-0.188,0.562-0.188,0.562s0.001-0.06,0.003-0.164
						c0.003-0.105-0.003-0.258,0.03-0.435c0.026-0.178,0.063-0.388,0.131-0.603c0.068-0.216,0.151-0.443,0.25-0.663
						c0.213-0.434,0.478-0.839,0.719-1.108C90.81,442.732,91.002,442.585,91.002,442.585z"/>
				</g>
			</g>
			<g>
				<path style="fill:#76768C;" d="M118.659,437.43l-1.082,8.658h32.381c0,0-2.251-3.723-11.169-5.368
					c-0.346-3.03-0.346-3.03-0.346-3.03L118.659,437.43z"/>
				<rect x="117.403" y="446.088" style="fill:#B4B4D5;" width="32.554" height="2.771"/>
				<g>
					<path style="fill:#401A4C;" d="M118.055,441.991c0,0,0.363,0.013,0.891,0.154c0.522,0.147,1.21,0.446,1.767,0.945
						c0.264,0.26,0.513,0.544,0.671,0.856c0.096,0.147,0.154,0.306,0.2,0.459c0.057,0.149,0.096,0.293,0.113,0.431
						c0.063,0.27,0.048,0.5,0.042,0.658c-0.004,0.157-0.006,0.247-0.006,0.247c-0.018,0.004-0.02-0.367-0.191-0.867
						c-0.064-0.253-0.2-0.532-0.37-0.804c-0.155-0.284-0.397-0.538-0.649-0.771c-0.503-0.477-1.146-0.79-1.629-1.004
						C118.404,442.086,118.055,441.991,118.055,441.991z"/>
				</g>
				<g>
					<path style="fill:#401A4C;" d="M135.759,437.083c0.08,1.847,0.126,3.694,0.131,5.541l-0.134-0.131
						c1.419-0.031,2.831,0.076,4.234,0.261c1.397,0.207,2.793,0.527,4.081,1.112c-1.333-0.465-2.721-0.705-4.112-0.871
						c-1.392-0.166-2.799-0.233-4.197-0.24c-0.072,0.002-0.132-0.059-0.134-0.131C135.632,440.777,135.678,438.93,135.759,437.083z"
						/>
				</g>
				<g>
					<path style="fill:#401A4C;" d="M145.029,442.351c0,0-0.13,0.202-0.302,0.51c-0.174,0.306-0.406,0.711-0.592,1.136
						c-0.208,0.415-0.366,0.852-0.483,1.183c-0.122,0.331-0.188,0.562-0.188,0.562s0.001-0.06,0.003-0.164
						c0.003-0.105-0.003-0.258,0.03-0.435c0.026-0.178,0.063-0.388,0.131-0.603c0.068-0.216,0.151-0.443,0.25-0.663
						c0.213-0.434,0.478-0.839,0.719-1.108C144.837,442.497,145.029,442.351,145.029,442.351z"/>
				</g>
			</g>
			<path style="fill:#356FE4;" d="M80.116,283.55L61.299,440.089h29.784l13.391-121.214l11.447,46.126l-0.249,73.972l26.667-0.505
				l-0.755-74.146c-0.024-2.311-0.305-4.612-0.839-6.86l-17.569-73.913H80.116z"/>
			<g>
				<path style="fill:#401A4C;" d="M61.992,428.314c0,0,1.818-0.03,4.546-0.076c2.727-0.018,6.364-0.042,10-0.065
					c3.636,0.024,7.273,0.047,10,0.065c2.727,0.046,4.546,0.076,4.546,0.076s-1.818,0.03-4.546,0.076
					c-2.727,0.018-6.364,0.042-10,0.065c-3.636-0.024-7.273-0.047-10-0.065C63.81,428.344,61.992,428.314,61.992,428.314z"/>
			</g>
			<g>
				<path style="fill:#401A4C;" d="M116.018,427.733c0,0,1.645-0.03,4.113-0.076c2.468-0.018,5.758-0.042,9.048-0.065
					c3.29,0.024,6.58,0.047,9.048,0.065c2.468,0.046,4.113,0.076,4.113,0.076s-1.645,0.031-4.113,0.076
					c-2.468,0.018-5.758,0.042-9.048,0.065c-3.29-0.024-6.58-0.048-9.048-0.065C117.663,427.763,116.018,427.733,116.018,427.733z"
					/>
			</g>
			<g>
				<path style="fill:#401A4C;" d="M85.127,289.74c0,0-4.285,34.652-8.57,69.304c-4.425,34.634-8.851,69.269-8.851,69.269
					s4.285-34.652,8.57-69.304C80.701,324.375,85.127,289.74,85.127,289.74z"/>
			</g>
			<g>
				<path style="fill:#401A4C;" d="M85.127,303.637c0,0,1.351,0.214,3.36-0.002c0.501-0.059,1.042-0.125,1.601-0.266
					c0.57-0.094,1.134-0.328,1.734-0.504c0.285-0.129,0.575-0.259,0.868-0.392l0.44-0.204l0.412-0.265
					c0.273-0.181,0.56-0.347,0.827-0.542l0.743-0.664c0.265-0.204,0.481-0.457,0.682-0.721c0.209-0.257,0.417-0.514,0.624-0.768
					c0.335-0.561,0.654-1.127,0.939-1.682c0.216-0.589,0.424-1.159,0.622-1.699c0.145-0.556,0.235-1.096,0.344-1.588
					c0.052-0.247,0.101-0.483,0.148-0.709c0.02-0.229,0.039-0.446,0.058-0.65c0.034-0.409,0.064-0.766,0.089-1.06
					c0.049-0.589,0.078-0.926,0.078-0.926s-0.011,0.337-0.03,0.928c-0.01,0.296-0.021,0.655-0.035,1.068
					c-0.008,0.206-0.016,0.426-0.024,0.658c-0.04,0.228-0.082,0.468-0.126,0.719c-0.095,0.499-0.171,1.048-0.302,1.616
					c-0.189,0.554-0.389,1.138-0.596,1.742c-0.286,0.57-0.607,1.153-0.946,1.732c-0.21,0.264-0.422,0.529-0.634,0.796
					c-0.205,0.274-0.425,0.536-0.696,0.749l-0.773,0.676c-0.276,0.199-0.573,0.367-0.855,0.55l-0.426,0.267l-0.453,0.206
					c-0.302,0.132-0.596,0.272-0.893,0.392c-0.613,0.181-1.196,0.395-1.778,0.476c-0.572,0.127-1.122,0.178-1.629,0.223
					c-1.016,0.073-1.865,0.028-2.453-0.033C85.458,303.707,85.127,303.637,85.127,303.637z"/>
			</g>
			<g>
				<path style="fill:#401A4C;" d="M106.667,291.862c0.11,6.118,0.09,12.237,0.133,18.355l-0.133-0.133l3.463-0.001l-0.134,0.134
					c0.043-6.118,0.023-12.237,0.134-18.355c0.111,6.118,0.091,12.237,0.134,18.355c0.001,0.074-0.059,0.133-0.132,0.134l-0.002,0
					l-3.463-0.001c-0.073,0.001-0.133-0.058-0.133-0.131v-0.002C106.577,304.098,106.557,297.98,106.667,291.862z"/>
			</g>
			<g>
				<path style="fill:#401A4C;" d="M117.43,292.728c0,0-0.043,0.265-0.055,0.733c-0.017,0.233,0,0.517,0.002,0.841
					c0.034,0.323,0.035,0.69,0.104,1.083c0.043,0.397,0.133,0.818,0.246,1.259c0.112,0.44,0.277,0.893,0.461,1.349
					c0.207,0.449,0.419,0.914,0.726,1.335c0.254,0.455,0.64,0.822,0.98,1.222c0.371,0.368,0.783,0.703,1.19,1.021
					c0.449,0.26,0.866,0.562,1.314,0.773c0.456,0.197,0.896,0.388,1.314,0.569c0.439,0.125,0.854,0.244,1.238,0.353
					c0.381,0.123,0.738,0.202,1.061,0.245c0.321,0.055,0.6,0.103,0.831,0.143c0.462,0.079,0.726,0.125,0.726,0.125
					s-0.266-0.028-0.732-0.078c-0.233-0.025-0.517-0.055-0.842-0.089c-0.163-0.017-0.336-0.036-0.519-0.055
					c-0.178-0.043-0.366-0.088-0.562-0.135c-0.392-0.097-0.817-0.202-1.267-0.313c-0.431-0.173-0.885-0.355-1.355-0.544
					c-0.46-0.211-0.894-0.514-1.358-0.777c-0.422-0.322-0.853-0.663-1.24-1.04c-0.349-0.418-0.74-0.802-0.998-1.275
					c-0.311-0.439-0.525-0.92-0.732-1.385c-0.189-0.47-0.336-0.943-0.435-1.395c-0.099-0.455-0.174-0.886-0.204-1.29
					c-0.059-0.401-0.035-0.774-0.048-1.1c0.02-0.328,0.021-0.613,0.053-0.846C117.37,292.989,117.43,292.728,117.43,292.728z"/>
			</g>
			<g>
				<path style="fill:#401A4C;" d="M104.474,318.875c0,0,0.625-0.246,1.562-0.616c0.94-0.361,2.205-0.807,3.472-1.249
					c1.273-0.424,2.547-0.844,3.512-1.132c0.968-0.279,1.613-0.466,1.613-0.466s-0.625,0.247-1.562,0.617
					c-0.94,0.361-2.205,0.807-3.472,1.249c-1.273,0.424-2.547,0.844-3.512,1.132C105.119,318.689,104.474,318.875,104.474,318.875z"
					/>
			</g>
			<rect x="96.624" y="190.042" style="fill:#E3BAA1;" width="14.546" height="26.321"/>
			<polygon style="fill:#401A4C;" points="108.399,205.973 111.169,205.973 111.169,208.202 			"/>
			<path style="fill:#E3BAA1;" d="M118.789,197.49c0,4.764-3.848,8.483-8.595,8.483h-4.975c-4.747,0-8.595-3.719-8.595-8.483
				v-16.812c0-4.764,3.848-8.645,8.595-8.645h4.975c4.747,0,8.595,3.881,8.595,8.645V197.49z"/>
			<ellipse style="fill:#E3BAA1;" cx="94.646" cy="193.697" rx="3.797" ry="3.678"/>
			<path style="fill:#401A4C;" d="M107.777,188.802c0,0.672-0.296,1.217-0.661,1.217c-0.365,0-0.661-0.545-0.661-1.217
				s0.296-1.217,0.661-1.217C107.481,187.585,107.777,188.13,107.777,188.802z"/>
			<path style="fill:#401A4C;" d="M118.468,188.802c0,0.672-0.296,1.217-0.661,1.217c-0.365,0-0.661-0.545-0.661-1.217
				s0.296-1.217,0.661-1.217C118.173,187.585,118.468,188.13,118.468,188.802z"/>
			<g>
				<path style="fill:#401A4C;" d="M113.983,187.954c0,0-0.005,0.621,0.028,1.547c0.011,0.463,0.047,1.002,0.106,1.573
					c0.031,0.285,0.073,0.578,0.143,0.865c0.071,0.276,0.177,0.588,0.359,0.723c0.078,0.069,0.175,0.04,0.371,0.048
					c0.188,0.012,0.359,0.078,0.501,0.19c0.282,0.228,0.394,0.569,0.423,0.873c0.055,0.624-0.189,1.18-0.493,1.549
					c-0.308,0.379-0.691,0.547-0.948,0.628c-0.264,0.077-0.419,0.086-0.419,0.086c-0.03-0.016,0.699-0.062,1.242-0.81
					c0.265-0.356,0.436-0.887,0.375-1.426c-0.029-0.265-0.138-0.537-0.341-0.692c-0.098-0.077-0.228-0.12-0.348-0.126
					c-0.059-0.01-0.139,0.009-0.229,0.005c-0.104,0.007-0.214-0.037-0.295-0.093c-0.313-0.257-0.373-0.595-0.457-0.894
					c-0.068-0.307-0.105-0.61-0.131-0.903c-0.052-0.585-0.033-1.131-0.021-1.597C113.894,188.569,113.983,187.954,113.983,187.954z"
					/>
			</g>
			<g>
				<path style="fill:#401A4C;" d="M105.195,187.387c0,0,0.08-0.155,0.269-0.334c0.187-0.181,0.5-0.362,0.855-0.428
					c0.177-0.028,0.358-0.02,0.523,0.003c0.165,0.026,0.31,0.086,0.426,0.144c0.232,0.121,0.346,0.256,0.351,0.246
					c0,0-0.165-0.054-0.404-0.096c-0.236-0.047-0.548-0.083-0.848-0.018C105.765,186.998,105.195,187.387,105.195,187.387z"/>
			</g>
			<g>
				<path style="fill:#401A4C;" d="M116.278,187.387c0,0,0.08-0.155,0.269-0.334c0.187-0.181,0.501-0.362,0.856-0.428
					c0.177-0.028,0.358-0.02,0.523,0.003c0.165,0.026,0.31,0.086,0.426,0.144c0.232,0.121,0.346,0.256,0.351,0.246
					c0,0-0.165-0.054-0.404-0.096c-0.236-0.047-0.548-0.083-0.848-0.018C116.847,186.998,116.278,187.387,116.278,187.387z"/>
			</g>
			<g>
				<path style="fill:#401A4C;" d="M109.456,197.374c0,0,0.165,0.198,0.449,0.44c0.283,0.237,0.68,0.542,1.142,0.66
					c0.223,0.082,0.463,0.102,0.685,0.098c0.222-0.014,0.437-0.03,0.613-0.088c0.36-0.085,0.599-0.19,0.599-0.19
					s-0.052,0.037-0.143,0.101c-0.094,0.06-0.218,0.174-0.403,0.24c-0.091,0.036-0.185,0.09-0.298,0.112
					c-0.111,0.023-0.226,0.073-0.352,0.071c-0.249,0.017-0.524,0.009-0.782-0.072c-0.522-0.158-0.935-0.519-1.176-0.822
					C109.55,197.616,109.456,197.374,109.456,197.374z"/>
			</g>
			<g>
				<path style="fill:#401A4C;" d="M94.315,196.036c-0.132-0.098-0.248-0.206-0.351-0.345c-0.091-0.14-0.163-0.294-0.204-0.461
					c-0.07-0.335-0.015-0.69,0.124-1.003c0.275-0.634,0.936-1.08,1.637-1.114l-0.133,0.167c-0.062-0.304-0.16-0.6-0.325-0.86
					c-0.161-0.263-0.398-0.467-0.66-0.629c-0.266-0.157-0.573-0.253-0.888-0.274c-0.314-0.028-0.644,0.013-0.932,0.172
					c0.536-0.398,1.313-0.396,1.923-0.091c0.638,0.299,1.027,0.966,1.159,1.629c0.015,0.076-0.034,0.15-0.11,0.165l-0.024,0.003
					c-0.299,0.01-0.595,0.1-0.848,0.263c-0.255,0.162-0.458,0.397-0.606,0.663c-0.145,0.267-0.218,0.579-0.183,0.885
					c0.015,0.154,0.06,0.304,0.127,0.448C94.097,195.793,94.199,195.922,94.315,196.036z"/>
			</g>
			<g>
				<path style="fill:#F67406;" d="M94.756,211.722c0.608-0.101,1.231-0.193,1.868-0.271c9.213,3.725,11.862,4.45,14.719,0.701
					c8.569,1.694,12.409,4.673,12.409,4.673l3.814,76.84l-51.953-4.805l5.309-62.131C81.569,219.156,87.258,212.973,94.756,211.722z
					"/>
			</g>
			<g>
				<path style="fill:#401A4C;" d="M95.527,211.603c0.766,0.535,1.584,0.988,2.411,1.414c0.826,0.429,1.677,0.809,2.545,1.14
					c0.864,0.34,1.746,0.637,2.646,0.867c0.447,0.127,0.902,0.216,1.355,0.316c0.452,0.104,0.913,0.16,1.37,0.243l0.011,0.002
					c1.293,0.289,2.687,0.273,3.891-0.304c1.198-0.573,2.137-1.656,2.63-2.911c-0.42,1.278-1.307,2.452-2.546,3.08
					c-1.233,0.653-2.702,0.68-4.032,0.393l0.01,0.002c-0.463-0.078-0.931-0.131-1.39-0.231c-0.461-0.092-0.919-0.197-1.37-0.328
					c-0.908-0.242-1.796-0.552-2.665-0.905C98.662,213.662,97.004,212.751,95.527,211.603z"/>
			</g>
			<g>
				<path style="fill:#401A4C;" d="M124.33,228.138c0,0,0.087,1.138,0.218,2.846c0.122,1.708,0.247,3.987,0.368,6.267
					c0.102,2.28,0.199,4.561,0.244,6.273c0.036,1.712,0.059,2.854,0.059,2.854s-0.088-1.138-0.219-2.846
					c-0.122-1.708-0.247-3.987-0.367-6.267c-0.101-2.28-0.199-4.561-0.244-6.273C124.354,229.279,124.33,228.138,124.33,228.138z"/>
			</g>
			<path style="fill:#E39FA1;" d="M107.777,194.771c0,0.699-0.869,1.265-1.94,1.265c-1.072,0-1.94-0.566-1.94-1.265
				c0-0.699,0.869-1.265,1.94-1.265C106.909,193.506,107.777,194.072,107.777,194.771z"/>
			<g>
				<defs>
					<path id="SVGID_1_" d="M118.789,197.49c0,4.764-3.848,8.483-8.595,8.483h-4.975c-4.747,0-8.595-3.719-8.595-8.483v-16.812
						c0-4.764,3.848-8.645,8.595-8.645h4.975c4.747,0,8.595,3.881,8.595,8.645V197.49z"/>
				</defs>
				<clipPath id="SVGID_00000085945050587700242900000012945281453454588587_">
					<use xlink:href="#SVGID_1_"  style="overflow:visible;"/>
				</clipPath>
				<path style="clip-path:url(#SVGID_00000085945050587700242900000012945281453454588587_);fill:#E39FA1;" d="M120.409,194.771
					c0,0.699-0.869,1.265-1.94,1.265c-1.072,0-1.94-0.566-1.94-1.265c0-0.699,0.869-1.265,1.94-1.265
					C119.54,193.506,120.409,194.072,120.409,194.771z"/>
			</g>
			<g>
				<path style="fill:#E3BAA1;" d="M163.717,255.671"/>
				<path style="fill:#E3BAA1;" d="M165.501,268.893c2.702,1.183,9.681,3.028,10.065,2.25s-3.162-2.833-3.162-2.833
					s4.458,1.516,5.016,0.438c0.558-1.078-3.785-3.254-3.785-3.254s4.827,1.456,5.027,0.305c0.2-1.152-4.571-3.049-4.571-3.049
					s4.275,1.143,4.459,0.249c0.184-0.894-4.261-3.469-9.629-5.946"/>
				<path style="fill:#E3BAA1;" d="M158.426,265.147c0,0,9.904,6.74,12.413,3.791c2.509-2.949,5.99-10.338-7.582-14.2
					C149.684,250.876,158.426,265.147,158.426,265.147z"/>
				<g>
					<path style="fill:#F67406;" d="M109.804,225.307c-3.967-6.215-17.893-16.548-23.772-0.579l13.451,21.316
						c5.564-3.409,11.372-6.291,16.764-9.742C116.248,236.302,111.519,227.993,109.804,225.307z"/>
				</g>
				<g>
					<path style="fill:#401A4C;" d="M116.248,236.302c0,0-0.43-0.671-1.075-1.677c-0.637-1.011-1.454-2.378-2.268-3.747
						c-0.797-1.379-1.591-2.761-2.162-3.811c-0.563-1.055-0.938-1.759-0.938-1.759s0.43,0.671,1.075,1.677
						c0.637,1.011,1.454,2.378,2.268,3.747c0.797,1.38,1.591,2.761,2.162,3.812C115.872,235.599,116.248,236.302,116.248,236.302z"
						/>
				</g>
				<g>
					<path style="fill:#401A4C;" d="M86.033,224.728c0,0,0.867,1.316,2.166,3.29c1.276,1.989,2.978,4.641,4.679,7.292
						c1.661,2.677,3.323,5.354,4.569,7.362c1.222,2.023,2.037,3.371,2.037,3.371s-0.867-1.316-2.166-3.29
						c-1.276-1.989-2.977-4.641-4.679-7.292c-1.661-2.677-3.322-5.354-4.568-7.362C86.847,226.077,86.033,224.728,86.033,224.728z"
						/>
				</g>
				<path style="fill:#E3BAA1;" d="M120.077,242.836l-3.829-6.534c-5.393,3.451-11.2,6.332-16.764,9.742l3.66,5.8
					c3.313,5.25,8.789,8.755,14.944,9.566l45.63,6.118l1.685-12.371L120.077,242.836z"/>
				<g>
					<path style="fill:#401A4C;" d="M171.113,261.558c0,0,0.291,0.083,0.72,0.218c0.429,0.135,0.989,0.342,1.554,0.535
						c0.558,0.212,1.119,0.407,1.541,0.556c0.421,0.151,0.711,0.234,0.711,0.234s-0.303-0.001-0.752-0.08
						c-0.448-0.076-1.027-0.249-1.596-0.444c-0.563-0.213-1.117-0.447-1.518-0.654C171.371,261.716,171.113,261.558,171.113,261.558
						z"/>
				</g>
				<g>
					<path style="fill:#401A4C;" d="M170.78,264.434l5.002,1.588c0,0-0.331-0.016-0.822-0.094c-0.491-0.074-1.134-0.234-1.766-0.427
						c-0.627-0.21-1.243-0.452-1.687-0.672C171.062,264.61,170.78,264.434,170.78,264.434z"/>
				</g>
				<g>
					<path style="fill:#401A4C;" d="M170.363,267.528c0,0,0.301,0.076,0.746,0.203c0.445,0.127,1.027,0.325,1.612,0.51
						c0.581,0.196,1.162,0.392,1.597,0.539c0.435,0.148,0.737,0.22,0.737,0.22s-0.313,0.011-0.775-0.065
						c-0.462-0.071-1.06-0.238-1.65-0.426c-0.583-0.205-1.159-0.431-1.578-0.63C170.634,267.68,170.363,267.528,170.363,267.528z"/>
				</g>
			</g>
			<path style="fill:#5986E4;" d="M96.34,190.042v4.728h1.819c0,0-0.291-6.845,1.397-8.095c1.687-1.25-0.438-4.25,0.687-6.375
				c1.125-2.125,4.244,3.875,7.872,0.625c3.628-3.25,8.715,4.084,15.172-3.333c6.456-7.417-18.793-8.417-23.731-6.167
				C94.618,173.676,91.313,187.909,96.34,190.042z"/>
			<path style="fill:#E3BAA1;" d="M169.723,211.215c2.736-4.347,5.702-3.882,5.856-2.919s-1.653,3.874-1.653,3.874
				s2.033,3.505-1.368,6.135"/>
			<g>
				<path style="fill:#401A4C;" d="M97.962,243.633c0,0,1.041-0.636,2.602-1.591c1.566-0.947,3.672-2.176,5.781-3.402
					c2.118-1.209,4.238-2.415,5.842-3.295c1.609-0.872,2.682-1.453,2.682-1.453s-1.041,0.636-2.602,1.591
					c-1.566,0.947-3.672,2.176-5.781,3.402c-2.118,1.209-4.238,2.415-5.843,3.295C99.035,243.052,97.962,243.633,97.962,243.633z"/>
			</g>
			<g>
				<path style="fill:#401A4C;" d="M124.936,235.735c0,0,0.554-0.486,1.385-1.216c0.837-0.722,1.976-1.656,3.117-2.587
					c1.154-0.916,2.31-1.828,3.195-2.49c0.891-0.655,1.485-1.092,1.485-1.092s-0.554,0.486-1.385,1.216
					c-0.836,0.723-1.976,1.656-3.117,2.587c-1.154,0.915-2.31,1.828-3.195,2.49C125.53,235.299,124.936,235.735,124.936,235.735z"/>
			</g>
			<g>
				<path style="fill:#401A4C;" d="M125.219,244.234c0,0,1.334,0.33,3.335,0.824c1.999,0.503,4.654,1.211,7.308,1.922
					c2.649,0.73,5.297,1.464,7.275,2.042c1.976,0.587,3.293,0.978,3.293,0.978s-1.334-0.329-3.335-0.824
					c-1.999-0.503-4.654-1.211-7.308-1.922c-2.649-0.73-5.297-1.464-7.275-2.042C126.537,244.625,125.219,244.234,125.219,244.234z"
					/>
			</g>
			<g>
				<path style="fill:#401A4C;" d="M136.382,236.302c0,0,0.331-0.299,0.842-0.729c0.511-0.43,1.214-0.974,1.92-1.514
					c0.717-0.525,1.437-1.046,1.994-1.415c0.557-0.369,0.937-0.602,0.937-0.602s-0.331,0.299-0.842,0.729
					c-0.51,0.43-1.214,0.974-1.92,1.514c-0.718,0.524-1.437,1.046-1.994,1.414C136.762,236.069,136.382,236.302,136.382,236.302z"/>
			</g>
			<g>
				<path style="fill:#5986E4;" d="M117.364,169.597c0,0-2.1-1.606-4.201-3.213c-0.522-0.411-1.048-0.79-1.602-1.063
					c-0.547-0.281-1.088-0.487-1.558-0.637c-0.944-0.3-1.603-0.384-1.603-0.384s0.662,0.057,1.622,0.32
					c0.479,0.132,1.032,0.318,1.598,0.58c0.572,0.253,1.138,0.627,1.67,1.013c2.164,1.521,4.327,3.042,4.327,3.042
					c0.096,0.068,0.119,0.2,0.052,0.296c-0.068,0.096-0.2,0.119-0.296,0.052C117.37,169.601,117.366,169.598,117.364,169.597z"/>
			</g>
			<g>
				<path style="fill:#5986E4;" d="M123.696,176.857c0,0,0.559-0.36,1.228-1.123c0.672-0.751,1.395-1.93,1.726-3.252
					c0.336-1.323,0.351-2.708,0.316-3.735c-0.04-1.03-0.147-1.711-0.147-1.711s0.133,0.676,0.215,1.707
					c0.075,1.026,0.118,2.425-0.173,3.789c-0.288,1.371-0.99,2.625-1.662,3.434c-0.665,0.82-1.26,1.24-1.26,1.24l-0.005,0.004
					c-0.096,0.068-0.229,0.045-0.296-0.051c-0.068-0.096-0.045-0.229,0.051-0.296C123.691,176.861,123.694,176.859,123.696,176.857z
					"/>
			</g>
			<g>
				<path style="fill:#5986E4;" d="M108.673,170.495c0,0-2.316-1.276-4.632-2.553c-0.577-0.329-1.154-0.626-1.742-0.814
					c-0.583-0.197-1.148-0.32-1.636-0.399c-0.978-0.157-1.643-0.142-1.643-0.142s0.663-0.042,1.652,0.076
					c0.493,0.06,1.067,0.161,1.667,0.336c0.603,0.165,1.219,0.451,1.802,0.754c2.366,1.183,4.731,2.365,4.731,2.365
					c0.105,0.053,0.148,0.18,0.095,0.285c-0.053,0.105-0.18,0.148-0.285,0.095C108.68,170.499,108.675,170.496,108.673,170.495z"/>
			</g>
			<g>
				<path style="fill:#356FE4;" d="M393.893,310.55h-14.917v-81.316h14.917c21.246,0,32.534,18.203,32.534,40.658v0
					C426.427,292.347,415.139,310.55,393.893,310.55z"/>
				<path style="fill:#356FE4;" d="M300.743,448.289H387.6c10.847,0,19.64-8.793,19.64-19.64V248.874
					c0-10.847-8.793-19.64-19.64-19.64h-86.857c-10.847,0-19.64,8.793-19.64,19.64V428.65
					C281.103,439.496,289.896,448.289,300.743,448.289z"/>
				<g>
					<path style="fill:#401A4C;" d="M407.239,307.232c0,0-0.03-5.413-0.076-13.531c-0.018-8.119-0.042-18.944-0.065-29.769
						c0.006-2.706,0.011-5.413,0.017-8.076c0.003-1.332,0.006-2.653,0.009-3.959c0.001-1.31,0.025-2.59-0.053-3.858
						c-0.155-2.518-0.761-4.918-1.688-7.039c-0.924-2.124-2.16-3.963-3.509-5.466c-1.341-1.515-2.814-2.677-4.215-3.532
						c-1.384-0.895-2.732-1.419-3.839-1.826c-1.13-0.343-2.031-0.583-2.661-0.661c-0.625-0.107-0.959-0.163-0.959-0.163
						s0.334,0.053,0.961,0.151c0.632,0.07,1.536,0.298,2.674,0.628c1.115,0.395,2.475,0.903,3.878,1.784
						c0.728,0.398,1.417,0.95,2.165,1.497c0.7,0.61,1.436,1.252,2.109,2.02c1.366,1.508,2.621,3.357,3.562,5.495
						c0.943,2.134,1.568,4.556,1.735,7.102c0.084,1.266,0.066,2.566,0.071,3.867c0.003,1.306,0.006,2.627,0.009,3.959
						c0.006,2.664,0.011,5.37,0.017,8.076c-0.024,10.825-0.048,21.65-0.065,29.769C407.27,301.819,407.239,307.232,407.239,307.232z
						"/>
				</g>
				<path style="fill:#5986E4;" d="M285.565,448.289h86.857c10.847,0,19.64-8.793,19.64-19.64V248.874
					c0-10.847-8.793-19.64-19.64-19.64h-86.857c-10.847,0-19.64,8.793-19.64,19.64V428.65
					C265.925,439.496,274.718,448.289,285.565,448.289z"/>
				
					<rect x="281.103" y="253.574" transform="matrix(-1 -1.224647e-16 1.224647e-16 -1 657.9861 575.1877)" style="fill:#FFFFFF;" width="95.78" height="68.04"/>
				<path style="fill:#FFFFFF;" d="M364.589,338.762h8.886c1.882,0,3.408-1.526,3.408-3.408v-0.191c0-1.882-1.526-3.408-3.408-3.408
					h-8.886c-1.882,0-3.408,1.526-3.408,3.408v0.191C361.181,337.236,362.707,338.762,364.589,338.762z"/>
				<path style="fill:#FFFFFF;" d="M346.445,338.762h8.886c1.882,0,3.408-1.526,3.408-3.408v-0.191c0-1.882-1.526-3.408-3.408-3.408
					h-8.886c-1.882,0-3.408,1.526-3.408,3.408v0.191C343.037,337.236,344.563,338.762,346.445,338.762z"/>
				<path style="fill:#FFFFFF;" d="M302.655,338.762h8.886c1.882,0,3.408-1.526,3.408-3.408v-0.191c0-1.882-1.526-3.408-3.408-3.408
					h-8.886c-1.882,0-3.408,1.526-3.408,3.408v0.191C299.247,337.236,300.773,338.762,302.655,338.762z"/>
				<path style="fill:#FFFFFF;" d="M284.511,338.762h8.886c1.882,0,3.408-1.526,3.408-3.408v-0.191c0-1.882-1.526-3.408-3.408-3.408
					h-8.886c-1.882,0-3.408,1.526-3.408,3.408v0.191C281.103,337.236,282.629,338.762,284.511,338.762z"/>
				<path style="fill:#F67406;" d="M321.502,341.343h13.761c1.981,0,3.587-1.606,3.587-3.587v-4.995
					c0-1.981-1.606-3.587-3.587-3.587h-13.761c-1.981,0-3.587,1.606-3.587,3.587v4.995
					C317.915,339.737,319.521,341.343,321.502,341.343z"/>
				<path style="fill:#B4B4D5;" d="M353.668,364.577h20.435c1.535,0,2.78-1.245,2.78-2.78v-9.929c0-1.535-1.245-2.78-2.78-2.78
					h-20.435c-1.535,0-2.78,1.245-2.78,2.78v9.929C350.888,363.332,352.133,364.577,353.668,364.577z"/>
				<path style="fill:#B4B4D5;" d="M283.883,364.577h20.435c1.535,0,2.78-1.245,2.78-2.78v-9.929c0-1.535-1.245-2.78-2.78-2.78
					h-20.435c-1.535,0-2.78,1.245-2.78,2.78v9.929C281.103,363.332,282.348,364.577,283.883,364.577z"/>
				<path style="fill:#B4B4D5;" d="M318.776,364.577h20.435c1.535,0,2.78-1.245,2.78-2.78v-9.929c0-1.535-1.245-2.78-2.78-2.78
					h-20.435c-1.535,0-2.78,1.245-2.78,2.78v9.929C315.996,363.332,317.24,364.577,318.776,364.577z"/>
				<path style="fill:#B4B4D5;" d="M353.668,385.228h20.435c1.535,0,2.78-1.245,2.78-2.78v-9.929c0-1.535-1.245-2.78-2.78-2.78
					h-20.435c-1.535,0-2.78,1.245-2.78,2.78v9.929C350.888,383.983,352.133,385.228,353.668,385.228z"/>
				<path style="fill:#B4B4D5;" d="M283.883,385.228h20.435c1.535,0,2.78-1.245,2.78-2.78v-9.929c0-1.535-1.245-2.78-2.78-2.78
					h-20.435c-1.535,0-2.78,1.245-2.78,2.78v9.929C281.103,383.983,282.348,385.228,283.883,385.228z"/>
				<path style="fill:#B4B4D5;" d="M318.776,385.228h20.435c1.535,0,2.78-1.245,2.78-2.78v-9.929c0-1.535-1.245-2.78-2.78-2.78
					h-20.435c-1.535,0-2.78,1.245-2.78,2.78v9.929C315.996,383.983,317.24,385.228,318.776,385.228z"/>
				<path style="fill:#B4B4D5;" d="M353.668,405.88h20.435c1.535,0,2.78-1.245,2.78-2.78v-9.929c0-1.535-1.245-2.78-2.78-2.78
					h-20.435c-1.535,0-2.78,1.245-2.78,2.78v9.929C350.888,404.635,352.133,405.88,353.668,405.88z"/>
				<path style="fill:#B4B4D5;" d="M283.883,405.88h20.435c1.535,0,2.78-1.245,2.78-2.78v-9.929c0-1.535-1.245-2.78-2.78-2.78
					h-20.435c-1.535,0-2.78,1.245-2.78,2.78v9.929C281.103,404.635,282.348,405.88,283.883,405.88z"/>
				<path style="fill:#B4B4D5;" d="M318.776,405.88h20.435c1.535,0,2.78-1.245,2.78-2.78v-9.929c0-1.535-1.245-2.78-2.78-2.78
					h-20.435c-1.535,0-2.78,1.245-2.78,2.78v9.929C315.996,404.635,317.24,405.88,318.776,405.88z"/>
				<path style="fill:#FFFFFF;" d="M353.668,426.531h20.435c1.535,0,2.78-1.245,2.78-2.78v-9.929c0-1.535-1.245-2.78-2.78-2.78
					h-20.435c-1.535,0-2.78,1.245-2.78,2.78v9.929C350.888,425.287,352.133,426.531,353.668,426.531z"/>
				<path style="fill:#F67406;" d="M283.883,426.531h20.435c1.535,0,2.78-1.245,2.78-2.78v-9.929c0-1.535-1.245-2.78-2.78-2.78
					h-20.435c-1.535,0-2.78,1.245-2.78,2.78v9.929C281.103,425.287,282.348,426.531,283.883,426.531z"/>
				<path style="fill:#F6921E;" d="M318.776,426.531h20.435c1.535,0,2.78-1.245,2.78-2.78v-9.929c0-1.535-1.245-2.78-2.78-2.78
					h-20.435c-1.535,0-2.78,1.245-2.78,2.78v9.929C315.996,425.287,317.24,426.531,318.776,426.531z"/>
				<path style="fill:#D3D1E8;" d="M394.585,170.7L394.585,170.7c9.736,0,17.702,8.419,17.702,18.71v21.844h-35.404V200.85v-4.61
					v-6.831C376.883,179.12,384.849,170.7,394.585,170.7z"/>
				<path style="fill:#401A4C;" d="M279.757,240.667h98.493c0.789,0,1.435-0.646,1.435-1.435v-0.081
					c0-0.789-0.646-1.435-1.435-1.435h-98.493c-0.789,0-1.435,0.646-1.435,1.435v0.081
					C278.322,240.021,278.968,240.667,279.757,240.667z"/>
				<path style="fill:#E3E2EF;" d="M298.805,170.7h95.78c-9.736,0-17.702,8.419-17.702,18.71v49.782h-95.78V189.41
					C281.103,179.12,289.069,170.7,298.805,170.7z"/>
			</g>
		</g>
		<g>
			<path style="fill:#356FE4;" d="M232.585,129.038c4.041,1.966,10.142,3.932,16.227,3.932c6.553,0,9.735-2.715,9.309-6.833
				c-0.407-3.931-3.635-6.178-11.498-8.893c-10.862-3.651-18.296-9.454-19.245-18.628c-1.114-10.765,7.019-19.002,21.903-19.002
				c7.114,0,12.511,1.498,16.43,3.183l-1.991,11.514c-2.653-1.217-7.331-2.995-13.509-2.995c-6.178,0-8.883,2.808-8.544,6.084
				c0.417,4.025,4.158,5.804,12.621,8.893c11.565,4.119,17.408,9.922,18.329,18.815c1.095,10.577-6.109,19.657-23.426,19.657
				c-7.208,0-14.525-1.966-18.286-3.931L232.585,129.038z"/>
			<rect x="247.934" y="71.196" style="fill:#356FE4;" width="4.131" height="81.985"/>
			<g>
				<line style="fill:none;stroke:#356FE4;stroke-miterlimit:10;" x1="250" y1="47.427" x2="250" y2="60.927"/>
			</g>
			<g>
				<line style="fill:none;stroke:#356FE4;stroke-miterlimit:10;" x1="227.85" y1="51.332" x2="232.467" y2="64.018"/>
			</g>
			<g>
				<line style="fill:none;stroke:#356FE4;stroke-miterlimit:10;" x1="208.372" y1="62.578" x2="217.049" y2="72.92"/>
			</g>
			<g>
				<line style="fill:none;stroke:#356FE4;stroke-miterlimit:10;" x1="193.915" y1="79.808" x2="205.606" y2="86.558"/>
			</g>
			<g>
				<line style="fill:none;stroke:#356FE4;stroke-miterlimit:10;" x1="294.394" y1="86.558" x2="306.085" y2="79.808"/>
			</g>
			<g>
				<line style="fill:none;stroke:#356FE4;stroke-miterlimit:10;" x1="282.951" y1="72.92" x2="291.628" y2="62.578"/>
			</g>
			<g>
				<line style="fill:none;stroke:#356FE4;stroke-miterlimit:10;" x1="267.533" y1="64.018" x2="272.15" y2="51.332"/>
			</g>
		</g>
		<g>
			<path style="fill:#D3D1E8;" d="M189.265,149.718c2.031,0.988,5.096,1.975,8.153,1.975c3.292,0,4.891-1.364,4.677-3.433
				c-0.204-1.975-1.826-3.104-5.777-4.468c-5.457-1.834-9.192-4.75-9.669-9.359c-0.56-5.409,3.527-9.547,11.005-9.547
				c3.574,0,6.286,0.752,8.255,1.599l-1,5.785c-1.333-0.611-3.683-1.505-6.787-1.505c-3.104,0-4.463,1.411-4.292,3.057
				c0.209,2.022,2.089,2.916,6.341,4.468c5.811,2.069,8.746,4.985,9.209,9.453c0.55,5.314-3.069,9.876-11.77,9.876
				c-3.621,0-7.298-0.988-9.187-1.975L189.265,149.718z"/>
			<rect x="196.977" y="120.657" style="fill:#D3D1E8;" width="2.076" height="41.192"/>
			<g>
				<line style="fill:none;stroke:#E3E2EF;stroke-miterlimit:10;" x1="198.014" y1="108.715" x2="198.014" y2="115.497"/>
			</g>
			<g>
				<line style="fill:none;stroke:#E3E2EF;stroke-miterlimit:10;" x1="186.886" y1="110.677" x2="189.206" y2="117.05"/>
			</g>
			<g>
				<line style="fill:none;stroke:#E3E2EF;stroke-miterlimit:10;" x1="177.099" y1="116.327" x2="181.459" y2="121.523"/>
			</g>
			<g>
				<line style="fill:none;stroke:#E3E2EF;stroke-miterlimit:10;" x1="169.836" y1="124.984" x2="175.71" y2="128.375"/>
			</g>
			<g>
				<line style="fill:none;stroke:#E3E2EF;stroke-miterlimit:10;" x1="220.319" y1="128.375" x2="226.193" y2="124.984"/>
			</g>
			<g>
				<line style="fill:none;stroke:#E3E2EF;stroke-miterlimit:10;" x1="214.57" y1="121.523" x2="218.93" y2="116.327"/>
			</g>
			<g>
				<line style="fill:none;stroke:#E3E2EF;stroke-miterlimit:10;" x1="206.823" y1="117.05" x2="209.143" y2="110.677"/>
			</g>
		</g>
		<g>
			<path style="fill:#D3D1E8;" d="M295.044,129.64c1.507,0.733,3.782,1.466,6.051,1.466c2.444,0,3.63-1.012,3.471-2.548
				c-0.152-1.466-1.355-2.304-4.288-3.316c-4.051-1.361-6.823-3.526-7.177-6.947c-0.416-4.014,2.618-7.086,8.168-7.086
				c2.653,0,4.666,0.559,6.127,1.187l-0.742,4.294c-0.99-0.454-2.734-1.117-5.038-1.117s-3.313,1.047-3.186,2.269
				c0.155,1.501,1.551,2.164,4.707,3.316c4.313,1.536,6.492,3.7,6.835,7.016c0.408,3.945-2.278,7.331-8.736,7.331
				c-2.688,0-5.417-0.733-6.819-1.466L295.044,129.64z"/>
			<rect x="300.768" y="108.07" style="fill:#D3D1E8;" width="1.54" height="30.574"/>
			<g>
				<line style="fill:none;stroke:#E3E2EF;stroke-miterlimit:10;" x1="301.538" y1="99.206" x2="301.538" y2="104.241"/>
			</g>
			<g>
				<line style="fill:none;stroke:#E3E2EF;stroke-miterlimit:10;" x1="293.278" y1="100.663" x2="295" y2="105.393"/>
			</g>
			<g>
				<line style="fill:none;stroke:#E3E2EF;stroke-miterlimit:10;" x1="286.014" y1="104.856" x2="289.25" y2="108.713"/>
			</g>
			<g>
				<line style="fill:none;stroke:#E3E2EF;stroke-miterlimit:10;" x1="280.623" y1="111.282" x2="284.983" y2="113.799"/>
			</g>
			<g>
				<line style="fill:none;stroke:#E3E2EF;stroke-miterlimit:10;" x1="318.094" y1="113.799" x2="322.453" y2="111.282"/>
			</g>
			<g>
				<line style="fill:none;stroke:#E3E2EF;stroke-miterlimit:10;" x1="313.826" y1="108.713" x2="317.062" y2="104.856"/>
			</g>
			<g>
				<line style="fill:none;stroke:#E3E2EF;stroke-miterlimit:10;" x1="308.076" y1="105.393" x2="309.798" y2="100.663"/>
			</g>
		</g>
		<g>
			<polygon style="fill:#401A4C;" points="24.714,448.858 137.357,448.671 250,448.576 362.643,448.67 475.286,448.858 
				362.643,449.047 250,449.141 137.357,449.046 			"/>
		</g>
		<g>
			<path style="fill:#401A4C;" d="M100.371,356.013c-1.513,0.044-2.937,0.694-4.11,1.604c-1.191,0.904-2.173,2.059-3.002,3.3
				c-1.644,2.501-2.715,5.361-3.245,8.295c-0.535,2.916-0.558,6.036,0.594,8.807c0.575,1.372,1.483,2.612,2.67,3.516
				c1.175,0.922,2.603,1.492,4.076,1.781c-1.48-0.244-2.936-0.769-4.16-1.67c-1.22-0.903-2.159-2.161-2.759-3.552
				c-1.202-2.811-1.212-5.973-0.699-8.932c0.569-2.967,1.68-5.84,3.368-8.35c0.851-1.245,1.855-2.405,3.075-3.306
				C97.395,356.62,98.858,356.01,100.371,356.013z"/>
		</g>
		<g>
			<path style="fill:#401A4C;" d="M138.777,349.184c-1.029,1.095-1.849,2.361-2.592,3.658c-0.749,1.295-1.405,2.645-1.962,4.033
				c-1.106,2.773-1.853,5.718-1.926,8.7c-0.113,2.962,0.564,6.02,2.315,8.449c0.861,1.215,1.953,2.256,3.168,3.123
				c1.221,0.865,2.571,1.53,3.957,2.104c-1.402-0.53-2.777-1.155-4.036-1.99c-1.238-0.859-2.355-1.903-3.242-3.127
				c-1.805-2.449-2.53-5.559-2.444-8.566c0.106-3.026,0.893-5.985,2.035-8.763C135.215,354.043,136.682,351.348,138.777,349.184z"/>
		</g>
	</g>
</g>
<g id="">
	<g>
		<g id="XMLID_1_">
			<g id="XMLID_20_">
				<path id="XMLID_28_" style="fill:#1D262D;" d="M260.104,465.465c-0.432,0.443-0.803,0.931-1.108,1.453l-0.465-0.241
					c-0.067-0.298-0.349-0.503-0.659-0.466c-0.331,0.039-0.568,0.339-0.529,0.67s0.339,0.568,0.67,0.529
					c0.065-0.008,0.127-0.026,0.184-0.052l0.451,0.234c-0.251,0.554-0.433,1.139-0.539,1.744l0.746,0.132
					c0.23-1.306,0.85-2.507,1.792-3.473L260.104,465.465z"/>
				<path id="XMLID_27_" style="fill:#1D262D;" d="M265.592,463.163c-0.171,0-0.341,0.006-0.51,0.017l-0.074-0.626
					c0.188-0.149,0.296-0.389,0.266-0.645c-0.046-0.393-0.402-0.674-0.795-0.628s-0.674,0.402-0.628,0.795
					c0.03,0.254,0.189,0.461,0.405,0.564l0.073,0.624c-0.714,0.116-1.403,0.332-2.06,0.646l0.327,0.684
					c0.934-0.447,1.942-0.673,2.995-0.673c0.496,0,0.993,0.053,1.475,0.158l0.161-0.741
					C266.693,463.222,266.142,463.163,265.592,463.163z"/>
				<path id="XMLID_26_" style="fill:#1D262D;" d="M272.194,465.711c0.331-0.04,0.566-0.341,0.525-0.672
					c-0.04-0.331-0.341-0.566-0.672-0.526c-0.309,0.038-0.535,0.304-0.53,0.609l-0.416,0.363c-0.418-0.43-0.89-0.813-1.408-1.139
					l-0.404,0.641c1.134,0.715,2.021,1.726,2.563,2.925l0.691-0.313c-0.251-0.554-0.568-1.072-0.942-1.545l0.402-0.351
					C272.065,465.716,272.129,465.719,272.194,465.711z"/>
				<path id="XMLID_25_" style="fill:#1D262D;" d="M265.044,473.372c-0.386,0.023-0.775,0.035-1.157,0.035
					c-0.88,0-1.733-0.061-2.478-0.179c-0.39-0.062-0.846-0.155-1.27-0.292c1.046,1.861,3.069,3.125,5.388,3.125
					c2.855,0,5.262-1.916,5.95-4.504c-0.682,0.449-1.505,0.825-2.459,1.123C267.839,473.047,266.464,473.286,265.044,473.372z"/>
				<path id="XMLID_21_" style="fill:#1D262D;" d="M265.592,464.68c-3.352,0-6.08,2.666-6.08,5.943c0,0.426,0.046,0.849,0.137,1.261
					c0.674,0.483,2.706,0.89,5.348,0.731c2.879-0.173,5.297-0.957,6.672-2.159c-0.005-0.195-0.021-0.39-0.045-0.582
					C271.244,466.913,268.65,464.68,265.592,464.68z M263.432,471.194c-1.02,0-1.85-0.83-1.85-1.85c0-1.02,0.83-1.85,1.85-1.85
					c1.02,0,1.85,0.83,1.85,1.85C265.282,470.365,264.452,471.194,263.432,471.194z M268.17,470.286c-0.75,0-1.36-0.61-1.36-1.36
					s0.61-1.361,1.36-1.361c0.75,0,1.361,0.61,1.361,1.361S268.92,470.286,268.17,470.286z"/>
			</g>
			<path id="XMLID_18_" style="fill:#1D262D;" d="M281.595,466.547c-0.295-0.116-0.806-0.309-1.382-0.237
				c-0.551,0.069-0.844,0.341-0.844,1.007v0.866h2.228v1.717h-2.228v5.455h-1.932v-5.455h-1.34v-1.717h1.34v-0.888
				c0-1.68,0.896-2.783,2.568-2.783c0.642,0,1.157,0.122,1.59,0.308L281.595,466.547z"/>
			<path id="XMLID_16_" style="fill:#1D262D;" d="M286.298,469.879c-0.177-0.03-0.358-0.046-0.526-0.046
				c-0.896,0-1.51,0.548-1.51,1.614v3.908h-1.932v-7.172h1.873v0.785c0.451-0.673,1.14-0.977,2.021-0.977
				c0.414,0,0.848,0.128,1.094,0.337L286.298,469.879z"/>
			<path id="XMLID_13_" style="fill:#1D262D;" d="M293.965,471.757c0,0.222-0.015,0.489-0.037,0.651h-5.085
				c0.207,1.036,0.933,1.488,1.843,1.488c0.622,0,1.295-0.252,1.813-0.688l1.132,1.243c-0.814,0.748-1.85,1.088-3.057,1.088
				c-2.198,0-3.723-1.495-3.723-3.753c0-2.258,1.48-3.797,3.627-3.797C292.544,467.99,293.958,469.522,293.965,471.757z
				 M288.851,471.091h3.175c-0.177-0.918-0.733-1.436-1.562-1.436C289.554,469.655,289.021,470.203,288.851,471.091z"/>
			<path id="XMLID_10_" style="fill:#1D262D;" d="M301.618,471.757c0,0.222-0.015,0.489-0.037,0.651h-5.085
				c0.207,1.036,0.932,1.488,1.843,1.488c0.622,0,1.295-0.252,1.813-0.688l1.132,1.243c-0.814,0.748-1.85,1.088-3.057,1.088
				c-2.198,0-3.723-1.495-3.723-3.753c0-2.258,1.48-3.797,3.627-3.797C300.197,467.99,301.611,469.522,301.618,471.757z
				 M296.504,471.091h3.175c-0.178-0.918-0.733-1.436-1.562-1.436C297.207,469.655,296.674,470.203,296.504,471.091z"/>
			<path id="XMLID_7_" style="fill:#1D262D;" d="M309.964,471.764c0,2.154-1.495,3.775-3.471,3.775
				c-0.962,0-1.643-0.378-2.109-0.933v3.708h-1.924v-10.133h1.887v0.792c0.466-0.585,1.155-0.984,2.139-0.984
				C308.469,467.99,309.964,469.61,309.964,471.764z M304.287,471.764c0,1.132,0.747,1.976,1.843,1.976
				c1.14,0,1.85-0.881,1.85-1.976c0-1.095-0.71-1.976-1.85-1.976C305.035,469.788,304.287,470.632,304.287,471.764z"/>
			<path id="XMLID_4_" style="fill:#1D262D;" d="M313.068,465.836c0,0.696-0.54,1.229-1.236,1.229c-0.696,0-1.229-0.533-1.229-1.229
				c0-0.696,0.533-1.243,1.229-1.243C312.527,464.592,313.068,465.14,313.068,465.836z M312.809,475.354h-1.932v-7.172h1.932
				V475.354z"/>
			<path id="XMLID_2_" style="fill:#1D262D;" d="M316.032,470.736l2.702-2.554h2.368l-3.479,3.375l3.501,3.797h-2.376l-2.716-2.901
				v2.901H314.1v-10.658h1.932V470.736z"/>
		</g>
		<g>
			<path style="fill:#1D262D;" d="M184.412,475.289v-1.055c-0.527,0.718-1.391,1.23-2.387,1.23c-1.846,0-3.149-1.406-3.149-3.706
				c0-2.256,1.289-3.721,3.149-3.721c0.952,0,1.816,0.469,2.387,1.245v-3.765h1.099v9.77H184.412z M184.412,473.37v-3.208
				c-0.395-0.615-1.245-1.143-2.124-1.143c-1.421,0-2.27,1.172-2.27,2.739c0,1.567,0.85,2.724,2.27,2.724
				C183.168,474.483,184.017,473.986,184.412,473.37z"/>
			<path style="fill:#1D262D;" d="M186.932,471.744c0-2.051,1.465-3.706,3.486-3.706c2.139,0,3.398,1.67,3.398,3.794v0.279h-5.727
				c0.088,1.333,1.025,2.446,2.549,2.446c0.805,0,1.626-0.322,2.182-0.894l0.527,0.718c-0.703,0.703-1.655,1.084-2.812,1.084
				C188.44,475.465,186.932,473.956,186.932,471.744z M190.403,468.947c-1.509,0-2.256,1.274-2.314,2.358h4.643
				C192.718,470.25,192.015,468.947,190.403,468.947z"/>
			<path style="fill:#1D262D;" d="M194.607,474.351l0.571-0.791c0.469,0.542,1.362,1.011,2.329,1.011c1.084,0,1.67-0.513,1.67-1.216
				c0-1.714-4.38-0.659-4.38-3.281c0-1.098,0.952-2.036,2.636-2.036c1.201,0,2.051,0.454,2.622,1.026l-0.513,0.762
				c-0.424-0.513-1.201-0.894-2.109-0.894c-0.967,0-1.567,0.483-1.567,1.113c0,1.552,4.38,0.527,4.38,3.281
				c0,1.187-0.952,2.138-2.783,2.138C196.306,475.465,195.325,475.113,194.607,474.351z"/>
			<path style="fill:#1D262D;" d="M201.477,466.471c0-0.41,0.337-0.747,0.732-0.747c0.41,0,0.747,0.337,0.747,0.747
				c0,0.41-0.337,0.732-0.747,0.732C201.814,467.203,201.477,466.881,201.477,466.471z M201.667,475.289v-7.075h1.099v7.075H201.667
				z"/>
			<path style="fill:#1D262D;" d="M204.582,477.105l0.556-0.82c0.586,0.703,1.289,0.967,2.3,0.967c1.172,0,2.27-0.571,2.27-2.124
				v-1.011c-0.513,0.718-1.377,1.26-2.373,1.26c-1.845,0-3.149-1.377-3.149-3.662c0-2.27,1.289-3.677,3.149-3.677
				c0.952,0,1.802,0.469,2.373,1.245v-1.069h1.098v6.87c0,2.344-1.641,3.076-3.369,3.076
				C206.237,478.16,205.417,477.926,204.582,477.105z M209.709,473.253v-3.091c-0.381-0.615-1.23-1.143-2.109-1.143
				c-1.421,0-2.27,1.128-2.27,2.695c0,1.553,0.849,2.695,2.27,2.695C208.478,474.41,209.328,473.868,209.709,473.253z"/>
			<path style="fill:#1D262D;" d="M217.413,475.289v-4.629c0-1.245-0.63-1.641-1.582-1.641c-0.865,0-1.685,0.527-2.095,1.099v5.17
				h-1.099v-7.075h1.099v1.025c0.498-0.586,1.464-1.201,2.519-1.201c1.48,0,2.256,0.747,2.256,2.285v4.966H217.413z"/>
			<path style="fill:#1D262D;" d="M219.932,471.744c0-2.051,1.465-3.706,3.486-3.706c2.139,0,3.398,1.67,3.398,3.794v0.279h-5.727
				c0.088,1.333,1.025,2.446,2.549,2.446c0.806,0,1.626-0.322,2.183-0.894l0.527,0.718c-0.703,0.703-1.655,1.084-2.812,1.084
				C221.441,475.465,219.932,473.956,219.932,471.744z M223.404,468.947c-1.509,0-2.256,1.274-2.314,2.358h4.643
				C225.718,470.25,225.015,468.947,223.404,468.947z"/>
			<path style="fill:#1D262D;" d="M233.35,475.289v-1.055c-0.527,0.718-1.392,1.23-2.388,1.23c-1.846,0-3.149-1.406-3.149-3.706
				c0-2.256,1.289-3.721,3.149-3.721c0.952,0,1.817,0.469,2.388,1.245v-3.765h1.098v9.77H233.35z M233.35,473.37v-3.208
				c-0.396-0.615-1.245-1.143-2.124-1.143c-1.421,0-2.27,1.172-2.27,2.739c0,1.567,0.849,2.724,2.27,2.724
				C232.105,474.483,232.954,473.986,233.35,473.37z"/>
			<path style="fill:#1D262D;" d="M239.692,475.289v-9.77h1.098v3.765c0.572-0.776,1.421-1.245,2.388-1.245
				c1.845,0,3.149,1.465,3.149,3.721c0,2.299-1.304,3.706-3.149,3.706c-0.996,0-1.86-0.513-2.388-1.23v1.055H239.692z
				 M242.9,474.483c1.436,0,2.285-1.157,2.285-2.724c0-1.568-0.85-2.739-2.285-2.739c-0.864,0-1.728,0.527-2.109,1.143v3.208
				C241.171,473.986,242.036,474.483,242.9,474.483z"/>
			<path style="fill:#1D262D;" d="M247.528,477.061c0.161,0.073,0.425,0.117,0.601,0.117c0.483,0,0.805-0.161,1.055-0.747
				l0.469-1.069l-2.959-7.148h1.187l2.358,5.8l2.344-5.8h1.201l-3.545,8.51c-0.425,1.025-1.143,1.421-2.08,1.435
				c-0.234,0-0.601-0.044-0.805-0.103L247.528,477.061z"/>
		</g>
	</g>
</g>
</svg>
