<?xml version="1.0" encoding="UTF-8"?>
<svg version="1.1" xmlns="http://www.w3.org/2000/svg" width="163" height="187">
<path d="M0 0 C53.79 0 107.58 0 163 0 C163 61.71 163 123.42 163 187 C109.21 187 55.42 187 0 187 C0 125.29 0 63.58 0 0 Z " fill="#1F2021" transform="translate(0,0)"/>
<path d="M0 0 C0.495 0.99 0.495 0.99 1 2 C-0.02617123 4.35067939 -1.11430701 6.56985031 -2.3125 8.83203125 C-2.85321136 9.87570358 -2.85321136 9.87570358 -3.40484619 10.94046021 C-4.59583717 13.23507156 -5.79791361 15.52368463 -7 17.8125 C-7.82467166 19.39681185 -8.64855857 20.98153241 -9.47167969 22.56665039 C-11.15483384 25.80533696 -12.84217802 29.04178349 -14.53320312 32.27636719 C-17.8102736 38.54672519 -21.05992806 44.83118821 -24.30810547 51.11654663 C-25.22077251 52.88099485 -26.13573913 54.64425302 -27.05078125 56.4074707 C-30.76602746 63.57296621 -34.41091377 70.77048502 -38 78 C-36.69869141 77.75443359 -36.69869141 77.75443359 -35.37109375 77.50390625 C-29.30922852 76.6379255 -23.17047816 76.89586197 -17.0625 76.9375 C-15.80630859 76.94201172 -14.55011719 76.94652344 -13.25585938 76.95117188 C-10.17052337 76.96290319 -7.08528684 76.979319 -4 77 C-7.26363938 82.32532461 -11.2419402 86.63407192 -15.5625 91.125 C-17.00319268 92.63876303 -18.4432946 94.15308852 -19.8828125 95.66796875 C-20.58567383 96.4057959 -21.28853516 97.14362305 -22.01269531 97.90380859 C-29.49362745 105.79462964 -36.73892311 113.90760125 -44 122 C-45.52069117 123.68762811 -47.04152498 125.37512771 -48.5625 127.0625 C-52.72845882 131.6905282 -56.86939636 136.34040897 -61 141 C-52.93259567 146.37826956 -37.99563771 144.76346321 -28.65625 143.57421875 C-10.94560629 139.69406428 3.28040382 129.11937183 13 114 C21.92128198 98.34223979 24.48897303 80.69868385 20.33984375 63.234375 C19.97457111 60.83281239 20.24902524 59.28968528 21 57 C28.94803713 76.94725824 29.77042676 98.27454879 21.26953125 118.234375 C13.82706071 134.50692759 1.88080531 147.62274671 -14 156 C-14.69351563 156.37898437 -15.38703125 156.75796875 -16.1015625 157.1484375 C-33.80579884 165.96740167 -53.69008172 164.30753161 -72 159 C-73.66229813 158.64552318 -75.32748844 158.30264495 -77 158 C-81.06478107 162.61534219 -85.08608295 167.25585812 -89 172 C-89.99 171.67 -90.98 171.34 -92 171 C-78.4411429 143.69127459 -78.4411429 143.69127459 -71.63720703 130.91870117 C-67.81558571 123.71896899 -64.1848528 116.4266985 -60.57739258 109.11767578 C-60.13935303 108.23321777 -59.70131348 107.34875977 -59.25 106.4375 C-58.86328125 105.65246094 -58.4765625 104.86742188 -58.078125 104.05859375 C-57 102 -57 102 -55 99 C-56.8871875 99.10828125 -56.8871875 99.10828125 -58.8125 99.21875 C-69.55771325 99.80996858 -80.2381194 100.13527504 -91 100 C-87.58604981 95.18545485 -84.01911658 90.87598365 -79.77734375 86.7734375 C-77.96092581 84.96101169 -76.29304799 83.07426625 -74.625 81.125 C-72.03365795 78.1153247 -69.32745217 75.28911384 -66.5 72.5 C-63.21635513 69.25485683 -60.14110377 65.92348924 -57.13671875 62.421875 C-54.19979406 59.09300241 -51.16157758 55.86286662 -48.125 52.625 C-42.67641648 46.81332224 -37.29456547 40.95288446 -32 35 C-37.15007057 29.84992943 -48.5330797 31.63523353 -55.39111328 31.61499023 C-72.31020167 31.84196858 -85.45685339 39.07765508 -97.71484375 50.55859375 C-110.4181067 64.13045587 -115.7313813 82.78411943 -115.23046875 100.9921875 C-114.95654988 106.91829006 -114.0397286 112.42803979 -111.8125 117.9375 C-111 120 -111 120 -112 123 C-120.99056276 104.51686336 -122.85479101 83.76966798 -116.73632812 64.10839844 C-113.06141436 53.58566792 -107.53337702 44.21553321 -100 36 C-99.38640625 35.30648437 -98.7728125 34.61296875 -98.140625 33.8984375 C-86.29553181 21.22125099 -69.69142003 13.34794322 -52.328125 12.6640625 C-50.30225237 12.63483127 -48.27608167 12.62227267 -46.25 12.625 C-45.19321045 12.62443604 -44.1364209 12.62387207 -43.04760742 12.62329102 C-34.94429234 12.73726432 -28.55331206 14.04744944 -21 17 C-18.50962975 18.02484467 -18.50962975 18.02484467 -16 18 C-13.65236848 16.19964018 -13.65236848 16.19964018 -11.625 13.5625 C-10.85542969 12.64855469 -10.08585937 11.73460937 -9.29296875 10.79296875 C-8.15794922 9.41044922 -8.15794922 9.41044922 -7 8 C-5.65105185 6.4537651 -4.29748583 4.91153572 -2.9375 3.375 C-1.95758435 2.25065233 -0.97810582 1.12592245 0 0 Z " fill="#1D72BB" transform="translate(129,8)"/>
<path d="M0 0 C4.67012449 4.67012449 5.50041528 12.34045563 6.015625 18.69140625 C5.99493642 21.74814395 5.24213817 24.22345586 4 27 C3.67 27 3.34 27 3 27 C2.86722656 25.72125 2.73445312 24.4425 2.59765625 23.125 C2.4193133 21.41666223 2.24092549 19.70832915 2.0625 18 C1.93198242 16.74123047 1.93198242 16.74123047 1.79882812 15.45703125 C1.25871362 10.29593708 0.66124678 5.14700198 0 0 Z " fill="#1F68A8" transform="translate(149,65)"/>
<path d="M0 0 C0.33 0.66 0.66 1.32 1 2 C0.22265625 3.9453125 0.22265625 3.9453125 -0.9375 6.125 C-1.31777344 6.84945313 -1.69804688 7.57390625 -2.08984375 8.3203125 C-2.39019531 8.87460937 -2.69054687 9.42890625 -3 10 C-3.99 10 -4.98 10 -6 10 C-7.66756036 11.30436727 -7.66756036 11.30436727 -9.1875 13 C-9.71730469 13.556875 -10.24710937 14.11375 -10.79296875 14.6875 C-11.19128906 15.120625 -11.58960937 15.55375 -12 16 C-12.66 15.67 -13.32 15.34 -14 15 C-12.73542969 13.75283203 -12.73542969 13.75283203 -11.4453125 12.48046875 C-10.33840925 11.38294603 -9.2316457 10.28528241 -8.125 9.1875 C-7.56941406 8.64029297 -7.01382813 8.09308594 -6.44140625 7.52929688 C-5.90644531 6.99755859 -5.37148437 6.46582031 -4.8203125 5.91796875 C-4.32805176 5.43094482 -3.83579102 4.9439209 -3.32861328 4.44213867 C-1.77411511 2.82996499 -1.77411511 2.82996499 0 0 Z " fill="#2065A2" transform="translate(129,8)"/>
<path d="M0 0 C2.35959872 2.35959872 3.09108722 3.78384707 4 7 C3.87314652 9.73496094 3.45923585 12.29050846 3 15 C2.67 15 2.34 15 2 15 C1.66223316 13.2508503 1.32996329 11.50063855 1 9.75 C0.814375 8.77546875 0.62875 7.8009375 0.4375 6.796875 C0 4 0 4 0 0 Z " fill="#225991" transform="translate(149,65)"/>
</svg>
