<svg id="Object" xmlns="http://www.w3.org/2000/svg" viewBox="0 0 1043.95 1084.77"><title>adhar-banking</title><ellipse cx="521.97" cy="962.78" rx="521.97" ry="31.21" style="fill:#fff;opacity:0.2"/><g id="_Group_" data-name="&lt;Group&gt;"><g id="_Group_2" data-name="&lt;Group&gt;"><rect id="_Rectangle_" data-name="&lt;Rectangle&gt;" x="582.23" y="153.33" width="389.82" height="808.7" rx="43.53" ry="43.53" style="fill:#161922"/><rect id="_Rectangle_2" data-name="&lt;Rectangle&gt;" x="582.23" y="225.97" width="389.82" height="663.43" style="fill:#fff"/><path id="_Path_" data-name="&lt;Path&gt;" d="M822.71,196.08H735.82a4.24,4.24,0,0,1-4.24-4.24h0a4.24,4.24,0,0,1,4.24-4.24h86.89a4.24,4.24,0,0,1,4.24,4.24h0A4.24,4.24,0,0,1,822.71,196.08Z" transform="translate(-6.96 -4.01)" style="fill:#161922"/><rect id="_Rectangle_3" data-name="&lt;Rectangle&gt;" x="734.77" y="920.15" width="84.74" height="8.71" rx="4.35" ry="4.35" style="fill:#161922;opacity:0.73"/><g id="_Group_3" data-name="&lt;Group&gt;"><path id="_Path_2" data-name="&lt;Path&gt;" d="M858.64,190.69a8.88,8.88,0,1,1-8.88-8.88A8.85,8.85,0,0,1,858.64,190.69Z" transform="translate(-6.96 -4.01)" style="fill:#bcbdc2"/><path id="_Path_3" data-name="&lt;Path&gt;" d="M849.76,181.81a8.82,8.82,0,0,1,8.82,8.74s0,.08,0,.12a8.54,8.54,0,0,1-1.1,3.92,9.15,9.15,0,0,1-1.59,2.07,9.29,9.29,0,0,1-3.34,2.09,9.12,9.12,0,0,1-2.93.54,8.84,8.84,0,0,1-3.69-.73,8.53,8.53,0,0,1-2.09-1.3l-.08-.07-.33-.3a8.87,8.87,0,0,1,6.33-15.08Z" transform="translate(-6.96 -4.01)" style="fill:#bbbcc1"/><path id="_Path_4" data-name="&lt;Path&gt;" d="M849.76,181.81a8.75,8.75,0,0,1,8.76,8.59s0,.08,0,.12a8.27,8.27,0,0,1-1.17,3.8,9.43,9.43,0,0,1-1.62,2,9.74,9.74,0,0,1-3.34,2.08,9.41,9.41,0,0,1-2.91.57,8.87,8.87,0,0,1-3.64-.63,8.19,8.19,0,0,1-2-1.2l-.08-.06-.33-.28a8.86,8.86,0,0,1,6.37-15Z" transform="translate(-6.96 -4.01)" style="fill:#babbc0"/><path id="_Path_5" data-name="&lt;Path&gt;" d="M849.76,181.81a8.69,8.69,0,0,1,8.71,8.45s0,.08,0,.11a8,8,0,0,1-1.23,3.67,9.75,9.75,0,0,1-1.64,2,10.23,10.23,0,0,1-3.35,2.07,9.73,9.73,0,0,1-2.89.61,8.92,8.92,0,0,1-3.6-.53,7.88,7.88,0,0,1-2-1.11l-.07-.06-.32-.27a8.81,8.81,0,0,1-1.73-2.65,8.91,8.91,0,0,1-.68-3.64,8.82,8.82,0,0,1,8.83-8.64Z" transform="translate(-6.96 -4.01)" style="fill:#b9babf"/><path id="_Path_6" data-name="&lt;Path&gt;" d="M849.76,181.81a8.63,8.63,0,0,1,8.65,8.31s0,.07,0,.11a7.81,7.81,0,0,1-1.3,3.55,10.13,10.13,0,0,1-1.67,1.94,10.78,10.78,0,0,1-3.36,2.06,10.08,10.08,0,0,1-2.87.64,9,9,0,0,1-3.55-.44,7.52,7.52,0,0,1-2-1l-.07-.05-.31-.25a8.79,8.79,0,0,1-1.7-2.66,8.93,8.93,0,0,1-.65-3.64,8.8,8.8,0,0,1,8.81-8.56Z" transform="translate(-6.96 -4.01)" style="fill:#b8b9bf"/><path id="_Path_7" data-name="&lt;Path&gt;" d="M849.76,181.81a8.58,8.58,0,0,1,8.59,8.17.94.94,0,0,1,0,.11,7.63,7.63,0,0,1-1.37,3.43,10.57,10.57,0,0,1-1.7,1.9,11.4,11.4,0,0,1-3.36,2,10.49,10.49,0,0,1-2.85.68,9.06,9.06,0,0,1-3.51-.34,7.2,7.2,0,0,1-1.94-.93l-.07-.05-.31-.23a8.76,8.76,0,0,1-1.67-2.67,9,9,0,0,1-.61-3.63,8.79,8.79,0,0,1,8.8-8.48Z" transform="translate(-6.96 -4.01)" style="fill:#b7b9be"/><path id="_Path_8" data-name="&lt;Path&gt;" d="M849.76,181.81a8.52,8.52,0,0,1,8.54,8,.75.75,0,0,1,0,.11,7.47,7.47,0,0,1-1.44,3.31,11.06,11.06,0,0,1-1.72,1.85,12.09,12.09,0,0,1-3.37,2,10.94,10.94,0,0,1-2.83.72,9.21,9.21,0,0,1-3.46-.24,6.94,6.94,0,0,1-1.9-.84l-.07,0-.3-.21a8.74,8.74,0,0,1-1.64-2.68,9,9,0,0,1-.58-3.63,8.77,8.77,0,0,1,8.78-8.4Z" transform="translate(-6.96 -4.01)" style="fill:#b6b8bd"/><path id="_Path_9" data-name="&lt;Path&gt;" d="M849.76,181.81a8.46,8.46,0,0,1,8.48,7.88.64.64,0,0,1,0,.1,7.39,7.39,0,0,1-1.5,3.18,11.76,11.76,0,0,1-1.75,1.81,12.88,12.88,0,0,1-3.38,2,11.46,11.46,0,0,1-2.81.75,9.41,9.41,0,0,1-3.41-.15,6.72,6.72,0,0,1-1.86-.75l-.07,0-.29-.19a8.71,8.71,0,0,1-1.61-2.69,9,9,0,0,1-.54-3.62,8.75,8.75,0,0,1,8.76-8.32Z" transform="translate(-6.96 -4.01)" style="fill:#b5b7bc"/><path id="_Path_10" data-name="&lt;Path&gt;" d="M849.76,181.81a8.41,8.41,0,0,1,8.42,7.74.55.55,0,0,1,0,.1,7.31,7.31,0,0,1-1.57,3.06,12.48,12.48,0,0,1-1.77,1.77,13.77,13.77,0,0,1-3.38,2,12,12,0,0,1-2.79.79,9.67,9.67,0,0,1-3.37-.05,6.54,6.54,0,0,1-1.83-.66l-.07,0-.28-.17a8.69,8.69,0,0,1-1.58-2.7A9,9,0,0,1,841,190a8.74,8.74,0,0,1,8.75-8.24Z" transform="translate(-6.96 -4.01)" style="fill:#b4b6bb"/><path id="_Path_11" data-name="&lt;Path&gt;" d="M849.76,181.81a8.36,8.36,0,0,1,8.37,7.6.48.48,0,0,1,0,.1,7.29,7.29,0,0,1-1.64,2.94,13.35,13.35,0,0,1-1.8,1.72,14.8,14.8,0,0,1-3.39,2,12.72,12.72,0,0,1-2.77.82,10,10,0,0,1-3.32,0,6.4,6.4,0,0,1-1.79-.57l-.07,0-.28-.16a8.67,8.67,0,0,1-1.55-2.71A9,9,0,0,1,841,190a8.73,8.73,0,0,1,8.73-8.15Z" transform="translate(-6.96 -4.01)" style="fill:#b3b5ba"/><path id="_Path_12" data-name="&lt;Path&gt;" d="M849.76,181.81a8.3,8.3,0,0,1,8.31,7.46.42.42,0,0,1,0,.1,7.31,7.31,0,0,1-1.7,2.82,14.36,14.36,0,0,1-1.83,1.68,16,16,0,0,1-3.4,2,13.37,13.37,0,0,1-2.75.86,10.35,10.35,0,0,1-3.28.14,6.31,6.31,0,0,1-1.75-.48l-.06,0-.27-.14a8.66,8.66,0,0,1-1.52-2.72,9,9,0,0,1-.44-3.61,8.71,8.71,0,0,1,8.72-8.07Z" transform="translate(-6.96 -4.01)" style="fill:#b2b4ba"/><path id="_Path_13" data-name="&lt;Path&gt;" d="M849.76,181.81a8.25,8.25,0,0,1,8.25,7.32.39.39,0,0,1,0,.09,7.4,7.4,0,0,1-1.77,2.69,15.63,15.63,0,0,1-1.85,1.64,17.4,17.4,0,0,1-3.4,2,14.24,14.24,0,0,1-2.73.9,10.88,10.88,0,0,1-3.23.24,6.29,6.29,0,0,1-1.71-.39l-.06,0-.26-.12a8.64,8.64,0,0,1-1.49-2.73,9.05,9.05,0,0,1-.41-3.6,8.7,8.7,0,0,1,8.7-8Z" transform="translate(-6.96 -4.01)" style="fill:#b1b3b9"/><path id="_Path_14" data-name="&lt;Path&gt;" d="M849.76,181.81A8.21,8.21,0,0,1,858,189a.35.35,0,0,1,0,.09,7.56,7.56,0,0,1-1.84,2.57,17.19,17.19,0,0,1-1.88,1.59,19.09,19.09,0,0,1-3.41,2,15.29,15.29,0,0,1-2.71.93,11.54,11.54,0,0,1-3.18.34,6.34,6.34,0,0,1-1.68-.3l-.06,0-.26-.1a8.62,8.62,0,0,1-1.46-2.74,9.07,9.07,0,0,1-.37-3.6,8.69,8.69,0,0,1,8.68-7.91Z" transform="translate(-6.96 -4.01)" style="fill:#b0b2b8"/><path id="_Path_15" data-name="&lt;Path&gt;" d="M849.76,181.81a8.16,8.16,0,0,1,8.14,7,.32.32,0,0,1,0,.09,7.82,7.82,0,0,1-1.9,2.45,19.13,19.13,0,0,1-1.9,1.55,21.14,21.14,0,0,1-3.42,2,16.51,16.51,0,0,1-2.69,1,12.39,12.39,0,0,1-3.14.43,6.48,6.48,0,0,1-1.64-.2l-.06,0-.25-.08a8.61,8.61,0,0,1-1.43-2.75,9.08,9.08,0,0,1-.34-3.6,8.68,8.68,0,0,1,8.67-7.83Z" transform="translate(-6.96 -4.01)" style="fill:#afb2b7"/><path id="_Path_16" data-name="&lt;Path&gt;" d="M849.76,181.81a8.11,8.11,0,0,1,8.08,6.89.3.3,0,0,1,0,.09,8.2,8.2,0,0,1-2,2.32,21.65,21.65,0,0,1-1.93,1.51,23.68,23.68,0,0,1-3.43,2,18,18,0,0,1-2.67,1,13.48,13.48,0,0,1-3.09.53,6.76,6.76,0,0,1-1.6-.11h-.06l-.24-.06a8.59,8.59,0,0,1-1.4-2.76,9.1,9.1,0,0,1-.3-3.59,8.67,8.67,0,0,1,8.65-7.75Z" transform="translate(-6.96 -4.01)" style="fill:#aeb1b6"/><path id="_Path_17" data-name="&lt;Path&gt;" d="M849.76,181.81a8.07,8.07,0,0,1,8,6.75.28.28,0,0,1,0,.08,8.76,8.76,0,0,1-2,2.2c-.6.49-1.25,1-2,1.46a26.58,26.58,0,0,1-3.43,1.95,19.81,19.81,0,0,1-2.65,1,14.91,14.91,0,0,1-3,.62,7.2,7.2,0,0,1-1.56,0H843l-.24,0a8.58,8.58,0,0,1-1.38-2.77,9.11,9.11,0,0,1-.27-3.59,8.66,8.66,0,0,1,8.63-7.67Z" transform="translate(-6.96 -4.01)" style="fill:#adb0b5"/><path id="_Path_18" data-name="&lt;Path&gt;" d="M849.76,181.81a8,8,0,0,1,8,6.61.26.26,0,0,1,0,.08,9.56,9.56,0,0,1-2.1,2.08c-.61.47-1.27,1-2,1.42a30.69,30.69,0,0,1-3.44,1.94,22.07,22.07,0,0,1-2.63,1.07,16.86,16.86,0,0,1-3,.72,7.93,7.93,0,0,1-1.53.07h-.05l-.23,0a8.57,8.57,0,0,1-1.35-2.78,9.12,9.12,0,0,1-.23-3.58,8.65,8.65,0,0,1,8.62-7.59Z" transform="translate(-6.96 -4.01)" style="fill:#acafb5"/><path id="_Path_19" data-name="&lt;Path&gt;" d="M849.76,181.81a8,8,0,0,1,7.91,6.47.25.25,0,0,1,0,.08,10.73,10.73,0,0,1-2.17,2c-.62.45-1.29.92-2,1.38a36.34,36.34,0,0,1-3.45,1.93,25,25,0,0,1-2.61,1.11,19.59,19.59,0,0,1-3,.82,9.09,9.09,0,0,1-1.49.16h-.28a8.57,8.57,0,0,1-1.32-2.79,9.13,9.13,0,0,1-.2-3.58,8.64,8.64,0,0,1,8.6-7.51Z" transform="translate(-6.96 -4.01)" style="fill:#abaeb4"/><path id="_Path_20" data-name="&lt;Path&gt;" d="M849.76,181.81a8,8,0,0,1,7.86,6.32.24.24,0,0,1,0,.08,12.48,12.48,0,0,1-2.24,1.83c-.63.43-1.31.89-2,1.33-1.09.67-2.27,1.33-3.45,1.92-.86.43-1.73.82-2.59,1.15a23.59,23.59,0,0,1-2.91.91,11,11,0,0,1-1.45.25h-.27a8.56,8.56,0,0,1-1.29-2.81,9.14,9.14,0,0,1-.16-3.57,8.64,8.64,0,0,1,8.59-7.43Z" transform="translate(-6.96 -4.01)" style="fill:#aaadb3"/><path id="_Path_21" data-name="&lt;Path&gt;" d="M849.76,181.81a7.92,7.92,0,0,1,7.8,6.18.24.24,0,0,1-.05.07,15.27,15.27,0,0,1-2.3,1.71c-.64.42-1.33.86-2.06,1.29-1.1.66-2.28,1.31-3.46,1.91-.86.44-1.72.84-2.57,1.18a30,30,0,0,1-2.86,1c-.55.16-1,.27-1.42.34h0l-.21,0a8.55,8.55,0,0,1-1.26-2.82,9.15,9.15,0,0,1-.13-3.57,8.63,8.63,0,0,1,8.57-7.35Z" transform="translate(-6.96 -4.01)" style="fill:#a9acb2"/><path id="_Path_22" data-name="&lt;Path&gt;" d="M849.76,181.81a7.89,7.89,0,0,1,7.74,6,.23.23,0,0,1-.05.07,20.25,20.25,0,0,1-2.37,1.59c-.66.4-1.36.82-2.09,1.25-1.11.64-2.29,1.29-3.47,1.9-.86.44-1.71.86-2.55,1.22-1.06.46-2,.83-2.82,1.11-.53.18-1,.33-1.38.43h0l-.2,0a8.54,8.54,0,0,1-1.23-2.83,9.16,9.16,0,0,1-.1-3.56,8.63,8.63,0,0,1,8.55-7.27Z" transform="translate(-6.96 -4.01)" style="fill:#a8abb1"/><path id="_Path_23" data-name="&lt;Path&gt;" d="M849.76,181.81a7.86,7.86,0,0,1,7.69,5.9l-.06.07c-.55.39-1.39.88-2.44,1.47l-2.11,1.2c-1.12.63-2.3,1.28-3.47,1.89-.85.45-1.7.88-2.53,1.25-1.05.48-2,.89-2.77,1.2l-1.34.52,0,0-.2.07a8.54,8.54,0,0,1-1.2-2.84,9.16,9.16,0,0,1-.06-3.56,8.62,8.62,0,0,1,8.54-7.19Z" transform="translate(-6.96 -4.01)" style="fill:#a7aab0"/><path id="_Path_24" data-name="&lt;Path&gt;" d="M849.76,181.81a7.83,7.83,0,0,1,7.63,5.76l-.06.06c-.58.34-1.44.78-2.51,1.34l-2.14,1.16c-1.13.61-2.31,1.26-3.48,1.88-.85.45-1.69.89-2.51,1.29L844,194.6l-1.3.61,0,0-.19.09a8.54,8.54,0,0,1-1.17-2.85,9.17,9.17,0,0,1,0-3.55,8.62,8.62,0,0,1,8.52-7.11Z" transform="translate(-6.96 -4.01)" style="fill:#a7aab0"/><path id="_Path_25" data-name="&lt;Path&gt;" d="M849.76,181.81a7.81,7.81,0,0,1,7.57,5.61l-.06.06c-.6.29-1.49.69-2.57,1.22-.69.34-1.42.72-2.17,1.11-1.14.6-2.32,1.24-3.49,1.87-.85.46-1.68.91-2.49,1.32l-2.68,1.4c-.5.26-.92.5-1.27.7l0,0-.18.1a8.54,8.54,0,0,1-1.14-2.86,9.17,9.17,0,0,1,0-3.55,8.62,8.62,0,0,1,8.5-7Z" transform="translate(-6.96 -4.01)" style="fill:#a6a9af"/><path id="_Path_26" data-name="&lt;Path&gt;" d="M849.76,181.81a7.79,7.79,0,0,1,7.52,5.47l-.06.06c-.63.24-1.54.6-2.64,1.1-.7.32-1.44.69-2.19,1.07-1.15.58-2.34,1.22-3.49,1.86l-2.47,1.36c-1,.55-1.9,1.05-2.63,1.49-.48.29-.9.55-1.23.79l0,0-.18.12a8.54,8.54,0,0,1-1.11-2.87,9.17,9.17,0,0,1,0-3.54,8.62,8.62,0,0,1,8.49-6.95Z" transform="translate(-6.96 -4.01)" style="fill:#a5a8ae"/><path id="_Path_27" data-name="&lt;Path&gt;" d="M849.76,181.81a7.78,7.78,0,0,1,7.46,5.33l-.07.06a25.73,25.73,0,0,0-2.71,1c-.72.3-1.46.65-2.22,1-1.16.57-2.35,1.2-3.5,1.85-.84.47-1.66.95-2.45,1.4-1,.57-1.87,1.11-2.58,1.59a13.07,13.07,0,0,0-1.19.89l0,0-.17.14a8.54,8.54,0,0,1-1.08-2.88,9.17,9.17,0,0,1,.08-3.54,8.62,8.62,0,0,1,8.47-6.87Z" transform="translate(-6.96 -4.01)" style="fill:#a4a7ad"/><path id="_Path_28" data-name="&lt;Path&gt;" d="M849.76,181.81a7.77,7.77,0,0,1,7.4,5.19l-.07.05a18.09,18.09,0,0,0-2.77.85c-.73.28-1.48.62-2.24,1-1.17.56-2.36,1.19-3.51,1.84-.84.48-1.65,1-2.43,1.43-1,.59-1.84,1.16-2.54,1.69a10.61,10.61,0,0,0-1.15,1l0,0-.16.16a8.54,8.54,0,0,1-1.05-2.89,9.17,9.17,0,0,1,.11-3.53,8.62,8.62,0,0,1,8.46-6.79Z" transform="translate(-6.96 -4.01)" style="fill:#a3a6ac"/><path id="_Path_29" data-name="&lt;Path&gt;" d="M849.76,181.81a7.76,7.76,0,0,1,7.35,5l-.07.05a14.19,14.19,0,0,0-2.84.73c-.74.26-1.5.59-2.27.94-1.18.54-2.37,1.17-3.51,1.83-.84.48-1.64,1-2.41,1.47a25.1,25.1,0,0,0-2.49,1.78,9.27,9.27,0,0,0-1.12,1.07l0,0-.16.18a8.55,8.55,0,0,1-1-2.9,9.16,9.16,0,0,1,.15-3.53,8.63,8.63,0,0,1,8.44-6.71Z" transform="translate(-6.96 -4.01)" style="fill:#a2a5ab"/><path id="_Path_30" data-name="&lt;Path&gt;" d="M849.76,181.81a7.76,7.76,0,0,1,7.29,4.9l-.07,0a11.88,11.88,0,0,0-2.91.61,23.89,23.89,0,0,0-2.3.9,35.77,35.77,0,0,0-3.52,1.82c-.83.49-1.63,1-2.39,1.5a21,21,0,0,0-2.45,1.88,8.45,8.45,0,0,0-1.08,1.16l0,0-.15.2a8.56,8.56,0,0,1-1-2.91,9.16,9.16,0,0,1,.18-3.53,8.63,8.63,0,0,1,8.42-6.63Z" transform="translate(-6.96 -4.01)" style="fill:#a1a4ab"/><path id="_Path_31" data-name="&lt;Path&gt;" d="M849.76,181.81a7.77,7.77,0,0,1,7.23,4.76l-.08,0a10.39,10.39,0,0,0-3,.49,20.71,20.71,0,0,0-2.32.85,29.93,29.93,0,0,0-3.53,1.81c-.83.49-1.62,1-2.37,1.54a18.31,18.31,0,0,0-2.4,2,8,8,0,0,0-1,1.25l0,0-.14.21a8.56,8.56,0,0,1-1-2.92,9.15,9.15,0,0,1,.21-3.52,8.64,8.64,0,0,1,8.41-6.55Z" transform="translate(-6.96 -4.01)" style="fill:#a0a3aa"/><path id="_Path_32" data-name="&lt;Path&gt;" d="M849.76,181.81a7.78,7.78,0,0,1,7.17,4.62l-.08,0a9.37,9.37,0,0,0-3,.36,18.62,18.62,0,0,0-2.35.81,26,26,0,0,0-3.53,1.8c-.83.5-1.61,1-2.35,1.58a16.37,16.37,0,0,0-2.35,2.07,7.71,7.71,0,0,0-1,1.34l0,.05-.14.23a8.57,8.57,0,0,1-.94-2.93,9.14,9.14,0,0,1,.25-3.52,8.64,8.64,0,0,1,8.39-6.47Z" transform="translate(-6.96 -4.01)" style="fill:#9fa2a9"/><path id="_Path_33" data-name="&lt;Path&gt;" d="M849.76,181.81a7.8,7.8,0,0,1,7.12,4.48l-.08,0a8.66,8.66,0,0,0-3.11.24,17,17,0,0,0-2.37.77,23.08,23.08,0,0,0-3.54,1.79,26.52,26.52,0,0,0-2.33,1.61,15,15,0,0,0-2.31,2.17,7.59,7.59,0,0,0-1,1.43l0,.06-.13.25a8.58,8.58,0,0,1-.91-2.94,9.13,9.13,0,0,1,.28-3.51,8.65,8.65,0,0,1,8.38-6.39Z" transform="translate(-6.96 -4.01)" style="fill:#9ea2a8"/><path id="_Path_34" data-name="&lt;Path&gt;" d="M849.76,181.81a7.82,7.82,0,0,1,7.06,4.34l-.09,0a8.16,8.16,0,0,0-3.17.12,15.7,15.7,0,0,0-2.4.72,20.72,20.72,0,0,0-3.55,1.78,23.2,23.2,0,0,0-2.31,1.65,13.88,13.88,0,0,0-2.26,2.26,7.61,7.61,0,0,0-.93,1.52l0,.06c0,.09-.09.18-.12.27a8.59,8.59,0,0,1-.88-2.95,9.12,9.12,0,0,1,.32-3.51,8.66,8.66,0,0,1,8.36-6.31Z" transform="translate(-6.96 -4.01)" style="fill:#9da1a7"/><path id="_Path_35" data-name="&lt;Path&gt;" d="M849.76,181.81a7.85,7.85,0,0,1,7,4.19l-.09,0a7.81,7.81,0,0,0-3.24,0,14.63,14.63,0,0,0-2.43.68,18.81,18.81,0,0,0-3.56,1.77,20.64,20.64,0,0,0-2.29,1.68,13.08,13.08,0,0,0-2.22,2.36,7.71,7.71,0,0,0-.89,1.61l0,.07c0,.1-.08.19-.12.29a8.6,8.6,0,0,1-.85-3,9.1,9.1,0,0,1,.35-3.5,8.67,8.67,0,0,1,8.34-6.23Z" transform="translate(-6.96 -4.01)" style="fill:#9ca0a6"/><path id="_Path_36" data-name="&lt;Path&gt;" d="M849.76,181.81a7.89,7.89,0,0,1,6.95,4.05l-.09,0a7.56,7.56,0,0,0-3.31-.13,13.74,13.74,0,0,0-2.45.64,17.24,17.24,0,0,0-3.56,1.76,18.65,18.65,0,0,0-2.27,1.72,12.45,12.45,0,0,0-2.17,2.46A7.88,7.88,0,0,0,842,194l0,.07c0,.1-.08.2-.11.31a8.62,8.62,0,0,1-.82-3,9.09,9.09,0,0,1,.39-3.5,8.69,8.69,0,0,1,8.33-6.15Z" transform="translate(-6.96 -4.01)" style="fill:#9b9fa6"/><path id="_Path_37" data-name="&lt;Path&gt;" d="M849.76,181.81a7.94,7.94,0,0,1,6.89,3.91l-.09,0a7.4,7.4,0,0,0-3.38-.25,13,13,0,0,0-2.48.59,15.9,15.9,0,0,0-3.57,1.75,16.83,16.83,0,0,0-2.25,1.75,11.89,11.89,0,0,0-2.12,2.55,8.11,8.11,0,0,0-.82,1.79l0,.07c0,.11-.07.22-.1.33a8.63,8.63,0,0,1-.79-3,9.07,9.07,0,0,1,.42-3.49,8.7,8.7,0,0,1,8.31-6.07Z" transform="translate(-6.96 -4.01)" style="fill:#9a9ea5"/><path id="_Path_38" data-name="&lt;Path&gt;" d="M849.76,181.81a8,8,0,0,1,6.83,3.77l-.1,0a7.34,7.34,0,0,0-3.44-.37,12.49,12.49,0,0,0-2.5.55,14.76,14.76,0,0,0-3.58,1.74,15.54,15.54,0,0,0-2.23,1.79,11.56,11.56,0,0,0-2.08,2.65,8.41,8.41,0,0,0-.78,1.89l0,.08c0,.12-.07.23-.09.34a8.65,8.65,0,0,1-.76-3,9,9,0,0,1,.46-3.49,8.72,8.72,0,0,1,8.29-6Z" transform="translate(-6.96 -4.01)" style="fill:#999da4"/><path id="_Path_39" data-name="&lt;Path&gt;" d="M849.76,181.81a8.08,8.08,0,0,1,6.78,3.63l-.1,0a7.29,7.29,0,0,0-3.51-.5,11.93,11.93,0,0,0-2.53.51,13.78,13.78,0,0,0-3.58,1.73A14.45,14.45,0,0,0,844.6,189a11.3,11.3,0,0,0-2,2.75,8.77,8.77,0,0,0-.74,2l0,.08c0,.12-.06.24-.09.36a8.67,8.67,0,0,1-.73-3,9,9,0,0,1,.49-3.48,8.74,8.74,0,0,1,8.28-5.9Z" transform="translate(-6.96 -4.01)" style="fill:#989ca3"/><path id="_Path_40" data-name="&lt;Path&gt;" d="M849.76,181.81a8.16,8.16,0,0,1,6.72,3.48l-.1,0a7.29,7.29,0,0,0-3.58-.62,11.46,11.46,0,0,0-2.56.46,12.93,12.93,0,0,0-3.59,1.72,13.53,13.53,0,0,0-2.19,1.86,11.12,11.12,0,0,0-2,2.84,9.16,9.16,0,0,0-.71,2.07l0,.09c0,.13-.06.25-.08.38a8.69,8.69,0,0,1-.7-3,9,9,0,0,1,.53-3.48,8.76,8.76,0,0,1,8.26-5.82Z" transform="translate(-6.96 -4.01)" style="fill:#979ba2"/><path id="_Path_41" data-name="&lt;Path&gt;" d="M849.76,181.81a8.26,8.26,0,0,1,6.66,3.34l-.1,0a7.33,7.33,0,0,0-3.64-.74,11.06,11.06,0,0,0-2.58.42,12.18,12.18,0,0,0-3.6,1.71,12.74,12.74,0,0,0-2.17,1.9,11,11,0,0,0-1.94,2.94,9.61,9.61,0,0,0-.67,2.16l0,.09c0,.13-.05.27-.07.4a8.71,8.71,0,0,1-.67-3,9,9,0,0,1,.56-3.47,8.78,8.78,0,0,1,8.25-5.74Z" transform="translate(-6.96 -4.01)" style="fill:#969ba1"/><path id="_Path_42" data-name="&lt;Path&gt;" d="M849.76,181.81a8.38,8.38,0,0,1,6.61,3.2l-.11,0a7.4,7.4,0,0,0-3.71-.86,10.71,10.71,0,0,0-2.61.37,11.51,11.51,0,0,0-3.6,1.7,12.06,12.06,0,0,0-2.15,1.93,10.9,10.9,0,0,0-1.89,3,10,10,0,0,0-.63,2.25l0,.1c0,.14-.05.28-.07.42a8.73,8.73,0,0,1-.64-3,8.94,8.94,0,0,1,.59-3.47,8.8,8.8,0,0,1,8.23-5.66Z" transform="translate(-6.96 -4.01)" style="fill:#959aa1"/><path id="_Path_43" data-name="&lt;Path&gt;" d="M849.76,181.81a8.51,8.51,0,0,1,6.55,3.06l-.11,0a7.49,7.49,0,0,0-3.78-1,10.42,10.42,0,0,0-2.63.33,10.92,10.92,0,0,0-3.61,1.69,11.46,11.46,0,0,0-2.13,2A10.9,10.9,0,0,0,842.2,191a10.57,10.57,0,0,0-.59,2.34v.1c0,.15,0,.29-.06.44a8.75,8.75,0,0,1-.61-3,8.91,8.91,0,0,1,2.5-6.36A8.81,8.81,0,0,1,849.76,181.81Z" transform="translate(-6.96 -4.01)" style="fill:#9499a0"/><path id="_Path_44" data-name="&lt;Path&gt;" d="M849.76,181.81a8.67,8.67,0,0,1,6.49,2.92h-.11a7.61,7.61,0,0,0-3.84-1.11,10.16,10.16,0,0,0-2.66.29A10.38,10.38,0,0,0,846,185.6a11,11,0,0,0-3.91,5.23,11.17,11.17,0,0,0-.56,2.43s0,.07,0,.1,0,.3-.05.46a8.86,8.86,0,0,1,8.27-12Z" transform="translate(-6.96 -4.01)" style="fill:#93989f"/><path id="_Path_45" data-name="&lt;Path&gt;" d="M841.48,193.28s0-.07,0-.11a12.45,12.45,0,0,1,.52-2.52,10.8,10.8,0,0,1,3.85-5.37,9.86,9.86,0,0,1,6.31-1.91,7.76,7.76,0,0,1,3.91,1.23h.11a8.86,8.86,0,0,0-14.76,9.16C841.45,193.59,841.47,193.44,841.48,193.28Z" transform="translate(-6.96 -4.01)" style="fill:#92979e"/></g><g id="_Group_4" data-name="&lt;Group&gt;"><circle id="_Path_46" data-name="&lt;Path&gt;" cx="842.86" cy="186.62" r="3.66" style="fill:#878b92"/><circle id="_Path_47" data-name="&lt;Path&gt;" cx="842.86" cy="186.62" r="3.64" style="fill:#888c93"/><circle id="_Path_48" data-name="&lt;Path&gt;" cx="842.86" cy="186.61" r="3.63" style="fill:#898d94"/><circle id="_Path_49" data-name="&lt;Path&gt;" cx="842.86" cy="186.61" r="3.62" style="fill:#8a8f96"/><circle id="_Path_50" data-name="&lt;Path&gt;" cx="842.86" cy="186.61" r="3.6" style="fill:#8b9097"/><circle id="_Path_51" data-name="&lt;Path&gt;" cx="842.86" cy="186.61" r="3.59" style="fill:#8c9198"/><circle id="_Path_52" data-name="&lt;Path&gt;" cx="842.86" cy="186.61" r="3.58" style="fill:#8e9299"/><circle id="_Path_53" data-name="&lt;Path&gt;" cx="842.86" cy="186.61" r="3.56" style="fill:#8f939b"/><circle id="_Path_54" data-name="&lt;Path&gt;" cx="842.86" cy="186.61" r="3.55" style="fill:#90949c"/><circle id="_Path_55" data-name="&lt;Path&gt;" cx="842.87" cy="186.61" r="3.54" style="fill:#91969d"/><circle id="_Path_56" data-name="&lt;Path&gt;" cx="842.87" cy="186.61" r="3.52" style="fill:#92979e"/><circle id="_Path_57" data-name="&lt;Path&gt;" cx="842.87" cy="186.61" r="3.51" style="fill:#93989f"/><circle id="_Path_58" data-name="&lt;Path&gt;" cx="842.87" cy="186.61" r="3.5" style="fill:#9499a1"/><circle id="_Path_59" data-name="&lt;Path&gt;" cx="842.87" cy="186.61" r="3.48" style="fill:#959aa2"/><circle id="_Path_60" data-name="&lt;Path&gt;" cx="842.87" cy="186.6" r="3.47" style="fill:#969ca3"/><circle id="_Path_61" data-name="&lt;Path&gt;" cx="842.87" cy="186.6" r="3.46" style="fill:#979da4"/><circle id="_Path_62" data-name="&lt;Path&gt;" cx="842.87" cy="186.6" r="3.44" style="fill:#989ea5"/><circle id="_Path_63" data-name="&lt;Path&gt;" cx="842.87" cy="186.6" r="3.43" style="fill:#999fa7"/><circle id="_Path_64" data-name="&lt;Path&gt;" cx="842.87" cy="186.6" r="3.42" style="fill:#9ba0a8"/><circle id="_Path_65" data-name="&lt;Path&gt;" cx="842.87" cy="186.6" r="3.4" style="fill:#9ca1a9"/><circle id="_Path_66" data-name="&lt;Path&gt;" cx="842.87" cy="186.6" r="3.39" style="fill:#9da3aa"/><circle id="_Path_67" data-name="&lt;Path&gt;" cx="842.88" cy="186.6" r="3.37" style="fill:#9ea4ac"/><circle id="_Path_68" data-name="&lt;Path&gt;" cx="842.88" cy="186.6" r="3.36" style="fill:#9fa5ad"/><circle id="_Path_69" data-name="&lt;Path&gt;" cx="842.88" cy="186.6" r="3.35" style="fill:#a0a6ae"/><circle id="_Path_70" data-name="&lt;Path&gt;" cx="842.88" cy="186.6" r="3.33" style="fill:#a1a7af"/><circle id="_Path_71" data-name="&lt;Path&gt;" cx="842.88" cy="186.6" r="3.32" style="fill:#a2a9b0"/><circle id="_Path_72" data-name="&lt;Path&gt;" cx="842.88" cy="186.59" r="3.31" style="fill:#a3aab2"/><circle id="_Path_73" data-name="&lt;Path&gt;" cx="842.88" cy="186.59" r="3.29" style="fill:#a4abb3"/><circle id="_Path_74" data-name="&lt;Path&gt;" cx="842.88" cy="186.59" r="3.28" style="fill:#a5acb4"/><circle id="_Path_75" data-name="&lt;Path&gt;" cx="842.88" cy="186.59" r="3.27" style="fill:#a6adb5"/><circle id="_Path_76" data-name="&lt;Path&gt;" cx="842.88" cy="186.59" r="3.25" style="fill:#a8afb7"/><circle id="_Path_77" data-name="&lt;Path&gt;" cx="842.88" cy="186.59" r="3.24" style="fill:#a9b0b8"/><circle id="_Path_78" data-name="&lt;Path&gt;" cx="842.89" cy="186.59" r="3.23" style="fill:#aab1b9"/><circle id="_Path_79" data-name="&lt;Path&gt;" cx="842.89" cy="186.59" r="3.21" style="fill:#abb2ba"/><circle id="_Path_80" data-name="&lt;Path&gt;" cx="842.89" cy="186.59" r="3.2" style="fill:#acb3bb"/><circle id="_Path_81" data-name="&lt;Path&gt;" cx="842.89" cy="186.59" r="3.19" style="fill:#adb4bd"/><circle id="_Path_82" data-name="&lt;Path&gt;" cx="842.89" cy="186.59" r="3.17" style="fill:#aeb6be"/><circle id="_Path_83" data-name="&lt;Path&gt;" cx="842.89" cy="186.58" r="3.16" style="fill:#afb7bf"/><circle id="_Path_84" data-name="&lt;Path&gt;" cx="842.89" cy="186.58" r="3.15" style="fill:#b0b8c0"/><circle id="_Path_85" data-name="&lt;Path&gt;" cx="842.89" cy="186.58" r="3.13" style="fill:#b1b9c1"/><circle id="_Path_86" data-name="&lt;Path&gt;" cx="842.89" cy="186.58" r="3.12" style="fill:#b2bac3"/><circle id="_Path_87" data-name="&lt;Path&gt;" cx="842.89" cy="186.58" r="3.11" style="fill:#b3bcc4"/><circle id="_Path_88" data-name="&lt;Path&gt;" cx="842.89" cy="186.58" r="3.09" style="fill:#b4bdc5"/><circle id="_Path_89" data-name="&lt;Path&gt;" cx="842.89" cy="186.58" r="3.08" style="fill:#b6bec6"/><circle id="_Path_90" data-name="&lt;Path&gt;" cx="842.9" cy="186.58" r="3.07" style="fill:#b7bfc8"/><circle id="_Path_91" data-name="&lt;Path&gt;" cx="842.9" cy="186.58" r="3.05" style="fill:#b8c0c9"/><circle id="_Path_92" data-name="&lt;Path&gt;" cx="842.9" cy="186.58" r="3.04" style="fill:#b9c1ca"/><circle id="_Path_93" data-name="&lt;Path&gt;" cx="842.9" cy="186.58" r="3.02" style="fill:#bac3cb"/><circle id="_Path_94" data-name="&lt;Path&gt;" cx="842.9" cy="186.58" r="3.01" style="fill:#bbc4cc"/><circle id="_Path_95" data-name="&lt;Path&gt;" cx="842.9" cy="186.57" r="3" style="fill:#bcc5ce"/><circle id="_Path_96" data-name="&lt;Path&gt;" cx="842.9" cy="186.57" r="2.98" style="fill:#bdc6cf"/><circle id="_Path_97" data-name="&lt;Path&gt;" cx="842.9" cy="186.57" r="2.97" style="fill:#bec7d0"/><circle id="_Path_98" data-name="&lt;Path&gt;" cx="842.9" cy="186.57" r="2.96" style="fill:#bfc9d1"/><circle id="_Path_99" data-name="&lt;Path&gt;" cx="842.9" cy="186.57" r="2.94" style="fill:#c0cad2"/><circle id="_Path_100" data-name="&lt;Path&gt;" cx="842.9" cy="186.57" r="2.93" style="fill:#c1cbd4"/><circle id="_Path_101" data-name="&lt;Path&gt;" cx="842.9" cy="186.57" r="2.92" style="fill:#c3ccd5"/><circle id="_Path_102" data-name="&lt;Path&gt;" cx="842.91" cy="186.57" r="2.9" style="fill:#c4cdd6"/><circle id="_Path_103" data-name="&lt;Path&gt;" cx="842.91" cy="186.57" r="2.89" style="fill:#c5ced7"/><circle id="_Path_104" data-name="&lt;Path&gt;" cx="842.91" cy="186.57" r="2.88" style="fill:#c6d0d9"/><circle id="_Path_105" data-name="&lt;Path&gt;" cx="842.91" cy="186.57" r="2.86" style="fill:#c7d1da"/><circle id="_Path_106" data-name="&lt;Path&gt;" cx="842.91" cy="186.56" r="2.85" style="fill:#c8d2db"/></g><path d="M891.68,520.22h0a17.87,17.87,0,0,0-2.29,7.17,47,47,0,0,1-2.17,9.2,24.3,24.3,0,0,1-7.55,10.68,102.29,102.29,0,0,0-17.48-30.15,24.29,24.29,0,0,1,13.08-1.22,47,47,0,0,1,9.05,2.71,17.83,17.83,0,0,0,7.36,1.61ZM846,474.54h0a17.85,17.85,0,0,0,1.6,7.36,47,47,0,0,1,2.72,9.05A24.29,24.29,0,0,1,849.09,504a102.32,102.32,0,0,0-30.19-17.44,24.28,24.28,0,0,1,10.72-7.6,47.05,47.05,0,0,1,9.2-2.18,17.84,17.84,0,0,0,7.17-2.29Zm38.48,90.67a24.32,24.32,0,0,1,11.87,5.47,47.09,47.09,0,0,1,6.48,6.88,17.85,17.85,0,0,0,5.57,5.07H886A103,103,0,0,0,884.48,565.21ZM721.19,474.54h0a17.88,17.88,0,0,0,7.17,2.29,47.06,47.06,0,0,1,9.2,2.17,24.28,24.28,0,0,1,10.72,7.6A102.28,102.28,0,0,0,718.1,504,24.28,24.28,0,0,1,716.87,491a47,47,0,0,1,2.71-9.05A17.84,17.84,0,0,0,721.19,474.54Zm-45.68,45.68h0a17.86,17.86,0,0,0,7.36-1.61,47.06,47.06,0,0,1,9.05-2.72A24.3,24.3,0,0,1,705,517.13a102.34,102.34,0,0,0-17.48,30.15A24.3,24.3,0,0,1,680,536.6a47,47,0,0,1-2.17-9.2,17.86,17.86,0,0,0-2.29-7.17Zm-16.72,62.4a17.86,17.86,0,0,0,5.57-5.07,47,47,0,0,1,6.48-6.88,24.3,24.3,0,0,1,11.87-5.47,103,103,0,0,0-1.5,17.42H658.79Zm124.8-124.8h0a17.86,17.86,0,0,0,5.07,5.57,47,47,0,0,1,6.88,6.48,24.28,24.28,0,0,1,5.49,12,103.1,103.1,0,0,0-34.87,0,24.28,24.28,0,0,1,5.49-12,47,47,0,0,1,6.88-6.48,17.86,17.86,0,0,0,5.07-5.57Z" transform="translate(-6.96 -4.01)" style="fill:#fab60f"/><path d="M762.77,582.65l7.7,0c1-6.51-1-11.52-7.55-10.32-5.55,1-11.5,6.52-15.1,10.32l10.16,0c1.13-.74,3.35-1.59,4.26-1A1.23,1.23,0,0,1,762.77,582.65Z" transform="translate(-6.96 -4.01)" style="fill:#d52736"/><path d="M797.42,582.63H807c.46-11.35-1.37-23.07-6.65-33.21-4.8-9.23-12.73-15.5-23-17-15-2.21-30.12,4.13-42.91,13.21-13.93,9.89-25.42,23.31-35.46,37l12.7,0c11.43-16.2,37.72-40.79,57.06-41,6.16-.05,12.43,1.4,17.06,5.53,3.36,3,7.43,8.81,7.23,13.53-.12,2.8-2.6,3.66-5,2.79-1.85-.67-3.16-2.36-4.45-4.14a18.56,18.56,0,0,0-18-7.62c-8.59,1.17-19.23,7.84-26.1,13.91a166.18,166.18,0,0,0-16.48,17h13.65a69.9,69.9,0,0,1,17.08-15.42,38.25,38.25,0,0,1,7.58-3.71c7-2.41,14-1.8,17.1,6.94,1.22,3.44,1.4,6.45,1,12v.23h9.28l0-.28c0-3-.06-5.06.21-8.06.23-2.58,1-5.26,3.44-5.58,5.1-1.07,4.85,10.27,5,13.92Z" transform="translate(-6.96 -4.01)" style="fill:#d52736"/><path d="M817.13,582.63h9.69c.47-10.53-.43-23-3.84-33.9a60.73,60.73,0,0,0-2.31-6.23,53.29,53.29,0,0,0-8.15-12.91,56,56,0,0,0-13-11.41,49.14,49.14,0,0,0-4.53-2.52h0a45.87,45.87,0,0,0-4.8-2h0c-18.87-6.7-38-1.94-54,6.77-3.12,1.7-6.13,3.55-9,5.48s-5.58,4-8.14,6.05h0a111,111,0,0,0-10.61,9.82c-.74.78-1.47,1.58-2.19,2.39-1.9,2.16-4.84,5.19-4,8.32.69,2.48,3.89,1.75,5,.9a32.64,32.64,0,0,0,5.2-3.74c2.18-1.84,4.24-3.83,6.39-5.7a107.73,107.73,0,0,1,26.78-17.35q2.93-1.29,5.86-2.32t5.79-1.77h0c16.67-4.33,34.79-1.52,46.39,12.07,11.17,13.09,13.21,30.62,13.38,48ZM696.9,567.82a33.07,33.07,0,0,0,3.21-3.64c1.55-2,1.7-3.86,1.09-5.23a3.58,3.58,0,0,0-1-1.29,3.36,3.36,0,0,0-1.4-.7,4.08,4.08,0,0,0-4,1.72c-1.45,1.76-3.45,4.77-3.85,7.44a5.5,5.5,0,0,0,0,1.44,3.57,3.57,0,0,0,.37,1.25h0a1.78,1.78,0,0,0,1.61,1,3.46,3.46,0,0,0,.49,0,4.84,4.84,0,0,0,.56-.1h0A7,7,0,0,0,696.9,567.82Z" transform="translate(-6.96 -4.01)" style="fill:#d52736"/><path d="M841.37,582.63h.1a4.29,4.29,0,0,0,3.79-2.12,5.21,5.21,0,0,0,.51-1.18,7.09,7.09,0,0,0,.27-1.54h0v-.12h0c.77-26.91-7.47-49.19-21.47-64.33a68.47,68.47,0,0,0-8.79-8,66.39,66.39,0,0,0-9.95-6.27h0l-.06,0h0a70.89,70.89,0,0,0-38.2-7.21,75.76,75.76,0,0,0-15.07,2.83h0a85.58,85.58,0,0,0-36.21,22.27q-3,3-5.69,6.33-1.34,1.63-2.61,3.33a127.44,127.44,0,0,1,22.88-15.91q2.71-1.45,5.46-2.72t5.55-2.36h0a83.85,83.85,0,0,1,21.1-5.31,78.09,78.09,0,0,1,21.12.53,64.09,64.09,0,0,1,14.46,4q1.3.54,2.55,1.15t2.42,1.27h0c15.67,8.58,26.56,26.19,31.36,46.08a99.23,99.23,0,0,1,2.76,23.88h0v.23c.08,2.15.82,4,2.08,4.77a2.83,2.83,0,0,0,.76.34h0a3,3,0,0,0,.88.11Z" transform="translate(-6.96 -4.01)" style="fill:#d52736"/><path d="M813.35,492.93a94.88,94.88,0,0,1,65.08,89.7H859.78c1.23-36.52-14.71-69.49-46.43-89.7Z" transform="translate(-6.96 -4.01)" style="fill:#fab60f"/><path d="M703.93,612h-7.54l-1.87,6.57h-6l8-25.17h7.62l8.18,25.17H706Zm-6.68-4.26H703q-2.28-7.38-2.95-10.12H700l-1.19,4.78-1.57,5.34ZM731.64,612H724.1l-1.87,6.57h-6l8-25.17h7.62L740,618.53h-6.27ZM725,607.7h5.79q-2.28-7.38-3-10.12h-.07l-1.19,4.78L725,607.7Zm20.76,10.72V593.7a53.89,53.89,0,0,1,8-.56q8,0,11.55,3.37a11.67,11.67,0,0,1,3.5,8.81q0,6.42-4,10t-12.3,3.53A53.93,53.93,0,0,1,745.71,618.41Zm5.79-20.61V614.2a11.92,11.92,0,0,0,2.09.11,9.26,9.26,0,0,0,6.68-2.27,8.59,8.59,0,0,0,2.36-6.5,7.75,7.75,0,0,0-2.15-5.92,8.72,8.72,0,0,0-6.21-2,13.87,13.87,0,0,0-2.76.22Zm23.45-4.44h5.79V603h9.9v-9.67h5.79v25.17h-5.79V608h-9.9v10.49h-5.79ZM817.4,612h-7.54L808,618.53h-6l8-25.17h7.62l8.18,25.17h-6.27L817.4,612Zm-6.68-4.26h5.79q-2.28-7.38-3-10.12h-.07l-1.19,4.78-1.57,5.34ZM845.11,612h-7.54l-1.87,6.57h-6l8-25.17h7.62l8.18,25.17h-6.27L845.11,612Zm-6.68-4.26h5.79q-2.28-7.38-3-10.12h-.07L840,602.36l-1.57,5.34Zm20.76,10.83V593.7a45.86,45.86,0,0,1,7.8-.56q5.71,0,8.21,1.89a6.35,6.35,0,0,1,2.5,5.4,6.16,6.16,0,0,1-1.26,3.78,6.72,6.72,0,0,1-3.26,2.38v.15q2.35.88,3.4,4.63,1.92,6.76,2.09,7.17h-5.9a29,29,0,0,1-1.79-5.86,6.58,6.58,0,0,0-1.42-3.14,3.94,3.94,0,0,0-2.88-.9h-1.79v9.9Zm5.71-20.95v6.91h2.39a5.4,5.4,0,0,0,3.42-1,3.17,3.17,0,0,0,1.25-2.64,3.1,3.1,0,0,0-1.13-2.57,5,5,0,0,0-3.2-.9,12.73,12.73,0,0,0-2.73.19Z" transform="translate(-6.96 -4.01)" style="fill:#d52736"/></g><path id="_Path_107" data-name="&lt;Path&gt;" d="M964,167.7A43.37,43.37,0,0,0,934.21,156l-302.76.78A43.53,43.53,0,0,0,588,200.38l.07,29.11,3.72,702Z" transform="translate(-6.96 -4.01)" style="fill:#fff;opacity:0.1"/></g><path d="M187.25,695.85H52.71a18.9,18.9,0,0,0-18.9,18.9V939.28a18.9,18.9,0,0,0,18.9,18.9H75.93c-.65-2.26-1.24-4.38-1.77-6.27-.8-2.9-1.56-5.63-2-6.74-2.29-5.83-10.52-22-14-26.68s-5-12-3.71-18.9c1.13-6.09,4.17-11,8.58-13.74,9.94-6.26,25.58-6,34.84,5.22a66.45,66.45,0,0,1,10.87,14.78c.15-11.38,0-24.55-.28-36.77h-2.19a8.1,8.1,0,0,1-8.1-8.1V766.49a8.1,8.1,0,0,1,8.1-8.1H158a8.1,8.1,0,0,1,8.1,8.1V861a8.08,8.08,0,0,1-6.16,7.84V870q.81,0,1.67,0c6,0,15.59,2.18,20.13,14.93a25.29,25.29,0,0,1,10.83-1.76,20.82,20.82,0,0,1,13.59,5.06V714.74A18.9,18.9,0,0,0,187.25,695.85Zm-21.15,31H109.4V715.64h56.7Z" transform="translate(-6.96 -4.01)" style="fill:#161922"/><path d="M132.12,800c12.4,0,22.67,5.93,24.7,13.72h.05v-21.6h-49.5v21.6h.05C109.46,805.95,119.73,800,132.12,800Z" transform="translate(-6.96 -4.01)" style="fill:#d52736"/><path d="M115.76,929c2.78-25.07-.51-100.9-.51-100.9s0-14.4,18.67-14.4c17.2,0,17.89,17.32,17.89,17.89s0,49.83,0,49.83,1.43-3.37,9.76-3.37,12.92,5.71,14.23,17.55c0,0,.34,4.47,3.63.93,2.82-3,5.54-5.54,12.85-5.32,9.28.28,12.49,6.86,14.51,14.74,0,0,2.44,5.16,5.85.45,2.36-3.26,25.31-9.11,25.42,15.07.11,23.87,4.65,65.64,0,86.84-3.14,14.33-16,34.87-25,53.1H132.58s-3.82-3.49-6.52-13.61-12.82-33-25.87-53-18-46.35-20.47-52.65-11-23.17-15.07-28.57-3.37-17.1,2.7-20.92,17.55-4.95,24.52,3.82a56.42,56.42,0,0,1,12.37,18.9c4.27,11.25,7.87,15.07,10.57,17.77C114.8,933.2,115.64,930.1,115.76,929Z" transform="translate(-6.96 -4.01)" style="fill:#ff9a66"/><rect x="104.13" y="1063.39" width="119.02" height="21.37" rx="10.69" ry="10.69" style="fill:#fab60f"/><path d="M142,704.89a4.5,4.5,0,0,1-4.38-3.47c-1.07-4.56-26.08-112-21.55-146.2,4.19-31.74,16.28-72.32,73-104.74C251.88,414.6,282.56,381,295,334.38c3.9-14.67,5.75-34.37,7.89-57.19,5.11-54.51,11.48-122.35,50.2-174.54C377.35,69.91,413,43.3,456.21,25.7,493.69,10.43,534.63,2.78,571.5,4.17c33.62,1.26,79.66,3,123.88,22.69a190.46,190.46,0,0,1,62.77,44.92c20.43,22.12,36.95,50.36,49.08,83.94a4.5,4.5,0,0,1-8.46,3.06C748.54,19.82,637.5,15.65,571.16,13.16,505.33,10.7,411.24,39.32,360.28,108c-37.22,50.17-43.46,116.62-48.47,170-2.18,23.22-4.06,43.27-8.16,58.66-6.93,26.06-19.72,48.62-39.08,69-17.16,18-39.73,34.76-71,52.64-53,30.28-64.41,66.58-68.57,98.1-4.31,32.61,21.14,141.87,21.39,143a4.5,4.5,0,0,1-3.36,5.41A4.55,4.55,0,0,1,142,704.89Z" transform="translate(-6.96 -4.01)"/></svg>