<svg id="Layer_1" data-name="Layer 1" xmlns="http://www.w3.org/2000/svg" viewBox="0 0 292.9 284.92"><title>bill-payment</title><g id="Page-1"><g id="Home-page-5-Copy-2"><g id="img-new-services-iot"><circle id="Oval" cx="142.1" cy="145.64" r="126" style="fill:#fff;fill-opacity:0.239999994635582"/><g id="iot"><path id="Path_143" data-name="Path 143" d="M52.16,232.58c-7.08,14.16-7.61,23-4,25.94,9.53,7.89,58.1-35.06,108.49-95.92S240.14,46,230.61,38.11c-3.2-2.65-10.8.43-21.38,8" transform="translate(-0.9 -0.36)" style="fill:none;stroke:#fff;stroke-linecap:round;stroke-linejoin:round;stroke-opacity:0.200000002980232;stroke-width:1.80000007152557px"/><path id="Path_144" data-name="Path 144" d="M56,64.74c-12.37-5.19-20.7-6.57-23.26-3.21C25.25,71.37,70.13,118.17,133,166.06S252.86,244.79,260.36,235c2.68-3.52-2.29-12.23-11.44-23.57" transform="translate(-0.9 -0.36)" style="fill:none;stroke:#fff;stroke-linecap:round;stroke-linejoin:round;stroke-opacity:0.200000002980232;stroke-width:1.80000007152557px"/><path id="Path_145" data-name="Path 145" d="M25.83,126.43c-13.26,2-21.11,5.11-21.56,9.31C3,148,65.6,164.8,144.17,173.17s143.33,5.19,144.64-7.11c.47-4.4-9.83-10-23.54-15" transform="translate(-0.9 -0.36)" style="fill:none;stroke:#fff;stroke-linecap:round;stroke-linejoin:round;stroke-opacity:0.200000002980232;stroke-width:1.80000007152557px"/><path id="Path_146" data-name="Path 146" d="M27.63,184.58c-15.26-10-24.18-22-24.18-34.95,0-12.64,8.5-24.41,23.09-34.22,25.06-16.86,68.09-28,117-28,49.36,0,92.75,11.34,117.7,28.47,14.15,9.72,22.36,21.3,22.36,33.73s-7.34,21.86-21.52,31.59" transform="translate(-0.9 -0.36)" style="fill:none;stroke:#fff;stroke-linecap:round;stroke-linejoin:round;stroke-opacity:0.200000002980232;stroke-width:1.74870002269745px"/><path id="Path_147" data-name="Path 147" d="M70.8,249.58C53.3,251,42,246.95,34.11,237.09c-21.45-26.83,10.15-87.74,70.57-136s126.8-65.7,148.24-38.87c7.43,9.3,8.5,22.69,4.19,38.23" transform="translate(-0.9 -0.36)" style="fill:none;stroke:#fff;stroke-linecap:round;stroke-linejoin:round;stroke-opacity:0.200000002980232;stroke-width:1.74870002269745px"/><path id="Path_148" data-name="Path 148" d="M123.39,270.7c6.26,9.39,12.77,13.84,20.28,13.84,25.37,0,45.93-60.4,45.93-134.9S169,14.74,143.67,14.74c-7,0-13.67,4.63-19.62,12.9" transform="translate(-0.9 -0.36)" style="fill:none;stroke:#fff;stroke-linecap:round;stroke-linejoin:round;stroke-opacity:0.200000002980232;stroke-width:1.47510004043579px"/><g id="Group_72" data-name="Group 72"><circle id="Ellipse_23" data-name="Ellipse 23" cx="108.04" cy="215.22" r="20.19" style="fill:#fff"/><g id="Group_71" data-name="Group 71"><rect id="Rectangle_54" data-name="Rectangle 54" x="103.04" y="222.97" width="10.01" height="2.34" style="fill:#2f5971"/><rect id="Rectangle_55" data-name="Rectangle 55" x="103.04" y="204.82" width="10.01" height="2.34" style="fill:#2f5971"/><g id="Group_66" data-name="Group 66"><rect id="Rectangle_56" data-name="Rectangle 56" x="103.04" y="201.86" width="10.01" height="1.91" style="fill:#2f5971"/><rect id="Rectangle_57" data-name="Rectangle 57" x="103.04" y="201.86" width="10.01" height="1" style="fill:#2f5971;opacity:0.349999994039536;isolation:isolate"/></g><rect id="Rectangle_58" data-name="Rectangle 58" x="103.04" y="223.27" width="10.01" height="2.34" style="fill:#2f5971"/><g id="Group_67" data-name="Group 67"><rect id="Rectangle_59" data-name="Rectangle 59" x="103.04" y="226.67" width="10.01" height="1.91" style="fill:#2f5971"/><rect id="Rectangle_60" data-name="Rectangle 60" x="103.04" y="228.08" width="10.01" height="1" style="fill:#2f5971;opacity:0.349999994039536;isolation:isolate"/></g><g id="Group_70" data-name="Group 70"><circle id="Ellipse_24" data-name="Ellipse 24" cx="108.94" cy="215.38" r="6.68" transform="translate(-75.32 58.07) rotate(-22.61)" style="fill:#a9dae8"/><circle id="Ellipse_25" data-name="Ellipse 25" cx="108.94" cy="215.38" r="8.58" transform="translate(-126.55 271.79) rotate(-76.77)" style="fill:none"/><g id="Group_69" data-name="Group 69" style="opacity:0.800000011920929"><g id="Group_68" data-name="Group 68"><path id="Path_149" data-name="Path 149" d="M109,214a4.79,4.79,0,0,0-3.63,1.61l.65.58a3.92,3.92,0,0,1,5.91.06l.66-.57A4.79,4.79,0,0,0,109,214Z" transform="translate(-0.9 -0.36)" style="fill:none"/><path id="Path_150" data-name="Path 150" d="M108.94,215.7a3.05,3.05,0,0,0-2.31,1l.61.54a2.24,2.24,0,0,1,3.38,0l.62-.53a3.05,3.05,0,0,0-2.29-1.07Z" transform="translate(-0.9 -0.36)" style="fill:none"/><path id="Path_151" data-name="Path 151" d="M108.92,217.38a1.37,1.37,0,0,0-1,.46l1,.91,1-.89A1.37,1.37,0,0,0,108.92,217.38Z" transform="translate(-0.9 -0.36)" style="fill:none"/><path id="Path_152" data-name="Path 152" d="M108.92,217.38a1.37,1.37,0,0,1,1,.49l.66-.57a2.24,2.24,0,0,0-3.38,0l.65.58a1.37,1.37,0,0,1,1-.46Z" transform="translate(-0.9 -0.36)" style="fill:#fff"/><path id="Path_153" data-name="Path 153" d="M108.94,215.7a3.05,3.05,0,0,1,2.29,1.07l.66-.57a3.92,3.92,0,0,0-5.91-.06l.65.58A3.05,3.05,0,0,1,108.94,215.7Z" transform="translate(-0.9 -0.36)" style="fill:#fff"/><path id="Path_154" data-name="Path 154" d="M109,214a4.79,4.79,0,0,1,3.59,1.69l.66-.57a5.65,5.65,0,0,0-8.53-.09l.65.58A4.79,4.79,0,0,1,109,214Z" transform="translate(-0.9 -0.36)" style="fill:#fff"/></g></g></g><path id="Path_155" data-name="Path 155" d="M114.58,208.93,103.2,221.78a8.58,8.58,0,1,0,11.38-12.86Z" transform="translate(-0.9 -0.36)" style="fill:#fff;opacity:0.25;isolation:isolate"/></g></g><g id="Group_75" data-name="Group 75"><circle id="Ellipse_26" data-name="Ellipse 26" cx="272.71" cy="127.57" r="20.19" style="fill:#fff"/><g id="Group_74" data-name="Group 74"><g id="Group_73" data-name="Group 73"><path id="Path_156" data-name="Path 156" d="M281.78,123.36a8.18,8.18,0,1,0-16.35,0c0,2.73,3,7.2,5.34,10.33v3h5.71v-3S281.78,127,281.78,123.36Z" transform="translate(-0.9 -0.36)" style="fill:#fbbf31"/><path id="Path_157" data-name="Path 157" d="M273.61,115.18v21.49h2.87v-3s5.3-6.72,5.3-10.33A8.18,8.18,0,0,0,273.61,115.18Z" transform="translate(-0.9 -0.36)" style="fill:#fff;opacity:0.25;isolation:isolate"/></g><polygon id="Path_158" data-name="Path 158" points="274.63 140.31 270.79 140.31 269.86 138.12 275.56 138.12 274.63 140.31" style="fill:#fbbf31"/><path id="Path_159" data-name="Path 159" d="M274,136.66l1.84-8.73a2.32,2.32,0,0,0-2.27-2.79h0a2.31,2.31,0,0,0-2.27,2.79l1.84,8.74H274" transform="translate(-0.9 -0.36)" style="fill:none"/><path id="Path_160" data-name="Path 160" d="M274.13,136.85l2.26-10.74a2.85,2.85,0,0,0-2.79-3.44h0a2.85,2.85,0,0,0-2.79,3.44l2.26,10.76h1" transform="translate(-0.9 -0.36)" style="fill:none"/><rect id="Rectangle_61" data-name="Rectangle 61" x="269.86" y="136.89" width="5.71" height="1" style="fill:#fbbf31"/></g></g><g id="Group_84" data-name="Group 84"><circle id="Ellipse_27" data-name="Ellipse 27" cx="228.18" cy="213.5" r="20.19" transform="translate(-18.65 405.94) rotate(-81.19)" style="fill:#fff"/><g id="Group_83" data-name="Group 83"><g id="Group_79" data-name="Group 79"><g id="Group_78" data-name="Group 78"><g id="Group_77" data-name="Group 77"><path id="Path_161" data-name="Path 161" d="M241.11,222.49h-24l-.67-.67v-4.33l.67-.67h24l.67.67v4.33Z" transform="translate(-0.9 -0.36)" style="fill:#a9dae8"/><g id="Group_76" data-name="Group 76"><path id="Path_162" data-name="Path 162" d="M220.74,219.65a.68.68,0,1,1-.68-.68A.68.68,0,0,1,220.74,219.65Z" transform="translate(-0.9 -0.36)" style="fill:#fff"/><path id="Path_163" data-name="Path 163" d="M224.35,219.65a.68.68,0,1,1-.68-.68.68.68,0,0,1,.68.68Z" transform="translate(-0.9 -0.36)" style="fill:#fff"/><path id="Path_164" data-name="Path 164" d="M228,219.65a.68.68,0,1,1-.68-.68A.68.68,0,0,1,228,219.65Z" transform="translate(-0.9 -0.36)" style="fill:#fff"/><path id="Path_165" data-name="Path 165" d="M231.56,219.65a.68.68,0,1,1-.68-.68.68.68,0,0,1,.68.68Z" transform="translate(-0.9 -0.36)" style="fill:#fff"/><path id="Path_166" data-name="Path 166" d="M235.17,219.65a.68.68,0,1,1-.68-.68A.68.68,0,0,1,235.17,219.65Z" transform="translate(-0.9 -0.36)" style="fill:#fff"/><path id="Path_167" data-name="Path 167" d="M238.78,219.65a.68.68,0,1,1-.68-.68A.68.68,0,0,1,238.78,219.65Z" transform="translate(-0.9 -0.36)" style="fill:#fbbf31"/></g><polygon id="Path_168" data-name="Path 168" points="215.49 221.46 216.16 222.13 240.21 222.13 240.88 221.46 215.49 221.46" style="fill:#a9dae8;opacity:0.75;isolation:isolate"/></g><path id="Path_169" data-name="Path 169" d="M241.78,217.49l-.67-.67h-24l-.67.67Z" transform="translate(-0.9 -0.36)" style="fill:#a9dae8;opacity:0.75;isolation:isolate"/></g><polygon id="Path_170" data-name="Path 170" points="216.16 222.13 240.21 222.13 240.88 221.46 240.88 217.12 240.51 216.75 215.91 221.88 216.16 222.13" style="fill:#fff;opacity:0.25;isolation:isolate"/></g><rect id="Rectangle_62" data-name="Rectangle 62" x="218.38" y="211.61" width="2.71" height="4.84" style="fill:#a9dae8"/><polygon id="Path_171" data-name="Path 171" points="220.34 211.61 219.12 211.61 219.6 206.76 219.87 206.76 220.34 211.61" style="fill:#a9dae8"/><g id="Group_82" data-name="Group 82"><g id="Group_80" data-name="Group 80"><path id="Path_172" data-name="Path 172" d="M224.59,202a5.54,5.54,0,0,0-4.45-1.13l.18,1a4.53,4.53,0,0,1,5.33,4.28l1,0A5.54,5.54,0,0,0,224.59,202Z" transform="translate(-0.9 -0.36)" style="fill:none"/><path id="Path_173" data-name="Path 173" d="M223.33,203.61a3.53,3.53,0,0,0-2.84-.72l.16.93a2.59,2.59,0,0,1,3,2.44l.94,0a3.53,3.53,0,0,0-1.32-2.61Z" transform="translate(-0.9 -0.36)" style="fill:none"/><path id="Path_174" data-name="Path 174" d="M222.11,205.13a1.59,1.59,0,0,0-1.27-.32l.28,1.56,1.58-.07a1.58,1.58,0,0,0-.59-1.17Z" transform="translate(-0.9 -0.36)" style="fill:none"/><path id="Path_175" data-name="Path 175" d="M222.11,205.13a1.58,1.58,0,0,1,.59,1.17l1,0a2.59,2.59,0,0,0-3-2.44l.18,1a1.59,1.59,0,0,1,1.27.32Z" transform="translate(-0.9 -0.36)" style="fill:#a9dae8"/><path id="Path_176" data-name="Path 176" d="M223.33,203.61a3.53,3.53,0,0,1,1.32,2.61l1,0a4.53,4.53,0,0,0-5.33-4.28l.18,1A3.53,3.53,0,0,1,223.33,203.61Z" transform="translate(-0.9 -0.36)" style="fill:#a9dae8"/><path id="Path_177" data-name="Path 177" d="M224.59,202a5.54,5.54,0,0,1,2.07,4.1l1,0a6.54,6.54,0,0,0-7.7-6.17l.18,1a5.54,5.54,0,0,1,4.44,1.13Z" transform="translate(-0.9 -0.36)" style="fill:#a9dae8"/></g><g id="Group_81" data-name="Group 81" style="opacity:0.25"><path id="Path_178" data-name="Path 178" d="M224.59,202h0l-.63.79h0a4.53,4.53,0,0,1,1.69,3.35l1,0A5.54,5.54,0,0,0,224.59,202Z" transform="translate(-0.9 -0.36)" style="fill:#fff"/><path id="Path_179" data-name="Path 179" d="M223.33,203.61h0l-.59.73h0a2.59,2.59,0,0,1,1,1.92l.94,0a3.53,3.53,0,0,0-1.32-2.61Z" transform="translate(-0.9 -0.36)" style="fill:#fff"/><path id="Path_180" data-name="Path 180" d="M222.11,205.13h0l-1,1.24h0l1.58-.07a1.58,1.58,0,0,0-.59-1.17Z" transform="translate(-0.9 -0.36)" style="fill:#fff"/><path id="Path_181" data-name="Path 181" d="M222.74,204.34h0l-.63.78h0a1.58,1.58,0,0,1,.59,1.17l1,0a2.59,2.59,0,0,0-1-1.91Z" transform="translate(-0.9 -0.36)" style="fill:#fff"/><path id="Path_182" data-name="Path 182" d="M224,202.82h0l-.63.79h0a3.53,3.53,0,0,1,1.32,2.61l1,0A4.53,4.53,0,0,0,224,202.82Z" transform="translate(-0.9 -0.36)" style="fill:#fff"/><path id="Path_183" data-name="Path 183" d="M225.22,201.25h0l-.63.79h0a5.54,5.54,0,0,1,2.07,4.1l1,0a6.54,6.54,0,0,0-2.44-4.84Z" transform="translate(-0.9 -0.36)" style="fill:#fff"/><path id="Path_184" data-name="Path 184" d="M220.84,204.81l.28,1.56,1-1.24A1.59,1.59,0,0,0,220.84,204.81Z" transform="translate(-0.9 -0.36)" style="fill:#fff"/></g></g><path id="Path_185" data-name="Path 185" d="M221,207a.41.41,0,1,1-.41-.41A.41.41,0,0,1,221,207Z" transform="translate(-0.9 -0.36)" style="fill:#a9dae8"/><polygon id="Path_186" data-name="Path 186" points="218.38 216.45 221.09 211.61 221.09 216.45 218.38 216.45" style="fill:#fff;opacity:0.25;isolation:isolate"/><rect id="Rectangle_63" data-name="Rectangle 63" x="218.38" y="216.15" width="2.71" height="1" style="fill:#a9dae8;opacity:0.75;isolation:isolate"/><polygon id="Path_187" data-name="Path 187" points="220.34 211.61 219.12 211.61 219.14 211.47 220.33 211.47 220.34 211.61" style="fill:#a9dae8;opacity:0.75;isolation:isolate"/></g></g><g id="Group_89" data-name="Group 89"><circle id="Ellipse_28" data-name="Ellipse 28" cx="44.33" cy="197.87" r="20.19" transform="translate(-127.83 88.94) rotate(-45)" style="fill:#fff"/><g id="Group_88" data-name="Group 88"><path id="Rectangle_64" data-name="Rectangle 64" d="M36.66,185.81H52a1.1,1.1,0,0,1,1.1,1.1v21.91a1.1,1.1,0,0,1-1.1,1.1H36.66a1.1,1.1,0,0,1-1.1-1.1V186.91A1.1,1.1,0,0,1,36.66,185.81Z" transform="translate(-0.9 -0.36)" style="fill:#ff9c00"/><path id="Path_188" data-name="Path 188" d="M52.82,186.19l-17,23.36a1.12,1.12,0,0,0,.75.38H52a1.09,1.09,0,0,0,1.09-1.09v-22A1.12,1.12,0,0,0,52.82,186.19Z" transform="translate(-0.9 -0.36)" style="fill:#fff;opacity:0.349999994039536;isolation:isolate"/><path id="Path_189" data-name="Path 189" d="M45.36,208a1,1,0,1,1-1-1A1,1,0,0,1,45.36,208Z" transform="translate(-0.9 -0.36)" style="fill:gray"/><g id="Group_87" data-name="Group 87"><rect id="Rectangle_65" data-name="Rectangle 65" x="36.74" y="187.21" width="13.38" height="18.4" style="fill:#fff"/><g id="Group_86" data-name="Group 86"><rect id="Rectangle_66" data-name="Rectangle 66" x="44.56" y="198.12" width="3.72" height="4.54" style="fill:#d6e0e3"/><g id="Group_85" data-name="Group 85"><rect id="Rectangle_67" data-name="Rectangle 67" x="38.57" y="190.15" width="9.71" height="1" style="fill:#d6e0e3"/><rect id="Rectangle_68" data-name="Rectangle 68" x="38.57" y="191.48" width="9.71" height="1" style="fill:#d6e0e3"/><rect id="Rectangle_69" data-name="Rectangle 69" x="38.57" y="192.81" width="9.71" height="1" style="fill:#d6e0e3"/><rect id="Rectangle_70" data-name="Rectangle 70" x="38.57" y="194.14" width="9.71" height="1" style="fill:#d6e0e3"/><rect id="Rectangle_71" data-name="Rectangle 71" x="38.57" y="195.47" width="9.71" height="1" style="fill:#d6e0e3"/><rect id="Rectangle_72" data-name="Rectangle 72" x="38.57" y="196.8" width="9.71" height="1" style="fill:#d6e0e3"/><rect id="Rectangle_73" data-name="Rectangle 73" x="38.57" y="198.12" width="5.39" height="1" style="fill:#d6e0e3"/><rect id="Rectangle_74" data-name="Rectangle 74" x="38.57" y="199.45" width="5.39" height="1" style="fill:#d6e0e3"/><rect id="Rectangle_75" data-name="Rectangle 75" x="38.57" y="200.78" width="5.39" height="1" style="fill:#d6e0e3"/><rect id="Rectangle_76" data-name="Rectangle 76" x="38.57" y="202.11" width="5.39" height="1" style="fill:#d6e0e3"/></g></g></g></g></g><g id="Group_91" data-name="Group 91"><circle id="Ellipse_29" data-name="Ellipse 29" cx="168.67" cy="256.76" r="20.19" transform="translate(-114.1 378.56) rotate(-80.13)" style="fill:#fff"/><g id="Group_90" data-name="Group 90"><path id="Path_190" data-name="Path 190" d="M154.71,260.42c0-.06,0-.12,0-.18a2.43,2.43,0,0,1,3-2.59,5.15,5.15,0,0,1,6.59-3.22A7.37,7.37,0,0,1,177.92,256a4.85,4.85,0,0,1,4.74,4.43Z" transform="translate(-0.9 -0.36)" style="fill:#fbbf31"/><path id="Path_191" data-name="Path 191" d="M156.89,257.6a2.44,2.44,0,0,1,.76.05,5.15,5.15,0,0,1,6.59-3.22,7.38,7.38,0,0,1,5.25-3.87v9.86H154.71c0-.06,0-.12,0-.18A2.43,2.43,0,0,1,156.89,257.6Z" transform="translate(-0.9 -0.36)" style="fill:#fff;opacity:0.25;isolation:isolate"/></g></g><g id="Group_94" data-name="Group 94"><circle id="Ellipse_30" data-name="Ellipse 30" cx="227.86" cy="48.31" r="20.19" transform="translate(31.68 174.91) rotate(-45)" style="fill:#fff"/><g id="Group_93" data-name="Group 93"><rect id="Rectangle_77" data-name="Rectangle 77" x="218.8" y="44.74" width="16.31" height="12.64" style="fill:#2f5971"/><polygon id="Path_192" data-name="Path 192" points="218.8 57.38 235.11 44.74 235.11 57.38 218.8 57.38" style="fill:#fff;opacity:0.25;isolation:isolate"/><rect id="Rectangle_78" data-name="Rectangle 78" x="218.8" y="44.74" width="16.31" height="1" style="fill:#2ab0c3;opacity:0.560000002384186;isolation:isolate"/><g id="Group_92" data-name="Group 92"><polygon id="Path_193" data-name="Path 193" points="226.96 36.72 237.08 45.17 216.83 45.17 226.96 36.72" style="fill:#2f5971"/><rect id="Rectangle_79" data-name="Rectangle 79" x="231.32" y="38.75" width="1.98" height="3.26" style="fill:#2f5971"/></g><rect id="Rectangle_80" data-name="Rectangle 80" x="225.25" y="51.98" width="3.42" height="5.4" style="fill:#fff"/></g></g><g id="Group_98" data-name="Group 98"><circle id="Ellipse_31" data-name="Ellipse 31" cx="166.1" cy="176.47" r="20.19" transform="translate(-77.06 182.55) rotate(-48.26)" style="fill:#fff"/><g id="Group_97" data-name="Group 97"><g id="Group_96" data-name="Group 96"><g id="Group_95" data-name="Group 95"><path id="Path_194" data-name="Path 194" d="M166.1,165.16a8.62,8.62,0,0,0-8.62,8.62c0,4.76,8.62,14,8.62,14s8.62-9.23,8.62-14A8.62,8.62,0,0,0,166.1,165.16Zm0,13.55a4.93,4.93,0,1,1,4.93-4.93,4.93,4.93,0,0,1-4.93,4.93Z" transform="translate(-0.9 -0.36)" style="fill:#ff9c00"/></g></g><path id="Path_195" data-name="Path 195" d="M166.1,165.16v3.7a4.93,4.93,0,1,1,0,9.85v9.07s8.62-9.23,8.62-14a8.62,8.62,0,0,0-8.62-8.62Z" transform="translate(-0.9 -0.36)" style="fill:#fff;opacity:0.25;isolation:isolate"/></g></g><g id="Group_103" data-name="Group 103"><circle id="Ellipse_32" data-name="Ellipse 32" cx="189.62" cy="120.66" r="20.2" transform="matrix(0.62, -0.78, 0.78, 0.62, -23.76, 193.56)" style="fill:#fff"/><g id="Group_102" data-name="Group 102"><g id="Group_101" data-name="Group 101"><g id="Group_99" data-name="Group 99"><path id="Path_196" data-name="Path 196" d="M200.14,114A7.38,7.38,0,0,0,196,109.5l-.52,1.24a6,6,0,0,1,2.87,8.64l1.16.68A7.38,7.38,0,0,0,200.14,114Z" transform="translate(-0.9 -0.36)" style="fill:none"/><path id="Path_197" data-name="Path 197" d="M197.59,114.82a4.7,4.7,0,0,0-2.65-2.85l-.49,1.15a3.45,3.45,0,0,1,1.64,4.94l1.08.63A4.7,4.7,0,0,0,197.59,114.82Z" transform="translate(-0.9 -0.36)" style="fill:none"/><path id="Path_198" data-name="Path 198" d="M195.13,115.64a2.11,2.11,0,0,0-1.2-1.28l-.82,1.95,1.82,1.07A2.11,2.11,0,0,0,195.13,115.64Z" transform="translate(-0.9 -0.36)" style="fill:none"/><path id="Path_199" data-name="Path 199" d="M195.13,115.64a2.11,2.11,0,0,1-.19,1.74l1.16.68a3.45,3.45,0,0,0-1.64-4.94l-.52,1.24a2.11,2.11,0,0,1,1.2,1.28Z" transform="translate(-0.9 -0.36)" style="fill:#a9dae8"/><path id="Path_200" data-name="Path 200" d="M197.59,114.82a4.7,4.7,0,0,1-.41,3.87l1.15.68a6,6,0,0,0-2.87-8.64l-.52,1.23A4.7,4.7,0,0,1,197.59,114.82Z" transform="translate(-0.9 -0.36)" style="fill:#a9dae8"/><path id="Path_201" data-name="Path 201" d="M200.14,114a7.38,7.38,0,0,1-.65,6.08l1.15.68a8.71,8.71,0,0,0-4.15-12.47L196,109.5A7.38,7.38,0,0,1,200.14,114Z" transform="translate(-0.9 -0.36)" style="fill:#a9dae8"/></g><g id="Group_100" data-name="Group 100" style="opacity:0.25"><path id="Path_202" data-name="Path 202" d="M200.14,114h0l-1.28.42h0a6,6,0,0,1-.53,5l1.16.68a7.38,7.38,0,0,0,.65-6.08Z" transform="translate(-0.9 -0.36)" style="fill:#fff"/><path id="Path_203" data-name="Path 203" d="M197.59,114.82h0l-1.19.4h0a3.45,3.45,0,0,1-.3,2.84l1.08.63A4.7,4.7,0,0,0,197.59,114.82Z" transform="translate(-0.9 -0.36)" style="fill:#fff"/><path id="Path_204" data-name="Path 204" d="M195.13,115.64h0l-2,.67h0l1.82,1.07a2.11,2.11,0,0,0,.19-1.74Z" transform="translate(-0.9 -0.36)" style="fill:#fff"/><path id="Path_205" data-name="Path 205" d="M196.4,115.22h0l-1.27.42h0a2.11,2.11,0,0,1-.19,1.74l1.16.68a3.45,3.45,0,0,0,.3-2.84Z" transform="translate(-0.9 -0.36)" style="fill:#fff"/><path id="Path_206" data-name="Path 206" d="M198.86,114.4h0l-1.27.42h0a4.7,4.7,0,0,1-.41,3.87l1.15.68a6,6,0,0,0,.53-5Z" transform="translate(-0.9 -0.36)" style="fill:#fff"/><path id="Path_207" data-name="Path 207" d="M201.41,113.55h0l-1.27.42h0a7.38,7.38,0,0,1-.65,6.08l1.15.68A8.71,8.71,0,0,0,201.41,113.55Z" transform="translate(-0.9 -0.36)" style="fill:#fff"/><path id="Path_208" data-name="Path 208" d="M193.93,114.36l-.82,1.95,2-.67A2.11,2.11,0,0,0,193.93,114.36Z" transform="translate(-0.9 -0.36)" style="fill:#fff"/></g></g><path id="Path_209" data-name="Path 209" d="M191.12,121a3.08,3.08,0,0,0-2.55-5.61Z" transform="translate(-0.9 -0.36)" style="fill:#2ab0c3"/><polygon id="Path_210" data-name="Path 210" points="185.36 132.7 176.49 132.7 178.18 124.94 183.68 124.94 185.36 132.7" style="fill:#2ab0c3"/><polygon id="Path_211" data-name="Path 211" points="183.68 124.94 176.49 132.7 185.36 132.7 183.68 124.94" style="fill:#fff;opacity:0.25;isolation:isolate"/><polygon id="Path_212" data-name="Path 212" points="185.36 132.7 176.49 132.7 176.63 132.06 185.22 132.06 185.36 132.7" style="fill:#2f5971;opacity:0.349999994039536;isolation:isolate"/><path id="Path_213" data-name="Path 213" d="M185.07,110a9,9,0,0,0,7.39,16.3Z" transform="translate(-0.9 -0.36)" style="fill:#2ab0c3"/><path id="Path_214" data-name="Path 214" d="M184.71,123.36a3.68,3.68,0,1,1-1.08-2.6,3.68,3.68,0,0,1,1.08,2.6Z" transform="translate(-0.9 -0.36)" style="fill:#2ab0c3"/><circle id="Ellipse_33" data-name="Ellipse 33" cx="180.13" cy="123" r="2.6" style="fill:#2f5971;opacity:0.349999994039536;isolation:isolate"/></g></g><g id="Group_107" data-name="Group 107"><circle id="Ellipse_34" data-name="Ellipse 34" cx="89.84" cy="128.54" r="20.19" transform="translate(-52.38 196.15) rotate(-80.74)" style="fill:#fff"/><g id="Group_106" data-name="Group 106"><polygon id="Path_215" data-name="Path 215" points="99.44 129.32 86.23 129.32 86.23 122.67 102.64 122.67 99.44 129.32" style="fill:#2f5971"/><circle id="Ellipse_35" data-name="Ellipse 35" cx="99.8" cy="126" r="2.83" style="fill:#2f5971"/><rect id="Rectangle_81" data-name="Rectangle 81" x="79.35" y="125.16" width="5.07" height="1.66" style="fill:#2f5971"/><rect id="Rectangle_82" data-name="Rectangle 82" x="79.35" y="126" width="5.07" height="1" style="fill:#2f5971;opacity:0.349999994039536;isolation:isolate"/><path id="Path_216" data-name="Path 216" d="M89.52,126.36a3.5,3.5,0,1,1-1-2.47,3.5,3.5,0,0,1,1,2.47Z" transform="translate(-0.9 -0.36)" style="fill:#2f5971"/><rect id="Rectangle_83" data-name="Rectangle 83" x="75.21" y="130.2" width="8.64" height="1.85" transform="translate(-61.95 192.03) rotate(-82.31)" style="fill:#2f5971"/><rect id="Rectangle_84" data-name="Rectangle 84" x="75.72" y="130.69" width="8.64" height="1" transform="translate(-61.58 192.6) rotate(-82.31)" style="fill:#2f5971;opacity:0.349999994039536;isolation:isolate"/><g id="Group_104" data-name="Group 104"><rect id="Rectangle_85" data-name="Rectangle 85" x="74.89" y="134.6" width="6.32" height="1.74" style="fill:#2f5971"/><rect id="Rectangle_86" data-name="Rectangle 86" x="74.17" y="136.34" width="7.75" height="1" style="fill:#2f5971"/></g><rect id="Rectangle_87" data-name="Rectangle 87" x="74.89" y="136.06" width="6.32" height="1" style="fill:#2f5971;opacity:0.439999997615814;isolation:isolate"/><polygon id="Path_217" data-name="Path 217" points="74.89 136.34 81.2 134.6 81.2 136.34 74.89 136.34" style="fill:#fff;opacity:0.25;isolation:isolate"/><g id="Group_105" data-name="Group 105"><rect id="Rectangle_88" data-name="Rectangle 88" x="83.81" y="121.56" width="2.72" height="8.87" style="fill:#2f5971"/><polygon id="Path_218" data-name="Path 218" points="83.81 130.43 86.53 121.56 86.53 130.43 83.81 130.43" style="fill:#fff;opacity:0.25;isolation:isolate"/></g><rect id="Rectangle_89" data-name="Rectangle 89" x="86.53" y="122.67" width="1" height="6.66" style="fill:#2f5971;opacity:0.349999994039536;isolation:isolate"/><polygon id="Path_219" data-name="Path 219" points="83.81 129.24 83.63 129.16 83.63 122.83 83.81 122.75 83.81 129.24" style="fill:#2f5971;opacity:0.25;isolation:isolate"/><path id="Path_220" data-name="Path 220" d="M81.73,126.36a1.48,1.48,0,1,1-.43-1,1.48,1.48,0,0,1,.43,1Z" transform="translate(-0.9 -0.36)" style="fill:#2f5971"/><path id="Path_221" data-name="Path 221" d="M81.08,126.36a.83.83,0,1,1-.83-.83A.83.83,0,0,1,81.08,126.36Z" transform="translate(-0.9 -0.36)" style="fill:#2f5971;opacity:0.349999994039536;isolation:isolate"/><polygon id="Path_222" data-name="Path 222" points="99.44 129.32 89.53 129.32 92.26 122.67 102.64 122.67 99.44 129.32" style="fill:#fff;opacity:0.25;isolation:isolate"/></g></g><g id="Group_113" data-name="Group 113"><circle id="Ellipse_36" data-name="Ellipse 36" cx="20.19" cy="121.43" r="20.19" style="fill:#fff"/><g id="Group_112" data-name="Group 112"><g id="Group_109" data-name="Group 109"><rect id="Rectangle_90" data-name="Rectangle 90" x="17.12" y="111.27" width="6.15" height="8.32" style="fill:#2ab0c3"/><rect id="Rectangle_91" data-name="Rectangle 91" x="17.12" y="118.86" width="6.15" height="1" style="fill:#2ab0c3;opacity:0.560000002384186;isolation:isolate"/><rect id="Rectangle_92" data-name="Rectangle 92" x="20.19" y="111.27" width="3.07" height="8.32" style="fill:#fff;opacity:0.25;isolation:isolate"/><g id="Group_108" data-name="Group 108"><polygon id="Path_223" data-name="Path 223" points="20.19 125.97 13.78 119.56 26.6 119.56 20.19 125.97" style="fill:#2ab0c3"/><polygon id="Path_224" data-name="Path 224" points="20.19 125.97 26.6 119.56 20.19 119.56 20.19 125.97" style="fill:#fff;opacity:0.25;isolation:isolate"/></g></g><g id="Group_111" data-name="Group 111"><g id="Group_110" data-name="Group 110"><polygon id="Path_225" data-name="Path 225" points="29.53 131.59 10.85 131.59 10.85 124.86 13.26 124.86 13.26 129.17 27.11 129.17 27.11 124.86 29.53 124.86 29.53 131.59" style="fill:#2f5971"/></g><polygon id="Path_226" data-name="Path 226" points="12.02 124.86 12.02 130.34 28.29 130.34 28.29 124.86 27.11 124.86 27.11 129.17 13.26 129.17 13.26 124.86 12.02 124.86" style="fill:#fff;opacity:0.25;isolation:isolate"/></g></g></g><circle id="Ellipse_37" data-name="Ellipse 37" cx="125.13" cy="20.55" r="20.19" transform="translate(21.22 94.13) rotate(-45)" style="fill:#fff"/><circle id="Ellipse_38" data-name="Ellipse 38" cx="62.84" cy="51.39" r="20.19" transform="translate(-1.93 101.14) rotate(-77.39)" style="fill:#fff"/><g id="Group_116" data-name="Group 116"><rect id="Rectangle_93" data-name="Rectangle 93" x="113.04" y="11.12" width="22.37" height="14.46" style="fill:#2ab0c3"/><rect id="Rectangle_94" data-name="Rectangle 94" x="113.04" y="25.22" width="22.37" height="1" style="fill:#2ab0c3;opacity:0.560000002384186;isolation:isolate"/><rect id="Rectangle_95" data-name="Rectangle 95" x="114.8" y="13.26" width="18.85" height="11.29" style="fill:#fff"/><rect id="Rectangle_96" data-name="Rectangle 96" x="111.88" y="25.59" width="24.69" height="1.87" style="fill:#a9dae8"/><path id="Path_227" data-name="Path 227" d="M125.42,12.55a.29.29,0,1,1-.29-.29.29.29,0,0,1,.29.29Z" transform="translate(-0.9 -0.36)" style="fill:gray"/><g id="Group_115" data-name="Group 115"><g id="Group_114" data-name="Group 114"><rect id="Rectangle_97" data-name="Rectangle 97" x="116.88" y="15.09" width="5.65" height="3.53" style="fill:#d6e0e3"/><rect id="Rectangle_98" data-name="Rectangle 98" x="116.88" y="19.21" width="5.65" height="1" style="fill:#d6e0e3"/><rect id="Rectangle_99" data-name="Rectangle 99" x="116.88" y="20.24" width="5.65" height="1" style="fill:#d6e0e3"/><rect id="Rectangle_100" data-name="Rectangle 100" x="116.88" y="21.28" width="5.65" height="1" style="fill:#d6e0e3"/><rect id="Rectangle_101" data-name="Rectangle 101" x="116.88" y="22.31" width="5.65" height="1" style="fill:#d6e0e3"/></g><rect id="Rectangle_102" data-name="Rectangle 102" x="123.85" y="15.09" width="7.72" height="7.72" style="fill:#d6e0e3"/></g><rect id="Rectangle_103" data-name="Rectangle 103" x="111.88" y="25.59" width="24.69" height="1" style="fill:#fff;opacity:0.649999976158142;isolation:isolate"/><polygon id="Path_228" data-name="Path 228" points="113.04 25.59 135.41 11.12 135.41 25.59 113.04 25.59" style="fill:#fff;opacity:0.25;isolation:isolate"/></g><g id="Group_118" data-name="Group 118"><g id="Group_117" data-name="Group 117"><polygon id="Path_229" data-name="Path 229" points="50.77 43.96 50.77 57.96 58.82 50.23 50.77 43.96" style="fill:#fbbf31"/><polygon id="Path_230" data-name="Path 230" points="73.11 57.96 73.11 43.96 65.06 50.23 73.11 57.96" style="fill:#fbbf31"/><polygon id="Path_231" data-name="Path 231" points="61.94 52.66 59.57 50.81 51.47 58.6 72.41 58.6 64.31 50.81 61.94 52.66" style="fill:#fbbf31"/><polygon id="Path_232" data-name="Path 232" points="72.2 43.47 64.37 49.56 63.99 49.85 63.62 50.15 61.94 51.46 60.26 50.15 59.88 49.86 59.51 49.56 51.68 43.47 72.2 43.47" style="fill:#fbbf31"/></g><rect id="Rectangle_104" data-name="Rectangle 104" x="61.94" y="43.47" width="11.17" height="15.13" style="fill:#fff;opacity:0.25;isolation:isolate"/></g><g id="Group_122" data-name="Group 122"><circle id="Ellipse_39" data-name="Ellipse 39" cx="133.05" cy="81.66" r="20.19" style="fill:#fff"/><g id="Group_121" data-name="Group 121"><g id="Group_119" data-name="Group 119"><path id="Path_233" data-name="Path 233" d="M134.34,76.62A15.17,15.17,0,0,0,123,81.95l2.1,1.8a12.4,12.4,0,0,1,18.72-.19l2.06-1.84a15.17,15.17,0,0,0-11.49-5.1Z" transform="translate(-0.9 -0.36)" style="fill:none"/><path id="Path_234" data-name="Path 234" d="M134.4,82.14a9.67,9.67,0,0,0-7.26,3.39l2,1.68a7.09,7.09,0,0,1,10.7-.11l1.92-1.71A9.67,9.67,0,0,0,134.4,82.14Z" transform="translate(-0.9 -0.36)" style="fill:none"/><path id="Path_235" data-name="Path 235" d="M134.45,87.47A4.33,4.33,0,0,0,131.2,89l3.3,2.83,3.24-2.89a4.33,4.33,0,0,0-3.28-1.47Z" transform="translate(-0.9 -0.36)" style="fill:none"/><path id="Path_236" data-name="Path 236" d="M134.45,87.47a4.33,4.33,0,0,1,3.28,1.47l2.07-1.84a7.09,7.09,0,0,0-10.7.11l2.1,1.8a4.33,4.33,0,0,1,3.25-1.53Z" transform="translate(-0.9 -0.36)" style="fill:#fbbf31"/><path id="Path_237" data-name="Path 237" d="M134.4,82.14a9.67,9.67,0,0,1,7.32,3.25l2.05-1.83a12.4,12.4,0,0,0-18.72.19l2.09,1.79A9.67,9.67,0,0,1,134.4,82.14Z" transform="translate(-0.9 -0.36)" style="fill:#fbbf31"/><path id="Path_238" data-name="Path 238" d="M134.34,76.62a15.17,15.17,0,0,1,11.49,5.1l2.05-1.83a17.9,17.9,0,0,0-27,.27L123,81.95A15.17,15.17,0,0,1,134.34,76.62Z" transform="translate(-0.9 -0.36)" style="fill:#fbbf31"/></g><g id="Group_120" data-name="Group 120" style="opacity:0.25"><path id="Path_239" data-name="Path 239" d="M134.34,76.62h0l0,2.76h0a12.42,12.42,0,0,1,9.4,4.17l2.06-1.84A15.17,15.17,0,0,0,134.34,76.62Z" transform="translate(-0.9 -0.36)" style="fill:#fff"/><path id="Path_240" data-name="Path 240" d="M134.4,82.14h0l0,2.58h0a7.1,7.1,0,0,1,5.37,2.39l1.92-1.71a9.67,9.67,0,0,0-7.32-3.25Z" transform="translate(-0.9 -0.36)" style="fill:#fff"/><path id="Path_241" data-name="Path 241" d="M134.45,87.47h0l0,4.36h0l3.24-2.89a4.33,4.33,0,0,0-3.28-1.47Z" transform="translate(-0.9 -0.36)" style="fill:#fff"/><path id="Path_242" data-name="Path 242" d="M134.42,84.72h0l0,2.76h0a4.33,4.33,0,0,1,3.28,1.47l2.07-1.84a7.1,7.1,0,0,0-5.37-2.39Z" transform="translate(-0.9 -0.36)" style="fill:#fff"/><path id="Path_243" data-name="Path 243" d="M134.37,79.38h0l0,2.76h0a9.67,9.67,0,0,1,7.32,3.25l2.05-1.83a12.42,12.42,0,0,0-9.4-4.17Z" transform="translate(-0.9 -0.36)" style="fill:#fff"/><path id="Path_244" data-name="Path 244" d="M134.32,73.86h0l0,2.76h0a15.17,15.17,0,0,1,11.49,5.1l2.05-1.83a17.92,17.92,0,0,0-13.57-6Z" transform="translate(-0.9 -0.36)" style="fill:#fff"/><path id="Path_245" data-name="Path 245" d="M131.2,89l3.3,2.83,0-4.36A4.33,4.33,0,0,0,131.2,89Z" transform="translate(-0.9 -0.36)" style="fill:#fff"/></g></g></g><circle id="Ellipse_40" data-name="Ellipse 40" cx="170.6" cy="41.09" r="4.27" style="fill:#ff9c00"/><path id="Path_246" data-name="Path 246" d="M123,154.41a3.25,3.25,0,1,1-2.48-.24,3.25,3.25,0,0,1,2.48.24Z" transform="translate(-0.9 -0.36)" style="fill:#fbbf31"/><path id="Path_247" data-name="Path 247" d="M237,99.34a3.25,3.25,0,1,1-2.48-.24,3.25,3.25,0,0,1,2.48.24Z" transform="translate(-0.9 -0.36)" style="fill:#fbbf31"/><path id="Path_248" data-name="Path 248" d="M85.57,89.3a3.25,3.25,0,1,1-2.48-.24,3.25,3.25,0,0,1,2.48.24Z" transform="translate(-0.9 -0.36)" style="fill:#ff9c00"/><path id="Path_249" data-name="Path 249" d="M52,154.63a3.25,3.25,0,1,1-2.48-.24A3.25,3.25,0,0,1,52,154.63Z" transform="translate(-0.9 -0.36)" style="fill:#fbbf31"/><path id="Path_250" data-name="Path 250" d="M183.35,220.45a3.25,3.25,0,1,1-4.4,1.35,3.25,3.25,0,0,1,4.4-1.35Z" transform="translate(-0.9 -0.36)" style="fill:#2ab0c3"/><path id="Path_251" data-name="Path 251" d="M233.58,174.84a3.25,3.25,0,1,1-2.48-.24,3.25,3.25,0,0,1,2.48.24Z" transform="translate(-0.9 -0.36)" style="fill:#ff9c00"/><path id="Path_252" data-name="Path 252" d="M81.68,239.7a3.25,3.25,0,1,1-4.4,1.35,3.25,3.25,0,0,1,4.4-1.35Z" transform="translate(-0.9 -0.36)" style="fill:#fbbf31"/></g></g></g></g></svg>