<?xml version="1.0" encoding="utf-8"?>
<!-- Generator: Adobe Illustrator 21.0.0, SVG Export Plug-In . SVG Version: 6.00 Build 0)  -->
<svg version="1.1" id="Layer_1" xmlns="http://www.w3.org/2000/svg" xmlns:xlink="http://www.w3.org/1999/xlink" x="0px" y="0px"
	 viewBox="0 0 710 689.5" style="enable-background:new 0 0 710 689.5;" xml:space="preserve">
<style type="text/css">
	.st0{fill:#EFE8F8;}
	.st1{fill:#E1CAFF;}
	.st2{fill:#B671AC;}
	.st3{fill:#AF79E8;}
	.st4{fill:#FEFEFE;stroke:#D6B0FF;stroke-width:7.62;stroke-miterlimit:10;}
	.st5{fill:#9C67FF;}
	.st6{fill:#FEFEFE;}
	.st7{fill:#D6B0FF;}
	.st8{fill:#ECD3E7;}
	.st9{fill:#A2559B;}
	.st10{fill:#E7D1FF;}
	.st11{fill:#EBECEC;}
	.st12{fill:#DD876B;}
	.st13{fill:#C76355;}
	.st14{fill:#3F5E69;}
	.st15{fill:#29383E;}
	.st16{fill:#F6B9AA;}
	.st17{fill:#354A53;}
	.st18{fill:#F2967D;}
	.st19{fill:#E45938;}
	.st20{fill:#C8686B;}
	.st21{fill:#F18D93;}
	.st22{fill:#F5AC97;}
	.st23{fill:#AD62A3;}
	.st24{fill:#F3A2AA;}
	.st25{fill:#EFEFEF;}
	.st26{fill:#FAFAFA;}
	.st27{fill:#D9A6CC;}
	.st28{fill:#EBCCE3;}
	.st29{fill:#EFD2E6;}
	.st30{fill:#E4BDDA;}
	.st31{fill:#F2D7E9;}
	.st32{fill:#EFCFE4;}
	.st33{fill:#FAEBF4;}
	.st34{fill:#F5E0EE;}
	.st35{fill:#DCDDDC;}
	.st36{fill:#E5E6E6;}
</style>
<g id="Layer_x0020_1">
	<g id="_2798082943072">
		<path class="st0" d="M107.9,345.1c-136.4,78.8-136.4,206.5,0,285.3c136.5,78.8,357.7,78.8,494.1,0c136.4-78.8,136.4-206.5,0-285.3
			C465.6,266.4,244.3,266.4,107.9,345.1z"/>
		<path class="st1" d="M67.5,522.3c40.4-23.3,105.9-23.3,146.3,0c40.4,23.3,40.4,61.1,0,84.4c-40.4,23.3-105.9,23.3-146.3,0
			C27.1,583.4,27.1,545.6,67.5,522.3z"/>
		<path class="st1" d="M169.6,481.6c36.1-20.8,94.6-20.8,130.7,0c36.1,20.8,36.1,54.6,0,75.4c-36.1,20.8-94.6,20.8-130.7,0
			C133.5,536.2,133.5,502.4,169.6,481.6L169.6,481.6z"/>
		<path class="st1" d="M425.4,539.1c-29.4-17-77.1-17-106.6,0c-29.4,17-29.4,44.5,0,61.5c29.4,17,77.1,17,106.6,0
			C454.8,583.6,454.8,556,425.4,539.1L425.4,539.1z"/>
		<path class="st2" d="M76.3,521.8l-22.2,12.8c0.3-7.9,1-19.7-0.1-27.6c-6.7-48.4-25.5-64.4-34.5-87.9c-9.4-24.8,2.1-32.8,17-28.3
			c13.3,4,32.7,23.7,38.7,59.9C79.4,474.6,78.7,500.7,76.3,521.8z"/>
		<path class="st3" d="M54.2,534.6L54.2,534.6l6.2-3.6l0,0c-1-22.6-6.4-39.8-12.4-52.1c-8.6-27.9-21.5-41.6-28.4-59.9
			c-2.4-6.2-3.4-11.4-3.4-15.6c0-9.5,5.5-13.9,13.1-13.9c2.3,0,4.8,0.4,7.4,1.2c13.3,4,32.7,23.7,38.7,59.9
			c2.1,12.3,2.9,25.1,2.9,37.6c0,11.9-0.7,23.4-1.9,33.6L54.2,534.6L54.2,534.6z"/>
		<path class="st4" d="M64.6,528.6l-2.2,1.3C70.3,473.4,51,424.5,32,404.2c-0.4-0.4-0.3-1,0-1.4c0.4-0.4,1-0.3,1.4,0
			C52.4,423.1,71.7,472.4,64.6,528.6L64.6,528.6z"/>
		<path class="st2" d="M60.4,531l-12.5,7.2h0c-6.6-19.5-13.4-27.3-21.9-40.2c-7.7-11.7-16.7-18.9-21.4-27.1
			c-2.5-4.3-4.6-9.3-4.6-13.8c0-3.1,1-5.9,3.5-8.2c10-8.8,23,0.5,31.9,10.6C43.2,468.3,58.7,491.4,60.4,531L60.4,531z"/>
		<path class="st5" d="M47.9,538.2L47.9,538.2c-6.6-19.5-13.4-27.3-21.9-40.2c-7.7-11.7-16.7-18.9-21.4-27.1
			c-2.5-4.3-4.6-9.3-4.6-13.8c0-3.1,1-5.9,3.5-8.1c2.8-2.5,5.8-3.5,9-3.5c8,0,16.5,6.8,23,14.1c7.7,8.7,23.3,31.8,25,71.4l-6.2,3.6
			L47.9,538.2L47.9,538.2z"/>
		<path class="st6" d="M55.3,533.9l-1.8,1.1c-5.2-30.9-26.2-66.6-39.2-75c-0.5-0.3-0.6-0.9-0.3-1.4c0.3-0.5,0.9-0.6,1.4-0.3
			C28.8,467.1,49.7,502.6,55.3,533.9L55.3,533.9z"/>
		<path class="st2" d="M617,22.3c0.1-3.7-0.7-5.9-2.4-6.8l0,0l-0.2-0.1c-1.7-0.8-13.2-7.6-14.8-8.5l0,0l-0.2-0.1
			c-1.7-0.8-4.3,0-7.4,2.3c-30.6,23.4-72.7,29.1-104.8,15c-4.4-3.3-8.5-7-12.1-11.2c-0.2-0.2-0.4-0.4-0.6-0.6h0
			c-1-1.1-2.1-2-3.1-2.5c0,0-14-8.1-15-8.7l-0.5-0.3C455,0.2,454.2,0,453.4,0c-2.4,0-4.6,1.9-6.1,5.7
			c-29.1,72.2-91,145.4-132.3,163.7c-3.1,1.4-5.9,3.5-8.1,6.1c-2.9,3.4-4.7,7.5-4.6,11.8c0,92.8,50.9,241.2,147.2,290.7
			c5.7,3.7,11.6,7.1,17.7,10.1C599.7,351.4,617,132.3,617,22.3L617,22.3z"/>
		<path class="st5" d="M614.4,15.3c-1.7-0.8-4.3,0-7.4,2.3c-35.6,27.3-86.9,30.6-119.7,6.4c32.1,14,74.1,8.4,104.7-15.1
			c3.1-2.3,5.6-3.1,7.4-2.3l0.2,0.1l0,0C601.2,7.7,612.7,14.5,614.4,15.3L614.4,15.3z"/>
		<path class="st5" d="M470.9,9.3c-3.4-1.6-6.6,0-8.7,5.1c-29.1,72.2-91,145.4-132.3,163.7c-3.1,1.4-5.9,3.5-8.1,6.1
			c-1.2,1.4-2.3,3-3,4.7l-15-8.7c0.8-1.7,1.8-3.3,3-4.7c2.2-2.6,5.1-4.7,8.1-6.1c41.3-18.3,103.2-91.5,132.3-163.7
			c2.1-5.1,5.2-6.8,8.7-5.1l0.5,0.3c0.5,0.3,3.4,2,6.7,3.8C466.2,6.6,469.6,8.5,470.9,9.3L470.9,9.3z"/>
		<path class="st5" d="M447.7,477.1c-81.8-43.3-130.4-157.9-142.4-247.9c4.9-2.9,9.1-6.4,12.9-10.2
			C325,305.7,369.3,424.7,447.7,477.1z"/>
		<path class="st2" d="M617,22.3c0,110-17.3,329.1-149.8,465.8C369,440,317.3,289.6,317.3,196c-0.1-4.3,1.7-8.5,4.6-11.8
			c2.2-2.6,5.1-4.7,8.1-6.1c41.3-18.3,103.2-91.5,132.3-163.7c2.1-5.1,5.2-6.8,8.7-5.1l0.5,0.3c1,0.6,2.1,1.4,3.1,2.5h0
			c0.2,0.2,0.4,0.4,0.6,0.6c30.8,35.9,91.5,35.9,131.9,4.9c3.1-2.3,5.6-3.1,7.4-2.3l0.2,0.1l0,0C616.2,16.4,617.1,18.7,617,22.3z"/>
		<path class="st7" d="M467.1,488.1C467.1,488.1,467.1,488.1,467.1,488.1c41.7-250,3.7-478.7,3.7-478.7c-0.8-0.4-1.7-0.6-2.5-0.6
			c-1.8,0-3.4,1-4.7,3c1.4-2.1,3-3.1,4.8-3.1c0.8,0,1.6,0.2,2.5,0.6l0.5,0.3c1,0.6,2.1,1.4,3.1,2.5h0c0.2,0.2,0.4,0.4,0.6,0.6
			c16,18.6,39.9,27.6,65,27.6c23.3,0,47.5-7.7,67-22.7c2.3-1.7,4.3-2.6,5.9-2.6c0.5,0,1,0.1,1.5,0.3l0.2,0.1l0,0l0,0
			c1.5,0.8,2.4,2.8,2.4,6.1c0,0.2,0,0.5,0,0.8c0,21.9-0.7,48.1-2.8,77c-6.1,5.6-11.8,12-16.8,19.1c3.4-44.2,2.8-74.4,2.8-74.4
			c-13.2,6.8-34.2,17.2-58.7,17.2c-6.6,0-13.4-0.8-20.5-2.5c25.1,17.8,59.1,24.6,57.2,96.1c0,0.8,0,1.7-0.1,2.5
			c-2.8,9.3-4.3,18.7-4.3,27.5l0,0c0,6,0.7,11.4,2,16.2c-3.9,48.4-11.9,86.4-24,131.6c15.3-36.8,25.8-77.1,33-115.7
			c1.7,1.6,3.5,3,5.4,4.1c2.3,1.3,4.3,2.5,6.3,3.6C576.7,316.5,538.7,414.3,467.1,488.1L467.1,488.1z M324.6,181.5
			C324.6,181.5,324.6,181.5,324.6,181.5c1.6-1.4,3.4-2.6,5.4-3.4c28-12.4,65.5-50.1,95.8-95.6c-30.3,45.6-67.9,83.3-95.9,95.7
			C328,179,326.2,180.2,324.6,181.5L324.6,181.5z"/>
		<path class="st8" d="M467,488.2c-6.6-3.2-13-6.9-19.1-11c0.5,0.3,1,0.5,1.5,0.8c5.2,3.4,10.5,6.5,16,9.3c0.5,0.3,1.1,0.5,1.6,0.8
			C467.1,488.1,467,488.2,467,488.2L467,488.2z"/>
		<path class="st2" d="M467.1,488.1c-0.5-0.3-1.1-0.5-1.6-0.8C466,487.5,466.5,487.8,467.1,488.1L467.1,488.1z M449.4,478
			c-0.5-0.3-1-0.5-1.5-0.8c-0.1,0-0.1-0.1-0.2-0.1c0.5,0.3,1,0.5,1.5,0.8C449.3,477.9,449.3,478,449.4,478z M422.4,456.6
			c-62.6-58.7-98.1-160.8-104.2-237.7c0,0,0,0,0,0C324.3,295.8,359.8,397.9,422.4,456.6z"/>
		<path class="st9" d="M449.2,477.9c-0.5-0.3-1-0.5-1.5-0.8C369.3,424.7,325,305.7,318.1,219c0,0,0.1-0.1,0.1-0.1
			c6.1,76.9,41.6,179,104.2,237.7C430.8,464.6,439.8,471.7,449.2,477.9L449.2,477.9z"/>
		<path class="st2" d="M425.8,82.5c3.2-4.8,6.2-9.6,9.2-14.5c10.6-17.3,19.9-35.5,27.2-53.6c0.2-0.6,0.5-1.2,0.8-1.7
			c0.2-0.3,0.4-0.6,0.6-0.9c-0.5,0.7-0.9,1.6-1.3,2.6C452.9,37.6,440.2,60.9,425.8,82.5L425.8,82.5z"/>
		<path class="st2" d="M435.1,68c10.5-17.3,19.8-35.4,27.1-53.4c0.3-0.7,0.6-1.3,0.9-1.8c-0.3,0.5-0.5,1.1-0.8,1.7
			C455,32.5,445.6,50.7,435.1,68L435.1,68z"/>
		<path class="st3" d="M467.1,488.1c-90.4-44.4-141.4-175.6-148.8-269.2c0.1-0.1,0.1-0.1,0.2-0.2l2.8,3.4l19.1-3.7
			c2.8-5.8-0.1-13.8-4-20.1c-1.7-2.8-8.4-12.2-11.6-16.8c1.6-1.3,3.4-2.4,5.3-3.3c28-12.4,65.6-50.2,95.9-95.7
			c14.4-21.6,27.1-44.9,36.4-68.1c0.4-1,0.9-1.9,1.3-2.6c1.4-2,3-3,4.7-3c0.8,0,1.6,0.2,2.5,0.6C470.8,9.4,508.8,238.1,467.1,488.1
			L467.1,488.1z"/>
		<path class="st10" d="M551.8,332.7c12.1-45.3,20.1-83.3,24-131.6c1.9,6.6,4.9,12,8.9,16C577.6,255.6,567.1,295.9,551.8,332.7
			L551.8,332.7z M578.1,157.3c0-0.8,0-1.7,0.1-2.5c1.9-71.5-32.1-78.2-57.2-96.1c7,1.8,13.9,2.5,20.5,2.5
			c24.5,0,45.5-10.4,58.7-17.2c0,0,0.6,30.2-2.8,74.4C588.9,130.3,582.2,143.8,578.1,157.3L578.1,157.3z"/>
		<polygon class="st6" points="503.6,195.6 503.6,150.1 469.4,169.8 469.4,215.3 435.3,235 435.3,280.5 469.4,260.8 469.4,306.3 
			503.6,286.6 503.6,241.1 537.7,221.4 537.7,175.9 		"/>
		<path class="st11" d="M469.4,215.3L435.3,235v45.5l34.1-19.7v45.5l16.2-9.4c1.7-49.9,1-96-0.8-136l-15.4,8.9V215.3z"/>
		<path class="st2" d="M685.7,93.2c10.1,5.9,16.4,18.4,16.4,36.3c0,35.8-25.1,79.3-56.1,97.1c-15.5,8.9-29.5,9.8-39.7,3.9
			c-6.2-3.6-10.1-5.8-16.3-9.4c-10.1-5.9-16.4-18.4-16.4-36.3c0-35.8,25.1-79.3,56.1-97.1c15.5-8.9,29.5-9.8,39.7-3.9
			C675.6,87.4,679.6,89.6,685.7,93.2L685.7,93.2z"/>
		<path class="st5" d="M621,234.3c-5.4,0-10.4-1.3-14.6-3.7c-6.2-3.6-10.1-5.8-16.3-9.4c-2-1.1-3.8-2.5-5.4-4.1c-4-4-7.1-9.3-8.9-16
			c-1.3-4.8-2-10.2-2-16.2c0-35.8,25.1-79.3,56.1-97.1c9-5.2,17.5-7.7,25-7.7c5.4,0,10.4,1.3,14.6,3.7c6.2,3.6,10.1,5.8,16.3,9.4
			c10.1,5.9,16.4,18.4,16.4,36.3c0,35.8-25.1,79.3-56.1,97.1C637.1,231.8,628.6,234.3,621,234.3L621,234.3z"/>
		<path class="st10" d="M621,233.5c-5.3,0-10-1.2-14.2-3.6c-10.3-6-16-18.6-16-35.6c0-35.5,25-78.7,55.7-96.5c8.7-5,17-7.6,24.6-7.6
			c5.3,0,10,1.2,14.2,3.6c10.3,6,16,18.6,16,35.6c0,35.5-25,78.7-55.7,96.5C637,231,628.7,233.5,621,233.5z"/>
		<path class="st2" d="M671.1,89.5c-7.5,0-16,2.5-25,7.7c-31,17.9-56.1,61.4-56.1,97.1c0,17.9,6.3,30.4,16.4,36.3
			c4.3,2.5,9.2,3.7,14.6,3.7c7.5,0,16-2.5,25-7.7c31-17.9,56.1-61.4,56.1-97.1c0-17.9-6.3-30.4-16.4-36.3
			C681.5,90.7,676.6,89.5,671.1,89.5z M671.1,91.1L671.1,91.1c5.1,0,9.8,1.2,13.8,3.5c10.1,5.8,15.6,18.2,15.6,34.9
			c0,35.2-24.8,78.2-55.3,95.8c-8.6,4.9-16.7,7.4-24.3,7.4c-5.1,0-9.8-1.2-13.8-3.5c-10.1-5.8-15.6-18.2-15.6-34.9
			c0-35.2,24.8-78.2,55.3-95.8C655.4,93.6,663.6,91.1,671.1,91.1z"/>
		<polygon class="st3" points="698.7,87.2 690.8,82.6 640.3,175.3 648.2,179.9 		"/>
		<polygon class="st3" points="627.2,151.3 616.5,145.1 606.5,163.3 617.3,169.5 		"/>
		<polygon class="st7" points="651.1,210.7 617.3,169.5 627.2,151.3 648.2,179.9 698.7,87.2 710,102.6 710,102.6 		"/>
		<polygon class="st5" points="606.5,163.3 617.3,169.5 651.1,210.7 639.7,204.2 		"/>
		<path class="st12" d="M249.5,191c6.3-1.6,9-5,12.8-7.5c4.8-3.1,9.8-4.4,17.5-7.4c1.3-0.5,2.7-1,4-1.5c0.6-0.2,1.3-0.5,1.9-0.8
			c0.6-0.3,1.1-0.5,1.7,0.1c0.4,0.4,0.6,1,0.6,1.6c0.1,1.9-1,3.8-2.4,5.1c-1.4,1.3-3.1,2.3-4.7,3.3c-1.2,0.8,0.4,1.4,1.2,1.6
			c3.9,0.8,13.1-5,16.7-6.3c1.7-0.6,3.1-2.1,4.8-0.9c0.6,0.4,1.1,0.9,1.7,1.2c0.7,0.3,1.5,0.3,2.2,0.5c1.1,0.2,2.2,0.6,2.9,1.5
			c0.7,0.8,1,2.1,0.5,3.1c-0.4,0.8-1.2,1.3-1.5,2.1c-0.1,0.4-0.1,0.8-0.2,1.2c-0.3,1.8-2.1,2.9-3.4,4.2c-1.1,1.1-1.8,2.5-2.8,3.7
			c-1.1,1.2-2.2,2.4-3.5,3.4c-2.6,2-6.8,4.6-9.8,6c-4.4,2-10.2,2.9-15.1,2.9c-2.9,0-5.7-0.5-12.6,2.4c-6.8,2.9-32.5,13.6-43.6,16.8
			c-13.3,3.8-17.2,5.1-28.5-5.4c-7.5-7-32-37.8-32-37.8l8.3-37.6c0,0,7.4-1,21.5,19.4c10.1,14.6,21.9,31.7,21.9,31.7
			S244.1,192.3,249.5,191L249.5,191z"/>
		<path class="st13" d="M278.5,187.7c-0.8,6.2-7.8,10.7-11.5,11.7c0,0,6.1-0.3,9-3.4C279.1,192.6,279.1,190.2,278.5,187.7z"/>
		<path class="st14" d="M168.3,143.7c11.1,3.3,13.7,9.9,18.1,16.2c5.6,8,19,28.7,19,28.7s-2.2,8.1-9.6,15.4
			c-7.4,7.3-16.5,6.8-16.5,6.8l-22.1-26.6L168.3,143.7L168.3,143.7z"/>
		<path class="st15" d="M210.4,455.5c0,0-6.5,1.3-10.1,6.2c-3.6,4.9-11.3,19.4-12.9,21.1c0,0,1.6,2.5,3.8,3.8l4.2-5.2
			c1.1-0.9,2.8-3.3,2.9-0.3c0.1,3-0.2,5.7-0.4,11.4c-0.1,3.5-1.2,10.4,5,16.8c5.8,6,12.7,10,16.9,10.5c2.5,0.3,8.1-0.5,7.6-5.4
			c-0.2-2.6-3.7-12.4-4.3-17.2C222.5,492.2,210.4,455.5,210.4,455.5L210.4,455.5z"/>
		<path class="st16" d="M204.1,481.2c0.1,2.7,1.2,13.6,11,21.2c4.8,3.7,8.3,2.8,8.2-1.7c-0.2-7.2-1.6-20.3,6.1-34
			c2.6-4.7,10.2-14.1,19.5-25.8l0,0.3c8.7-10.9,18.6-23.4,27.6-35.7c0.1-0.1,0.2-0.3,0.3-0.4l0.2-0.3c9.3-12.7,17.7-25.3,22.4-35.6
			c0.2-0.5,0.5-1,0.7-1.5l0.1-0.1l0,0c2.4-5.4,3.6-10,3.3-13.4l-23.1,1.3l-18-11c-2.6,9.3-7,19.4-11.3,28.1
			c-4.1,8.3-17.6,24.7-25.2,46.6c-6,17-10.8,28.1-12,30.2c-1.2,2.1-3.7,6.7-4.4,7.7C204.8,463.2,203.6,464,204.1,481.2z"/>
		<path class="st14" d="M296,236.2c2,13.9,6.4,23,10.1,55.8c3.4,30.8,5,46.9,2.9,62.2c-0.8,5.5-3.5,11.8-8.6,19.9
			c-16.2,25.3-48.2,65.1-48.2,65.1s-7.3-0.1-16.1-7.4c-8.5-7-8.9-17.3-8.9-17.3s0.8-5.8,14.2-29.1c13.4-23.3,15.1-48.5,15.1-48.5
			l-8.9-98.9C268.3,239.9,277.4,239.8,296,236.2L296,236.2z"/>
		<path class="st17" d="M236,431.9c-8.5-7-8.9-17.3-8.9-17.3s0.8-5.8,14.2-29.1c13.4-23.3,15.1-48.5,15.1-48.5l-6.8-75.7
			c16.3-2.6,39.1-2.4,39.1-2.4c0.5,10.8-1.8,24.3-17,32.3c0,0,2.9,53.3,3.3,68.8c0.3,11.9-3,42.2-4.6,55.8
			c-10.1,13.3-18.3,23.4-18.3,23.4S244.8,439.1,236,431.9L236,431.9z"/>
		<path class="st15" d="M240,486.5c0,0-4.7,5-5,11.5c-0.3,6.5,1.1,24.2,0.7,26.6c0,0,2.7,1.4,5.3,1.2l0.7-7.2c0.4-1.5,0.2-2.6,1.8,0
			c1.7,2.6,3.1,5.6,5.7,9.4c2.1,3,5,10.2,13.7,12.5c8.2,2.1,17.5,0.9,21.3-1.2c2.2-1.2,6.2-3.1,3.2-7.4
			c-1.6-2.2-10.8-11.2-13.9-15.1C270.2,512.7,240,486.5,240,486.5L240,486.5z"/>
		<path class="st16" d="M262,485.5c-1-16.9,12.1-95,6.4-131.2l-45.5,1.1c2.9,10,4.7,21.6,5.9,32c1.1,9.9-1.2,32.6,4.3,56.9
			c4.3,18.9,6.2,31.8,6.4,34.4c0.2,2.6,0.6,8.2,0.5,9.6c-0.4,8.4,1,13.1,10.7,26c1.9,2.5,6.4,10.6,18.8,11.8
			c6.1,0.6,8.5-2.3,5.9-6.3C271.3,513.5,263,502.4,262,485.5L262,485.5z"/>
		<path class="st18" d="M228.8,387.4c0.2,3.8,0.1,7.7,0.1,11.5c0,3.8-0.1,7.7,0,11.5c0.1,7.7,0.6,15.4,1.7,23.1
			c0.5,3.8,1.3,7.6,2.1,11.4l2.5,11.2c0.8,3.7,1.6,7.5,2.3,11.3c0.7,3.8,1.5,7.5,2,11.3c-0.6-7.7-2-15.3-3.4-22.8
			c-1.4-7.6-3.4-15-4.4-22.6c-0.6-3.8-1-7.6-1.3-11.4c-0.3-3.8-0.5-7.7-0.6-11.5c-0.1-3.8-0.2-7.7-0.3-11.5
			C229.3,395.1,229.3,391.2,228.8,387.4L228.8,387.4z"/>
		<path class="st14" d="M293.8,228.9c0,0,2.8,17-2.9,33.3c-4.9,14.2-14.3,22.2-24.2,25.5c0,0,3.4,63.7,4.3,72.6
			c0.9,8.9-1.1,41-2.9,62.1c-1.8,21.1-2.4,28.4-2.4,28.4s-4.4,4.8-16.6,5c-12.3,0.2-16.2-5-16.2-5s-7.8-24.5-8.2-43.6
			c-0.2-11,2.1-16.5,0.1-27.4c-2.1-10.9-17.4-58.5-21.8-81.2c-4-20.6-2.3-40.7,13.5-64.3C233.7,245.8,278.3,240.1,293.8,228.9
			L293.8,228.9z"/>
		<path class="st17" d="M229.2,234.1c-8.6,12.2-20.9,37.5-12,73.6c2.5,10.3,5,20.2,7.5,29.8c5.7,22.5,10.2,40.2,10.8,47
			c0.3,3.7-0.1,7.3-0.5,11.4c-0.7,6.5-1.6,14.5,0,26.9c1.6,11.6,3.8,23.7,5.5,32c-0.5-0.1-1-0.3-1.5-0.4c-1.6-8.2-3.8-20.1-5.3-31.3
			c-1.7-12.5-0.8-20.7-0.1-27.2c0.5-4,0.8-7.5,0.5-11.2c-0.6-6.7-5.1-24.4-10.8-46.8c-2.4-9.6-4.9-19.5-7.5-29.8
			c-8.9-36.4,3.4-61.9,12.1-74.5C228.3,233.8,228.7,234,229.2,234.1L229.2,234.1z"/>
		<path class="st17" d="M295,227.3c0,0-12.5,5.7-35.2,6.3c-25.7,0.7-40.5-7.6-40.5-7.6s-0.4,4.2-2.8,8.2c0,0,12.9,12.6,44,12.1
			c27.5-0.4,35.4-10.2,35.4-10.2S294.8,231.2,295,227.3L295,227.3z"/>
		<path class="st16" d="M336.2,198.3c-2.3-3.7-13.4-19.3-13.4-19.3s-7.7-10.7-12.4-16.8c-4.6-6.2-9-11.5-12.9-14.5
			c-3.9-2.9-9.2-3.7-17.3-3.9l2.2,33.1l19.7,21.9l19,23.3l19.1-3.7C343.1,212.6,340.2,204.6,336.2,198.3L336.2,198.3z"/>
		<path class="st19" d="M258.3,238.1c-24.9-0.2-36.6-10.8-38.2-12.3c-0.6-11.9-2.4-20.8-6.3-31.6c0-0.1-2.9-9.7-1.5-25
			c0.7-6.9,2.8-15.7,13.3-22.2l15-2.9c0,0,8.9-0.9,21.6-0.9c1.1,0,2.3,0,3.5,0l14.3,1.4c1.8,1.9,14.8,16,21.4,29.4
			c2.8,5.7,6.2,17.2-3.2,30.3l-0.1,0.1l0,0.2c-2.4,13.5-3.6,23.8-3.8,25.8c-1.6,1.2-11.6,7.8-34.9,7.8L258.3,238.1L258.3,238.1z"/>
		<path class="st19" d="M262.2,142.3c-12.9,0-21.7,0.9-21.7,0.9l-15.2,3c-10.9,6.6-13.1,15.9-13.8,22.8c-1.5,15.7,1.5,25.4,1.5,25.4
			c3.7,10.1,5.7,19.1,6.3,31.7c0,0,11.4,12.6,38.9,12.8c0.3,0,0.7,0,1,0c26.1,0,35.6-8.2,35.6-8.2s1.2-11,3.9-26
			c9.6-13.4,6.2-25.2,3.3-31.1c-7.2-14.6-21.7-29.8-21.7-29.8l-14.6-1.4C264.5,142.3,263.4,142.3,262.2,142.3L262.2,142.3z
			 M262.2,142.3v1.6c1.1,0,2.2,0,3.4,0l14,1.3c2.4,2.6,14.7,16.1,21.1,28.9c2.7,5.5,6,16.7-3.1,29.5l-0.2,0.3l-0.1,0.3
			c-2.3,12.8-3.5,22.8-3.8,25.5c-2.2,1.5-12.1,7.5-34.1,7.5c-0.3,0-0.7,0-1,0c-23.7-0.2-35.2-9.9-37.4-11.9
			c-0.6-11.8-2.4-20.7-6.3-31.4c0-0.1-2.9-9.6-1.4-24.7c0.6-6.7,2.7-15.2,12.8-21.5l14.8-2.9c0.8-0.1,9.4-0.9,21.5-0.9L262.2,142.3
			L262.2,142.3z"/>
		<path class="st19" d="M275.1,201.5c0,0-7.2,8.1-21.7,4.9c-14.5-3.2-16.8-14.4-16.8-14.4s-1.6,14.2,15.7,17.9
			C269.4,213.6,275.1,201.5,275.1,201.5L275.1,201.5z"/>
		<path class="st15" d="M248.6,138.1c-2.2-0.2-3.9,1.5-6,1.5c-1.2,0-2.4-0.3-3.7-0.2c-1.2,0.1-2.4,0.3-3.6,0.4
			c-4.7,0.2-9.5-2.4-11.6-6.6c0.5,2.7,2.4,5,4.8,6.1c-3.1,0.6-6.4,0.1-9.1-1.4c-2.8-1.5-5-4-6.1-6.9c-1.4-3.3-1.4-7.1-0.5-10.6
			c1.1-4.8,4.2-8.6,4.6-13.6c0.4-5.1-1.2-10.1-1-15.2c0.2-8,4.5-15.7,10.7-20.9c6.2-5.2,14.1-8,22.1-8.8c8.3-0.9,17.7-0.1,25.7,2.5
			c5.6,1.8,9.7,5.3,13.2,9.9c2,2.7,3.9,5.6,4.2,8.9c0.4,4.1-2.1,8.4-5.9,10.1c1.1,2,0.5,4.7-0.9,6.4c-1,1.2-2.3,2-3.7,2.6
			c-3.5,1.7,2.3,3.6,3.6,4.4c4.6,2.8,8.7,8.8,8.2,14.5c-0.3,2.9-1.6,5.8-3.8,7.6c0.1-2.2-0.3-4.5-1.3-6.4c0.3,4.2-1.4,8.5-4.5,11.3
			c-1.8,1.6-4,2.7-6.4,3.2c-2.5,0.5-4.8-0.4-7.3,0c-3,0.4-5.5,2.6-8.3,3.5C256.5,142.3,253.4,138.6,248.6,138.1L248.6,138.1z"/>
		<path class="st16" d="M228.9,102.7c4.4-1.8,6.9,0.7,9.5,3.5c1.7,1.9,4.1,1.5,5.4-0.7c0.7-1.3,0.7-2.7,0.9-4.1
			c0.1-0.5-0.2-2.5,0.1-2.7c0.1-0.1,0.3-0.1,0.5-0.1c3.4-0.2,6.9-0.8,10-2.3c3.1-1.5,5.8-4.1,6.9-7.3c0.1,1.4,0,2.9-0.5,4.3
			c6.9-0.9,13-6.5,14.4-13.3c4.6,1,7.8,10.1,7.8,16.6c0,3.3,0.3,6.4,0.6,9.7c1.5,17.9-4,24.2-6.9,26.1c-2.9,1.9-6.2,2.7-12.2,2.7
			l0.4,7.9c0,0,9.1,13.3,9.4,28.3c-10.6-6.2-22.9-16.4-35.4-27.3l-1.7-23.4c-1.8,3.1-7.2,2.5-10-0.9
			C223.6,114.1,222.5,105.4,228.9,102.7L228.9,102.7z"/>
		<path class="st15" d="M280.8,93.9l-5.9-2.4c0.6-1.7,2.4-2.5,4-1.8C280.6,90.3,281.4,92.2,280.8,93.9z"/>
		<path class="st15" d="M257,93.5l-5.4,3.3c-1-1.5-0.6-3.4,0.9-4.3C254,91.6,256,92.1,257,93.5z"/>
		<path class="st15" d="M254,100.8c-0.1,1.4,1,2.7,2.5,2.8c1.4,0.1,2.7-1,2.8-2.5c0.1-1.4-1-2.7-2.5-2.8
			C255.3,98.2,254.1,99.4,254,100.8z"/>
		<path class="st15" d="M274.3,99.3c-0.1,1.4,1,2.7,2.5,2.8c1.4,0.1,2.7-1,2.8-2.5c0.1-1.4-1-2.7-2.5-2.8
			C275.6,96.8,274.4,97.9,274.3,99.3L274.3,99.3z"/>
		<path class="st20" d="M259.9,115.3l10.3,2.2c-0.5,2.9-3.5,4.7-6.7,3.9C260.6,120.7,259.4,118.2,259.9,115.3z"/>
		<path class="st21" d="M266.3,121.4c-0.6-2.7-3.1-4.7-6-4.3c-0.2,0-0.3,0.1-0.5,0.1c0.2,2,1.4,3.7,3.6,4.2
			C264.5,121.7,265.4,121.6,266.3,121.4z"/>
		<path class="st18" d="M265,97.1l2.4,15.6l8.4-3.6C272,102.3,267.4,97.3,265,97.1z"/>
		<path class="st18" d="M265.2,135c-5.9-0.4-18.7-2.3-23.6-12c0,0-1.8,5.7,7.5,11.3c5.1,3.1,16.3,4.4,16.3,4.4L265.2,135z"/>
		<path class="st16" d="M225.4,146.2c4.9,11.4,3.8,28.8-1,39.9c-4.9,8.8-6.9,12.1-12.4,21.9c-3.1,5.5-8.5,14.4-17.2,21.2
			c-7,5.4-31.3,23.7-31.7,23.6c-1.5,1.2-2.9,2.3-3.5,2.9c-4.6,3.8-7.2,8-16.3,12.8c-4.2,2.2-9.7,4.7-14.5,2.9
			c-1.1-0.4-2.2-1.1-3.4-1.2c-0.7-0.1-1.4,0.1-2.1,0.1c-0.8,0.1-1.7,0-2.5-0.2c-0.4-0.1-0.9-0.3-1.2-0.6c-0.5-0.5-0.6-1.3-1.1-1.8
			c-0.5-0.6-1.4-0.7-2.1-0.6c-0.8,0.1-1.5,0.2-2.3,0.1c-0.8-0.1-1.5-0.7-1.6-1.4c0-0.5,0.3-1,0.7-1.5c3.4-4,9.4-4.9,14-7.1
			c1.5-0.7,5.5-2.4,5.7-4.4c0.1-1.4-3.4,0.1-6.6-0.4c-3.2-0.4-4.6-4.6-2.1-4.4c2.5,0.2,5.6-1.5,10.6-3c5-1.5,7.9-0.4,11.2-2.4
			c1.2-0.7,36.5-34.8,36.5-34.8s12.2-26.7,18.7-40.7C207.9,153,211.1,148.9,225.4,146.2L225.4,146.2z"/>
		<path class="st5" d="M327.6,189.6c2.1,2.5,4.6,12.3-4.2,23.4c-8.8,11.1-20.6,20.7-39.1,23.5c-18.4,2.8-37.7-3.4-37.1-16.1
			c0.6-12.7,16.6-17.3,23.6-20.9c7-3.5,16.2-18.5,30.1-19.4C315,179.2,327.6,189.6,327.6,189.6L327.6,189.6z"/>
		<path class="st22" d="M323.5,212.9C323.5,212.9,323.5,212.9,323.5,212.9C323.5,212.9,323.5,212.9,323.5,212.9z"/>
		<path class="st23" d="M275.6,237.1c-9.6,0-18.5-2.4-23.6-6.8c2.6,0.8,5.2,1.2,7.9,1.2c2,0,3.9-0.2,5.9-0.7
			c1.2-0.3,2.4-0.7,3.1-1.6c1-1.4,0.7-3.3-0.1-4.9c-0.8-1.5-1.9-3-2.2-4.7c-0.3-1.7,0.6-3.8,2.3-4c0.1,0,0.2,0,0.3,0
			c1.4,0,2.6,1.2,3.6,2.3c4.4,4.4,10.7,6.4,17,6.4c1.9,0,3.7-0.2,5.5-0.5c7.7-1.5,25.3-12.1,32.1-17.3c-0.9,2-2.2,4.2-4,6.3
			c0,0,0,0,0,0c0,0,0,0,0,0l0,0c-8.8,11.1-20.6,20.7-39.1,23.5C281.4,236.9,278.5,237.1,275.6,237.1L275.6,237.1z"/>
		<path class="st17" d="M325.1,184.1c0.8,1.1,1.7,2.1,3,2.7c1.2,0.5,2-0.8,2.6-1.7c0.7-1,1.2-2.1,1.7-3.3c0.9-2.3,1.6-4.8,1.5-7.3
			c-0.3-6.1-3.2-11.4-8.5-14.6c-2.3-1.3-4.8-2.3-7.4-2.7c-5.7-0.8-13.5,2-14.8,8.2c-0.2,1,0.2,1.8,1,2.5c1.3,1.2,3.1,2.2,4.9,2.4
			c1.6,0.2,3,0.2,4.4,1.3c2.6,2,5.5,3.6,7.6,6.2l0.1,0.2c0.8,1.1,1.5,2.2,2.3,3.4C323.8,182.3,324.4,183.2,325.1,184.1L325.1,184.1z
			"/>
		<path class="st12" d="M329,187.2l0.4-0.4c-0.6,0.7-1.2,1.1-1.8,1.4c-2.8,2.4-4.6,4.5-10.4,5.6c-7.9,1.6-14.7-0.3-18.6-6.4
			c-1.3-2-2-5.4-1.8-7.9c0.3-3.5,1.5-4.8,2.9-6.6c1.3-1.7,0.9-2.6,1.7-4.6c0.7-1.8,1.6-3.6,2.9-5.1l0,0c1.2-1.3,2.9-2,4.7-2
			c1.1,0,2.3,0.2,3.5,0.4c2.4,0.5,4.5,1.6,6.7,2.8c1.2,0.7,3,1.8,3.9,3c0.8,1.1,1.3,2.6,0.9,4c-0.2,0.7-0.7,1.4-1,2.1
			c-0.8,1.9-0.5,5.2,1.4,6.4c0.8,0.5,1.5,0,2.4-0.1c1.1-0.1,2,0.5,2.6,1.3c2.2,3-0.7,6.1-0.7,6.1L329,187.2L329,187.2z"/>
		<path class="st13" d="M318.7,180.4c-0.3,0.9-1.4,1.4-2.6,1.1c-1.2-0.3-1.9-1.3-1.7-2.2c0.2-0.9,1.4-1.4,2.6-1.1
			C318.2,178.4,319,179.5,318.7,180.4L318.7,180.4z"/>
		<path class="st13" d="M302.2,174.2c-0.2,0.9-1.4,1.4-2.6,1.1c-1.2-0.3-1.9-1.3-1.7-2.2c0.2-0.9,1.4-1.4,2.6-1.1
			C301.7,172.2,302.4,173.3,302.2,174.2L302.2,174.2z"/>
		<path class="st13" d="M328.5,180c-1.2-0.7-3.1-0.7-4,0.5c-0.1,0.1-0.1,0.6,0.2,0.6c0.7-0.2,1.4-0.5,2.2-0.5c0.7,0,1.3,0.2,1.9,0.6
			c1.2,1,0.9,2.6,0.3,3.9c-0.6,1.3-1.4,2.6-2.8,3.1c-1.2,0.5-2.5,0.1-3.2-1.1c-0.1-0.2-0.4-0.1-0.4,0.1c0.1,1.5,1.7,2.3,3.1,2.2
			c1.4-0.1,2.6-1,3.3-2.2c0.8-1.2,1.4-2.7,1.4-4.1C330.5,181.9,329.7,180.7,328.5,180L328.5,180z"/>
		<path class="st17" d="M317.1,178.8c0,0.3-0.5-0.5-1.6-1.1c-0.7-0.3-1.5-0.5-2.3-0.3c-0.2,0-0.4,0.1-0.5,0.2
			c-0.3,0.1-0.3-0.3,0.2-0.7c0.3-0.3,0.7-0.4,1.1-0.5c1.4-0.3,2.8,0.6,3.1,1.9C317.1,178.4,317.1,178.6,317.1,178.8L317.1,178.8z"/>
		<path class="st17" d="M305.1,174.5c0,0.3-0.4-0.5-1.3-1.2c-0.6-0.4-1.3-0.6-2-0.5c-0.2,0-0.3,0-0.5,0.1c-0.3,0.1-0.2-0.3,0.3-0.6
			c0.3-0.2,0.6-0.3,1-0.4c1.3-0.1,2.4,0.6,2.5,2.1C305.1,174.2,305.1,174.4,305.1,174.5L305.1,174.5z"/>
		<path class="st13" d="M306.5,177.8c-0.9-0.4-2.4,0.5-1.5,1.1c0.8,0.7,3.2,2,3.3,1.4C308.4,179.7,307.5,178.1,306.5,177.8z"/>
		<path class="st13" d="M307,183.8l3.9,0.4c0,0-0.2,1.8-2.1,1.6C306.9,185.6,307,183.8,307,183.8z"/>
		<path class="st16" d="M332.3,226.9c-4.3,3.6-13.9,11.8-34.9,16.8c-11.1,2.7-24.8,2.8-32.2-0.9c-2.7-1.9-9.3-2.8-10.1-5.7
			c-0.3-1.2-1.9-2.1-2.7-3.2c-1.1-1.5-1.1-4-1.1-4c6.9,4.6,21,2.4,23.6,1.1c0.9-0.5,1.7-1.3,1.7-2.3c0.1-1-0.6-1.9-1.2-2.7
			c-2.4-2.7-5.7-5-6.6-8.6c-0.2-0.7-0.2-1.6,0.3-2.2c0.5-0.6,1.4-1,2-0.6c3,1.9,4.3,2.7,6.6,3.6c2.9,1.1,5.7,3.1,8.1,5.1
			c1.5,1.2,2.4,2.9,4.3,3.4c2,0.5,4.2-0.1,6.1-0.7c9.9-3.3,14.7-9.9,18.8-13c2.9-2.6,11.6-10.1,14-11.4c2.7-0.2,5.4,1.4,7.4,3.7
			c1.1,1.2,3.3,4.4,3.7,6.2C341.9,218.2,340.3,220,332.3,226.9z"/>
		<path class="st12" d="M143.3,507.5l-2.6-25.8h31.2c0,0-2.7,19.6-0.4,26.1c1.5,4.3,7.6,10.6,9.4,12.6c1.8,2-18.7,5.3-26.5,4.1
			c-7.8-1.1-10.1-4.2-10.8-8.8C142.9,511.4,143.3,507.5,143.3,507.5L143.3,507.5z"/>
		<path class="st15" d="M216,548.7c0.5,0,1.2,4.9-1.5,6.9c-3.1,2.4-12,6.2-23.8,4.7c-11.8-1.5-18.1-4.9-22.8-8.5
			c-4.7-3.6-11.2-8.8-16.6-9.9c-4.9-1-10.3-3.1-11.9-4.5c-1.6-1.4-1.3-7.6-1.3-7.6L216,548.7z"/>
		<path class="st14" d="M142.5,506c0,0-0.8,0-1.1,1.5c-0.4,1.7-0.8,6.7-1.6,9.5c-1.1,3.9-1.9,11.9-1.3,15c0.6,3.2,8.7,5.5,13.8,7.3
			c5.2,1.9,11.3,5.7,16.6,9.8c5.5,4.2,17.1,8.6,24.8,8.6c9.1,0,19.3-2.6,21.7-6.4c2.9-4.7,5.1-10.2-8.3-16c-2.5-1.1-11.5-6-14.5-7.8
			c-8.2-4.8-14-9.2-17.7-17.6c-0.4-1-0.9-2.1-1.9-2.6c-0.8-0.4-1.7-0.3-2.6-0.2c-2.2,0.3-11.2,1.3-13.3,2.2
			c-1.8,0.8-4.4,1.7-4.4,3.8c0,0.7,0.2,1.5,0.5,2.1c0.2,0.4,0.3,1-0.1,1.3c-0.4,0.2-0.9,0-1.3-0.3c-1.4-1.2-2.4-2.6-3.6-4
			c-0.6-0.7-1.3-1.4-2.1-2c-0.7-0.5-1.7-0.8-2.3-1.4C143,507.9,142.5,507,142.5,506L142.5,506z"/>
		<path class="st17" d="M168.9,549c-2.3-1.8-4.8-3.5-7.3-5.1l0,0c0,0,15.8,8.9,22.2,5c4.1-2.5,2.2-5.7,2.1-6.7
			c-0.1-1,14.5-7.9,18.5-8.3l0,0c1.1,0.6,2,1,2.6,1.3c13.4,5.8,11.3,11.3,8.3,16c-2.4,3.8-9.8,6.7-21.5,6.6
			C186.2,557.9,174.4,553.2,168.9,549z"/>
		<path class="st17" d="M184.8,539.4c8.3,3.1,4.8,4.5,2.4,4.8c-2.3,0.3-16.4-7.3-24.9-13.6c-8.9-6.5-14.5-13.7-17.8-16.1
			c-1.2-0.9-2.6-2-3.7-3c0.2-1.7,0.3-3.3,0.4-4.1c0.3-1.7,0.6-2.5,1.8-2.7c0,1,0.3,2.9,0.3,2.9s1.4,1,2.6,2c0.7,0.7,1.8,1.8,2.4,2.5
			c1.2,1.4,2.2,2.8,3.6,4C159.1,524.6,176.5,536.2,184.8,539.4z"/>
		<path class="st15" d="M186.7,543c-0.2,0-0.4-0.1-0.5-0.2c-0.4-0.3-0.4-0.7-0.1-1.1c2.4-2.6,13.6-8.8,19.8-8.1
			c0.5,0,0.8,0.4,0.7,0.8c-0.1,0.4-0.4,0.7-0.9,0.7c-5.7-0.6-16.4,5.5-18.3,7.6C187.2,543,186.9,543,186.7,543L186.7,543z"/>
		<path class="st15" d="M179.4,538.9c-0.2,0-0.4-0.1-0.5-0.2c-0.4-0.3-0.4-0.7-0.1-1.1c2.4-2.6,13.6-8.8,19.8-8.1
			c0.5,0,0.8,0.4,0.7,0.8c-0.1,0.4-0.5,0.7-0.9,0.7c-5.7-0.6-16.4,5.5-18.3,7.6C179.9,538.8,179.6,538.9,179.4,538.9L179.4,538.9z"
			/>
		<path class="st15" d="M172.1,534.9c-0.2,0-0.4-0.1-0.5-0.2c-0.4-0.3-0.4-0.7-0.1-1.1c2.4-2.6,13.6-8.8,19.8-8.1
			c0.5,0,0.8,0.4,0.7,0.8c-0.1,0.4-0.4,0.7-0.9,0.7c-5.7-0.6-16.4,5.5-18.3,7.6C172.6,534.9,172.4,534.9,172.1,534.9L172.1,534.9z"
			/>
		<path class="st15" d="M165.4,530.5c-0.2,0-0.4-0.1-0.5-0.2c-0.4-0.3-0.4-0.7-0.1-1.1c2.4-2.6,13.7-8.8,19.8-8.1
			c0.5,0,0.8,0.4,0.7,0.8c-0.1,0.4-0.4,0.7-0.9,0.7c-5.7-0.6-16.4,5.5-18.3,7.6C165.9,530.4,165.6,530.5,165.4,530.5L165.4,530.5z"
			/>
		<path class="st15" d="M158.8,526c-0.2,0-0.4-0.1-0.5-0.2c-0.4-0.3-0.4-0.7-0.1-1.1c3.3-3.7,15.1-8.8,21.2-8.2
			c0.5,0,0.8,0.4,0.7,0.8c-0.1,0.4-0.4,0.7-0.9,0.7c-5.5-0.6-16.8,4.3-19.7,7.6C159.3,525.9,159.1,526,158.8,526L158.8,526z"/>
		<path class="st12" d="M73.8,525.9c0,0-0.4-8-1.5-25.3l27.3,1.5l-3.6,25.7c0,0,0.7,8.3-1.4,12.9c-2.1,4.5-18.1,5.1-20.7-0.3
			C71.4,535,73.8,525.9,73.8,525.9L73.8,525.9z"/>
		<path class="st15" d="M99.6,579c-0.2,7.3-1.4,12.2-4.3,16.5c-2.9,4.3-8.6,5.6-14.6,4.3c-5.9-1.3-13.6-4.7-15.5-11
			c-1.9-6.3-1.8-10.6-0.7-17.4L99.6,579L99.6,579z"/>
		<path class="st14" d="M73.8,525.9c-2.4,0.2-2.4,9.9-3.4,19.8c-1.1,10.5-4.6,14.9-5.6,23.5c-1.1,9.9-0.3,14.3,4,20.3
			c4.3,6,19.1,11.9,25.9,3.4c5.5-7,5.5-14.7,4.6-24.6c-1-10.2-1.7-17.4-1.5-25.1c0.2-7.4,0.5-14.6-1.6-15.4
			c-0.1,1.1-0.2,2.5-0.4,3.5c-0.1,0.8-0.2,4.8-1.5,4.9c-0.2-0.9-0.2-1.8-0.1-2.8c0-0.8-0.1-1.7-0.8-2.4c-0.7-0.6-1.7-0.9-2.7-1
			c-2.4-0.4-4.8-0.8-7.2-1c-1.2-0.1-2.4-0.1-3.6-0.1c-1,0-2.1,0.1-3.1,0.4c-0.6,0.2-1.1,0.5-1.3,1c-0.1,0.4-0.1,0.7-0.1,1.1
			c0,0.7,0,1.4-0.2,2c-0.1,0.3-0.3,0.6-0.6,0.6c-0.3-0.1-0.4-0.4-0.4-0.6C73.9,532.2,73.8,526.6,73.8,525.9L73.8,525.9z"/>
		<path class="st17" d="M65.2,566.4c-0.2,1.4-1.2,10.9,1.9,12.6c3.4,1.9,4.9-5.6,4.9-5.6s7.6-2,19,2.2c-0.5,1.5,1.4,6.6,4.5,5.5
			c3-1,3.8-11.9,3.8-12c0.8,9.5,0.8,17-4.6,23.7c-6.8,8.5-21.5,2.6-25.9-3.4c-4.3-6-5.1-10.4-4-20.3
			C64.9,568.2,65.1,567.3,65.2,566.4L65.2,566.4z"/>
		<path class="st17" d="M72.9,574.1c0.1,3.6-4.1,2.4-4.5-2.7c-0.4-5,2.4-17,2-25.7c1-9.8,1-19.6,3.4-19.8l0.1,5.1c0,0,0,1.6,0.1,2.3
			c0.2,7.3-0.4,21.4-0.9,28C72.6,568.1,72.8,570.5,72.9,574.1L72.9,574.1z"/>
		<path class="st17" d="M89.7,575.6c0.7-3.5,1.2-5.9,1.8-12.5c0.6-6.6,2.1-20.4,3.5-27.6c0.5-1.2,0.6-3.5,0.7-4.1
			c0.1-1,0.2-2.3,0.3-3.3l0-0.2c1.5,0.6,1.8,4.6,1.8,9.5c-0.2,2.9-0.6,6.4-1.2,10.7c-1.7,8.5-0.8,20.8-2,25.8
			C93.5,578.7,89.1,579.1,89.7,575.6L89.7,575.6z"/>
		<path class="st15" d="M91.3,575.9l-0.3-0.1c-0.1,0-9-3.9-18.7-1.7c-0.5,0.1-1-0.1-1.1-0.5c-0.1-0.4,0.1-0.8,0.6-0.9
			c10.4-2.3,19.6,1.7,20,1.8c0.4,0.2,0.6,0.7,0.4,1C92,575.8,91.6,576,91.3,575.9L91.3,575.9z"/>
		<path class="st15" d="M93,568.2l-0.3-0.1c-0.1,0-10.1-4-20.9-1.9c-0.5,0.1-1-0.2-1.1-0.6c-0.1-0.4,0.2-0.8,0.6-0.9
			c11.4-2.2,21.7,1.8,22.1,2c0.5,0.2,0.7,0.6,0.5,1C93.7,568.1,93.4,568.2,93,568.2L93,568.2z"/>
		<path class="st15" d="M72.1,558.9c-0.3,0-0.7-0.2-0.8-0.5c-0.2-0.4,0.1-0.8,0.5-1c10.7-3.1,21.6,1.6,22.1,1.8
			c0.4,0.2,0.6,0.7,0.4,1c-0.2,0.4-0.8,0.5-1.2,0.3c-0.1,0-10.7-4.6-20.7-1.7L72.1,558.9L72.1,558.9z"/>
		<path class="st15" d="M72.4,551.9c-0.3,0-0.6-0.2-0.8-0.5c-0.2-0.4,0-0.8,0.5-1c11.8-3.6,22.1,1.6,22.5,1.8c0.4,0.2,0.6,0.7,0.3,1
			c-0.2,0.4-0.8,0.5-1.2,0.2c-0.1,0-10-5-21-1.6L72.4,551.9L72.4,551.9z"/>
		<path class="st15" d="M72.8,544.1c-0.3,0-0.6-0.2-0.8-0.5c-0.2-0.4,0-0.8,0.5-1c11-3.5,22.2,1.8,22.7,2c0.4,0.2,0.6,0.7,0.4,1
			c-0.2,0.4-0.8,0.5-1.2,0.3c-0.1-0.1-10.9-5.1-21.2-1.9L72.8,544.1L72.8,544.1z"/>
		<path class="st17" d="M76.4,255.7c-5.9,61.1-4.4,152-4.4,152c-0.5,4.6-4.6,14.5-4.6,39.9c0,27.9,3.2,67.1,3.2,67.1
			s16.1,5.2,29.9,0.9c0,0,9.8-60.3,15-95.3c4-27.5,12.3-70.4,12.3-70.4l5.6,39.5c0,0-1.3,17.4-1,29.6c0.3,14.2,9.2,77.2,9.2,77.2
			s14.2,6.2,29.8,1c0,0,5.6-65.6,7.6-106.2c1.7-33.4,0.1-91.7-0.4-135L76.4,255.7z"/>
		<path class="st15" d="M127.8,349.8l6.6-33.4c0,0,16.4-6.1,26-19.8c0,0-3,16.8-22.1,23.8l-6.5,29.5l1.6,39.3L127.8,349.8z"/>
		<path class="st5" d="M105.6,137.8c-8.9,2.2-24.7,7.3-36.7,11.7c0,0-0.5,26.7,4.4,51.9c1.8,9.4,3,22.4,2.6,34.7
			c-0.5,17.3-0.7,24.7-1.7,39c0,0,8.6,14.3,65.8,12.5c31.7-1,39.3-16.3,39.3-16.3s0-52.2,0.2-75.6c0.3-30.6-1.4-42.4-11.3-52.1
			c0,0-15.6-5.1-28.3-6.6C125.2,135.4,105.6,137.8,105.6,137.8L105.6,137.8z"/>
		<path class="st12" d="M86.7,312.4c-4.4-4.5-5.7-11.5-10.5-15.6c-1.5-1.3-2.2-2-3.5-3.4c-1.9-2.1-2.4-4.8-2.4-7.6
			c0-1,0.5-52.6,0.5-52.6L80.9,193c3.3-17.9-3.5-36.9-11.9-42c-12.5,3.2-13.4,10-16.1,18.8c-1.8,5.7-2.5,9-5.9,23.6
			c-4.2,18.2-4.1,17-6.5,30.2c-1,5.6-1.7,9.4,1,27.9c2.1,14.2,5.9,39.7,6.3,41.7c1,6.6,0.7,16.2,2.3,19.9c1.6,3.7,3.7,8.3,5.2,11.2
			c1.6,2.9,4.5,3.4,4.5,3.4s3.3,5.2,5.8,7.6c2.5,2.4,5.2,1.4,5.2,1.4s1.5,1.8,5.1,5.2c3.7,3.4,4,2.3,4.6,1.5
			c0.6-0.7,1.4-2.9,0.2-4.7c-1.2-1.8-5.1-5.4-6.1-6.8c-1-1.4-2.4-5.2-2.4-5.2s1.1,1.4,2.2,2.9c1.1,1.4,3.9,3.5,5.8,5.2
			c2.8,2.5,5,3.8,6,2.8c1-1,0.9-3.4-0.5-5.4c-1.4-2-7.1-6.8-7.9-9c-0.8-2.2-1.6-3.1-3-8.6c-0.3-1.1-1.8-5.5,1-4.3
			c0.6,0.3,1.1,0.8,1.5,1.4c1.3,1.6,2.6,3.1,4.4,4.1c1.7,1,3.9,1.5,5.8,0.8c0.3-0.1,0.6-0.2,0.8-0.4c0.4-0.5,0.4-1.3,0.1-1.8
			c-0.3-0.6-0.8-1-1.3-1.5L86.7,312.4L86.7,312.4z"/>
		<path class="st13" d="M70.9,336.7c-2.2-2.2-3.9-4.8-5.4-7.5c-1.4-2.7-2.7-5.6-3.5-8.6c1.3,2.8,2.5,5.6,4,8.3
			C67.5,331.6,69.1,334.2,70.9,336.7L70.9,336.7z"/>
		<path class="st13" d="M59.9,327.7c-1.1-1.1-1.8-2.5-2.6-3.9c-0.6-1.4-1.3-2.8-1.6-4.4c0.8,1.3,1.4,2.7,2.1,4.1L59.9,327.7
			L59.9,327.7z"/>
		<path class="st13" d="M72.3,326.6c-2-2.3-4.2-6.8-4.2-6.8s0.9,5.7,5.2,9.3L72.3,326.6z"/>
		<path class="st17" d="M68.9,149.5c-12,4.8-14.1,9.7-17,19.8c-3,10.1-10.3,43.4-10.3,43.4s2,6.9,13.6,9.9c11.7,3,18.4,2.1,18.4,2.1
			l10-34.4C83.6,190.4,85.9,156.1,68.9,149.5z"/>
		<path class="st15" d="M104.5,124.7c-1.3-7.6-9-15.5-12.4-22.1c-3.3-6.4-5.3-11.3-5-17.3c0.2-3.6,2.4-8.4,5-9.4
			c-3.1-13.2,6.7-19.4,12-20.7c2-0.5,5.3-1.3,7.3-2.1c2.9-1.2,3.5-3.5,5.8-5.5c4-3.4,10.7-3.5,13.2,1.6c2.6-3.4,6.2-3.4,10.4-2.4
			c4,1,5.9,4.3,5.5,8c5.5-3.1,10.6,0.7,11.2,4c0.4,2.4-0.1,4.4,1.5,6.6c1.8,2.4,5.1,2.3,6.1,0.4c0.6,3.4-0.7,6-4.4,5.9
			c1.3,1.8,1.6,4.3,1,6.5c-0.9,3-3.4,5.3-5.9,5.4c-0.4,1.9-0.9,3.1-2.1,4.8c-1.1,1.6-2.6,3.1-4.3,4c-5.6,2.7-11.8,3.6-17.8,4.9
			c-2.4,0.5-4.8,1-7.2,1.5c-0.4,0.1-2.6,0.2-2.8,0.6L104.5,124.7L104.5,124.7z"/>
		<path class="st12" d="M94,114.6c6.7,4.7,9.7-0.2,9.7-0.2l1.5,25.8c16.5,19.6,49.6,12.7,34.9-2.1l-0.3-6.3c0,0,0.7,0,4.3-0.5
			c6-0.9,10.9-5.3,12.5-11.7c1.7-6.8,2.1-17.5,0.5-25.6c-0.4-2.1-0.6-4.2-0.4-6.3c0.5-5.5-0.5-8.8-2-13.4
			c-6.6-5.2-22.2-7.4-36.3,1.3c1.7,8.4-1.5,15.1-7.6,18.3c0.3,2.3,0.6,8-3.1,7.9c-2.7-0.1-2.9-3.4-5.7-6.4c-2.8-3-10-2.9-12.5,1.5
			C86.2,103.3,88.4,110.7,94,114.6z"/>
		<path class="st13" d="M139.8,131.9c-9.5-1-21.4-2.1-26.4-8.9c-3.1-4.3-6.7-10.6-6.7-10.6s0.5,7.5,3.7,13.1
			c4,7.1,14.3,10.6,29.5,10.2L139.8,131.9z"/>
		<path class="st15" d="M158.1,104.2c-0.1,1.2-3.1,4.5-11.6,2.9c-6.5-1.2-10.4-0.6-16,0.5c-7.5,1.5-14.1,2.7-16.7-1.8
			c-2.5-4.5-3-11.8-3-11.8l-7.6,3c0,0,1.1,6.6,1.6,10.1c0.5,3.4,0.9,11.8,7.4,18c6.5,6.2,13.1,7.6,21.9,7.8
			c12.3,0.4,19.2-1.9,22.2-9.2C159.4,116.4,158.1,104.2,158.1,104.2L158.1,104.2z"/>
		<path class="st12" d="M138,109.9c5.1-0.2,9.3,0.4,9.5,2.9c0.2,2.5,0.6,7.8-3.8,9.7c-4.1,1.8-3.8-2.8-5.9-2.9
			c-2.1-0.1-2.3,4.9-6.2,2.9c-2.9-1.5-3-7.5-2.9-9.1C128.8,111,131.9,110.2,138,109.9z"/>
		<path class="st15" d="M132.7,93.1c0.1,1.6-1.1,3-2.7,3c-1.5,0.1-2.8-1.2-2.9-2.8c-0.1-1.6,1.1-3,2.7-3
			C131.3,90.3,132.6,91.5,132.7,93.1L132.7,93.1z"/>
		<path class="st15" d="M128.6,86.1l-5.3,3.7c-1-1.5-0.6-3.6,0.8-4.6C125.6,84.2,127.6,84.6,128.6,86.1L128.6,86.1z"/>
		<path class="st13" d="M133.1,111.8l8.8,1.5c-0.5,2.5-2.9,4.1-5.3,3.7C134.1,116.6,132.6,114.2,133.1,111.8z"/>
		<path class="st24" d="M133,113.4c0.3,1.8,1.6,3.2,3.5,3.6c0.6,0.1,1.1,0.1,1.7,0l0,0C137.6,114.6,135.3,113.1,133,113.4L133,113.4
			z"/>
		<path class="st15" d="M153.9,87.4l-5.9-2.9c0.7-1.7,2.7-2.4,4.3-1.6C153.9,83.7,154.6,85.7,153.9,87.4z"/>
		<path class="st15" d="M154,92c0,1.6-1.3,2.9-2.8,2.9c-1.5,0-2.8-1.3-2.8-2.9c0-1.6,1.3-2.9,2.8-2.9C152.8,89.1,154,90.4,154,92
			L154,92z"/>
		<path class="st13" d="M151.1,103l-9.7,4.4l-3.5-18.9C143.3,91,146.4,95.5,151.1,103L151.1,103z"/>
		<path class="st16" d="M449.1,348.7c2.5-0.7,4.1-3.5,6.8-6.5c2.5-2.6,5.8-4.2,9.2-5.3c1.4-0.4,3.9-2.5,4.4,0
			c0.3,1.3-0.1,2.7-1.1,3.6c-0.4,0.4-5.6,4-3.2,3.8c3.9-0.8,9.5-5,13.8-6.5c1.7-0.4,4.5-1.2,5.6,0.6c0.5,1.3-0.7,2.3-1.7,2.9
			c1.2,1.7,0.4,3.6-0.6,5.2c-0.2,0.7,0,1.4,0.1,2.1c0.1,1.6-1,3.1-2.5,3.6c1,5.2-8,7.7-11.8,9.2c-1.4,0.5-2.8,0.9-4.2,1.4
			c-5.4,1.9-5.8,0.9-9.9,1.6c-3,0.9-5.6,2.2-16,6.2c-10.2,4-12.4,4.5-17.2,5.6c-6.5,1.6-9.2-1.4-17.4-11
			c-13.2-15.4-20.1-23.6-20.1-23.6l6.8-14.3c11.9,0,13.6,4.2,18.6,10c7.6,8.9,11.8,13.7,14.5,16.9
			C423.4,354.3,444.2,349.8,449.1,348.7L449.1,348.7z"/>
		<path class="st19" d="M387.7,325.8c6.9,0.2,12.8-0.6,22.8,12c10.1,12.6,12.1,15,12.1,15s-3.5,6.5-8.7,10.4
			c-5.3,4-12.2,5.1-12.2,5.1l-14.4-18.1L387.7,325.8L387.7,325.8z"/>
		<path class="st19" d="M387.7,325.8l-0.4,24.5l14.4,18.1c0,0,6.9-1.2,12.2-5.1c5.3-4,8.7-10.4,8.7-10.4s-2-2.4-12.1-15
			C400.5,325.2,394.7,325.9,387.7,325.8L387.7,325.8z M388.7,326.7l0.3,0c6.3,0.1,11.7,0.2,20.9,11.6c7.7,9.6,10.7,13.3,11.7,14.5
			c-1,1.6-4,6.4-8.2,9.6c-4.2,3.1-9.5,4.5-11.2,4.9l-13.8-17.4L388.7,326.7L388.7,326.7z"/>
		<path class="st18" d="M458.7,354.5c1-0.4,1.9-0.9,2.8-1.6c1.7-1.3,3.2-3.3,3.4-5.5c0-0.2-0.3-0.2-0.4,0c-0.6,0.8-1.1,1.7-1.8,2.6
			c-0.6,0.8-1.4,1.5-2.2,2.1c-0.8,0.6-1.6,1.1-2.5,1.4c-0.4,0.2-0.9,0.3-1.4,0.4c-0.5,0.1-0.9,0.1-1.3,0.5c-0.2,0.1-0.3,0.5,0,0.6
			C456.5,355.4,457.8,354.9,458.7,354.5L458.7,354.5z"/>
		<path class="st16" d="M330.4,570.9c1.2-10.1,3.7-14,4.4-19.2c0.7-5.6,0.4-11.7,1-14.2c0,0-1.8-32.3-2.2-45.4
			c-0.4-13.1,2.3-23.9,2.3-23.9s-0.2-25.9,0-45.9c0-5.4,0.1-10,0.3-13.9c0.1-6.9,0.5-13.2,1-18.6h65.5c0,0,4,51,3.8,74.1
			c-0.1,13.7-0.7,23.1-1.9,32.7c-2,17-3.4,29.3-3.8,36.4c-0.4,6.5,0.8,7.6,5.2,13.7c4.4,6.1,10.9,12.2,15.5,14.6
			c4.5,2.4,6,6.3,0.7,8.5c-4.4,1.8-13.5,2.6-18.8-1c-5.2-3.5-8.7-8.1-14.1-10.6c-2.2-1-9-1-10.1-5.4c-1.1-4.4,0.8-12.4,1.7-17.9
			l0-1.8c-0.9-11.1-2.3-22-3.2-31.5c-1.4-14.4-1.2-23.5-1.2-23.5l-3.1-43.2l-1.6-0.4c-2.1,13.2-4.8,30.5-6.1,38
			c-1.2,7.5-6.3,39.8-7.9,47.8c-1.1,5.7-2.8,13.3-3.7,18c0.9,3.7-1,14.6-0.3,25.7c0.2,3.7,2,12.9-1.7,18.5c-3.5,5.3-9.4,8-16.9,2.3
			C327.7,579.6,329.9,574.9,330.4,570.9L330.4,570.9z"/>
		<path class="st15" d="M354.8,576.3c-0.3,5.3-1.3,8.8-3.5,11.9c-2.2,3-6.5,3.8-10.8,2.8c-4.3-1.1-9.8-3.8-11.1-8.4
			c-1.3-4.7-1-7.8-0.1-12.7L354.8,576.3L354.8,576.3z"/>
		<path class="st17" d="M335.8,537.5c-1.8,0-0.6,6.7-1.5,13.8c-1,7.6-3.7,10.7-4.7,17c-1.1,7.2-0.6,10.4,2.4,14.9
			c3,4.5,13.7,9.2,18.8,3.2c4.2-4.9,4.4-10.5,3.9-17.7c-0.5-7.4-0.8-12.7-0.5-18.3c0.3-5.4,1.2-11-0.3-11.7c-0.1,0.8-1.2,6.7-2,6.1
			c-0.2-0.1-0.2-0.3-0.3-0.5c-0.2-0.8-0.2-1.6-0.2-2.3c0-0.3,0.1-0.6,0-0.9c-0.1-0.2-0.2-0.4-0.3-0.6c-0.5-0.6-1.3-0.8-2.1-0.9
			c-3.5-0.8-7.1-1.1-10.6-0.6c-0.3,0-0.5,0.1-0.7,0.3c-0.1,0.1-0.2,0.3-0.2,0.5c-0.1,0.7-0.1,1.5-0.2,2.2c0,0.2,0,0.5-0.2,0.7
			c-0.1,0.2-0.3,0.4-0.6,0.4c-0.7,0-0.6-0.9-0.7-1.3c-0.1-0.6-0.2-1.1-0.3-1.7C335.7,539.3,335.5,538.2,335.8,537.5L335.8,537.5z"/>
		<path class="st14" d="M330,566.3c-0.2,1-1.2,7.9,1.1,9.2c2.4,1.4,3.7-3.9,3.7-3.9s5.6-1.2,13.9,2.1c-0.4,1.1,0.9,4.8,3.1,4.1
			c2.2-0.7,3.1-8.5,3.1-8.6c0.4,6.9,0.1,12.4-3.9,17.1c-5.2,6-15.8,1.3-18.8-3.2c-3-4.5-3.5-7.7-2.4-14.9
			C329.7,567.6,329.8,566.9,330,566.3L330,566.3z"/>
		<path class="st15" d="M335.4,572c0,2.6-3.1,1.6-3.2-2.1c-0.2-3.7,2.2-12.3,2.1-18.6c1-7.1-0.2-13.7,1.5-13.8
			c0,0.1,0.6,4.6,0.6,5.2c0,5.3,0,15.3-0.5,20.1C335.3,567.7,335.4,569.4,335.4,572L335.4,572z"/>
		<path class="st15" d="M347.6,573.6c0.6-2.5,1-4.2,1.6-9.1c0.6-4.8,2-14.8,3.2-20c0.3-1.1,1.5-5.9,1.5-5.9c1.2,0.4,0.7,3.8,0.5,7.4
			c-0.2,2.1-0.6,4.6-1.1,7.7c-1.5,6.1-1.1,15.1-2.1,18.7C350.3,575.9,347.1,576.1,347.6,573.6L347.6,573.6z"/>
		<path class="st25" d="M348.8,573.9l-0.2-0.1c-0.1,0-6.5-3.1-13.6-1.7c-0.4,0.1-0.7-0.1-0.8-0.4c-0.1-0.3,0.1-0.6,0.5-0.7
			c7.6-1.4,14.3,1.7,14.6,1.9c0.3,0.2,0.4,0.5,0.3,0.8C349.3,573.8,349,573.9,348.8,573.9L348.8,573.9z"/>
		<path class="st25" d="M350.2,568.3l-0.2-0.1c-0.1,0-7.3-3.2-15.3-1.9c-0.4,0-0.7-0.1-0.8-0.4c-0.1-0.3,0.1-0.6,0.5-0.6
			c8.4-1.3,15.8,1.9,16.1,2.1c0.3,0.1,0.5,0.5,0.3,0.8C350.7,568.2,350.5,568.3,350.2,568.3z"/>
		<path class="st25" d="M335.1,561c-0.2,0-0.5-0.2-0.6-0.4c-0.1-0.3,0.1-0.6,0.4-0.7c7.9-1.9,15.8,1.8,16.1,1.9
			c0.3,0.2,0.4,0.5,0.3,0.8c-0.2,0.3-0.6,0.3-0.9,0.2c-0.1,0-7.7-3.6-15.1-1.8L335.1,561L335.1,561z"/>
		<path class="st25" d="M335.4,556.6c-0.2,0-0.5-0.2-0.6-0.4c-0.1-0.3,0-0.6,0.4-0.7c8.7-2.3,16.1,1.7,16.4,1.9
			c0.3,0.2,0.4,0.5,0.2,0.8c-0.2,0.3-0.6,0.3-0.9,0.1c-0.1,0-7.2-3.9-15.3-1.8L335.4,556.6L335.4,556.6z"/>
		<path class="st25" d="M335.7,551.6c-0.2,0-0.5-0.2-0.6-0.4c-0.1-0.3,0-0.6,0.4-0.7c8.2-2.2,16.2,1.9,16.5,2.1
			c0.3,0.2,0.4,0.5,0.2,0.8c-0.2,0.3-0.6,0.3-0.9,0.2c-0.1,0-7.9-4-15.4-1.9L335.7,551.6L335.7,551.6z"/>
		<path class="st14" d="M331.8,487.9c0.6-8.8,1.8-20.4,1.8-20.4s0.4-36.5,0.6-49.5c0.2-13,1.2-21.6,1.6-31.2h70.9
			c2.8,27.6,2.1,56.1,2.1,73.9c0,13-1.7,23.4-3.2,36.2c-1,8.3-3.5,28.4-3.5,28.4c-1.6,1.5-5.8,3.3-11.1,3.5
			c-7.5,0.2-11.9-3.1-11.9-3.1s-3.1-15.9-4.2-29.9c-0.3-3.5-0.3-12.2,0.7-17.3l-4.1-31.2l-3.2,16.5c-3,18.5-11.7,66.4-11.7,66.4
			s-3.8,3.1-11,2.4c-7.6-0.8-10.8-3.3-10.8-3.3S331.2,496.7,331.8,487.9L331.8,487.9z"/>
		<path class="st17" d="M371.4,447.3l2.4-16.3c0,0,13.3-3.4,17.1-10.7c0,0-0.2,8.2-14.2,13.7l-2.8,13.9l1.6,30.6L371.4,447.3
			L371.4,447.3z"/>
		<path class="st15" d="M428,566c0.3,0,0.8,3.6-1,5.2c-2.1,1.7-8.2,4.6-16.2,3.4c-8-1.2-10.2-2.8-13.4-5.6c-3.2-2.7-6.1-5.6-9.7-6.5
			c-3.4-0.8-8.5-2.2-9.5-3.3c-1.1-1.1-0.8-5.7-0.8-5.7L428,566z"/>
		<path class="st17" d="M380.8,533.6c0,0-1.1,0-1.4,1.1c-0.3,1.3-0.6,5-1.2,7.1c-0.8,2.9-1.1,11.1-0.7,13.5c0.4,2.4,7.3,4,10.8,5.4
			c3.6,1.4,6.1,3.3,9.7,6.4c3.7,3.2,9.5,5.6,14.7,5.7c6.2,0.1,13.2-1.8,14.8-4.7c2-3.5,2.4-6.9-6.7-11.3c-1.7-0.8-6.4-4.1-8.5-5.4
			c-2.2-1.4-4.1-3.3-6-5.1c-1.3-1.3-2.1-2.5-3-4c-0.5-0.8-1.1-1.8-1.4-2.7c-0.3-1-0.3-1.9-0.5-2.9c-0.1-0.6-0.3-1.3-0.9-1.6
			c-1-0.4-2.2-0.3-2.6-0.3c-2.1,0.2-4.2,0.6-6.2,1.3c-0.8,0.3-1.6,0.6-2.1,1.3c-0.3,0.5-0.4,1.1-0.4,1.7c0,0.6,0,1.2-0.1,1.8
			c0,0.2-0.1,0.4-0.2,0.6c-0.3,0.3-0.8,0-1.1-0.2c-0.9-0.9-1.6-2-2.4-3c-0.4-0.5-2.4-0.9-2.9-1.4c-0.5-0.4-1.4-0.9-1.8-1.3
			C380.2,534.7,380.8,534.3,380.8,533.6L380.8,533.6z"/>
		<path class="st14" d="M398,566.9c-1.6-1.3-2.5-2.2-4.2-3.3v0c0,0,9.7,4,14.1,1.1c2.8-1.9,1.5-4.2,1.5-5c-0.1-0.7,6.9-3.8,9.6-4.1
			l0,0c0.8,0.4,1.4,0.8,1.8,1c9.1,4.4,8.7,7.8,6.7,11.3c-1.6,2.8-6.7,5-14.7,4.9C407.6,572.7,401.7,570.1,398,566.9L398,566.9z"/>
		<path class="st15" d="M408.7,557.6c5.7,2.4,3.2,3.4,1.6,3.6c-1.6,0.2-9.6-4.6-15.3-9.3c-6-4.9-11.3-10.1-13.5-11.9
			c-0.8-0.7-1.7-1.5-2.5-2.3c0.2-1.3,0.3-2.4,0.4-3c0.2-1.1,1.5-1.4,1.5-1.4l0,1.8c0.4,0.4,1.4,0.9,2,1.1c1.2,0.5,2.2,1.2,2.6,1.8
			c0.8,1,1.5,2.1,2.4,3C392.8,547.4,403,555.2,408.7,557.6L408.7,557.6z"/>
		<path class="st25" d="M409.9,560.3l-0.4-0.1c-0.2-0.2-0.3-0.6-0.1-0.8c1.6-1.9,6.3-4.5,10.5-3.9c0.3,0,0.5,0.3,0.5,0.6
			c0,0.3-0.3,0.5-0.6,0.5c-3.9-0.5-8.2,2-9.5,3.6C410.2,560.2,410.1,560.3,409.9,560.3L409.9,560.3z"/>
		<path class="st25" d="M405,557.4l-0.4-0.1c-0.2-0.2-0.3-0.6-0.1-0.8c1.6-2,6.2-4.6,10.4-4.2c0.3,0,0.5,0.3,0.5,0.6
			c0,0.3-0.3,0.5-0.6,0.5c-3.9-0.4-8.2,2.2-9.4,3.8C405.3,557.3,405.1,557.4,405,557.4L405,557.4z"/>
		<path class="st25" d="M400.4,554.1l-0.4-0.1c-0.2-0.2-0.3-0.6-0.1-0.8c1.6-1.9,6.3-4.5,10.5-3.9c0.3,0,0.5,0.3,0.5,0.6
			c0,0.3-0.3,0.5-0.6,0.5c-3.9-0.5-8.2,2-9.5,3.6C400.8,554.1,400.6,554.2,400.4,554.1L400.4,554.1z"/>
		<path class="st25" d="M396.8,551l-0.4-0.1c-0.2-0.2-0.3-0.5-0.1-0.8c1.6-2,6.1-4.7,10.3-4.4c0.3,0,0.5,0.3,0.5,0.6
			c0,0.3-0.3,0.5-0.6,0.5c-3.9-0.3-8.1,2.4-9.3,4C397.2,550.9,397,550.9,396.8,551z"/>
		<path class="st25" d="M392.6,547.2l-0.4-0.1c-0.2-0.2-0.3-0.5-0.1-0.8c2.2-2.8,7.1-4.8,11.3-4.4c0.3,0,0.5,0.3,0.5,0.6
			c0,0.3-0.3,0.5-0.6,0.5c-3.8-0.3-8.4,1.5-10.3,4C392.9,547.2,392.7,547.2,392.6,547.2z"/>
		<path class="st5" d="M335.4,356.8c-1.6-14-0.8-15.4,1-20.4c1.8-5.1,4.6-7.2,6.7-8c0,0,19.1-3.6,21.1-3.7
			c8.2-0.4,12.8-0.3,16.5-0.1c4.1,0.3,7.2,0.3,11.6,2.8c4,2.3,11,8.9,12.6,24.9c2.3,22,2.3,27.5,3.2,47.9
			c-5.3,12.3-41.9,19.6-72.9,5.3c0,0,0.3-14.3,0.6-21.5C336.1,377.3,336.7,368,335.4,356.8z"/>
		<path class="st15" d="M335.2,266.8c-4.5,2.3-8,6.6-8.1,11.5c-0.1,4.1,1.9,8.3,0.4,12.1c-0.5,1.5-1.5,2.7-2.4,4
			c-2.9,4.5-3.8,10.6-1.1,15.2c1.2,2.1,3,3.8,4.9,5.3c1.7,1.3,4,2.4,4.5,4.8c0.2,1.2-0.3,2.5-1.4,3.2c-1,0.7-2.5,0.7-3.5,0
			c0,1,0.7,1.9,1.5,2.6c3.6,3,10.1,2.8,13.5-0.4c2-1.9,3.2-4.6,2.8-7.4c1.1,2.3,1.1,5.1,0,7.5c4.4-1.7,8.8-4.2,11-8.4
			c2.1-4,1.9-8.9,0.5-13.2c-1.4-4.3-3.7-8.2-5.7-12.3c-2-4.1-3.6-8.4-3.4-13c0.1-1.7,0.4-3.3,0.9-5c0.3-1.3,1.5-3.1,1.5-4.4
			c0-1.8-3.7-3.8-5.4-4c-2.5-0.4-5.1-0.2-7.5,0.5C337.2,265.9,336.1,266.3,335.2,266.8L335.2,266.8z"/>
		<path class="st5" d="M342.6,267.7c-1.7,2.4-3,5.8-2,8.3c1.5,3.6,5.4,3.4,7.7,0.8c2.5-2.7,4.5-7.1,3-10.8c-1.5-3.8-5.4-1.8-7.5,0.1
			C343.5,266.6,343,267.1,342.6,267.7z"/>
		<path class="st15" d="M360.2,320.5c-1.4-0.1-3.5-2.7-4.4-3.5c-3.1-2.8-6-5.8-8.5-9.2c-3.5-4.8-6.1-10.3-6.8-16.1
			c-0.7-6.1,0.8-12.3,3.7-17.7c3.8-6.7,9.4-12,16.9-14c7.2-1.9,15.7-1.9,22.7,0.9c4.7,1.9,8.8,4.5,11.6,8.5
			c2.9,4.2,4.8,10.4,4.1,15.4c-0.5,3.7-2.7,6.9-5.5,9.4c-2.8,2.5-6.2,4.2-9.6,5.8c-2.1,1-4.3,1.8-6.4,2.8c-1,0.5-2.3,0.9-3.2,1.6
			c-0.7,0.5-1.1,1.4-1.7,2c-3.2,3.9-6.4,7.8-9.6,11.6C362.9,318.8,361.3,320.6,360.2,320.5z"/>
		<path class="st16" d="M354.1,300.8l-0.3,0.3c-1.5,1.3-1.8-1.6-3.7-3.3c-1-0.9-2.4-1.2-3.7-0.9c-2.6,0.5-4,1.8-4.7,3.8
			c-1.2,3.6,1.3,8.7,6.1,9.7c4.6,1,6.8-2.3,6.8-2.3l2.9,20.7c0,0,5.4,6.1,16.4,6.7c11.5,0.6,12.9-5.6,7.7-9.4l-0.7-5.2
			c0,0,4.8-0.5,8.2-2.3c7.3-3.8,8.6-10.5,8.8-13.9c0.2-4.2-1.5-7.7-2-11.8c-0.3-2.6-0.7-5.2-0.9-7.9c-0.1-1.7-0.1-3.3-0.4-5
			c-0.1-0.5-1.1-4.8-1.5-4.7c-5.9,0.6-12-0.6-17.2-3.3c-0.2-0.1-0.4-0.2-0.6-0.2c-0.2,0-0.4,0.2-0.6,0.3c-4,2.9-8.7,4.7-13.7,5.1
			c0.8,3.4,0.3,7-1.1,10.1c-0.7,1.6-1.7,3.1-2.9,4.4c-0.3,0.3-3.1,2.6-2.9,3.1c0.5,1.5,0.7,3.1,0.5,4.6
			C354.5,299.9,354.4,300.4,354.1,300.8L354.1,300.8z"/>
		<path class="st15" d="M378.9,281.1c-0.7-0.9-1.2-1.9-1.5-3.1c-0.7,1-0.9,2.2-1.4,3.3c-0.7,1.8-2,3.3-3.6,4.3c0.8-2,1.2-4.1,1-6.3
			c-2.4,4-6.3,7-10.8,8.4c1.5-1.7,3.1-3.7,2.9-6c-1.4,3-3.8,4.6-6.6,6c-1.4,0.7-2.6,1.1-4.2,1.2c-0.9,0.1-1.7,0-2.6-0.1
			c-0.4-0.1-2-0.7-2.3-0.5c2-1,3.3-2.9,4.2-5c0.9-2,1.5-4.2,2.5-6.2c1.4-2.8,3.6-5,6.2-6.7c2.6-1.7,5.5-3.1,8.5-3.9
			c2.5-0.6,5.1-1.2,7.7-1.2c1.8,0,3.7,0.3,5.5,0.7c1.6,0.4,3.3,0.9,4.7,1.7c1.1,0.7,2.1,1.7,3,2.7c2.8,3.3,4.6,7.4,4.7,11.7
			c0,0.6-0.1,2.7-0.7,3c-0.1,0.1-0.3,0.1-0.5,0.1c-5.4,0.6-11-2.6-13.3-7.4c0,1.9,0.2,3.8,0.4,5.7
			C381.2,283.2,379.9,282.3,378.9,281.1L378.9,281.1z"/>
		<path class="st21" d="M361.9,299.2c0.2,1.8,2.2,3.1,4.6,2.8c2.4-0.2,4.1-1.9,3.9-3.7c-0.2-1.8-2.2-3.1-4.6-2.8
			C363.5,295.8,361.7,297.4,361.9,299.2z"/>
		<path class="st21" d="M389.7,295.8c0.2,1.8,2.3,3,4.6,2.8c2.4-0.2,4.1-1.9,3.9-3.7c-0.2-1.8-2.3-3-4.6-2.8
			C391.2,292.4,389.5,294.1,389.7,295.8z"/>
		<path class="st15" d="M370.6,289.1l-5.6,3.1c-0.8-1.6-0.2-3.6,1.3-4.5C367.8,286.8,369.7,287.5,370.6,289.1z"/>
		<path class="st15" d="M366.9,295.4c0.2,1.4,1.5,2.4,3,2.3c1.4-0.2,2.4-1.5,2.3-3c-0.2-1.4-1.5-2.5-3-2.3
			C367.7,292.7,366.7,294,366.9,295.4z"/>
		<path class="st15" d="M386.3,292.5c0.2,1.4,1.5,2.5,3,2.3c1.4-0.2,2.4-1.5,2.3-3c-0.2-1.4-1.5-2.5-3-2.3
			C387.1,289.7,386.1,291,386.3,292.5z"/>
		<path class="st15" d="M392.1,287.9l-6.3-1.3c0.3-1.8,1.9-2.9,3.7-2.6C391.3,284.4,392.4,286.1,392.1,287.9z"/>
		<polygon class="st18" points="378.9,293.3 380.6,303.4 387.1,300.7 		"/>
		<path class="st20" d="M373.9,305.7c1.1-1.2,2.2,0.2,4.8,0.5c2.5,0.3,4-1,4.5,0.6c0.5,1.3-1,4.2-5.3,3.9
			C374.3,310.5,372.9,306.8,373.9,305.7L373.9,305.7z"/>
		<path class="st26" d="M378.7,306.3c-1.7-0.2-2.7-0.9-3.5-1l0,1.1c0,0,0.8,0.7,2.8,1.1c2.4,0.4,4-0.4,4-0.4l0.3-1.1
			C381.5,306,380.3,306.5,378.7,306.3L378.7,306.3z"/>
		<path class="st21" d="M377.9,310.8c0.9,0.1,1.6,0,2.3-0.2c-0.9-1.8-2.9-3-5.1-2.7c-0.4,0.1-0.8,0.2-1.2,0.3
			C374.6,309.4,375.9,310.6,377.9,310.8L377.9,310.8z"/>
		<path class="st18" d="M380.9,320.8c-5.5,0.3-9.5,0.5-16.2-2.7c-2.5-1.2-5.3-4-6.7-6.6c0,0,1.9,6,4.7,8.3
			c7.2,6.1,18.6,4.1,18.6,4.1L380.9,320.8L380.9,320.8z"/>
		<path class="st20" d="M373.8,312.1L373.8,312.1L373.8,312.1z"/>
		<path class="st16" d="M342.4,329.5c-11.3,1.8-15.3,6.8-17.7,16c-1.8,7.3-4.7,17.6-6.7,25.7c-1.1,4.5-2.8,12-1.3,20
			c1.2,6.5,6.3,30.1,6.6,30.2c0.2,1.4,0.4,2.7,0.5,3.3c0.7,4.3-0.1,7.9,2.7,15c1.3,3.3,3.1,7.4,6.9,8.7c0.9,0.3,1.9,0.5,2.6,1
			c0.4,0.3,0.8,0.7,1.1,1.1c0.5,0.4,1,0.8,1.6,1.1c0.3,0.2,0.7,0.3,1,0.3c0.6,0,1-0.4,1.6-0.5c0.6-0.1,1.2,0.3,1.6,0.7
			c0.4,0.4,0.8,0.9,1.3,1.2c0.5,0.3,1.2,0.4,1.7,0c0.3-0.3,0.4-0.7,0.4-1.1c0.1-3.9-3.4-9.7-4.9-13.2c-0.5-1.1-2-4-1-5.3
			c0.6-0.7,2.7,2,3.1,2.4c0.7,0.6,1.2,1.2,2.2,1.4c0.7,0.2,1.7,0.3,2.3-0.1c0.7-0.5,0.3-1,0-1.5c-1.9-2.8-3.3-5.8-5.2-8.7
			c-2.1-3.3-4.1-5.1-4.5-8.7c-0.4-3.6-1.3-30.8-1.3-30.8l7.4-32.1C345.6,350.8,350.4,336,342.4,329.5z"/>
		<path class="st19" d="M343.2,328.3c-8.4,1.5-15.7,2.4-19.1,13.8c-4.4,14.6-7.8,29.6-7.8,29.6s15.1,7.5,25.1,3.1l5.7-27.4
			C349.3,332.5,343.2,328.3,343.2,328.3z"/>
		<path class="st19" d="M343.2,328.3c-8.4,1.5-15.7,2.4-19.1,13.8c-4.4,14.6-7.8,29.6-7.8,29.6s9.3,4.6,18.2,4.5
			c2.4,0,4.8-0.4,6.9-1.4l5.7-27.4C349.3,332.5,343.2,328.3,343.2,328.3z M343,329.3c1.1,1,5,5.7,3.3,18l-5.6,26.8
			c-1.8,0.7-3.8,1.1-6.1,1.1c-7.2,0.1-14.8-3-17.1-4.1c0.8-3.2,3.8-16.2,7.6-28.8c3.1-10.4,9.5-11.6,17.5-13L343,329.3z"/>
		<path class="st2" d="M570.3,487.9c0-16.5,11.6-36.6,25.9-44.8c5.6-3.2,10.8-4.2,15-3.1c2.2,3,3.4,7.7,3.4,13.7
			c0,16.5-11.6,36.6-25.9,44.8c-5.6,3.2-10.3,4.3-14.1,3.4C571.9,498.8,570.3,494,570.3,487.9z M655.5,428.4L655.5,428.4l-11.5-6.6
			v0c-0.3-0.2-0.7-0.2-1.2,0l-7.9,3.5c-0.1-0.7,0-1.4,0.2-1.9l9.1-18.3c0.5-0.9,0.1-2.1-0.8-2.7l-9.9-5.7l-0.1,0l-11.5-6.6
			c-0.9-0.5-2.1-0.2-2.7,0.6l-11.3,17c-0.3,0.5-0.9,0.9-1.5,1.1l-0.9-8.6c-0.1-0.5-0.3-0.9-0.6-1l0,0l-11.6-6.6l0,0
			c-0.3-0.2-0.8-0.2-1.2,0.1l-15.3,8.8c-0.9,0.5-1.7,1.8-1.8,2.9l-1.5,17c-0.1,1.1-0.8,2.5-1.6,3.2c-3,2.7-5.8,5.8-8.5,9
			c-0.7,0.8-2,1.2-3,0.9l-9.8-3.4c-1-0.3-2.2,0.1-2.8,1l-11.3,19.5c-0.5,0.9-0.3,2.2,0.5,2.9l7.9,6.8c0.8,0.7,1.1,2,0.8,3
			c-1.5,3.9-2.7,7.9-3.5,11.9c-0.2,1-1.1,2.4-2,3l-14,9.9c-0.9,0.6-1.6,2-1.6,3v17.7c0,0.5,0.2,0.9,0.5,1.1l0,0l11.5,6.6l0,0
			c0.3,0.2,0.7,0.2,1.2,0l7.9-3.5c0.1,0.7,0,1.4-0.2,1.9l-9.1,18.3c-0.5,0.9-0.1,2.1,0.8,2.7l13.8,8l0,0l7.5,4.3
			c0.9,0.5,2.1,0.2,2.7-0.6l11.3-17c0.3-0.5,0.9-0.9,1.5-1.1l0.9,8.6c0.1,0.5,0.3,0.9,0.6,1l0,0l11.5,6.6l0,0
			c0.3,0.2,0.8,0.2,1.3-0.1l15.3-8.8c0.9-0.5,1.7-1.8,1.8-2.9l1.5-17c0.1-1.1,0.8-2.5,1.6-3.2c3-2.7,5.8-5.8,8.5-9
			c0.7-0.8,2-1.2,3-0.9l9.8,3.4c1,0.3,2.2-0.1,2.8-1l11.3-19.5c0.5-0.9,0.3-2.2-0.5-2.9l-7.9-6.8c-0.8-0.7-1.1-2-0.8-3
			c1.5-3.9,2.7-7.9,3.5-11.9c0.2-1,1.1-2.4,2-3l14-9.9c0.9-0.6,1.6-2,1.6-3v-17.7C656.1,429,655.9,428.6,655.5,428.4L655.5,428.4z"
			/>
		<path class="st3" d="M560.2,549.4c0.2,0,0.4-0.1,0.5-0.2c0.2-0.1,0.4-0.3,0.6-0.5c0,0,0,0,0,0h0c0-0.1,0.1-0.1,0.1-0.2
			C561.2,549,560.7,549.3,560.2,549.4L560.2,549.4z M587.3,546.7l-0.2-0.1c-0.1-0.1-0.2-0.2-0.2-0.3
			C587,546.5,587.1,546.6,587.3,546.7L587.3,546.7z M586.7,545.9c0-0.1,0-0.2-0.1-0.3l-1.5-14.9c-0.1-0.9-0.8-1.5-1.6-1.5
			c-0.1,0-0.3,0-0.4,0c-0.4,0.1-0.7,0.1-1.1,0.2c0.2,0,0.3-0.1,0.5-0.1c0,0,0.1,0,0.1,0c0.1,0,0.2,0,0.2-0.1c0,0,0,0,0,0
			c0.1,0,0.1,0,0.2,0c0.1,0,0.1,0,0.2,0c0.1,0,0.2,0,0.2,0c0.2,0,0.4,0,0.6,0.1c0.6,0.2,1,0.7,1,1.4l1.5,14.9l0,0
			C586.7,545.8,586.7,545.9,586.7,545.9L586.7,545.9z M551.3,544.9L551.3,544.9l-1.3-0.8L551.3,544.9L551.3,544.9z M548.3,543
			c-0.5-0.6-0.6-1.5-0.2-2.2l2.6-5.3l-2.6,5.3c-0.1,0.3-0.2,0.6-0.2,0.9C547.9,542.2,548,542.7,548.3,543L548.3,543z M572.9,531.4
			c0.3-0.4,0.9-0.8,1.4-1.1c0.5-0.2,1-0.3,1.4-0.3l0.1,0l0,0c0,0,0,0,0,0c0.2,0,0.5,0,0.7,0c1,0,2.1-0.1,3.1-0.2
			c-1.1,0.1-2.1,0.2-3.2,0.2c-0.2,0-0.5,0-0.7,0c0,0-0.1,0-0.1,0c-0.4,0-0.9,0.1-1.4,0.3l0,0C573.7,530.6,573.2,531,572.9,531.4
			L572.9,531.4z M538.6,530.1l7-14.2c0.2-0.4,0.3-0.9,0.3-1.3c0-0.2,0-0.4,0-0.6l-7.9,3.5l7.9-3.6c0.1,0.7,0,1.4-0.3,1.9
			L538.6,530.1L538.6,530.1z M557.4,520.5c-0.1-0.5-0.2-0.9-0.4-1.2c-0.3-0.4-0.5-0.9-0.7-1.3c0.2,0.4,0.5,0.9,0.7,1.3
			C557.2,519.6,557.3,520,557.4,520.5L557.4,520.5z M536.8,517.6l-11.5-6.6l0,0l0,0c-0.3-0.2-0.5-0.6-0.5-1.1v-17.7
			c0-1,0.7-2.3,1.5-3c-0.3,0.3-0.6,0.6-0.9,1l0,0l11.5,6.6c0.2-0.4,0.6-0.8,0.9-1c-0.8,0.6-1.5,1.9-1.5,3l0,0l0,17.7
			C536.3,517,536.5,517.4,536.8,517.6L536.8,517.6z M630.2,508.3C630.2,508.3,630.2,508.3,630.2,508.3
			C630.2,508.3,630.2,508.3,630.2,508.3z M630.2,508.2C630.2,508.2,630.2,508.2,630.2,508.2C630.2,508.2,630.2,508.2,630.2,508.2z
			 M630.2,508.2C630.2,508.2,630.2,508.2,630.2,508.2L630.2,508.2C630.2,508.2,630.2,508.2,630.2,508.2z M630.2,508.2l-9.8-3.4
			c-0.2-0.1-0.5-0.1-0.8-0.1c-0.3,0-0.6,0-0.8,0.1c0,0,0,0,0.1,0c0.3-0.1,0.5-0.1,0.8-0.1c0.3,0,0.5,0,0.8,0.1c0,0,0,0,0,0
			L630.2,508.2L630.2,508.2z M574.6,501.9C574.6,501.9,574.6,501.9,574.6,501.9c-2.5-2.9-4-7.2-4.3-12.6
			C570.6,494.8,572.1,499,574.6,501.9z M570.3,489.3C570.3,489.3,570.3,489.3,570.3,489.3C570.3,489.3,570.3,489.3,570.3,489.3z
			 M570.3,489.3C570.3,489.2,570.3,489.2,570.3,489.3C570.3,489.2,570.3,489.2,570.3,489.3z M570.3,489.2
			C570.3,489.2,570.3,489.2,570.3,489.2C570.3,489.2,570.3,489.2,570.3,489.2z M570.3,489.1C570.3,489.1,570.3,489.1,570.3,489.1
			C570.3,489.1,570.3,489.1,570.3,489.1z M570.3,489C570.3,489,570.3,489,570.3,489C570.3,489,570.3,489,570.3,489z M570.3,489
			C570.3,489,570.3,489,570.3,489C570.3,489,570.3,489,570.3,489z M570.3,488.9C570.3,488.9,570.3,488.9,570.3,488.9
			C570.3,488.9,570.3,488.9,570.3,488.9z M570.3,488.8C570.3,488.8,570.3,488.8,570.3,488.8L570.3,488.8z M644.2,487.7
			c0.2-0.3,0.3-0.7,0.3-1.1l0,0C644.5,487,644.4,487.4,644.2,487.7z M552.4,485.4c0.2-0.2,0.4-0.4,0.5-0.6l0,0l-11.5-6.6
			c0.4-0.6,0.7-1.3,0.9-1.8c0.9-4,2.1-7.9,3.5-11.9c0.1-0.3,0.1-0.6,0.1-0.9c0-0.8-0.3-1.7-0.9-2.2l-7.9-6.8
			c-0.5-0.4-0.8-1.1-0.8-1.8c0-0.3,0.1-0.6,0.2-0.9c-0.1,0.3-0.2,0.6-0.2,0.9c0,0.1,0,0.2,0,0.3l11.5,6.6c0.1,0.6,0.3,1.1,0.8,1.5
			l7.9,6.8c0.6,0.5,0.9,1.4,0.9,2.2c0,0.3,0,0.6-0.1,0.9c-1.5,3.9-2.7,7.9-3.5,11.9c-0.2,0.7-0.6,1.6-1.2,2.3
			C552.5,485.3,552.5,485.3,552.4,485.4L552.4,485.4z M613.6,485.1c5.2-8.5,8.5-18.3,8.5-27.1c0-10-4.3-16.5-10.9-18.1
			c1.3,1.9,2.3,4.4,2.8,7.4c-0.5-3-1.5-5.5-2.8-7.4c-1.1-0.3-2.2-0.4-3.4-0.4c-3.5,0-7.4,1.1-11.5,3.5l0,0c1.5-0.9,2.9-1.5,4.3-2.1
			c2.6-1,5-1.4,7.2-1.4c0.7,0,1.4,0,2.1,0.1c5.2,0.7,9.2,4.3,11,10c0.8,2.4,1.2,5.2,1.2,8.3C622.1,466.8,618.8,476.6,613.6,485.1z
			 M547.9,459.4c0-0.4,0.1-0.8,0.3-1.1l6.5-11.2l-6.5,11.2c0,0,0,0,0,0.1C548,458.7,547.9,459,547.9,459.4L547.9,459.4z
			 M572.9,441.3c-0.3,0-0.5,0-0.8-0.1l-9.8-3.4c-0.2-0.1-0.5-0.1-0.7-0.1c-0.7,0-1.5,0.4-1.9,0.9c0.4-0.5,1-0.9,1.7-0.9l0,0
			l-11.4-6.6c-0.7,0-1.3,0.3-1.8,0.9c0.4-0.5,1.2-0.9,1.9-0.9c0.2,0,0.5,0,0.7,0.1l9.8,3.4c0.2,0.1,0.5,0.1,0.8,0.1
			c0.8,0,1.7-0.4,2.2-1c2.7-3.2,5.5-6.3,8.5-9c0.8-0.7,1.5-2.1,1.6-3.2l1.5-17c0.1-0.8,0.5-1.7,1.2-2.3c-0.4,0.4-0.7,0.8-0.9,1.3
			l0,0l11.5,6.6c-0.1,0.3-0.2,0.7-0.3,1l-1.5,17c0,0,0,0,0,0c-0.1,1-0.8,2.5-1.6,3.2l0,0c-0.2,0.2-0.5,0.4-0.7,0.6
			c-2.7,2.6-5.3,5.4-7.8,8.4c-0.4,0.5-1,0.8-1.6,0.9C573.3,441.3,573.1,441.3,572.9,441.3L572.9,441.3z M640,434.8
			c-0.1,0-0.2,0-0.2,0C639.8,434.7,639.9,434.8,640,434.8c0.1,0,0.2,0,0.3,0l0.3-0.1C640.5,434.7,640.2,434.8,640,434.8L640,434.8z
			 M639.6,434.7c-0.1,0-0.2-0.1-0.3-0.1c-0.4-0.2-0.7-0.6-0.9-1.1l0,0c0,0,0,0,0-0.1l0,0.1c0.1,0.3,0.2,0.5,0.4,0.7l0.2,0.2
			c0.1,0.1,0.3,0.2,0.5,0.2C639.5,434.7,639.6,434.7,639.6,434.7L639.6,434.7z M656.1,429.6C656.1,429.6,656.1,429.6,656.1,429.6
			C656.1,429.6,656.1,429.6,656.1,429.6L656.1,429.6z M656.1,429.6C656.1,429.5,656.1,429.5,656.1,429.6
			C656.1,429.5,656.1,429.5,656.1,429.6z M656.1,429.5C656.1,429.5,656.1,429.5,656.1,429.5C656.1,429.5,656.1,429.5,656.1,429.5z
			 M656.1,429.5C656.1,429.5,656.1,429.5,656.1,429.5C656.1,429.5,656.1,429.5,656.1,429.5z M636.5,428.7c-0.3-0.7-0.7-1.3-1.1-1.9
			c-0.6-0.9-0.7-2.4-0.2-3.3c-0.2,0.4-0.3,0.9-0.3,1.3c0,0.2,0,0.4,0,0.6l1.9-0.8l-1.9,0.9l0,0c0.1,0.5,0.2,1,0.5,1.4
			C635.8,427.4,636.1,428,636.5,428.7L636.5,428.7z M654.7,428.3L654.7,428.3c0.1,0,0.2,0,0.3,0c0,0,0.1,0,0.1,0c0,0,0,0-0.1,0
			C654.9,428.3,654.8,428.3,654.7,428.3L654.7,428.3z M608.8,416.7c-0.5,0-1-0.2-1.3-0.6c-0.2-0.2-0.3-0.5-0.3-0.9l-1.5-14.9
			c0,0,0,0,0,0c0,0,0,0,0,0l0.9,8.6c0.3-0.1,0.5-0.3,0.8-0.4l11.5,6.6c-0.6,0.4-1.4,0.7-2.2,0.7c0,0,0,0,0,0l-0.1,0
			c-0.2,0-0.3,0-0.5,0c-0.1,0-0.1,0-0.2,0c-2.1,0-4.4,0.2-6.7,0.8l0,0C609.1,416.7,609,416.7,608.8,416.7L608.8,416.7z M587,410.1
			c0.3-0.7,0.8-1.3,1.4-1.7C587.8,408.8,587.3,409.4,587,410.1z M624.4,407.2l6.5-9.7c0.1-0.1,0.1-0.2,0.2-0.3
			c-0.1,0.1-0.1,0.2-0.2,0.3l0,0L624.4,407.2z M590.6,407.1l13.2-7.7c0.3-0.2,0.5-0.2,0.8-0.2c0.1,0,0.3,0,0.4,0.1l0.1,0.1l0,0
			c-0.1,0-0.2-0.1-0.2-0.1c-0.1,0-0.2,0-0.3,0c-0.2,0-0.5,0.1-0.8,0.2L590.6,407.1L590.6,407.1z M644.3,405.2
			c0.1-0.2,0.1-0.3,0.2-0.5C644.4,404.8,644.4,405,644.3,405.2z M605.7,400.3C605.7,400.3,605.7,400.3,605.7,400.3
			C605.7,400.3,605.7,400.3,605.7,400.3z M605.7,400.3L605.7,400.3L605.7,400.3z M633.4,396.7c-0.1-0.1-0.2-0.1-0.4-0.1
			C633.2,396.6,633.3,396.6,633.4,396.7L633.4,396.7l-5.9-3.4L633.4,396.7z"/>
		<polygon class="st27" points="551.2,544.9 551.2,544.9 551.1,544.8 		"/>
		<path class="st27" d="M575.8,540.1C575.7,540.1,575.7,540,575.8,540.1C575.7,540,575.7,540.1,575.8,540.1L575.8,540.1z"/>
		<path class="st27" d="M575.3,539.4c0,0,0-0.1,0-0.1C575.2,539.4,575.2,539.4,575.3,539.4z"/>
		<path class="st27" d="M537.1,536.7c-0.5-0.4-0.7-1-0.7-1.6c0-0.1,0-0.3,0-0.4C536.3,535.4,536.5,536.2,537.1,536.7L537.1,536.7z
			 M577.3,502.2c-0.9,0-1.8-0.1-2.6-0.3C575.5,502.1,576.4,502.2,577.3,502.2c3.2,0,7.1-1.2,11.4-3.7c8.2-4.8,15.6-13.4,20.3-23.1
			c-4.7,9.7-12.1,18.3-20.3,23.1C584.3,501,580.5,502.2,577.3,502.2L577.3,502.2z M529.4,487l10.9-7.7c0.1-0.1,0.2-0.1,0.2-0.2
			c-0.1,0.1-0.2,0.1-0.2,0.2L529.4,487L529.4,487z M644,421.8C644,421.8,644,421.8,644,421.8C644,421.8,644,421.8,644,421.8
			L644,421.8L644,421.8z M612.5,401.1l2.8-4.2h0L612.5,401.1z M581.7,398.9l10.6-6.1c0.2-0.1,0.3-0.2,0.5-0.2
			c-0.2,0-0.3,0.1-0.5,0.2L581.7,398.9z M596.7,394.5l-3.2-1.8h0L596.7,394.5L596.7,394.5z"/>
		<path class="st28" d="M587.1,546.6l-11.4-6.5v0c0,0,0,0,0,0l0,0L587.1,546.6C587.1,546.6,587.1,546.6,587.1,546.6L587.1,546.6z"/>
		<path class="st28" d="M575.7,540c-0.2-0.1-0.3-0.3-0.4-0.6C575.3,539.7,575.5,539.9,575.7,540z M575.2,539.3c0-0.1,0-0.2-0.1-0.3
			l-0.9-8.6c0,0,0,0,0,0l0.9,8.6C575.2,539.1,575.2,539.2,575.2,539.3L575.2,539.3z"/>
		<path class="st3" d="M587.1,546.6l-11.4-6.5l0,0l0,0c0,0,0,0,0,0v0c0,0-0.1,0-0.1-0.1c-0.2-0.1-0.3-0.3-0.4-0.6c0,0,0-0.1,0-0.1
			c0-0.1,0-0.2,0-0.3l-0.9-8.6c0,0,0,0,0,0l0,0c0.5-0.2,0.9-0.3,1.4-0.3c0,0,0.1,0,0.1,0c0.2,0,0.4,0,0.7,0c1,0,2.1-0.1,3.2-0.2
			c0.8-0.1,1.7-0.2,2.5-0.4c0.3-0.1,0.7-0.1,1.1-0.2c0.1,0,0.3,0,0.4,0c0.8,0,1.5,0.6,1.6,1.5l1.5,14.9c0,0.1,0,0.2,0.1,0.3
			c0,0.1,0.1,0.2,0.1,0.3C586.9,546.4,587,546.5,587.1,546.6L587.1,546.6z"/>
		<path class="st28" d="M551.2,544.9L551.2,544.9L551.2,544.9z M551.1,544.8l-13.7-7.8c-0.1-0.1-0.2-0.1-0.3-0.2
			c0.1,0.1,0.2,0.1,0.3,0.2L551.1,544.8L551.1,544.8z M536.4,534.7c0-0.2,0.1-0.3,0.2-0.4l2.1-4.1l-2.1,4.1
			C536.5,534.4,536.5,534.5,536.4,534.7L536.4,534.7z"/>
		<path class="st3" d="M551.2,544.9L551.2,544.9l-0.2-0.1l-13.7-7.9c-0.1-0.1-0.2-0.1-0.3-0.2c-0.6-0.5-0.8-1.3-0.7-2
			c0-0.2,0.1-0.3,0.2-0.4l2.1-4.1l7-14.2c0.3-0.5,0.3-1.2,0.3-1.9l5.7-2.6c0,0,0.1,0,0.1-0.1c0.2-0.1,0.4-0.1,0.6-0.1
			c0.5,0,0.9,0.2,1.2,0.5c0.2,0.2,0.3,0.4,0.4,0.7c0.6,2,1.4,3.8,2.3,5.5c0.2,0.4,0.5,0.9,0.7,1.3c0.2,0.4,0.4,0.8,0.4,1.2
			c0,0.2,0.1,0.4,0.1,0.7c0,0.5-0.1,1-0.3,1.4l-6.4,13l-2.6,5.3c-0.3,0.7-0.2,1.6,0.2,2.2c0.1,0.1,0.2,0.2,0.3,0.3
			c0.1,0.1,0.2,0.1,0.3,0.2l1,0.6L551.2,544.9L551.2,544.9z"/>
		<path class="st28" d="M574.7,501.9C574.7,501.9,574.6,501.9,574.7,501.9L574.7,501.9C574.6,501.9,574.7,501.9,574.7,501.9
			L574.7,501.9z"/>
		<path class="st28" d="M609,475.5c3.5-7.1,5.6-14.7,5.6-21.8c0-2.3-0.2-4.4-0.5-6.3c0.3,1.9,0.5,4,0.5,6.3
			C614.5,460.7,612.5,468.4,609,475.5L609,475.5z"/>
		<path class="st3" d="M584.6,506.4c-4.1,0-7.6-1.6-10.1-4.5c0,0,0,0,0,0h0c0,0,0.1,0,0.1,0c0.8,0.2,1.7,0.3,2.6,0.3
			c3.2,0,7.1-1.2,11.4-3.7c8.2-4.8,15.6-13.4,20.3-23.1c3.5-7.1,5.6-14.8,5.6-21.8l0,0c0-2.3-0.2-4.4-0.5-6.3
			c-0.5-3-1.5-5.5-2.8-7.4c6.6,1.6,10.9,8,10.9,18.1c0,8.8-3.3,18.6-8.5,27.1c-4.6,7.4-10.7,13.9-17.4,17.7c-2,1.2-4,2.1-5.9,2.6
			C588.3,506.1,586.4,506.4,584.6,506.4L584.6,506.4z"/>
		<path class="st2" d="M549.9,431c-0.8,0-1.6,0.5-2,1.1l-11.3,19.5c-0.2,0.4-0.3,0.9-0.3,1.4l11.5,6.6c-0.1-0.5,0-1,0.3-1.4
			l11.3-19.5c0.4-0.6,1.1-1.1,1.8-1.1L549.9,431L549.9,431z M541.4,478.1c-0.3,0.4-0.7,0.9-1.1,1.1l-14,9.8
			c-0.4,0.3-0.7,0.6-0.9,1.1l11.5,6.6c0.3-0.4,0.6-0.8,0.9-1.1l14-9.8c0.4-0.3,0.8-0.7,1.1-1.1L541.4,478.1L541.4,478.1z
			 M593.6,392.7c-0.3-0.2-0.8-0.2-1.2,0.1l-15.3,8.8c-0.6,0.4-1.2,1.1-1.5,1.8l11.5,6.6c0.3-0.8,0.9-1.5,1.5-1.8l15.3-8.9
			c0.4-0.2,0.8-0.3,1.2-0.2L593.6,392.7L593.6,392.7z M644,421.8L644,421.8c-0.3-0.2-0.7-0.2-1.2,0l-7.9,3.6c0.1,0.5,0.2,1,0.5,1.4
			c1.2,1.9,2.1,4.1,2.9,6.4l0.1,0.3c0.1,0.3,0.2,0.5,0.4,0.7l0.2,0.2c0.1,0.1,0.3,0.2,0.5,0.2c0.3,0.1,0.5,0.1,0.8,0l0.4-0.1
			l13.6-6.1l0.3-0.1c0.2,0,0.3-0.1,0.5,0c0.1,0,0.3,0.1,0.4,0.1v0L644,421.8z M622.1,390.2c-0.9-0.5-2.1-0.2-2.7,0.6l-11.3,17
			c-0.2,0.3-0.4,0.5-0.8,0.7l11.5,6.6c0.3-0.2,0.6-0.5,0.8-0.8l11.3-17c0.5-0.8,1.6-1.1,2.5-0.8L622.1,390.2L622.1,390.2z"/>
		<path class="st29" d="M536.9,496.8l-11.5-6.6c0.3-0.4,0.6-0.8,0.9-1.1l14-9.8c0.4-0.3,0.8-0.7,1.1-1.1l11.5,6.6
			c-0.2,0.2-0.3,0.4-0.5,0.6c-0.2,0.2-0.4,0.4-0.6,0.5l-14,9.8c0,0,0,0,0,0C537.5,496,537.2,496.4,536.9,496.8L536.9,496.8z"/>
		<path class="st29" d="M547.9,459.7l-11.5-6.6c0-0.1,0-0.2,0-0.3c0-0.4,0.1-0.8,0.3-1.1l11.3-19.5c0.4-0.7,1.2-1.1,2-1.1l11.4,6.6
			c-0.7,0.1-1.3,0.4-1.7,0.9c0,0.1-0.1,0.1-0.1,0.2l-4.8,8.3l-6.5,11.2c-0.2,0.3-0.3,0.7-0.3,1.1
			C547.9,459.5,547.9,459.6,547.9,459.7L547.9,459.7z"/>
		<path class="st29" d="M640,434.8c-0.1,0-0.1,0-0.2,0c0,0-0.1,0-0.1,0c0,0-0.1,0-0.1,0c-0.2-0.1-0.3-0.1-0.5-0.2l-0.2-0.2
			c-0.2-0.2-0.3-0.4-0.4-0.7l0-0.1c-0.1-0.3-0.2-0.5-0.3-0.8c-0.5-1.4-1.1-2.8-1.7-4c-0.3-0.7-0.7-1.3-1-1.9
			c-0.2-0.4-0.4-0.9-0.5-1.4l7.9-3.6c0.2-0.1,0.5-0.1,0.7-0.1c0.2,0,0.4,0,0.5,0.1v0l11.5,6.6l0,0c-0.1-0.1-0.3-0.1-0.5-0.1
			c0,0-0.1,0-0.1,0c-0.1,0-0.2,0-0.3,0h0c-0.1,0-0.2,0.1-0.3,0.1l-13.6,6.1c0,0,0,0,0,0l-0.3,0.1C640.2,434.7,640.1,434.8,640,434.8
			L640,434.8z"/>
		<path class="st29" d="M618.8,415.2l-11.5-6.6c0.3-0.2,0.6-0.5,0.8-0.7l7.2-10.9l3.6,0.8c0.2,0,0.4,0.1,0.5,0.1
			c1,0,2.1-0.6,2.6-1.5l2.5-4.8l8.9,5.1c-0.1,0-0.2-0.1-0.3-0.1c-0.1,0-0.3-0.1-0.5-0.1c-0.6,0-1.1,0.2-1.5,0.6
			c-0.1,0.1-0.1,0.2-0.2,0.3l-6.5,9.7l-4.9,7.3C619.4,414.7,619.1,415,618.8,415.2L618.8,415.2z"/>
		<path class="st29" d="M587,410.1l-11.5-6.6c0.3-0.8,0.9-1.5,1.5-1.8l15.3-8.8c0.3-0.2,0.5-0.2,0.8-0.2c0.2,0,0.3,0,0.5,0.1
			l11.5,6.6c0,0,0,0,0,0c-0.1,0-0.2-0.1-0.4-0.1c-0.2,0-0.5,0.1-0.8,0.2l-13.2,7.7l-2.1,1.2c-0.1,0-0.1,0.1-0.2,0.1
			C587.8,408.7,587.3,409.4,587,410.1C587,410.1,587,410.1,587,410.1L587,410.1z"/>
		<path class="st2" d="M596.2,502.9c-14.3,8.3-25.9,1.6-25.9-14.9c0-16.5,11.6-36.6,25.9-44.8c14.3-8.3,25.9-1.6,25.9,14.9
			C622.1,474.6,610.5,494.6,596.2,502.9L596.2,502.9z M656.1,447.3v-17.7c0-1.1-0.8-1.6-1.7-1.1l-13.6,6.1c-1,0.4-2,0-2.3-1.1
			c-0.8-2.5-1.8-4.8-3-6.8c-0.6-0.9-0.7-2.4-0.2-3.3l9.1-18.3c0.5-0.9,0.1-2.1-0.8-2.7l-9.9-5.7c-0.9-0.5-2.1-0.2-2.7,0.6l-11.3,17
			c-0.6,0.9-1.9,1.5-3,1.5c-2.3-0.1-4.8,0.2-7.4,0.7c-1,0.2-1.9-0.4-2-1.4l-1.5-14.9c-0.1-1-0.9-1.5-1.8-0.9l-15.3,8.8
			c-0.9,0.5-1.7,1.8-1.8,2.9l-1.5,17c-0.1,1.1-0.8,2.5-1.6,3.2c-3,2.7-5.8,5.8-8.5,9c-0.7,0.8-2,1.2-3,0.9l-9.8-3.4
			c-1-0.3-2.2,0.1-2.8,1l-11.3,19.5c-0.5,0.9-0.3,2.2,0.5,2.9l7.9,6.8c0.8,0.7,1.1,2,0.8,3c-1.5,3.9-2.7,7.9-3.5,11.9
			c-0.2,1-1.1,2.4-2,3l-14,9.8c-0.9,0.6-1.6,2-1.6,3v17.7c0,1.1,0.8,1.6,1.7,1.1l13.6-6.1c1-0.4,2,0,2.3,1.1c0.8,2.5,1.8,4.8,3,6.8
			c0.5,0.9,0.7,2.4,0.2,3.3l-9.1,18.3c-0.5,0.9-0.1,2.1,0.8,2.7l9.9,5.7c0.9,0.5,2.1,0.2,2.7-0.6l11.3-17c0.6-0.9,1.9-1.5,3-1.5
			c2.3,0.1,4.8-0.2,7.4-0.7c1-0.2,1.9,0.4,2,1.4l1.5,14.9c0.1,1.1,0.9,1.5,1.8,0.9l15.3-8.8c0.9-0.5,1.7-1.8,1.8-2.9l1.5-17
			c0.1-1.1,0.8-2.5,1.6-3.2c3-2.7,5.8-5.8,8.5-9c0.7-0.8,2-1.2,3-0.9l9.8,3.4c1,0.3,2.2-0.1,2.8-1l11.3-19.5
			c0.5-0.9,0.3-2.2-0.5-2.9l-7.9-6.8c-0.8-0.7-1.1-2-0.8-3c1.5-3.9,2.7-7.9,3.5-11.9c0.2-1,1.1-2.4,2-3l14-9.9
			C655.4,449.7,656.1,448.3,656.1,447.3L656.1,447.3z"/>
		<path class="st30" d="M559.8,549.5c-0.2,0-0.5,0-0.7-0.1C559.3,549.4,559.5,549.5,559.8,549.5c0.3,0,0.7-0.1,1-0.3
			C560.5,549.4,560.1,549.5,559.8,549.5z"/>
		<path class="st30" d="M561.3,548.8C561.3,548.8,561.3,548.8,561.3,548.8C561.3,548.8,561.3,548.8,561.3,548.8z"/>
		<path class="st7" d="M561.3,548.8c0-0.1,0.1-0.1,0.1-0.2l11.3-17l-11.3,17C561.4,548.6,561.4,548.7,561.3,548.8z M559.8,548.2
			l-0.4-0.1l-9.9-5.7c-0.3-0.2-0.5-0.6-0.3-1l9.1-18.3c0.7-1.3,0.5-3.2-0.3-4.6c-1.2-1.9-2.2-4.1-2.9-6.5c-0.4-1.3-1.5-2.1-2.8-2.1
			c-0.4,0-0.8,0.1-1.3,0.3l-13.5,6.1v-17.6c0-0.6,0.5-1.6,1-1.9l14-9.9c1.1-0.8,2.2-2.4,2.5-3.7c0.9-3.8,2-7.8,3.5-11.7
			c0.6-1.5,0.1-3.4-1.1-4.5l-7.9-6.8c-0.3-0.3-0.4-0.9-0.2-1.3l11.3-19.5c0.2-0.3,0.6-0.5,0.9-0.5l0.3,0l9.8,3.4
			c0.4,0.1,0.8,0.2,1.2,0.2c1.2,0,2.5-0.6,3.2-1.5c2.7-3.2,5.5-6.2,8.4-8.9c1-0.9,1.9-2.7,2-4l1.5-17c0.1-0.6,0.6-1.5,1.2-1.8
			l15.2-8.8l1.5,14.8c0.2,1.5,1.4,2.7,2.9,2.7c0.2,0,0.5,0,0.7-0.1c2.2-0.5,4.3-0.7,6.4-0.7c0.2,0,0.5,0,0.7,0h0.1
			c1.5,0,3.2-0.9,4-2.1l11.3-17c0.1-0.2,0.4-0.3,0.6-0.3l0.4,0.1l9.9,5.7c0.3,0.2,0.5,0.6,0.3,1l-9.1,18.3c-0.7,1.3-0.5,3.2,0.3,4.6
			c1.2,1.9,2.2,4.1,2.9,6.5c0.4,1.3,1.5,2.1,2.8,2.1c0.4,0,0.8-0.1,1.3-0.3l13.5-6.1v17.6c0,0.6-0.5,1.6-1,1.9l-14,9.9
			c-1.1,0.8-2.2,2.4-2.5,3.7c-0.9,3.8-2,7.8-3.5,11.7c-0.6,1.5-0.1,3.4,1.1,4.5l7.9,6.8c0.3,0.3,0.4,0.9,0.2,1.3l-11.3,19.5
			c-0.2,0.3-0.6,0.5-0.9,0.5l-0.3,0l-9.8-3.4c-0.4-0.1-0.8-0.2-1.2-0.2c-1.2,0-2.5,0.6-3.2,1.5c-2.7,3.2-5.5,6.2-8.4,8.9
			c-1,0.9-1.9,2.7-2,4l-1.5,17c-0.1,0.6-0.6,1.5-1.2,1.9l-15.2,8.8l-1.5-14.8c-0.2-1.5-1.4-2.7-2.9-2.7c-0.2,0-0.5,0-0.7,0.1
			c-2.2,0.5-4.3,0.7-6.4,0.7c-0.2,0-0.4,0-0.7,0l-0.1,0c-1.5,0-3.2,0.9-4,2.1l-11.3,17C560.3,548.1,560,548.2,559.8,548.2
			L559.8,548.2z M607.7,438.3c-3.8,0-7.9,1.2-12.2,3.7c-14.6,8.4-26.5,29.1-26.5,45.9c0,12,6.1,19.8,15.6,19.8
			c3.8,0,7.9-1.2,12.2-3.7c14.6-8.4,26.5-29.1,26.5-45.9c0-6-1.5-10.9-4.3-14.4C616.3,440.1,612.4,438.3,607.7,438.3z"/>
		<path class="st30" d="M587.8,546.8c-0.4,0-0.7-0.2-0.9-0.5c-0.1-0.1-0.1-0.2-0.1-0.3c0-0.1,0-0.2-0.1-0.3
			C586.8,546.4,587.2,546.8,587.8,546.8c0.2,0,0.5-0.1,0.8-0.2l7.7-4.4l-7.7,4.4C588.3,546.7,588,546.8,587.8,546.8L587.8,546.8z"/>
		<path class="st30" d="M548.7,543.3c-0.5-0.4-0.8-1-0.8-1.6c0-0.3,0.1-0.6,0.2-0.9l9.1-18.3c0.2-0.4,0.3-0.9,0.3-1.4
			c0,0.5-0.1,1-0.3,1.4l-9.1,18.3C547.7,541.7,547.9,542.8,548.7,543.3L548.7,543.3z"/>
		<path class="st30" d="M605,536.7C605,536.7,605,536.7,605,536.7L605,536.7z"/>
		<path class="st30" d="M605,536.7c0.4-0.6,0.6-1.2,0.7-1.8C605.6,535.5,605.4,536.1,605,536.7z"/>
		<path class="st30" d="M572.8,531.5c0.3-0.5,0.9-0.9,1.5-1.2C573.7,530.6,573.1,531,572.8,531.5z"/>
		<path class="st30" d="M575.8,530.1C575.8,530.1,575.8,530.1,575.8,530.1L575.8,530.1L575.8,530.1
			C575.8,530.1,575.8,530.1,575.8,530.1z"/>
		<path class="st30" d="M584.2,529.4c-0.2-0.1-0.4-0.1-0.6-0.1c-0.1,0-0.2,0-0.2,0c0.1,0,0.2,0,0.2,0
			C583.8,529.3,584,529.3,584.2,529.4z"/>
		<path class="st30" d="M582.9,529.4C582.9,529.4,582.9,529.4,582.9,529.4C582.9,529.4,582.9,529.4,582.9,529.4z"/>
		<path class="st30" d="M537.4,517.7L537.4,517.7C537.4,517.7,537.4,517.7,537.4,517.7C537.4,517.7,537.4,517.7,537.4,517.7z"/>
		<path class="st30" d="M608.1,515.6c0.2-0.4,0.5-0.7,0.7-0.9C608.5,514.9,608.3,515.2,608.1,515.6z"/>
		<path class="st30" d="M553.6,511.8c-0.3-0.3-0.7-0.5-1.2-0.5c-0.2,0-0.4,0-0.6,0.1c0.2-0.1,0.4-0.1,0.6-0.1
			C552.8,511.2,553.3,511.4,553.6,511.8z"/>
		<path class="st30" d="M630.9,508.3c-0.2,0-0.5,0-0.7-0.1C630.4,508.3,630.6,508.3,630.9,508.3c0.8,0,1.5-0.4,2-1
			C632.4,508,631.6,508.3,630.9,508.3z M590.2,505.5c1.9-0.6,3.9-1.5,5.9-2.6c14.3-8.3,25.9-28.3,25.9-44.8l0,0
			c0,16.5-11.6,36.6-25.9,44.8C594.1,504.1,592.2,504.9,590.2,505.5z"/>
		<path class="st30" d="M620.3,504.8c-0.2-0.1-0.5-0.1-0.8-0.1c-0.3,0-0.5,0-0.8,0.1c0.3-0.1,0.5-0.1,0.8-0.1
			C619.8,504.7,620.1,504.7,620.3,504.8z"/>
		<path class="st30" d="M552.6,485.2c0.6-0.7,1.1-1.6,1.2-2.3c0.9-4,2.1-7.9,3.5-11.9c0.1-0.3,0.1-0.6,0.1-0.9c0,0.3,0,0.6-0.1,0.9
			c-1.5,3.9-2.7,7.9-3.5,11.9C553.6,483.6,553.2,484.5,552.6,485.2z"/>
		<path class="st30" d="M634.9,476.1c0-0.4,0-0.8,0.1-1.2c1.5-3.9,2.6-7.9,3.5-11.8c-0.9,3.9-2.1,7.9-3.5,11.8
			c-0.1,0.3-0.1,0.6-0.1,0.9C634.9,475.9,634.9,476,634.9,476.1L634.9,476.1z M548.2,458.4C548.2,458.3,548.2,458.3,548.2,458.4
			l11.3-19.6c0.4-0.7,1.2-1.1,2.1-1.1c0.2,0,0.5,0,0.7,0.1l9.8,3.4c0.2,0.1,0.5,0.1,0.8,0.1c0.2,0,0.4,0,0.6-0.1
			c-0.2,0-0.4,0.1-0.6,0.1c-0.3,0-0.5,0-0.8-0.1l-9.8-3.4c-0.2-0.1-0.5-0.1-0.7-0.1c-0.8,0-1.6,0.4-2.1,1.1L548.2,458.4
			C548.2,458.3,548.2,458.3,548.2,458.4z"/>
		<path class="st30" d="M620.9,449.8c-1.9-5.8-5.8-9.3-11-10C615.1,440.5,619,444,620.9,449.8z"/>
		<path class="st30" d="M655.7,448.8c0.2-0.5,0.4-1,0.4-1.5v-17.7c0-0.8-0.4-1.3-1.1-1.3c-0.2,0-0.4,0-0.7,0.2l-13.6,6.1
			c-0.2,0.1-0.5,0.2-0.7,0.2c-0.2,0-0.5-0.1-0.7-0.2c0.2,0.1,0.4,0.2,0.7,0.2c0.2,0,0.5-0.1,0.7-0.2l13.6-6.1
			c0.2-0.1,0.5-0.2,0.7-0.2c0.6,0,1.1,0.5,1.1,1.3v17.7C656.1,447.7,656,448.3,655.7,448.8z"/>
		<path class="st30" d="M596.2,443.1c1.5-0.9,2.9-1.5,4.3-2.1C599.1,441.6,597.7,442.3,596.2,443.1z M609.2,416.7L609.2,416.7
			c2.3-0.5,4.5-0.8,6.7-0.8c0.1,0,0.1,0,0.2,0c-0.1,0-0.1,0-0.2,0C613.8,415.9,611.5,416.2,609.2,416.7L609.2,416.7z M607.5,416.1
			c-0.2-0.2-0.3-0.5-0.3-0.9l-1.5-14.9c-0.1-0.6-0.4-1-0.8-1.1c0.4,0.1,0.8,0.5,0.8,1.1l1.5,14.9
			C607.2,415.6,607.4,415.9,607.5,416.1z M616.7,415.9L616.7,415.9C616.7,415.9,616.7,415.9,616.7,415.9c1,0,2.3-0.6,2.9-1.5
			l11.3-17l0,0l-11.3,17C619,415.3,617.7,415.9,616.7,415.9z"/>
		<path class="st26" d="M559.1,549.3c-0.1,0-0.2-0.1-0.3-0.1l-7.5-4.3l7.5,4.3C558.9,549.3,559,549.3,559.1,549.3z"/>
		<path class="st31" d="M560.8,549.2c0.2-0.1,0.4-0.3,0.6-0.5C561.2,548.9,561,549.1,560.8,549.2z M561.3,548.8
			C561.3,548.8,561.3,548.8,561.3,548.8L561.3,548.8z M586.7,545.6L586.7,545.6l-1.5-14.9c-0.1-0.7-0.5-1.2-1-1.4
			c0.6,0.2,1,0.7,1,1.4L586.7,545.6L586.7,545.6z"/>
		<path class="st26" d="M596.2,542.2l7.7-4.4c0.4-0.2,0.8-0.6,1.1-1.1c-0.3,0.5-0.7,0.8-1.1,1.1L596.2,542.2z M605,536.7L605,536.7
			L605,536.7z M605.7,534.9L605.7,534.9l1.5-17c0.1-0.7,0.4-1.6,0.9-2.3c-0.5,0.7-0.8,1.6-0.9,2.3L605.7,534.9L605.7,534.9z"/>
		<path class="st31" d="M574.3,530.4c0.5-0.2,1-0.3,1.4-0.3c0,0,0,0,0.1,0l-0.1,0C575.3,530.1,574.8,530.2,574.3,530.4z
			 M576.5,530.1c-0.2,0-0.5,0-0.7,0C576,530.1,576.2,530.1,576.5,530.1c1,0,2.1-0.1,3.2-0.2c0,0,0,0,0,0
			C578.5,530,577.5,530.1,576.5,530.1L576.5,530.1z M582.1,529.5c0.2,0,0.3-0.1,0.5-0.1C582.4,529.5,582.3,529.5,582.1,529.5
			C582.1,529.5,582.1,529.5,582.1,529.5z"/>
		<path class="st32" d="M579.6,529.9C579.6,529.9,579.6,529.9,579.6,529.9c0.8-0.1,1.7-0.2,2.5-0.4c0,0,0,0,0,0
			C581.2,529.7,580.4,529.8,579.6,529.9L579.6,529.9z"/>
		<path class="st31" d="M582.7,529.4c0.1,0,0.2,0,0.2-0.1C582.8,529.4,582.8,529.4,582.7,529.4z M582.9,529.4c0.1,0,0.1,0,0.2,0
			c0.1,0,0.1,0,0.2,0c-0.1,0-0.1,0-0.2,0C583.1,529.3,583,529.3,582.9,529.4z M557.4,520.5L557.4,520.5c-0.1-0.5-0.2-0.9-0.4-1.2
			c-0.3-0.4-0.5-0.9-0.7-1.3c0,0,0,0,0,0c0.2,0.4,0.5,0.9,0.7,1.3C557.2,519.6,557.3,520,557.4,520.5L557.4,520.5z"/>
		<path class="st32" d="M556.2,517.9c-0.9-1.7-1.7-3.5-2.3-5.5c-0.1-0.3-0.2-0.5-0.4-0.7c0.2,0.2,0.3,0.4,0.4,0.7
			C554.6,514.4,555.3,516.3,556.2,517.9C556.2,517.9,556.2,517.9,556.2,517.9z"/>
		<path class="st26" d="M537.4,517.7c-0.2,0-0.4,0-0.5-0.1l0,0C537,517.7,537.2,517.7,537.4,517.7L537.4,517.7z"/>
		<path class="st31" d="M536.8,517.6L536.8,517.6c-0.3-0.2-0.5-0.6-0.5-1.1l0-17.7v17.7C536.3,517,536.5,517.4,536.8,517.6z"/>
		<path class="st26" d="M537.5,517.7c0.2,0,0.4-0.1,0.6-0.2l0,0C537.8,517.6,537.6,517.7,537.5,517.7z"/>
		<path class="st26" d="M608.8,514.7L608.8,514.7c3-2.7,5.8-5.8,8.5-9l0,0c0,0,0,0,0,0c0,0,0,0,0,0c0,0,0,0,0,0c0,0,0,0,0,0
			c0,0,0,0,0,0c0.3-0.3,0.7-0.6,1.2-0.8c0,0,0,0,0,0c0,0,0,0,0,0c0,0,0.1,0,0.1,0c-0.5,0.2-1,0.5-1.4,0.9
			C614.6,508.9,611.8,511.9,608.8,514.7L608.8,514.7L608.8,514.7z"/>
		<path class="st31" d="M617.3,505.7C617.3,505.6,617.3,505.6,617.3,505.7C617.3,505.6,617.3,505.6,617.3,505.7z M617.3,505.6
			C617.3,505.6,617.4,505.6,617.3,505.6C617.4,505.6,617.3,505.6,617.3,505.6z M617.4,505.6C617.4,505.6,617.4,505.6,617.4,505.6
			C617.4,505.6,617.4,505.6,617.4,505.6z M618.5,504.8C618.5,504.8,618.5,504.8,618.5,504.8C618.5,504.8,618.5,504.8,618.5,504.8z
			 M618.6,504.8c0.1,0,0.1,0,0.2-0.1c0,0,0,0-0.1,0C618.6,504.8,618.6,504.8,618.6,504.8L618.6,504.8z"/>
		<path class="st26" d="M570.3,489.3C570.3,489.3,570.3,489.3,570.3,489.3C570.3,489.3,570.3,489.3,570.3,489.3z M570.3,489.3
			C570.3,489.3,570.3,489.3,570.3,489.3C570.3,489.3,570.3,489.3,570.3,489.3z M570.3,489.2C570.3,489.2,570.3,489.2,570.3,489.2
			C570.3,489.2,570.3,489.2,570.3,489.2z M570.3,489.1C570.3,489.1,570.3,489.1,570.3,489.1C570.3,489.1,570.3,489.1,570.3,489.1z
			 M570.3,489.1C570.3,489.1,570.3,489.1,570.3,489.1L570.3,489.1C570.3,489.1,570.3,489,570.3,489.1
			C570.3,489,570.3,489.1,570.3,489.1z M570.3,489C570.3,489,570.3,489,570.3,489C570.3,489,570.3,489,570.3,489
			C570.3,489,570.3,489,570.3,489C570.3,489,570.3,489,570.3,489L570.3,489z M570.3,489C570.3,488.9,570.3,488.9,570.3,489
			C570.3,488.9,570.3,488.9,570.3,489C570.3,488.9,570.3,488.9,570.3,489C570.3,488.9,570.3,488.9,570.3,489z M570.3,488.9
			C570.3,488.9,570.3,488.9,570.3,488.9C570.3,488.9,570.3,488.9,570.3,488.9C570.3,488.8,570.3,488.8,570.3,488.9
			C570.3,488.8,570.3,488.9,570.3,488.9L570.3,488.9z M570.3,488.8C570.3,488.8,570.3,488.8,570.3,488.8
			C570.3,488.8,570.3,488.8,570.3,488.8C570.3,488.8,570.3,488.7,570.3,488.8c0-0.1,0-0.1,0-0.1c0,0,0,0,0,0c0,0,0,0,0,0
			c0,0,0,0,0,0c0,0,0,0,0,0c0,0,0,0,0,0c0,0,0,0,0,0c0,0,0,0,0,0c0,0,0,0,0,0c0,0,0,0,0,0c0,0,0,0,0-0.1c0,0,0,0,0,0c0,0,0,0,0-0.1
			c0,0,0,0,0,0c0,0,0,0,0-0.1c0,0,0,0,0,0c0,0,0,0,0-0.1c0,0,0,0,0,0c0,0,0,0,0-0.1c0,0,0,0,0,0c0,0,0,0,0-0.1c0,0,0,0,0-0.1
			C570.3,488.2,570.3,488.5,570.3,488.8L570.3,488.8z"/>
		<path class="st31" d="M574.6,501.9L574.6,501.9c-2.5-3-4.1-7.3-4.2-12.9c0,0,0,0,0,0c0,0,0,0,0,0c0,0,0,0,0,0c0,0,0,0,0,0
			c0,0,0,0,0,0c0,0,0,0,0,0c0,0,0,0,0,0c0,0,0,0,0,0.1c0,0,0,0,0,0C570.6,494.7,572.1,499,574.6,501.9L574.6,501.9z M570.3,489.1
			C570.3,489,570.3,489,570.3,489.1C570.3,489,570.3,489,570.3,489.1C570.3,489,570.3,489,570.3,489.1
			C570.3,489,570.3,489.1,570.3,489.1z M570.3,489C570.3,489,570.3,489,570.3,489C570.3,488.9,570.3,488.9,570.3,489
			C570.3,489,570.3,489,570.3,489C570.3,489,570.3,489,570.3,489z M570.3,488.9C570.3,488.9,570.3,488.9,570.3,488.9
			C570.3,488.9,570.3,488.9,570.3,488.9C570.3,488.9,570.3,488.9,570.3,488.9C570.3,488.9,570.3,488.9,570.3,488.9z M570.3,488.8
			C570.3,488.8,570.3,488.8,570.3,488.8C570.3,488.8,570.3,488.8,570.3,488.8C570.3,488.8,570.3,488.8,570.3,488.8
			C570.3,488.8,570.3,488.8,570.3,488.8z M570.3,488.8C570.3,488.8,570.3,488.7,570.3,488.8C570.3,488.7,570.3,488.8,570.3,488.8z
			 M570.3,488.7C570.3,488.7,570.3,488.7,570.3,488.7C570.3,488.7,570.3,488.7,570.3,488.7z M570.3,488.6
			C570.3,488.6,570.3,488.6,570.3,488.6C570.3,488.6,570.3,488.6,570.3,488.6z M570.3,488.6C570.3,488.6,570.3,488.5,570.3,488.6
			C570.3,488.5,570.3,488.6,570.3,488.6z M570.3,488.5C570.3,488.5,570.3,488.5,570.3,488.5C570.3,488.5,570.3,488.5,570.3,488.5z
			 M570.3,488.4C570.3,488.4,570.3,488.4,570.3,488.4C570.3,488.4,570.3,488.4,570.3,488.4z M570.3,488.4
			C570.3,488.3,570.3,488.3,570.3,488.4C570.3,488.3,570.3,488.3,570.3,488.4z M570.3,488.3C570.3,488.3,570.3,488.3,570.3,488.3
			C570.3,488.3,570.3,488.3,570.3,488.3z M570.3,488.2C570.3,488.2,570.3,488.2,570.3,488.2C570.3,488.2,570.3,488.2,570.3,488.2z
			 M570.3,488.1C570.3,488.1,570.3,488.1,570.3,488.1C570.3,488.1,570.3,488.1,570.3,488.1z M570.3,488.1
			C570.3,488.1,570.3,488.1,570.3,488.1C570.3,488.1,570.3,488.1,570.3,488.1z M570.3,488C570.3,488,570.3,488,570.3,488L570.3,488
			C570.3,488,570.3,488,570.3,488z"/>
		<path class="st32" d="M584.6,506.4c-4.1,0-7.6-1.6-10.1-4.5l0,0C577.1,504.8,580.5,506.4,584.6,506.4c1.8,0,3.6-0.3,5.6-0.9
			C588.3,506.1,586.4,506.4,584.6,506.4z"/>
		<path class="st31" d="M552.4,485.4C552.4,485.4,552.4,485.4,552.4,485.4c0.1-0.1,0.1-0.1,0.2-0.2
			C552.5,485.3,552.5,485.3,552.4,485.4z"/>
		<path class="st33" d="M537.9,495.7l14-9.8c0.2-0.1,0.4-0.3,0.6-0.5c0,0,0,0,0,0c-0.2,0.2-0.4,0.4-0.6,0.5L537.9,495.7L537.9,495.7
			z"/>
		<path class="st26" d="M570.3,487.9L570.3,487.9c0-16.5,11.6-36.6,25.9-44.8l0,0C581.9,451.4,570.3,471.4,570.3,487.9z"/>
		<path class="st26" d="M635.8,478c-0.5-0.4-0.8-1.1-0.9-1.9C635,476.9,635.3,477.6,635.8,478z"/>
		<path class="st31" d="M557.5,470.2c0-0.8-0.3-1.7-0.9-2.2l-7.9-6.8c-0.4-0.4-0.7-0.9-0.8-1.5l0,0c0.1,0.6,0.3,1.1,0.8,1.5l7.9,6.8
			C557.2,468.5,557.5,469.4,557.5,470.2L557.5,470.2z M547.9,459.4C547.9,459.4,547.9,459.4,547.9,459.4c0-0.4,0.1-0.7,0.3-1
			C548,458.7,547.9,459,547.9,459.4L547.9,459.4z"/>
		<path class="st33" d="M547.9,459.7L547.9,459.7c0-0.1,0-0.2,0-0.3c0,0,0,0,0,0c0,0,0,0,0,0C547.9,459.5,547.9,459.6,547.9,459.7z"
			/>
		<path class="st26" d="M638.6,463.2C638.6,463.2,638.6,463.1,638.6,463.2c0.3-1.1,1.1-2.5,2-3.1l14-9.9c0.5-0.3,0.9-0.9,1.2-1.5
			c-0.3,0.6-0.7,1.2-1.2,1.5l-14,9.9C639.7,460.7,638.8,462.1,638.6,463.2C638.6,463.1,638.6,463.2,638.6,463.2z"/>
		<path class="st31" d="M622.1,458.1c0-3.1-0.4-5.9-1.2-8.3C621.7,452.2,622.1,454.9,622.1,458.1L622.1,458.1z"/>
		<path class="st31" d="M573.4,441.3c0.6-0.1,1.2-0.5,1.6-0.9c2.5-3,5.1-5.8,7.8-8.4c-2.7,2.6-5.3,5.4-7.8,8.4
			C574.7,440.8,574.1,441.1,573.4,441.3L573.4,441.3z"/>
		<path class="st31" d="M600.5,441c2.6-1,5-1.4,7.2-1.4c0.7,0,1.4,0,2.1,0.1c-0.7-0.1-1.4-0.1-2.1-0.1
			C605.5,439.6,603.1,440.1,600.5,441z M639.3,434.6c-0.4-0.2-0.7-0.6-0.9-1.1C638.6,434,638.9,434.4,639.3,434.6z"/>
		<path class="st31" d="M636.5,428.7c-0.3-0.7-0.7-1.3-1.1-1.9c-0.3-0.5-0.5-1.2-0.5-1.9c0-0.5,0.1-1,0.3-1.4l0,0
			c-0.5,0.9-0.3,2.4,0.2,3.3C635.8,427.4,636.1,428,636.5,428.7C636.5,428.7,636.5,428.7,636.5,428.7z"/>
		<path class="st33" d="M638.2,432.7c-0.5-1.4-1-2.7-1.7-4c0,0,0,0,0-0.1C637.1,429.9,637.7,431.3,638.2,432.7z"/>
		<path class="st31" d="M583.6,431.3c0.8-0.7,1.5-2.1,1.6-3.2C585.1,429.2,584.4,430.6,583.6,431.3z"/>
		<path class="st31" d="M608.8,416.7c-0.5,0-1-0.2-1.3-0.6C607.8,416.5,608.3,416.7,608.8,416.7c0.1,0,0.3,0,0.4,0
			C609.1,416.7,609,416.7,608.8,416.7z"/>
		<path class="st31" d="M616.7,415.9C616.7,415.9,616.6,415.9,616.7,415.9c-0.2,0-0.4,0-0.6,0C616.3,415.9,616.4,415.9,616.7,415.9
			L616.7,415.9z"/>
		<path class="st31" d="M590.6,407.1L590.6,407.1l13.3-7.7c0.3-0.2,0.5-0.2,0.8-0.2c0.1,0,0.2,0,0.3,0c-0.1,0-0.2,0-0.3,0
			c-0.2,0-0.5,0.1-0.8,0.2L590.6,407.1L590.6,407.1z"/>
		<polygon class="st33" points="588.5,408.3 590.6,407.1 590.6,407.1 		"/>
		<path class="st31" d="M630.9,397.4c0.1-0.1,0.1-0.2,0.2-0.3c0,0,0,0,0,0C631,397.2,631,397.3,630.9,397.4z"/>
		<path class="st26" d="M633.6,396.8c-0.1,0-0.1-0.1-0.2-0.1l0,0C633.5,396.7,633.6,396.8,633.6,396.8L633.6,396.8z"/>
		<path class="st31" d="M633.4,396.7c-0.1-0.1-0.2-0.1-0.4-0.1c0,0,0,0,0,0C633.2,396.6,633.3,396.6,633.4,396.7L633.4,396.7z"/>
		<path class="st33" d="M631.1,397.2c0.4-0.4,0.9-0.6,1.5-0.6c0.2,0,0.3,0,0.5,0.1c0,0,0,0,0,0c-0.1,0-0.3,0-0.4,0
			C632.1,396.5,631.5,396.8,631.1,397.2C631.1,397.2,631.1,397.2,631.1,397.2L631.1,397.2z"/>
		<path class="st34" d="M559.8,549.5c-0.2,0-0.5,0-0.7-0.1c-0.1,0-0.2-0.1-0.3-0.1l-8.8-5.1l-1-0.6c-0.1-0.1-0.2-0.1-0.3-0.2
			c-0.7-0.6-1-1.6-0.6-2.5l9.1-18.3c0.2-0.4,0.3-0.9,0.3-1.4l0,0c0-0.7-0.2-1.4-0.5-1.9c-0.3-0.4-0.5-0.9-0.7-1.3
			c-0.9-1.7-1.7-3.5-2.3-5.5c-0.1-0.3-0.2-0.5-0.4-0.7c-0.3-0.3-0.7-0.5-1.2-0.5c-0.2,0-0.4,0-0.6,0.1c0,0-0.1,0-0.1,0.1l-5.7,2.6
			l-7.9,3.6c-0.2,0.1-0.4,0.1-0.6,0.2c0,0-0.1,0-0.1,0c-0.6,0-1.1-0.5-1.1-1.3v-17.7c0-1.1,0.7-2.4,1.6-3l0,0l14-9.8
			c0.2-0.2,0.5-0.4,0.7-0.7c0.6-0.7,1.1-1.6,1.2-2.3c0.9-4,2.1-7.9,3.5-11.9c0.1-0.3,0.1-0.6,0.1-0.9l0,0c0-0.8-0.3-1.7-0.9-2.2
			l-7.9-6.8c-0.5-0.4-0.8-1.1-0.8-1.8c0-0.4,0.1-0.7,0.3-1c0,0,0,0,0-0.1l11.3-19.5c0.4-0.7,1.2-1.1,2.1-1.1c0.2,0,0.5,0,0.7,0.1
			l9.8,3.4c0.2,0.1,0.5,0.1,0.8,0.1c0.2,0,0.4,0,0.6-0.1c0.6-0.1,1.2-0.5,1.6-0.9c2.5-3,5.1-5.8,7.8-8.4c0.2-0.2,0.5-0.4,0.7-0.6
			l0,0c0.8-0.7,1.5-2.1,1.6-3.2c0,0,0,0,0,0l1.5-17c0.1-1.1,0.9-2.3,1.8-2.9l0,0l15.3-8.8c0.3-0.2,0.5-0.2,0.8-0.2
			c0.1,0,0.2,0,0.3,0c0.4,0.1,0.7,0.5,0.8,1.1l1.5,14.9c0,0.3,0.2,0.7,0.3,0.9c0.3,0.4,0.8,0.6,1.3,0.6c0.1,0,0.3,0,0.4,0l0,0
			c2.3-0.5,4.5-0.8,6.7-0.8c0.1,0,0.1,0,0.2,0c0.2,0,0.3,0,0.5,0c0,0,0,0,0.1,0h0c1,0,2.3-0.6,2.9-1.5l11.3-17l0,0
			c0.4-0.6,1-0.9,1.7-0.9c0.3,0,0.7,0.1,1,0.3l0,0l9.9,5.7c0.6,0.4,1,1.1,1,1.8c0,0.3-0.1,0.6-0.2,0.9l-9.1,18.3
			c-0.2,0.4-0.3,0.9-0.3,1.4c0,0.7,0.2,1.4,0.5,1.9c1.1,1.8,2,3.7,2.8,5.9c0.1,0.3,0.2,0.6,0.3,0.9l0,0c0.2,0.5,0.5,0.9,0.9,1.1
			c0.2,0.1,0.4,0.2,0.7,0.2c0.2,0,0.5-0.1,0.7-0.2l13.6-6.1c0.2-0.1,0.5-0.2,0.7-0.2c0.6,0,1.1,0.5,1.1,1.3v17.7
			c0,0.5-0.1,1-0.4,1.5c-0.3,0.6-0.7,1.2-1.2,1.5l-14,9.9c-0.9,0.6-1.7,1.9-2,3c0,0,0,0.1,0,0.1c-0.9,3.9-2.1,7.9-3.5,11.8
			c-0.1,0.4-0.2,0.8-0.1,1.2c0.1,0.7,0.4,1.4,0.9,1.9l0,0l7.9,6.8c0.5,0.4,0.8,1.1,0.8,1.8c0,0.4-0.1,0.8-0.3,1.1l-11.3,19.5
			c0,0-0.1,0.1-0.1,0.1c-0.4,0.6-1.2,1-2,1c-0.2,0-0.5,0-0.7-0.1l0,0l-9.8-3.4c0,0,0,0,0,0c-0.2-0.1-0.5-0.1-0.8-0.1
			c-0.3,0-0.5,0-0.8,0.1c-0.6,0.2-1.1,0.5-1.4,0.9c-2.7,3.2-5.5,6.3-8.5,9l0,0c-0.3,0.2-0.5,0.6-0.7,0.9c-0.5,0.7-0.8,1.6-0.9,2.3
			l-1.5,17l0,0c-0.1,0.6-0.3,1.2-0.7,1.8h0c0,0,0,0,0,0c-0.3,0.5-0.7,0.8-1.1,1.1l-7.7,4.4l-7.7,4.4c-0.3,0.2-0.5,0.2-0.8,0.2
			c-0.6,0-1-0.4-1.1-1.2l0,0l-1.5-14.9c-0.1-0.7-0.5-1.2-1-1.4c-0.2-0.1-0.4-0.1-0.6-0.1c-0.1,0-0.2,0-0.2,0c-0.1,0-0.1,0-0.2,0
			c-0.1,0-0.1,0-0.2,0c0,0,0,0,0,0c-0.1,0-0.2,0-0.2,0.1c0,0-0.1,0-0.1,0c-0.2,0-0.3,0.1-0.5,0.1c-0.8,0.2-1.7,0.3-2.5,0.4
			c-1.1,0.1-2.1,0.2-3.1,0.2c-0.2,0-0.5,0-0.7,0c0,0,0,0,0,0l0,0c0,0,0,0-0.1,0c-0.4,0-0.9,0.1-1.4,0.3c-0.6,0.3-1.2,0.7-1.5,1.2
			l0,0l-11.3,17c0,0.1-0.1,0.1-0.1,0.2c0,0,0,0,0,0c0,0,0,0,0,0c-0.2,0.2-0.4,0.3-0.6,0.5C560.5,549.4,560.1,549.5,559.8,549.5
			L559.8,549.5z M552.4,509.9c1.3,0,2.4,0.8,2.8,2.1c0.8,2.4,1.7,4.5,2.9,6.5c0.8,1.3,0.9,3.2,0.3,4.6l-9.1,18.3
			c-0.2,0.3,0,0.8,0.3,1l9.9,5.7l0.4,0.1c0.3,0,0.5-0.1,0.6-0.3l11.3-17c0.8-1.2,2.5-2.1,4-2.1l0.1,0c0.2,0,0.4,0,0.7,0
			c2.1,0,4.2-0.2,6.4-0.7c0.2-0.1,0.5-0.1,0.7-0.1c1.5,0,2.8,1.1,2.9,2.7l1.5,14.8l15.2-8.8c0.5-0.3,1.1-1.2,1.2-1.9l1.5-17
			c0.1-1.4,1-3.1,2-4c2.9-2.7,5.7-5.6,8.4-8.9c0.7-0.9,2-1.5,3.2-1.5c0.4,0,0.8,0.1,1.2,0.2l9.8,3.4l0.3,0c0.4,0,0.8-0.2,0.9-0.5
			l11.3-19.5c0.2-0.4,0.1-1-0.2-1.3l-7.9-6.8c-1.2-1-1.7-3-1.1-4.5c1.5-3.9,2.6-7.9,3.5-11.7c0.3-1.4,1.4-3,2.5-3.7l14-9.9
			c0.5-0.4,1-1.3,1-1.9v-17.6l-13.5,6.1c-0.4,0.2-0.8,0.3-1.3,0.3c-1.3,0-2.4-0.8-2.8-2.1c-0.7-2.4-1.7-4.5-2.9-6.5
			c-0.8-1.3-0.9-3.2-0.3-4.6l9.1-18.3c0.2-0.3,0-0.8-0.3-1l-9.9-5.7l-0.4-0.1c-0.3,0-0.5,0.1-0.6,0.3l-11.3,17
			c-0.8,1.2-2.5,2.1-4,2.1h-0.1c-0.2,0-0.5,0-0.7,0c-2.1,0-4.2,0.2-6.4,0.7c-0.2,0.1-0.5,0.1-0.7,0.1c-1.5,0-2.8-1.1-2.9-2.7
			l-1.5-14.8l-15.2,8.8c-0.5,0.3-1.1,1.2-1.2,1.8l-1.5,17c-0.1,1.4-1,3.1-2,4c-2.9,2.7-5.7,5.6-8.4,8.9c-0.7,0.9-2,1.5-3.2,1.5
			c-0.4,0-0.8-0.1-1.2-0.2l-9.8-3.4l-0.3,0c-0.4,0-0.8,0.2-0.9,0.5l-11.3,19.5c-0.2,0.4-0.1,1,0.2,1.3l7.9,6.8c1.2,1,1.7,3,1.1,4.5
			c-1.5,3.9-2.6,7.9-3.5,11.7c-0.3,1.4-1.4,3-2.5,3.7l-14,9.9c-0.5,0.4-1,1.3-1,1.9v17.6l13.5-6.1C551.5,510,552,509.9,552.4,509.9
			L552.4,509.9z"/>
		<path class="st34" d="M584.6,507.7c-9.5,0-15.6-7.8-15.6-19.8c0-16.9,11.9-37.5,26.5-45.9c4.3-2.5,8.4-3.7,12.2-3.7
			c4.6,0,8.6,1.8,11.4,5.3c2.8,3.5,4.3,8.5,4.3,14.4c0,16.9-11.9,37.5-26.5,45.9C592.6,506.5,588.5,507.7,584.6,507.7z M570.3,487.9
			c0,11.7,5.8,18.5,14.3,18.5c1.8,0,3.6-0.3,5.6-0.9c1.9-0.6,3.9-1.5,5.9-2.6c14.3-8.3,25.9-28.3,25.9-44.8l0,0
			c0-3.1-0.4-5.9-1.2-8.3c-1.9-5.8-5.8-9.3-11-10c-0.7-0.1-1.4-0.1-2.1-0.1c-2.2,0-4.7,0.5-7.2,1.4c-1.4,0.5-2.9,1.2-4.3,2.1l0,0
			C581.9,451.4,570.3,471.4,570.3,487.9L570.3,487.9L570.3,487.9z"/>
		<path class="st5" d="M621.6,361.6c-1.6-9.3,4.3-22.5,13.1-29.5c3.3-2.6,6.5-3.9,9.3-4.2c0.4,1,0.8,2.1,1,3.4
			c1.6,9.3-4.3,22.5-13.1,29.5c-3.3,2.6-6.5,3.9-9.3,4.1C622.2,364,621.9,362.8,621.6,361.6z M665.3,337.5c0.1-1.2,0.9-2.8,1.8-3.6
			l7.2-6.7c0.9-0.8,1.4-2.4,1.2-3.6l-1.4-7.9c-0.1-0.5-0.4-0.9-0.7-1.1l0,0l-8.6-4.9l0,0c-0.4-0.2-0.9-0.2-1.5,0.1l-3.1,2l3-8.1
			c0.3-0.9,0-1.8-0.8-2.2l0,0l-8.6-5l0,0c-0.2-0.1-0.4-0.2-0.6-0.2l-5.5-1.2c-1.2-0.3-2.5,0.4-3.1,1.4l-5.1,9.8
			c-0.4,0.7-1.2,1.4-2,1.9l-0.2-0.8c-0.1-0.5-0.4-0.8-0.7-0.9v0l-8.6-5l0,0c-0.5-0.3-1.1-0.2-1.6,0.2l-8.2,6.4
			c-0.9,0.7-1.6,2.3-1.6,3.5l0.5,7.8c0.1,1.2-0.5,2.9-1.3,3.8c-1.3,1.6-2.6,3.3-3.8,5c-0.7,1-2.1,1.7-3.3,1.7l-5.3-0.3
			c-1.2-0.1-2.5,0.8-3,1.9l-4.9,11.1c-0.4,1-0.1,2.1,0.8,2.7l0,0l5.8,3.4c0.2,0.5,0.3,1,0.1,1.5c-0.4,1.8-0.7,3.5-0.9,5.3
			c-0.1,1.2-0.9,2.8-1.8,3.6l-7.2,6.7c-0.9,0.8-1.4,2.4-1.2,3.6l1.4,7.9c0.1,0.5,0.3,0.9,0.7,1.1l0,0l8.6,5v0
			c0.4,0.2,0.9,0.2,1.5-0.1l3.1-2l-3,8.1c-0.3,0.9,0,1.8,0.7,2.2l0,0l8.6,5l0,0c0.2,0.1,0.4,0.2,0.6,0.3l5.5,1.2
			c1.2,0.3,2.5-0.4,3.1-1.4l5.1-9.8c0.4-0.7,1.2-1.4,2-1.9l0.2,0.8c0.1,0.5,0.4,0.8,0.7,1l0,0l8.5,4.9l0,0l0.1,0.1l0,0
			c0.5,0.2,1,0.2,1.6-0.2l8.2-6.4c0.9-0.7,1.6-2.3,1.6-3.5l-0.5-7.8c-0.1-1.2,0.5-2.9,1.3-3.8c1.3-1.6,2.6-3.3,3.8-5
			c0.7-1,2.1-1.7,3.3-1.7l5.3,0.3c1.2,0.1,2.5-0.8,3-1.9l4.9-11.1c0.5-1.1,0-2.3-1.1-2.8l-4.2-1.8c-1.1-0.5-1.7-1.8-1.5-2.9
			C664.8,341,665.1,339.3,665.3,337.5L665.3,337.5z"/>
		<path class="st35" d="M604.2,391.3L604.2,391.3c-0.7-0.5-1-1.3-0.7-2.2l3-8.1l0,0l-3,8.1C603.2,390,603.5,390.9,604.2,391.3
			L604.2,391.3z"/>
		<path class="st3" d="M612.7,396.2l-8.5-4.9l0,0c-0.7-0.5-1-1.3-0.7-2.2l3-8.1l0,0l0,0l4.1-2.7c0.4-0.2,0.7-0.3,1.1-0.3
			c0.7,0,1.4,0.4,1.8,1c0.4,0.6,0.9,1.2,1.4,1.7c0.8,0.9,1.2,2.3,0.8,3.4l-3.7,10C611.8,394.9,612.1,395.8,612.7,396.2L612.7,396.2z
			 M638.7,391.4C638.7,391.4,638.7,391.4,638.7,391.4L638.7,391.4z"/>
		<path class="st35" d="M634,388.7l-3.9-2.2v0L634,388.7L634,388.7z M630.1,386.4L630.1,386.4C630.1,386.4,630.1,386.4,630.1,386.4
			L630.1,386.4L630.1,386.4z M629.6,385.9c-0.1-0.1-0.1-0.3-0.2-0.4l-0.2-0.8c0,0,0,0,0,0l0.2,0.8
			C629.5,385.6,629.5,385.8,629.6,385.9L629.6,385.9z"/>
		<path class="st3" d="M638.7,391.4l-4.7-2.7l-3.9-2.2v0l0,0c0,0,0,0,0,0l0,0c-0.2-0.1-0.4-0.3-0.5-0.5c-0.1-0.1-0.1-0.3-0.2-0.4
			l-0.2-0.8c0,0,0,0,0,0l0,0c0.4-0.2,0.7-0.4,1.1-0.4c1.1-0.3,2.2-0.6,3.4-1.1c0.3-0.1,0.5-0.2,0.8-0.2c0.8,0,1.5,0.5,1.8,1.3
			l1.8,6.1C638.1,390.9,638.4,391.2,638.7,391.4z"/>
		<path class="st36" d="M629.2,362.7L629.2,362.7c0.9-0.5,1.9-1.2,2.8-1.9c4.2-3.3,7.7-8,10.1-13c-2.4,5-5.9,9.7-10.1,13
			C631,361.6,630.1,362.2,629.2,362.7z"/>
		<path class="st35" d="M622.7,365C622.7,365,622.7,365,622.7,365c2-0.2,4.2-0.9,6.5-2.2l0,0C626.9,364.1,624.7,364.8,622.7,365z"/>
		<path class="st36" d="M644.9,330.4c0-0.2-0.1-0.3-0.1-0.5C644.8,330.1,644.9,330.2,644.9,330.4z M644.8,329.9
			C644.8,329.9,644.8,329.9,644.8,329.9C644.8,329.9,644.8,329.9,644.8,329.9z M644.6,329.2c-0.1-0.4-0.3-0.8-0.5-1.2c0,0,0,0,0,0
			C644.3,328.3,644.4,328.7,644.6,329.2L644.6,329.2z"/>
		<path class="st3" d="M630.4,370c-3.4,0-6.2-1.7-7.7-5c2-0.2,4.2-0.9,6.5-2.2c0.9-0.5,1.9-1.2,2.8-1.9c4.2-3.3,7.7-8,10.1-13
			c2.7-5.6,3.9-11.6,3.1-16.5c-0.1-0.3-0.1-0.7-0.2-1c0-0.2-0.1-0.3-0.1-0.5l0,0c0,0,0,0,0,0c-0.1-0.2-0.1-0.5-0.2-0.7
			c-0.1-0.4-0.3-0.8-0.5-1.2c0.3,0,0.6,0,0.9,0c4.4,0,7.8,2.9,8.7,8.4c1.6,9.3-4.3,22.5-13.1,29.5C637,368.6,633.4,370,630.4,370z"
			/>
		<path class="st3" d="M664.9,309.8L664.9,309.8c-0.4-0.2-0.9-0.2-1.5,0.2l-3.1,2.1l-0.7,1.8c-0.4,1.1,0,2.6,0.9,3.5
			c0.5,0.5,1,1.1,1.4,1.7c0.1,0.2,0.2,0.3,0.4,0.4l0.3,0.2c0.2,0.2,0.5,0.2,0.7,0.3c0.3,0.1,0.6,0.1,1-0.1c0.2,0,0.4-0.1,0.5-0.2
			l7.2-4.8c0.2-0.1,0.4-0.2,0.5-0.3c0.2-0.1,0.4-0.1,0.6,0l0.3,0.1L664.9,309.8L664.9,309.8z M653.9,296.6c-0.2-0.1-0.4-0.2-0.6-0.2
			l-5.5-1.2c-1.1-0.3-2.5,0.4-3.1,1.4l-5.1,9.8c-0.3,0.5-0.7,0.9-1.2,1.3l8.6,5c0.5-0.4,0.9-0.8,1.2-1.3l5.1-9.8
			c0.5-1,1.9-1.7,3.1-1.4l5.5,1.2c0.2,0.1,0.4,0.1,0.6,0.2L653.9,296.6L653.9,296.6z M599.6,359.1l-7.2,6.6
			c-0.5,0.5-0.9,1.3-1.1,2.1l8.6,4.9c0.2-0.8,0.6-1.6,1.1-2l7.2-6.6L599.6,359.1L599.6,359.1z M628.1,301.5c-0.5-0.3-1-0.2-1.6,0.2
			l-8.2,6.4c-0.6,0.5-1.1,1.3-1.4,2.1l8.6,5c0.3-0.8,0.7-1.7,1.3-2.1l8.2-6.4c0.6-0.4,1.2-0.5,1.6-0.2v0L628.1,301.5L628.1,301.5z
			 M610.3,329.6c-0.5,0.2-1,0.4-1.5,0.3l-5.3-0.3c-0.7,0-1.6,0.3-2.2,0.8l8.6,5c0.6-0.5,1.4-0.8,2.2-0.8l5.3,0.3
			c0.5,0,1-0.1,1.5-0.3L610.3,329.6L610.3,329.6z"/>
		<path class="st7" d="M640.6,365.8c-8.9,7-17.3,5.1-18.9-4.2c-1.6-9.3,4.3-22.5,13.1-29.5c8.9-7,17.3-5.1,18.9,4.2
			C655.3,345.6,649.4,358.8,640.6,365.8z M675.5,323.7l-1.4-7.9c-0.2-1.2-1.2-1.6-2.2-0.9l-7.2,4.8c-1,0.7-2.2,0.3-2.9-0.7
			c-0.4-0.6-0.9-1.2-1.4-1.7c-0.8-0.9-1.3-2.3-0.8-3.4l3.7-10c0.4-1.1-0.2-2.2-1.3-2.5l-5.5-1.2c-1.2-0.3-2.5,0.4-3.1,1.4l-5.1,9.8
			c-0.6,1-1.9,2-3.1,2.3c-1.1,0.3-2.2,0.6-3.4,1.1c-1.1,0.4-2.2,0-2.6-1.2l-1.8-6.1c-0.3-1.1-1.4-1.5-2.3-0.7l-8.2,6.4
			c-0.9,0.7-1.6,2.3-1.6,3.5l0.5,7.8c0.1,1.2-0.5,2.9-1.3,3.8c-1.3,1.6-2.6,3.3-3.8,5c-0.7,1-2.1,1.7-3.3,1.7l-5.3-0.3
			c-1.2-0.1-2.5,0.8-3,1.9l-4.9,11.1c-0.5,1.1,0,2.3,1.1,2.8l4.2,1.8c1.1,0.5,1.7,1.8,1.5,2.9c-0.4,1.8-0.7,3.5-0.9,5.3
			c-0.1,1.2-0.9,2.8-1.8,3.6l-7.2,6.7c-0.9,0.8-1.4,2.4-1.2,3.6l1.4,7.9c0.2,1.2,1.2,1.6,2.2,0.9l7.2-4.8c1-0.7,2.2-0.3,2.9,0.7
			c0.4,0.6,0.9,1.2,1.4,1.7c0.8,0.9,1.3,2.3,0.8,3.4l-3.7,10c-0.4,1.1,0.2,2.2,1.4,2.5l5.5,1.2c1.2,0.3,2.5-0.4,3.1-1.4l5.1-9.8
			c0.6-1,1.9-2,3.1-2.3c1.1-0.3,2.2-0.6,3.4-1.1c1.1-0.4,2.2,0,2.6,1.2l1.8,6.1c0.3,1.1,1.4,1.5,2.3,0.7l8.2-6.4
			c0.9-0.7,1.6-2.3,1.6-3.5l-0.5-7.8c-0.1-1.2,0.5-2.9,1.3-3.8c1.3-1.6,2.6-3.3,3.8-5c0.7-1,2.1-1.7,3.3-1.7l5.3,0.3
			c1.2,0.1,2.5-0.8,3-1.9l4.9-11.1c0.5-1.1,0-2.3-1.1-2.8l-4.2-1.8c-1.1-0.5-1.7-1.8-1.5-2.9c0.4-1.8,0.7-3.5,0.9-5.3
			c0.1-1.2,0.9-2.8,1.8-3.6l7.2-6.7C675.1,326.5,675.7,324.9,675.5,323.7L675.5,323.7z"/>
	</g>
</g>
</svg>
