<svg id="Layer_1" data-name="Layer 1" xmlns="http://www.w3.org/2000/svg" viewBox="0 0 148.79 113.69"><title>CMS</title><g id="Layer_1-2" data-name="Layer_1"><path d="M118,141.71c41.09,0,74.4,10.82,74.4,24.16S159.07,190,118,190s-74.4-10.82-74.4-24.16S76.89,141.71,118,141.71Z" transform="translate(-43.58 -76.34)" style="fill:#ebcfbb"/><path d="M147.82,117.51v-3.68l2.72-.63a.58.58,0,0,0,.47-.71l0-.07a.66.66,0,0,0-.64-.44l-.17,0-2.36.55V98l19.78-4.56a1.65,1.65,0,0,1,.37,0,1.47,1.47,0,0,1,1.43,1l4.65,15.71A1.3,1.3,0,0,1,173,111.7l-25.18,5.81Zm13.5-8.06-.17,0-8.33,1.92a.58.58,0,0,0-.47.71l0,.07a.66.66,0,0,0,.64.44l.17,0,8.33-1.92A.58.58,0,0,0,162,110l0-.07a.66.66,0,0,0-.64-.44Zm-10.1-5.28-.21,0a.65.65,0,0,0-.52.47,1.26,1.26,0,0,0,0,.69,1.36,1.36,0,0,0,.35.62.72.72,0,0,0,.51.21l.21,0a.64.64,0,0,0,.52-.47,1.26,1.26,0,0,0,0-.69,1.37,1.37,0,0,0-.35-.62A.72.72,0,0,0,151.23,104.17Zm1.71-.39-.21,0a.65.65,0,0,0-.52.47,1.26,1.26,0,0,0,0,.69,1.36,1.36,0,0,0,.35.62.72.72,0,0,0,.51.21l.21,0a.64.64,0,0,0,.52-.47,1.25,1.25,0,0,0,0-.69,1.36,1.36,0,0,0-.35-.62.72.72,0,0,0-.51-.21Zm2.59-.6-.21,0a.65.65,0,0,0-.52.47,1.26,1.26,0,0,0,0,.69,1.36,1.36,0,0,0,.35.62.72.72,0,0,0,.51.21l.21,0a.64.64,0,0,0,.52-.47,1.26,1.26,0,0,0,0-.69,1.37,1.37,0,0,0-.35-.62.72.72,0,0,0-.51-.21Zm1.71-.39-.21,0a.64.64,0,0,0-.52.47,1.25,1.25,0,0,0,0,.69,1.36,1.36,0,0,0,.35.62.72.72,0,0,0,.51.21l.21,0a.64.64,0,0,0,.52-.47,1.25,1.25,0,0,0,0-.69,1.36,1.36,0,0,0-.35-.62.72.72,0,0,0-.51-.21Zm1.71-.39-.21,0a.65.65,0,0,0-.52.47,1.26,1.26,0,0,0,0,.69,1.36,1.36,0,0,0,.35.62.72.72,0,0,0,.51.21l.21,0a.64.64,0,0,0,.52-.47,1.25,1.25,0,0,0,0-.69,1.36,1.36,0,0,0-.35-.62.72.72,0,0,0-.51-.21Zm1.71-.39-.21,0a.64.64,0,0,0-.52.47,1.25,1.25,0,0,0,0,.69,1.36,1.36,0,0,0,.35.62.72.72,0,0,0,.51.21l.21,0a.64.64,0,0,0,.52-.47,1.24,1.24,0,0,0,0-.7,1.35,1.35,0,0,0-.35-.62.72.72,0,0,0-.51-.21Zm2.59-.6-.21,0a.65.65,0,0,0-.52.47,1.27,1.27,0,0,0,0,.69,1.36,1.36,0,0,0,.35.62.72.72,0,0,0,.51.21l.21,0a.64.64,0,0,0,.52-.47,1.25,1.25,0,0,0,0-.69,1.36,1.36,0,0,0-.35-.62.72.72,0,0,0-.51-.21ZM165,101l-.21,0a.65.65,0,0,0-.52.47,1.27,1.27,0,0,0,0,.69,1.37,1.37,0,0,0,.35.62.72.72,0,0,0,.51.21l.21,0a.64.64,0,0,0,.52-.47,1.26,1.26,0,0,0,0-.7,1.38,1.38,0,0,0-.35-.62A.72.72,0,0,0,165,101Zm1.71-.39-.21,0a.64.64,0,0,0-.52.47,1.25,1.25,0,0,0,0,.69,1.35,1.35,0,0,0,.35.62.72.72,0,0,0,.51.21l.21,0a.64.64,0,0,0,.52-.47,1.25,1.25,0,0,0,0-.69,1.36,1.36,0,0,0-.35-.62.72.72,0,0,0-.51-.21Zm1.71-.39-.21,0a.64.64,0,0,0-.52.47,1.27,1.27,0,0,0,0,.69,1.36,1.36,0,0,0,.35.62.72.72,0,0,0,.51.21l.21,0a.64.64,0,0,0,.52-.47,1.26,1.26,0,0,0,0-.69,1.37,1.37,0,0,0-.35-.62.72.72,0,0,0-.51-.21Zm-1.65-4.31a.11.11,0,0,0-.09,0l0,0a.09.09,0,0,0,0,.13,2.06,2.06,0,0,1,1,1.19,1.81,1.81,0,0,1-.2,1.47.09.09,0,0,0,0,.13l0,0h.05a.11.11,0,0,0,.1-.05,2,2,0,0,0,.22-1.64,2.29,2.29,0,0,0-1.11-1.34h-.06Zm-.26.4a.11.11,0,0,0-.09,0,.09.09,0,0,0,0,.13,1.63,1.63,0,0,1,.77.94,1.43,1.43,0,0,1-.15,1.15.09.09,0,0,0,0,.13h.05a.11.11,0,0,0,.1-.05,1.6,1.6,0,0,0,.17-1.29,1.83,1.83,0,0,0-.86-1.05l-.06,0Zm-.24.37a.11.11,0,0,0-.1,0l0,0a.09.09,0,0,0,0,.13,1.18,1.18,0,0,1,.53.67,1,1,0,0,1-.1.81.09.09,0,0,0,0,.13h.08a.11.11,0,0,0,.1-.05,1.23,1.23,0,0,0,.12-1,1.39,1.39,0,0,0-.64-.79l-.06,0Zm-.27.42a.11.11,0,0,0-.09,0l0,0a.09.09,0,0,0,0,.12.65.65,0,0,1,.27.36.58.58,0,0,1,0,.43.09.09,0,0,0,0,.12l0,0h.06a.11.11,0,0,0,.1-.06.79.79,0,0,0,.06-.59.9.9,0,0,0-.38-.49l-.06,0Zm-14.54,8.78q-.33,0-.51-.6a1.2,1.2,0,0,1-.06-.44.32.32,0,0,1,.25-.33h.08a.41.41,0,0,1,.32.19,1.31,1.31,0,0,1,.19.41,1.24,1.24,0,0,1,.06.44.32.32,0,0,1-.25.33h-.09Zm1.71-.39q-.33,0-.51-.6a1.2,1.2,0,0,1-.06-.44.32.32,0,0,1,.25-.33h.08a.41.41,0,0,1,.32.19,1.32,1.32,0,0,1,.19.41,1.25,1.25,0,0,1,.06.44.32.32,0,0,1-.25.34h-.09Zm2.59-.6q-.33,0-.51-.6a1.21,1.21,0,0,1-.06-.44.32.32,0,0,1,.25-.33h.08a.4.4,0,0,1,.32.19,1.31,1.31,0,0,1,.19.41,1.24,1.24,0,0,1,.06.44.32.32,0,0,1-.25.33Zm1.71-.39q-.33,0-.51-.6a1.21,1.21,0,0,1-.06-.44.32.32,0,0,1,.25-.33h.08a.41.41,0,0,1,.32.19,1.32,1.32,0,0,1,.19.41,1.22,1.22,0,0,1,.06.44.32.32,0,0,1-.25.33h-.09Zm1.71-.39q-.33,0-.51-.6a1.19,1.19,0,0,1-.06-.44.32.32,0,0,1,.25-.33h.08a.4.4,0,0,1,.32.19,1.32,1.32,0,0,1,.19.41,1.25,1.25,0,0,1,.06.44.32.32,0,0,1-.25.33h-.09Zm1.71-.39q-.33,0-.51-.6a1.19,1.19,0,0,1-.06-.44.32.32,0,0,1,.25-.33h.08a.41.41,0,0,1,.32.19,1.33,1.33,0,0,1,.19.41,1.23,1.23,0,0,1,.06.44.32.32,0,0,1-.25.34h-.09Zm2.59-.6q-.33,0-.51-.6a1.2,1.2,0,0,1-.06-.44.32.32,0,0,1,.25-.33h.08a.41.41,0,0,1,.32.19,1.29,1.29,0,0,1,.19.41,1.25,1.25,0,0,1,.06.44.32.32,0,0,1-.25.33Zm1.71-.39q-.33,0-.51-.6a1.2,1.2,0,0,1-.06-.44.32.32,0,0,1,.25-.33h.08a.41.41,0,0,1,.32.19,1.32,1.32,0,0,1,.19.41,1.28,1.28,0,0,1,.06.44.32.32,0,0,1-.25.34h-.09Zm1.71-.39q-.33,0-.51-.6a1.23,1.23,0,0,1-.06-.44.32.32,0,0,1,.25-.33h.08a.41.41,0,0,1,.32.19,1.29,1.29,0,0,1,.19.41,1.25,1.25,0,0,1,.06.44.32.32,0,0,1-.25.33Zm1.71-.39q-.33,0-.51-.6a1.2,1.2,0,0,1-.06-.44.32.32,0,0,1,.25-.33h.08a.4.4,0,0,1,.32.19,1.29,1.29,0,0,1,.19.41,1.21,1.21,0,0,1,.06.44.32.32,0,0,1-.25.33Z" transform="translate(-43.58 -76.34)" style="fill:#b8d0d6"/><path d="M147.82,113.83v-1.28l2.36-.55.17,0a.66.66,0,0,1,.64.44l0,.07a.58.58,0,0,1-.47.71Z" transform="translate(-43.58 -76.34)" style="fill:#dce9fb"/><path d="M153,112.61a.66.66,0,0,1-.64-.44l0-.07a.58.58,0,0,1,.47-.71l8.33-1.92.17,0a.66.66,0,0,1,.64.44l0,.07a.58.58,0,0,1-.47.71l-8.33,1.92-.17,0Z" transform="translate(-43.58 -76.34)" style="fill:#dce9fb"/><path d="M151.39,106.18a.72.72,0,0,1-.51-.21,1.36,1.36,0,0,1-.35-.62,1.26,1.26,0,0,1,0-.69.65.65,0,0,1,.52-.47l.21,0a.72.72,0,0,1,.51.21,1.37,1.37,0,0,1,.35.62,1.26,1.26,0,0,1,0,.69.64.64,0,0,1-.52.47Zm-.2-1.7h-.08a.32.32,0,0,0-.25.33,1.2,1.2,0,0,0,.06.44q.18.61.51.6h.09a.32.32,0,0,0,.25-.33,1.24,1.24,0,0,0-.06-.44,1.31,1.31,0,0,0-.19-.41.41.41,0,0,0-.32-.19Z" transform="translate(-43.58 -76.34)" style="fill:#dce9fb"/><path d="M153.1,105.79a.72.72,0,0,1-.51-.21,1.36,1.36,0,0,1-.35-.62,1.26,1.26,0,0,1,0-.69.65.65,0,0,1,.52-.47l.21,0a.72.72,0,0,1,.51.21,1.36,1.36,0,0,1,.35.62,1.25,1.25,0,0,1,0,.69.64.64,0,0,1-.52.47l-.21,0Zm-.2-1.7h-.08a.32.32,0,0,0-.25.33,1.2,1.2,0,0,0,.06.44q.18.6.51.6h.09a.32.32,0,0,0,.25-.34,1.25,1.25,0,0,0-.06-.44,1.32,1.32,0,0,0-.19-.41.41.41,0,0,0-.32-.19Z" transform="translate(-43.58 -76.34)" style="fill:#dce9fb"/><path d="M155.69,105.19a.72.72,0,0,1-.51-.21,1.36,1.36,0,0,1-.35-.62,1.26,1.26,0,0,1,0-.69.65.65,0,0,1,.52-.47l.21,0a.72.72,0,0,1,.51.21,1.37,1.37,0,0,1,.35.62,1.26,1.26,0,0,1,0,.69.64.64,0,0,1-.52.47l-.21,0Zm-.2-1.7h-.08a.32.32,0,0,0-.25.33,1.21,1.21,0,0,0,.06.44q.18.6.51.6h.09a.32.32,0,0,0,.25-.33,1.24,1.24,0,0,0-.06-.44,1.31,1.31,0,0,0-.19-.41A.4.4,0,0,0,155.49,103.49Z" transform="translate(-43.58 -76.34)" style="fill:#dce9fb"/><path d="M157.4,104.8a.72.72,0,0,1-.51-.21,1.36,1.36,0,0,1-.35-.62,1.25,1.25,0,0,1,0-.69.64.64,0,0,1,.52-.47l.21,0a.72.72,0,0,1,.51.21,1.36,1.36,0,0,1,.35.62,1.25,1.25,0,0,1,0,.69.64.64,0,0,1-.52.47l-.21,0Zm-.2-1.7h-.08a.32.32,0,0,0-.25.33,1.21,1.21,0,0,0,.06.44q.18.61.51.6h.09a.32.32,0,0,0,.25-.33,1.22,1.22,0,0,0-.06-.44,1.32,1.32,0,0,0-.19-.41.41.41,0,0,0-.32-.19Z" transform="translate(-43.58 -76.34)" style="fill:#dce9fb"/><path d="M159.11,104.4a.72.72,0,0,1-.51-.21,1.36,1.36,0,0,1-.35-.62,1.26,1.26,0,0,1,0-.69.65.65,0,0,1,.52-.47l.21,0a.72.72,0,0,1,.51.21,1.36,1.36,0,0,1,.35.62,1.25,1.25,0,0,1,0,.69.64.64,0,0,1-.52.47l-.21,0Zm-.2-1.7h-.08a.32.32,0,0,0-.25.33,1.19,1.19,0,0,0,.06.44q.18.6.51.6h.09a.32.32,0,0,0,.25-.33,1.25,1.25,0,0,0-.06-.44,1.32,1.32,0,0,0-.19-.41.4.4,0,0,0-.32-.19Z" transform="translate(-43.58 -76.34)" style="fill:#dce9fb"/><path d="M160.82,104a.72.72,0,0,1-.51-.21,1.36,1.36,0,0,1-.35-.62,1.25,1.25,0,0,1,0-.69.64.64,0,0,1,.52-.47l.21,0a.72.72,0,0,1,.51.21,1.35,1.35,0,0,1,.35.62,1.24,1.24,0,0,1,0,.7.64.64,0,0,1-.52.47l-.21,0Zm-.2-1.7h-.08a.32.32,0,0,0-.25.33,1.19,1.19,0,0,0,.06.44q.18.6.51.6h.09a.32.32,0,0,0,.25-.34,1.23,1.23,0,0,0-.06-.44,1.33,1.33,0,0,0-.19-.41.41.41,0,0,0-.32-.19Z" transform="translate(-43.58 -76.34)" style="fill:#dce9fb"/><path d="M163.41,103.41a.72.72,0,0,1-.51-.21,1.36,1.36,0,0,1-.35-.62,1.27,1.27,0,0,1,0-.69.65.65,0,0,1,.52-.47l.21,0a.72.72,0,0,1,.51.21,1.36,1.36,0,0,1,.35.62,1.25,1.25,0,0,1,0,.69.64.64,0,0,1-.52.47l-.21,0Zm-.2-1.7h-.08a.32.32,0,0,0-.25.33,1.2,1.2,0,0,0,.06.44q.18.6.51.6h.09a.32.32,0,0,0,.25-.33,1.25,1.25,0,0,0-.06-.44,1.29,1.29,0,0,0-.19-.41A.41.41,0,0,0,163.21,101.71Z" transform="translate(-43.58 -76.34)" style="fill:#dce9fb"/><path d="M165.12,103a.72.72,0,0,1-.51-.21,1.37,1.37,0,0,1-.35-.62,1.27,1.27,0,0,1,0-.69.65.65,0,0,1,.52-.47l.21,0a.72.72,0,0,1,.51.21,1.38,1.38,0,0,1,.35.62,1.26,1.26,0,0,1,0,.7.64.64,0,0,1-.52.47l-.21,0Zm-.2-1.7h-.08a.32.32,0,0,0-.25.33,1.2,1.2,0,0,0,.06.44q.18.61.51.6h.09a.32.32,0,0,0,.25-.34,1.28,1.28,0,0,0-.06-.44,1.32,1.32,0,0,0-.19-.41.41.41,0,0,0-.32-.19Z" transform="translate(-43.58 -76.34)" style="fill:#dce9fb"/><path d="M166.83,102.62a.72.72,0,0,1-.51-.21,1.35,1.35,0,0,1-.35-.62,1.25,1.25,0,0,1,0-.69.64.64,0,0,1,.52-.47l.21,0a.72.72,0,0,1,.51.21,1.36,1.36,0,0,1,.35.62,1.25,1.25,0,0,1,0,.69.64.64,0,0,1-.52.47l-.21,0Zm-.2-1.7h-.08a.32.32,0,0,0-.25.33,1.23,1.23,0,0,0,.06.44q.18.61.51.6H167a.32.32,0,0,0,.25-.33,1.25,1.25,0,0,0-.06-.44,1.29,1.29,0,0,0-.19-.41A.41.41,0,0,0,166.63,100.92Z" transform="translate(-43.58 -76.34)" style="fill:#dce9fb"/><path d="M168.54,102.23A.72.72,0,0,1,168,102a1.36,1.36,0,0,1-.35-.62,1.27,1.27,0,0,1,0-.69.64.64,0,0,1,.52-.47l.21,0a.72.72,0,0,1,.51.21,1.37,1.37,0,0,1,.35.62,1.26,1.26,0,0,1,0,.69.64.64,0,0,1-.52.47l-.21,0Zm-.2-1.7h-.08a.32.32,0,0,0-.25.33,1.2,1.2,0,0,0,.06.44q.18.61.51.6h.09a.32.32,0,0,0,.25-.33,1.21,1.21,0,0,0-.06-.44,1.29,1.29,0,0,0-.19-.41A.4.4,0,0,0,168.34,100.53Z" transform="translate(-43.58 -76.34)" style="fill:#dce9fb"/><path d="M166.25,98.25h-.06l0,0a.09.09,0,0,1,0-.12.58.58,0,0,0,0-.43.65.65,0,0,0-.27-.36.09.09,0,0,1,0-.12l0,0a.11.11,0,0,1,.09,0l.06,0a.9.9,0,0,1,.38.49.79.79,0,0,1-.06.59.11.11,0,0,1-.1.06Z" transform="translate(-43.58 -76.34)" style="fill:#dce9fb"/><path d="M166.72,98.49h-.08a.09.09,0,0,1,0-.13,1,1,0,0,0,.1-.81,1.18,1.18,0,0,0-.53-.67.09.09,0,0,1,0-.13l0,0a.11.11,0,0,1,.1,0l.06,0a1.39,1.39,0,0,1,.64.79,1.23,1.23,0,0,1-.12,1,.11.11,0,0,1-.1.05Z" transform="translate(-43.58 -76.34)" style="fill:#dce9fb"/><path d="M167.13,98.71h-.05a.09.09,0,0,1,0-.13,1.43,1.43,0,0,0,.15-1.15,1.63,1.63,0,0,0-.77-.94.09.09,0,0,1,0-.13.11.11,0,0,1,.09,0l.06,0a1.83,1.83,0,0,1,.86,1.05,1.6,1.6,0,0,1-.17,1.29.11.11,0,0,1-.1.05Z" transform="translate(-43.58 -76.34)" style="fill:#dce9fb"/><path d="M167.58,98.95h-.05l0,0a.09.09,0,0,1,0-.13,1.81,1.81,0,0,0,.2-1.47,2.06,2.06,0,0,0-1-1.19.09.09,0,0,1,0-.13l0,0a.11.11,0,0,1,.09,0h.06a2.29,2.29,0,0,1,1.11,1.34,2,2,0,0,1-.22,1.64.11.11,0,0,1-.1.05Z" transform="translate(-43.58 -76.34)" style="fill:#dce9fb"/><polygon points="19.18 57.59 26.64 57.59 26.64 55.26 19.18 55.26 19.18 57.59" style="fill:#dceaff"/><polygon points="46.67 57.59 54.14 57.59 54.14 55.26 46.67 55.26 46.67 57.59" style="fill:#dceaff"/><polygon points="48.35 91.32 52.46 91.32 52.46 57.59 48.35 57.59 48.35 91.32" style="fill:#dceaff"/><polygon points="63.53 91.32 67.64 91.32 67.64 57.59 63.53 57.59 63.53 91.32" style="fill:#dceaff"/><path d="M85.65,167.66H75.41V157.8a4.55,4.55,0,0,1,4.8-4.24h.91a4.28,4.28,0,0,1,4.52,4Z" transform="translate(-43.58 -76.34)" style="fill:#c0d8fb"/><path d="M104,146.32H99.16v-4.66a2.15,2.15,0,0,1,2.27-2h.43a2,2,0,0,1,2.14,1.88v4.77Z" transform="translate(-43.58 -76.34)" style="fill:#c0d8fb"/><path d="M104,160.61H99.16V156a2.15,2.15,0,0,1,2.27-2h.43a2,2,0,0,1,2.14,1.88Z" transform="translate(-43.58 -76.34)" style="fill:#c0d8fb"/><path d="M89.37,146.32H84.54v-4.66a2.15,2.15,0,0,1,2.27-2h.43a2,2,0,0,1,2.14,1.88v4.77Z" transform="translate(-43.58 -76.34)" style="fill:#c0d8fb"/><polygon points="83.32 36.56 66.77 52.34 42.93 32.88 42.93 32.88 32.89 24.68 49.43 8.91 68.19 24.22 83.32 36.56" style="fill:#b8d0d6"/><path d="M111.42,123.49l9.69-9.24a1.42,1.42,0,0,0-.1-2.19L94,90a2,2,0,0,0-2.52.09l-9.65,9.2a1.44,1.44,0,0,0,.1,2.21l27,22.06A1.91,1.91,0,0,0,111.42,123.49Zm11.69-10.4-12.84,12.25L79.81,100.48,92.66,88.23Z" transform="translate(-43.58 -76.34)" style="fill:#6e808b"/><path d="M98,110.08a4.13,4.13,0,0,1-.28-6.34,5.58,5.58,0,0,1,7.19-.25,4.13,4.13,0,0,1,.28,6.34A5.58,5.58,0,0,1,98,110.08Z" transform="translate(-43.58 -76.34)" style="fill:#6e808b"/><polygon points="84.78 40.62 60.48 42.16 58.14 13.59 58.14 13.59 57.16 1.55 81.46 0 83.3 22.48 84.78 40.62" style="fill:#b8d0d6"/><path d="M108.87,115.36l14.23-.91a1.62,1.62,0,0,0,1.62-1.65l-2.65-32.38A1.73,1.73,0,0,0,120.16,79l-14.17.9a1.64,1.64,0,0,0-1.64,1.67l2.65,32.4a1.69,1.69,0,0,0,1.86,1.42Zm16.59-.55L106.59,116l-3-36.51,18.86-1.2Z" transform="translate(-43.58 -76.34)" style="fill:#6e808b"/><path d="M109.46,97.48c-.2-2.47,1.91-4.62,4.71-4.8s5.24,1.68,5.44,4.15-1.91,4.62-4.71,4.8S109.66,100,109.46,97.48Z" transform="translate(-43.58 -76.34)" style="fill:#6e808b"/><path d="M116.39,170.55s5.15-39.86-23.5-42.66c0,0-22.24,4.67-16.69,42.66Z" transform="translate(-43.58 -76.34)" style="fill:#f9ddbf"/><path d="M113.56,168.77V170a.41.41,0,0,1-.11.28.68.68,0,0,1-.31.18l-.12,0H85.4a.61.61,0,0,1-.66-.47v-1.33a.61.61,0,0,1,.66-.47H113l.12,0a.68.68,0,0,1,.31.18.41.41,0,0,1,.11.28Z" transform="translate(-43.58 -76.34)" style="fill:#ffb93e"/><path d="M100.06,170.54H85.33a.56.56,0,0,1-.59-.47v-1.33a.56.56,0,0,1,.59-.47H98.25a4,4,0,0,0,1.81,2.26Z" transform="translate(-43.58 -76.34)" style="fill:#ffa412"/><polygon points="66.31 94.2 66.63 94.2 66.63 91.94 66.31 91.94 66.31 94.2" style="fill:#ffa412"/><polygon points="65.26 94.2 65.57 94.2 65.57 91.94 65.26 91.94 65.26 94.2" style="fill:#ffa412"/><polygon points="63.99 94.2 64.3 94.2 64.3 91.94 63.99 91.94 63.99 94.2" style="fill:#ffa412"/><polygon points="62.04 94.2 62.36 94.2 62.36 91.94 62.04 91.94 62.04 94.2" style="fill:#ffa412"/><polygon points="59.99 94.2 60.3 94.2 60.3 91.94 59.99 91.94 59.99 94.2" style="fill:#ffa412"/><polygon points="56.84 94.2 57.15 94.2 57.15 91.94 56.84 91.94 56.84 94.2" style="fill:#ffa412"/><polygon points="53.88 94.2 54.2 94.2 54.2 91.94 53.88 91.94 53.88 94.2" style="fill:#ffa412"/><polygon points="51.25 94.2 51.56 94.2 51.56 91.94 51.25 91.94 51.25 94.2" style="fill:#ffa412"/><polygon points="67.32 94.2 67.63 94.2 67.63 91.94 67.32 91.94 67.32 94.2" style="fill:#ffa412"/><polygon points="67.99 94.2 68.3 94.2 68.3 91.94 67.99 91.94 67.99 94.2" style="fill:#ffa412"/><polygon points="68.63 94.2 68.94 94.2 68.94 91.94 68.63 91.94 68.63 94.2" style="fill:#ffa412"/><path d="M113,168.29v2.25h-.31v-2.26H113Z" transform="translate(-43.58 -76.34)" style="fill:#ffa412"/><path d="M113.44,168.5v1.83a.68.68,0,0,1-.31.18v-2.2a.68.68,0,0,1,.31.18Z" transform="translate(-43.58 -76.34)" style="fill:#ffa412"/><path d="M110.62,166.51v1.28a.41.41,0,0,1-.11.27.68.68,0,0,1-.31.18l-.12,0H82.46a.61.61,0,0,1-.66-.47v-1.33a.61.61,0,0,1,.66-.47h27.61l.12,0h.14l0,0,0,0h0l0,0h0l0,0A.41.41,0,0,1,110.62,166.51Z" transform="translate(-43.58 -76.34)" style="fill:#ffb93e"/><path d="M97.12,168.28H82.39a.56.56,0,0,1-.59-.47v-1.33a.56.56,0,0,1,.59-.47H95.31l0,.06a4,4,0,0,0,1.79,2.21Z" transform="translate(-43.58 -76.34)" style="fill:#ffa412"/><polygon points="63.37 91.94 63.69 91.94 63.69 89.67 63.37 89.67 63.37 91.94" style="fill:#ffa412"/><polygon points="62.32 91.94 62.63 91.94 62.63 89.67 62.32 89.67 62.32 91.94" style="fill:#ffa412"/><polygon points="61.05 91.94 61.36 91.94 61.36 89.67 61.05 89.67 61.05 91.94" style="fill:#ffa412"/><polygon points="59.1 91.94 59.42 91.94 59.42 89.67 59.1 89.67 59.1 91.94" style="fill:#ffa412"/><polygon points="57.05 91.94 57.36 91.94 57.36 89.67 57.05 89.67 57.05 91.94" style="fill:#ffa412"/><polygon points="53.9 91.94 54.21 91.94 54.21 89.67 53.9 89.67 53.9 91.94" style="fill:#ffa412"/><polygon points="50.95 91.94 51.26 91.94 51.26 89.67 50.95 89.67 50.95 91.94" style="fill:#ffa412"/><polygon points="48.31 91.94 48.62 91.94 48.62 89.67 48.31 89.67 48.31 91.94" style="fill:#ffa412"/><polygon points="64.38 91.94 64.69 91.94 64.69 89.67 64.38 89.67 64.38 91.94" style="fill:#ffa412"/><polygon points="65.05 91.94 65.36 91.94 65.36 89.67 65.05 89.67 65.05 91.94" style="fill:#ffa412"/><polygon points="65.69 91.94 66 91.94 66 89.67 65.69 89.67 65.69 91.94" style="fill:#ffa412"/><path d="M110.07,166v2.25h-.31V166h.31Z" transform="translate(-43.58 -76.34)" style="fill:#ffa412"/><path d="M110.5,166.23v1.83a.68.68,0,0,1-.31.18V166A.68.68,0,0,1,110.5,166.23Z" transform="translate(-43.58 -76.34)" style="fill:#ffa412"/><path d="M112,164.3v1.28a.4.4,0,0,1-.11.28.67.67,0,0,1-.31.18l-.12,0H83.88a.86.86,0,0,1-.31-.06.52.52,0,0,1-.36-.39v-1.35a.61.61,0,0,1,.66-.47h27.61l.12,0a.67.67,0,0,1,.31.18.41.41,0,0,1,.11.28Z" transform="translate(-43.58 -76.34)" style="fill:#ffb93e"/><path d="M98.54,166.07H83.81a.7.7,0,0,1-.27-.06.51.51,0,0,1-.32-.39v-1.35a.56.56,0,0,1,.59-.47H96.73A4,4,0,0,0,98.45,166Z" transform="translate(-43.58 -76.34)" style="fill:#ffa412"/><polygon points="64.8 89.73 65.11 89.73 65.11 87.47 64.8 87.47 64.8 89.73" style="fill:#ffa412"/><polygon points="63.74 89.73 64.05 89.73 64.05 87.47 63.74 87.47 63.74 89.73" style="fill:#ffa412"/><polygon points="62.47 89.73 62.78 89.73 62.78 87.47 62.47 87.47 62.47 89.73" style="fill:#ffa412"/><polygon points="60.52 89.73 60.84 89.73 60.84 87.47 60.52 87.47 60.52 89.73" style="fill:#ffa412"/><polygon points="58.47 89.73 58.78 89.73 58.78 87.47 58.47 87.47 58.47 89.73" style="fill:#ffa412"/><polygon points="55.32 89.73 55.63 89.73 55.63 87.47 55.32 87.47 55.32 89.73" style="fill:#ffa412"/><polygon points="52.37 89.73 52.68 89.73 52.68 87.47 52.37 87.47 52.37 89.73" style="fill:#ffa412"/><polygon points="49.73 89.73 50.04 89.73 50.04 87.47 49.73 87.47 49.73 89.73" style="fill:#ffa412"/><polygon points="65.8 89.73 66.11 89.73 66.11 87.47 65.8 87.47 65.8 89.73" style="fill:#ffa412"/><polygon points="66.47 89.73 66.78 89.73 66.78 87.47 66.47 87.47 66.47 89.73" style="fill:#ffa412"/><polygon points="67.11 89.73 67.42 89.73 67.42 87.47 67.11 87.47 67.11 89.73" style="fill:#ffa412"/><path d="M111.49,163.81v2.25h-.31v-2.26h.31Z" transform="translate(-43.58 -76.34)" style="fill:#ffa412"/><path d="M111.92,164v1.83a.67.67,0,0,1-.31.18v-2.2a.68.68,0,0,1,.31.18Z" transform="translate(-43.58 -76.34)" style="fill:#ffa412"/><path d="M112.7,162v1.28a.41.41,0,0,1-.11.28.68.68,0,0,1-.31.18l-.12,0H84.54a.61.61,0,0,1-.66-.47V162a.59.59,0,0,1,.59-.46h27.69l.12,0a.67.67,0,0,1,.31.18.41.41,0,0,1,.11.27Z" transform="translate(-43.58 -76.34)" style="fill:#ffb93e"/><path d="M99.2,163.81H84.47a.56.56,0,0,1-.59-.47V162a.55.55,0,0,1,.52-.46h13A4,4,0,0,0,99.2,163.81Z" transform="translate(-43.58 -76.34)" style="fill:#ffa412"/><polygon points="65.45 87.47 65.77 87.47 65.77 85.2 65.45 85.2 65.45 87.47" style="fill:#ffa412"/><polygon points="64.4 87.47 64.71 87.47 64.71 85.2 64.4 85.2 64.4 87.47" style="fill:#ffa412"/><polygon points="63.13 87.47 63.44 87.47 63.44 85.2 63.13 85.2 63.13 87.47" style="fill:#ffa412"/><polygon points="61.18 87.47 61.49 87.47 61.49 85.2 61.18 85.2 61.18 87.47" style="fill:#ffa412"/><polygon points="59.13 87.47 59.44 87.47 59.44 85.2 59.13 85.2 59.13 87.47" style="fill:#ffa412"/><polygon points="55.98 87.47 56.29 87.47 56.29 85.2 55.98 85.2 55.98 87.47" style="fill:#ffa412"/><polygon points="53.02 87.47 53.34 87.47 53.34 85.2 53.02 85.2 53.02 87.47" style="fill:#ffa412"/><polygon points="50.39 87.47 50.7 87.47 50.7 85.2 50.39 85.2 50.39 87.47" style="fill:#ffa412"/><polygon points="66.46 87.47 66.77 87.47 66.77 85.2 66.46 85.2 66.46 87.47" style="fill:#ffa412"/><polygon points="67.13 87.47 67.44 87.47 67.44 85.2 67.13 85.2 67.13 87.47" style="fill:#ffa412"/><polygon points="67.77 87.47 68.08 87.47 68.08 85.2 67.77 85.2 67.77 87.47" style="fill:#ffa412"/><path d="M112.15,161.55v2.25h-.31v-2.26h.31Z" transform="translate(-43.58 -76.34)" style="fill:#ffa412"/><path d="M112.58,161.76v1.83a.68.68,0,0,1-.31.18v-2.2A.68.68,0,0,1,112.58,161.76Z" transform="translate(-43.58 -76.34)" style="fill:#ffa412"/><path d="M110.67,159.77v1.28a.41.41,0,0,1-.11.28.68.68,0,0,1-.31.18l-.12,0H82.52a.61.61,0,0,1-.66-.47v-1.35a.57.57,0,0,1,.5-.43h27.77l.12,0a.68.68,0,0,1,.31.18.41.41,0,0,1,.11.28Z" transform="translate(-43.58 -76.34)" style="fill:#ffb93e"/><path d="M97.17,161.55H82.45a.56.56,0,0,1-.59-.47v-1.35a.54.54,0,0,1,.46-.43H95.37v0a4,4,0,0,0,1.8,2.24h0Z" transform="translate(-43.58 -76.34)" style="fill:#ffa412"/><polygon points="63.43 85.2 63.74 85.2 63.74 82.94 63.43 82.94 63.43 85.2" style="fill:#ffa412"/><polygon points="62.38 85.2 62.69 85.2 62.69 82.94 62.38 82.94 62.38 85.2" style="fill:#ffa412"/><polygon points="61.11 85.2 61.42 85.2 61.42 82.94 61.11 82.94 61.11 85.2" style="fill:#ffa412"/><polygon points="59.16 85.2 59.47 85.2 59.47 82.94 59.16 82.94 59.16 85.2" style="fill:#ffa412"/><polygon points="57.11 85.2 57.42 85.2 57.42 82.94 57.11 82.94 57.11 85.2" style="fill:#ffa412"/><polygon points="53.95 85.2 54.27 85.2 54.27 82.94 53.95 82.94 53.95 85.2" style="fill:#ffa412"/><polygon points="51 85.2 51.32 85.2 51.32 82.94 51 82.94 51 85.2" style="fill:#ffa412"/><polygon points="48.37 85.2 48.68 85.2 48.68 82.94 48.37 82.94 48.37 85.2" style="fill:#ffa412"/><polygon points="64.44 85.2 64.75 85.2 64.75 82.94 64.44 82.94 64.44 85.2" style="fill:#ffa412"/><polygon points="65.1 85.2 65.42 85.2 65.42 82.94 65.1 82.94 65.1 85.2" style="fill:#ffa412"/><polygon points="65.75 85.2 66.06 85.2 66.06 82.94 65.75 82.94 65.75 85.2" style="fill:#ffa412"/><path d="M110.13,159.29v2.25h-.31v-2.26h.31Z" transform="translate(-43.58 -76.34)" style="fill:#ffa412"/><path d="M110.56,159.5v1.83a.68.68,0,0,1-.31.18v-2.2a.68.68,0,0,1,.31.18Z" transform="translate(-43.58 -76.34)" style="fill:#ffa412"/><path d="M110.62,157.53v1.28a.41.41,0,0,1-.11.27.67.67,0,0,1-.31.18l-.09,0H82.34a.58.58,0,0,1-.55-.46V157.5a.61.61,0,0,1,.66-.47h27.61l.12,0h.07l0,0,0,0,0,0,0,0h0l0,0h0l0,0A.41.41,0,0,1,110.62,157.53Z" transform="translate(-43.58 -76.34)" style="fill:#ffb93e"/><path d="M97.12,159.3H82.31a.54.54,0,0,1-.52-.46V157.5a.56.56,0,0,1,.59-.47H95.31l0,.06a4,4,0,0,0,1.76,2.19l0,0Z" transform="translate(-43.58 -76.34)" style="fill:#ffa412"/><polygon points="63.37 82.96 63.69 82.96 63.69 80.69 63.37 80.69 63.37 82.96" style="fill:#ffa412"/><polygon points="62.32 82.96 62.63 82.96 62.63 80.69 62.32 80.69 62.32 82.96" style="fill:#ffa412"/><polygon points="61.05 82.96 61.36 82.96 61.36 80.69 61.05 80.69 61.05 82.96" style="fill:#ffa412"/><polygon points="59.1 82.96 59.42 82.96 59.42 80.69 59.1 80.69 59.1 82.96" style="fill:#ffa412"/><polygon points="57.05 82.96 57.36 82.96 57.36 80.69 57.05 80.69 57.05 82.96" style="fill:#ffa412"/><polygon points="53.9 82.96 54.21 82.96 54.21 80.69 53.9 80.69 53.9 82.96" style="fill:#ffa412"/><polygon points="50.95 82.96 51.26 82.96 51.26 80.69 50.95 80.69 50.95 82.96" style="fill:#ffa412"/><polygon points="48.31 82.96 48.62 82.96 48.62 80.69 48.31 80.69 48.31 82.96" style="fill:#ffa412"/><polygon points="64.38 82.96 64.69 82.96 64.69 80.69 64.38 80.69 64.38 82.96" style="fill:#ffa412"/><polygon points="65.05 82.96 65.36 82.96 65.36 80.69 65.05 80.69 65.05 82.96" style="fill:#ffa412"/><polygon points="65.69 82.96 66 82.96 66 80.69 65.69 80.69 65.69 82.96" style="fill:#ffa412"/><path d="M110.07,157v2.25h-.31V157h.31Z" transform="translate(-43.58 -76.34)" style="fill:#ffa412"/><path d="M110.5,157.25v1.83a.67.67,0,0,1-.31.18v-2.2A.68.68,0,0,1,110.5,157.25Z" transform="translate(-43.58 -76.34)" style="fill:#ffa412"/><path d="M112,155.32v1.28a.4.4,0,0,1-.11.27.67.67,0,0,1-.31.18l-.12,0H83.88a.85.85,0,0,1-.31-.06.52.52,0,0,1-.36-.39v-1.35a.61.61,0,0,1,.66-.47h27.61l.12,0a.67.67,0,0,1,.31.18.41.41,0,0,1,.11.28Z" transform="translate(-43.58 -76.34)" style="fill:#ffb93e"/><path d="M98.54,157.09H83.81a.69.69,0,0,1-.27-.06.5.5,0,0,1-.32-.39v-1.35a.56.56,0,0,1,.59-.47H96.73A4,4,0,0,0,98.45,157Z" transform="translate(-43.58 -76.34)" style="fill:#ffa412"/><polygon points="64.8 80.75 65.11 80.75 65.11 78.48 64.8 78.48 64.8 80.75" style="fill:#ffa412"/><polygon points="63.74 80.75 64.05 80.75 64.05 78.48 63.74 78.48 63.74 80.75" style="fill:#ffa412"/><polygon points="62.47 80.75 62.78 80.75 62.78 78.48 62.47 78.48 62.47 80.75" style="fill:#ffa412"/><polygon points="60.52 80.75 60.84 80.75 60.84 78.48 60.52 78.48 60.52 80.75" style="fill:#ffa412"/><polygon points="58.47 80.75 58.78 80.75 58.78 78.48 58.47 78.48 58.47 80.75" style="fill:#ffa412"/><polygon points="55.32 80.75 55.63 80.75 55.63 78.48 55.32 78.48 55.32 80.75" style="fill:#ffa412"/><polygon points="52.37 80.75 52.68 80.75 52.68 78.48 52.37 78.48 52.37 80.75" style="fill:#ffa412"/><polygon points="49.73 80.75 50.04 80.75 50.04 78.48 49.73 78.48 49.73 80.75" style="fill:#ffa412"/><polygon points="65.8 80.75 66.11 80.75 66.11 78.48 65.8 78.48 65.8 80.75" style="fill:#ffa412"/><polygon points="66.47 80.75 66.78 80.75 66.78 78.48 66.47 78.48 66.47 80.75" style="fill:#ffa412"/><polygon points="67.11 80.75 67.42 80.75 67.42 78.48 67.11 78.48 67.11 80.75" style="fill:#ffa412"/><path d="M111.49,154.83v2.25h-.31v-2.26h.31Z" transform="translate(-43.58 -76.34)" style="fill:#ffa412"/><path d="M111.92,155v1.83a.67.67,0,0,1-.31.18v-2.2A.67.67,0,0,1,111.92,155Z" transform="translate(-43.58 -76.34)" style="fill:#ffa412"/><path d="M114.28,153.05v1.28a.41.41,0,0,1-.11.27.67.67,0,0,1-.31.18l-.12,0H86.13a.61.61,0,0,1-.66-.47V153a.59.59,0,0,1,.59-.46h27.69l.12,0a.67.67,0,0,1,.31.18A.4.4,0,0,1,114.28,153.05Z" transform="translate(-43.58 -76.34)" style="fill:#ffb93e"/><path d="M100.78,154.83H86.05a.56.56,0,0,1-.59-.47V153a.54.54,0,0,1,.52-.46H99A4,4,0,0,0,100.78,154.83Z" transform="translate(-43.58 -76.34)" style="fill:#ffa412"/><polygon points="67.04 78.48 67.35 78.48 67.35 76.22 67.04 76.22 67.04 78.48" style="fill:#ffa412"/><polygon points="65.98 78.48 66.3 78.48 66.3 76.22 65.98 76.22 65.98 78.48" style="fill:#ffa412"/><polygon points="64.72 78.48 65.03 78.48 65.03 76.22 64.72 76.22 64.72 78.48" style="fill:#ffa412"/><polygon points="62.77 78.48 63.08 78.48 63.08 76.22 62.77 76.22 62.77 78.48" style="fill:#ffa412"/><polygon points="60.72 78.48 61.03 78.48 61.03 76.22 60.72 76.22 60.72 78.48" style="fill:#ffa412"/><polygon points="57.56 78.48 57.88 78.48 57.88 76.22 57.56 76.22 57.56 78.48" style="fill:#ffa412"/><polygon points="54.61 78.48 54.93 78.48 54.93 76.22 54.61 76.22 54.61 78.48" style="fill:#ffa412"/><polygon points="51.98 78.48 52.29 78.48 52.29 76.22 51.98 76.22 51.98 78.48" style="fill:#ffa412"/><polygon points="68.05 78.48 68.36 78.48 68.36 76.22 68.05 76.22 68.05 78.48" style="fill:#ffa412"/><polygon points="68.71 78.48 69.03 78.48 69.03 76.22 68.71 76.22 68.71 78.48" style="fill:#ffa412"/><polygon points="69.36 78.48 69.67 78.48 69.67 76.22 69.36 76.22 69.36 78.48" style="fill:#ffa412"/><path d="M113.74,152.57v2.25h-.31v-2.26h.31Z" transform="translate(-43.58 -76.34)" style="fill:#ffa412"/><path d="M114.17,152.78v1.83a.67.67,0,0,1-.31.18v-2.2A.68.68,0,0,1,114.17,152.78Z" transform="translate(-43.58 -76.34)" style="fill:#ffa412"/><path d="M110.67,150.79v1.28a.41.41,0,0,1-.11.27.67.67,0,0,1-.31.18l-.12,0H82.52a.61.61,0,0,1-.66-.47v-1.33a.61.61,0,0,1,.66-.47h27.61l.12,0,.06,0h0l0,0h0l0,0,.07,0h0l0,0,0,0a.41.41,0,0,1,.11.28Z" transform="translate(-43.58 -76.34)" style="fill:#ffb93e"/><path d="M97.17,152.56H82.45a.56.56,0,0,1-.59-.47v-1.33a.56.56,0,0,1,.59-.47H95.37l0,.05a4,4,0,0,0,1.79,2.21h0Z" transform="translate(-43.58 -76.34)" style="fill:#ffa412"/><polygon points="63.43 76.22 63.74 76.22 63.74 73.96 63.43 73.96 63.43 76.22" style="fill:#ffa412"/><polygon points="62.38 76.22 62.69 76.22 62.69 73.96 62.38 73.96 62.38 76.22" style="fill:#ffa412"/><polygon points="61.11 76.22 61.42 76.22 61.42 73.96 61.11 73.96 61.11 76.22" style="fill:#ffa412"/><polygon points="59.16 76.22 59.47 76.22 59.47 73.96 59.16 73.96 59.16 76.22" style="fill:#ffa412"/><polygon points="57.11 76.22 57.42 76.22 57.42 73.96 57.11 73.96 57.11 76.22" style="fill:#ffa412"/><polygon points="53.95 76.22 54.27 76.22 54.27 73.96 53.95 73.96 53.95 76.22" style="fill:#ffa412"/><polygon points="51 76.22 51.32 76.22 51.32 73.96 51 73.96 51 76.22" style="fill:#ffa412"/><polygon points="48.37 76.22 48.68 76.22 48.68 73.96 48.37 73.96 48.37 76.22" style="fill:#ffa412"/><polygon points="64.44 76.22 64.75 76.22 64.75 73.96 64.44 73.96 64.44 76.22" style="fill:#ffa412"/><polygon points="65.1 76.22 65.42 76.22 65.42 73.96 65.1 73.96 65.1 76.22" style="fill:#ffa412"/><polygon points="65.75 76.22 66.06 76.22 66.06 73.96 65.75 73.96 65.75 76.22" style="fill:#ffa412"/><path d="M110.13,150.31v2.25h-.31V150.3h.31Z" transform="translate(-43.58 -76.34)" style="fill:#ffa412"/><path d="M110.56,150.52v1.83a.67.67,0,0,1-.31.18v-2.2a.68.68,0,0,1,.31.18Z" transform="translate(-43.58 -76.34)" style="fill:#ffa412"/><path d="M112.7,148.58v1.28a.41.41,0,0,1-.11.27.68.68,0,0,1-.31.19l-.12,0H84.54a.85.85,0,0,1-.3-.05.52.52,0,0,1-.37-.39v-1.35a.59.59,0,0,1,.59-.46h27.69l.12,0a.68.68,0,0,1,.31.18A.41.41,0,0,1,112.7,148.58Z" transform="translate(-43.58 -76.34)" style="fill:#ffb93e"/><path d="M99.2,150.35H84.47a.69.69,0,0,1-.27-.05.51.51,0,0,1-.33-.39v-1.35a.55.55,0,0,1,.52-.46h13a4,4,0,0,0,1.72,2.21l.08.05Z" transform="translate(-43.58 -76.34)" style="fill:#ffa412"/><polygon points="65.45 74.01 65.77 74.01 65.77 71.75 65.45 71.75 65.45 74.01" style="fill:#ffa412"/><polygon points="64.4 74.01 64.71 74.01 64.71 71.75 64.4 71.75 64.4 74.01" style="fill:#ffa412"/><polygon points="63.13 74.01 63.44 74.01 63.44 71.75 63.13 71.75 63.13 74.01" style="fill:#ffa412"/><polygon points="61.18 74.01 61.49 74.01 61.49 71.75 61.18 71.75 61.18 74.01" style="fill:#ffa412"/><polygon points="59.13 74.01 59.44 74.01 59.44 71.75 59.13 71.75 59.13 74.01" style="fill:#ffa412"/><polygon points="55.98 74.01 56.29 74.01 56.29 71.75 55.98 71.75 55.98 74.01" style="fill:#ffa412"/><polygon points="53.02 74.01 53.34 74.01 53.34 71.75 53.02 71.75 53.02 74.01" style="fill:#ffa412"/><polygon points="50.39 74.01 50.7 74.01 50.7 71.75 50.39 71.75 50.39 74.01" style="fill:#ffa412"/><polygon points="66.46 74.01 66.77 74.01 66.77 71.75 66.46 71.75 66.46 74.01" style="fill:#ffa412"/><polygon points="67.13 74.01 67.44 74.01 67.44 71.75 67.13 71.75 67.13 74.01" style="fill:#ffa412"/><polygon points="67.77 74.01 68.08 74.01 68.08 71.75 67.77 71.75 67.77 74.01" style="fill:#ffa412"/><path d="M112.15,148.1v2.25h-.31v-2.26h.31Z" transform="translate(-43.58 -76.34)" style="fill:#ffa412"/><path d="M112.58,148.31v1.83a.67.67,0,0,1-.31.18v-2.2A.68.68,0,0,1,112.58,148.31Z" transform="translate(-43.58 -76.34)" style="fill:#ffa412"/><path d="M113.56,146.32v1.28a.41.41,0,0,1-.11.27.67.67,0,0,1-.31.18l-.12,0H85.4a.61.61,0,0,1-.66-.47V146.3a.61.61,0,0,1,.66-.47H113l.12,0a.67.67,0,0,1,.31.18A.4.4,0,0,1,113.56,146.32Z" transform="translate(-43.58 -76.34)" style="fill:#ffb93e"/><path d="M100.06,148.09H85.33a.56.56,0,0,1-.59-.47V146.3a.56.56,0,0,1,.59-.47H98.25a4,4,0,0,0,1.8,2.26Z" transform="translate(-43.58 -76.34)" style="fill:#ffa412"/><polygon points="66.31 71.75 66.63 71.75 66.63 69.49 66.31 69.49 66.31 71.75" style="fill:#ffa412"/><polygon points="65.26 71.75 65.57 71.75 65.57 69.49 65.26 69.49 65.26 71.75" style="fill:#ffa412"/><polygon points="63.99 71.75 64.3 71.75 64.3 69.49 63.99 69.49 63.99 71.75" style="fill:#ffa412"/><polygon points="62.04 71.75 62.36 71.75 62.36 69.49 62.04 69.49 62.04 71.75" style="fill:#ffa412"/><polygon points="59.99 71.75 60.3 71.75 60.3 69.49 59.99 69.49 59.99 71.75" style="fill:#ffa412"/><polygon points="56.84 71.75 57.15 71.75 57.15 69.49 56.84 69.49 56.84 71.75" style="fill:#ffa412"/><polygon points="53.88 71.75 54.2 71.75 54.2 69.49 53.88 69.49 53.88 71.75" style="fill:#ffa412"/><polygon points="51.25 71.75 51.56 71.75 51.56 69.49 51.25 69.49 51.25 71.75" style="fill:#ffa412"/><polygon points="67.32 71.75 67.63 71.75 67.63 69.49 67.32 69.49 67.32 71.75" style="fill:#ffa412"/><polygon points="67.99 71.75 68.3 71.75 68.3 69.49 67.99 69.49 67.99 71.75" style="fill:#ffa412"/><polygon points="68.63 71.75 68.94 71.75 68.94 69.49 68.63 69.49 68.63 71.75" style="fill:#ffa412"/><path d="M113,145.84v2.25h-.31v-2.26H113Z" transform="translate(-43.58 -76.34)" style="fill:#ffa412"/><path d="M113.44,146v1.83a.67.67,0,0,1-.31.18v-2.2A.68.68,0,0,1,113.44,146Z" transform="translate(-43.58 -76.34)" style="fill:#ffa412"/><path d="M70.07,159c0-6.36,5.85-11.53,13.07-11.53S96.21,152.66,96.21,159s-5.85,11.53-13.07,11.53S70.07,165.39,70.07,159Z" transform="translate(-43.58 -76.34)" style="fill:#e2810e"/><path d="M68.93,159c0-6.36,5.85-11.53,13.07-11.53S95.07,152.66,95.07,159,89.22,170.55,82,170.55,68.93,165.39,68.93,159Z" transform="translate(-43.58 -76.34)" style="fill:#ffb93e"/><path d="M82,149.28c-6.17,0-11.19,4.43-11.19,9.87S75.83,169,82,169s11.19-4.43,11.19-9.88S88.17,149.28,82,149.28Zm0,20.38a12.67,12.67,0,0,1-8.42-3.08,9.65,9.65,0,0,1,0-14.85,13.06,13.06,0,0,1,16.84,0,9.65,9.65,0,0,1,0,14.85A12.67,12.67,0,0,1,82,169.66Z" transform="translate(-43.58 -76.34)" style="fill:#ffa412"/><path d="M147.82,97.16v71.36a2.19,2.19,0,0,1-2.31,2H105.06a2.19,2.19,0,0,1-2.31-2V97.16a2.19,2.19,0,0,1,2.31-2h40.45A2.19,2.19,0,0,1,147.82,97.16Z" transform="translate(-43.58 -76.34)" style="fill:#555"/><path d="M131.89,98H120.18a.41.41,0,1,1,0-.8h11.71a.41.41,0,1,1,0,.8Z" transform="translate(-43.58 -76.34)" style="fill:#b8d0d6"/><path d="M118.1,98h0a.41.41,0,1,1,0-.8h0a.41.41,0,1,1,0,.8Z" transform="translate(-43.58 -76.34)" style="fill:#b8d0d6"/><path d="M128.78,166.38a2.44,2.44,0,0,1-.85,1.83,3.13,3.13,0,0,1-2.09.77,2.78,2.78,0,0,1-2.94-2.59,2.54,2.54,0,0,1,1.36-2.19,3.22,3.22,0,0,1,1.58-.4,2.78,2.78,0,0,1,2.94,2.59Z" transform="translate(-43.58 -76.34)" style="fill:#798fa1"/><polygon points="61.87 86.17 101.83 86.17 101.83 23.43 61.87 23.43 61.87 86.17" style="fill:#6e808b"/><path d="M127.93,168.21a3.13,3.13,0,0,1-2.09.77,2.78,2.78,0,0,1-2.94-2.59,2.54,2.54,0,0,1,1.36-2.19,6,6,0,0,0,3.66,4Z" transform="translate(-43.58 -76.34)" style="fill:#6e808b"/><path d="M99.08,137s-1,1.23-1.9,1.25a7.3,7.3,0,0,1-2.29-.57s-.83-1.64-.27-2.28a1.35,1.35,0,0,1,1.16.17,1.71,1.71,0,0,1,.31.26,1,1,0,0,0,.48.28c.65.17,1.42-.23,1.7.16a2.82,2.82,0,0,0,.5.52,2.35,2.35,0,0,0,.31.21Z" transform="translate(-43.58 -76.34)" style="fill:#ffeddc"/><path d="M86.17,145.83s3.5-7.48,9.8-7.62c0,0,5.81.57,6.14,7.62Z" transform="translate(-43.58 -76.34)" style="fill:#ffeddc"/><path d="M94.24,138.44a10.53,10.53,0,0,0,3.3.2s.12-.93-.95-.8a2.45,2.45,0,0,1-1.48-.34C94.73,137.32,94.14,138,94.24,138.44Z" transform="translate(-43.58 -76.34)" style="fill:#db6a1d"/><path d="M96.44,137c-.16.11-.66-1.51-.66-1.51a1.71,1.71,0,0,1,.31.26,1,1,0,0,0,.48.28S96.6,136.93,96.44,137Z" transform="translate(-43.58 -76.34)" style="fill:#e5c1a1"/><path d="M98.77,136.75a11,11,0,0,1-1.36.63c-.16,0,.86-1.16.86-1.16A2.82,2.82,0,0,0,98.77,136.75Z" transform="translate(-43.58 -76.34)" style="fill:#e5c1a1"/><path d="M89.59,143.74c-.06,0,2.48-3.3,3.18-3.32s2.27.71,3.41.81,2.24-.19,2.46.4.81,2.7.44,3-8.09.13-9.49-.92Z" transform="translate(-43.58 -76.34)" style="fill:#f9ddbf"/><path d="M160.2,84.43A1.54,1.54,0,0,0,158.58,83H140a1.78,1.78,0,0,0-1.88,1.65v3.4a1.82,1.82,0,0,0,.55,1.29l-.55,2.22L141.35,90h17.13a1.63,1.63,0,0,0,1.72-1.51V84.43Z" transform="translate(-43.58 -76.34)" style="fill:#fdfdfa"/><polygon points="98.06 8.73 98.53 9.56 99.56 9.69 98.81 10.34 98.99 11.25 98.06 10.82 97.13 11.25 97.31 10.34 96.56 9.69 97.6 9.56 98.06 8.73" style="fill:#ffb93e"/><polygon points="101.97 8.73 102.44 9.56 103.47 9.69 102.72 10.34 102.9 11.25 101.97 10.82 101.05 11.25 101.22 10.34 100.47 9.69 101.51 9.56 101.97 8.73" style="fill:#ffb93e"/><polygon points="105.89 8.73 106.35 9.56 107.39 9.69 106.64 10.34 106.81 11.25 105.89 10.82 104.96 11.25 105.14 10.34 104.39 9.69 105.42 9.56 105.89 8.73" style="fill:#ffb93e"/><polygon points="109.8 8.73 110.26 9.56 111.3 9.69 110.55 10.34 110.73 11.25 109.8 10.82 108.87 11.25 109.05 10.34 108.3 9.69 109.34 9.56 109.8 8.73" style="fill:#ffb93e"/><polygon points="113.71 8.73 114.18 9.56 115.21 9.69 114.46 10.34 114.64 11.25 113.71 10.82 112.78 11.25 112.96 10.34 112.21 9.69 113.25 9.56 113.71 8.73" style="fill:#ffb93e"/><polygon points="61.87 47.14 101.75 47.14 101.75 23.43 61.87 23.43 61.87 47.14" style="fill:#b8d0d6"/><path d="M111.68,104.14a.84.84,0,0,0-.88.78v13.8a.84.84,0,0,0,.88.78h27.51a.84.84,0,0,0,.88-.78v-13.8a.84.84,0,0,0-.88-.78Zm27.51,15.54H111.68a1,1,0,0,1-1.09-1v-13.8a1,1,0,0,1,1.09-1h27.51a1,1,0,0,1,1.09,1v13.8A1,1,0,0,1,139.19,119.68Z" transform="translate(-43.58 -76.34)" style="fill:#ebf3fa"/><path d="M119.93,116.51l-6.34,0a.46.46,0,0,1-.49-.43v-.05a.46.46,0,0,1,.48-.43l6.34,0a.46.46,0,0,1,.49.43v.05A.46.46,0,0,1,119.93,116.51Z" transform="translate(-43.58 -76.34)" style="fill:#fff"/><path d="M128.29,116.45l-6.34,0a.46.46,0,0,1-.49-.43V116a.46.46,0,0,1,.48-.43l6.34,0a.46.46,0,0,1,.49.43V116a.46.46,0,0,1-.48.43Z" transform="translate(-43.58 -76.34)" style="fill:#fff"/><path d="M113.94,111a.92.92,0,0,0-.05-.32.26.26,0,0,0-.25-.19.26.26,0,0,0-.25.2.88.88,0,0,0,0,.32q0,.52.31.52a.26.26,0,0,0,.25-.2A.92.92,0,0,0,113.94,111Zm.29,0a.94.94,0,0,1-.12.5.57.57,0,0,1-.94,0,1.1,1.1,0,0,1,0-1,.58.58,0,0,1,.94,0A1,1,0,0,1,114.23,111Z" transform="translate(-43.58 -76.34)" style="fill:#fff"/><path d="M115.25,110.94a.92.92,0,0,0-.05-.32.26.26,0,0,0-.25-.19.26.26,0,0,0-.25.2.9.9,0,0,0,0,.32q0,.52.31.52a.26.26,0,0,0,.25-.2A.92.92,0,0,0,115.25,110.94Zm.29,0a.94.94,0,0,1-.12.5.57.57,0,0,1-.94,0,1.11,1.11,0,0,1,0-1,.58.58,0,0,1,.94,0A.94.94,0,0,1,115.54,110.94Z" transform="translate(-43.58 -76.34)" style="fill:#fff"/><path d="M116.55,110.93a.92.92,0,0,0-.05-.32.26.26,0,0,0-.25-.19.26.26,0,0,0-.25.2.9.9,0,0,0,0,.32q0,.52.31.52a.26.26,0,0,0,.25-.2A.91.91,0,0,0,116.55,110.93Zm.29,0a.93.93,0,0,1-.12.5.57.57,0,0,1-.94,0,1.11,1.11,0,0,1,0-1,.58.58,0,0,1,.94,0A.94.94,0,0,1,116.84,110.93Z" transform="translate(-43.58 -76.34)" style="fill:#fff"/><path d="M117.85,110.93a.93.93,0,0,0-.05-.32.26.26,0,0,0-.25-.19.26.26,0,0,0-.25.2.88.88,0,0,0,0,.32q0,.52.31.52a.26.26,0,0,0,.25-.2.92.92,0,0,0,0-.32Zm.29,0a.94.94,0,0,1-.12.5.57.57,0,0,1-.94,0,1.1,1.1,0,0,1,0-1,.58.58,0,0,1,.94,0,1,1,0,0,1,.12.5Z" transform="translate(-43.58 -76.34)" style="fill:#fff"/><path d="M119.82,110.91a.92.92,0,0,0-.05-.32.26.26,0,0,0-.5,0,.9.9,0,0,0,0,.32q0,.52.31.52a.26.26,0,0,0,.25-.2.91.91,0,0,0,0-.32Zm.29,0a.93.93,0,0,1-.12.5.57.57,0,0,1-.94,0,1.11,1.11,0,0,1,0-1,.58.58,0,0,1,.94,0A.94.94,0,0,1,120.12,110.91Z" transform="translate(-43.58 -76.34)" style="fill:#fff"/><path d="M121.13,110.9a.93.93,0,0,0-.05-.32.26.26,0,0,0-.5,0,.88.88,0,0,0,0,.32q0,.52.31.52a.26.26,0,0,0,.25-.2.92.92,0,0,0,0-.32Zm.29,0a.94.94,0,0,1-.12.5.57.57,0,0,1-.94,0,1.1,1.1,0,0,1,0-1,.58.58,0,0,1,.94,0A1,1,0,0,1,121.42,110.9Z" transform="translate(-43.58 -76.34)" style="fill:#fff"/><path d="M122.43,110.89a.92.92,0,0,0-.05-.32.26.26,0,0,0-.25-.19.26.26,0,0,0-.25.2.89.89,0,0,0,0,.32c0,.35.1.52.31.52a.26.26,0,0,0,.25-.2A.9.9,0,0,0,122.43,110.89Zm.29,0a.93.93,0,0,1-.12.5.57.57,0,0,1-.94,0,1.11,1.11,0,0,1,0-1,.58.58,0,0,1,.94,0,1,1,0,0,1,.12.5Z" transform="translate(-43.58 -76.34)" style="fill:#fff"/><path d="M123.73,110.88a.92.92,0,0,0-.05-.32.26.26,0,0,0-.25-.19.26.26,0,0,0-.25.2.9.9,0,0,0,0,.32q0,.52.31.52a.26.26,0,0,0,.25-.2.91.91,0,0,0,0-.32Zm.29,0a.94.94,0,0,1-.12.5.57.57,0,0,1-.94,0,1.11,1.11,0,0,1,0-1,.58.58,0,0,1,.94,0,.94.94,0,0,1,.12.5Z" transform="translate(-43.58 -76.34)" style="fill:#fff"/><path d="M125.7,110.87a.92.92,0,0,0-.05-.32.26.26,0,0,0-.25-.19.26.26,0,0,0-.25.2.89.89,0,0,0,0,.32q0,.52.31.52a.26.26,0,0,0,.25-.2A.9.9,0,0,0,125.7,110.87Zm.29,0a.94.94,0,0,1-.12.5.57.57,0,0,1-.94,0,1.11,1.11,0,0,1,0-1,.58.58,0,0,1,.94,0,1,1,0,0,1,.12.5Z" transform="translate(-43.58 -76.34)" style="fill:#fff"/><path d="M127,110.86a.92.92,0,0,0-.05-.32.26.26,0,0,0-.25-.19.26.26,0,0,0-.25.2.9.9,0,0,0,0,.32q0,.52.31.52a.26.26,0,0,0,.25-.2.92.92,0,0,0,0-.32Zm.29,0a.94.94,0,0,1-.12.5.57.57,0,0,1-.94,0,1.11,1.11,0,0,1,0-1,.58.58,0,0,1,.94,0,.94.94,0,0,1,.12.5Z" transform="translate(-43.58 -76.34)" style="fill:#fff"/><path d="M128.31,110.85a.92.92,0,0,0-.05-.32.26.26,0,0,0-.5,0,.9.9,0,0,0,0,.32q0,.52.31.52a.26.26,0,0,0,.25-.2.91.91,0,0,0,0-.32Zm.29,0a.94.94,0,0,1-.12.5.57.57,0,0,1-.94,0,1.11,1.11,0,0,1,0-1,.58.58,0,0,1,.94,0A.94.94,0,0,1,128.6,110.85Z" transform="translate(-43.58 -76.34)" style="fill:#fff"/><path d="M129.61,110.84a.91.91,0,0,0-.05-.32.26.26,0,0,0-.5,0,.88.88,0,0,0,0,.32c0,.35.11.52.31.52a.26.26,0,0,0,.25-.2.92.92,0,0,0,0-.32Zm.29,0a.94.94,0,0,1-.12.5.57.57,0,0,1-.94,0,1.1,1.1,0,0,1,0-1,.58.58,0,0,1,.94,0A1,1,0,0,1,129.9,110.84Z" transform="translate(-43.58 -76.34)" style="fill:#fff"/><path d="M131.59,110.83a.92.92,0,0,0-.05-.32.26.26,0,0,0-.5,0,.9.9,0,0,0,0,.32q0,.52.31.52a.26.26,0,0,0,.25-.2.9.9,0,0,0,0-.32Zm.29,0a.94.94,0,0,1-.12.5.57.57,0,0,1-.94,0,1.1,1.1,0,0,1,0-1,.58.58,0,0,1,.94,0,.94.94,0,0,1,.12.5Z" transform="translate(-43.58 -76.34)" style="fill:#fff"/><path d="M132.89,110.82a.91.91,0,0,0-.05-.32.26.26,0,0,0-.25-.19.26.26,0,0,0-.25.2.89.89,0,0,0,0,.32q0,.52.31.52a.26.26,0,0,0,.25-.2.92.92,0,0,0,0-.32Zm.29,0a.94.94,0,0,1-.12.5.57.57,0,0,1-.94,0,1.1,1.1,0,0,1,0-1,.58.58,0,0,1,.94,0,1,1,0,0,1,.12.5Z" transform="translate(-43.58 -76.34)" style="fill:#fff"/><path d="M134.19,110.81a.93.93,0,0,0-.05-.32.26.26,0,0,0-.25-.19.26.26,0,0,0-.25.2.9.9,0,0,0,0,.32q0,.52.31.52a.26.26,0,0,0,.25-.2A.92.92,0,0,0,134.19,110.81Zm.29,0a.94.94,0,0,1-.12.5.57.57,0,0,1-.94,0,1.11,1.11,0,0,1,0-1,.58.58,0,0,1,.94,0,.94.94,0,0,1,.12.5Z" transform="translate(-43.58 -76.34)" style="fill:#fff"/><path d="M135.49,110.8a.92.92,0,0,0-.05-.32.26.26,0,0,0-.25-.19.26.26,0,0,0-.25.2.9.9,0,0,0,0,.32q0,.52.31.52a.26.26,0,0,0,.25-.2.9.9,0,0,0,0-.32Zm.29,0a.93.93,0,0,1-.12.5.57.57,0,0,1-.94,0,1.11,1.11,0,0,1,0-1,.58.58,0,0,1,.94,0A.94.94,0,0,1,135.78,110.8Z" transform="translate(-43.58 -76.34)" style="fill:#fff"/><path d="M119.71,107.08l-6.21,0a.43.43,0,1,1,0-.86l6.21,0a.43.43,0,1,1,0,.86Z" transform="translate(-43.58 -76.34)" style="fill:#fff"/><path d="M137.48,106.53a.61.61,0,0,0-.17-.41.09.09,0,0,0-.12,0l0,0a.06.06,0,0,0,0,.09.44.44,0,0,1,0,.6.06.06,0,0,0,0,.09l0,0a.09.09,0,0,0,.12,0,.61.61,0,0,0,.16-.41Z" transform="translate(-43.58 -76.34)" style="fill:#fff"/><path d="M137.89,106.52a1,1,0,0,0-.29-.67.09.09,0,0,0-.12,0l0,0a.06.06,0,0,0,0,.1.78.78,0,0,1,0,1.12.06.06,0,0,0,0,.1h0a.09.09,0,0,0,.12,0,1,1,0,0,0,.28-.67Z" transform="translate(-43.58 -76.34)" style="fill:#fff"/><path d="M138.24,106.52a1.24,1.24,0,0,0-.4-.89.09.09,0,0,0-.12,0,.06.06,0,0,0,0,.1,1.08,1.08,0,0,1,0,1.6.06.06,0,0,0,0,.1.09.09,0,0,0,.12,0A1.24,1.24,0,0,0,138.24,106.52Z" transform="translate(-43.58 -76.34)" style="fill:#fff"/><path d="M138.62,106.52a1.56,1.56,0,0,0-.52-1.13.09.09,0,0,0-.12,0l0,0a.06.06,0,0,0,0,.1,1.36,1.36,0,0,1,0,2,.06.06,0,0,0,0,.1l0,0a.09.09,0,0,0,.12,0,1.56,1.56,0,0,0,.5-1.14Z" transform="translate(-43.58 -76.34)" style="fill:#fff"/><path d="M113.54,117.54a.45.45,0,0,0,0-.16.13.13,0,0,0-.12-.09.12.12,0,0,0-.12.09.43.43,0,0,0,0,.16q0,.25.15.25a.12.12,0,0,0,.12-.1.46.46,0,0,0,0-.16Zm.14,0a.45.45,0,0,1-.06.24.28.28,0,0,1-.45,0,.53.53,0,0,1,0-.48.28.28,0,0,1,.46,0,.45.45,0,0,1,.06.24Z" transform="translate(-43.58 -76.34)" style="fill:#fff"/><path d="M114.17,117.54a.46.46,0,0,0,0-.16.13.13,0,0,0-.12-.09.12.12,0,0,0-.12.09.43.43,0,0,0,0,.16c0,.17.05.25.15.25a.12.12,0,0,0,.12-.1.45.45,0,0,0,0-.16Zm.14,0a.45.45,0,0,1-.06.24.28.28,0,0,1-.45,0,.53.53,0,0,1,0-.48.28.28,0,0,1,.46,0A.45.45,0,0,1,114.31,117.54Z" transform="translate(-43.58 -76.34)" style="fill:#fff"/><path d="M114.78,117.22v0l-.32.6a.07.07,0,0,1-.06,0h0a0,0,0,0,1,0,0,.07.07,0,0,1,0,0l.32-.6a.07.07,0,0,1,.06,0h0a0,0,0,0,1,0,0Z" transform="translate(-43.58 -76.34)" style="fill:#fff"/><path d="M115.23,117.53a.45.45,0,0,0,0-.16.13.13,0,0,0-.12-.09.12.12,0,0,0-.12.09.43.43,0,0,0,0,.16c0,.17.05.25.15.25a.12.12,0,0,0,.12-.1A.45.45,0,0,0,115.23,117.53Zm.14,0a.46.46,0,0,1-.06.24.28.28,0,0,1-.45,0,.53.53,0,0,1,0-.48.28.28,0,0,1,.46,0,.47.47,0,0,1,.06.24Z" transform="translate(-43.58 -76.34)" style="fill:#fff"/><path d="M115.85,117.53a.44.44,0,0,0,0-.16.13.13,0,0,0-.12-.09.12.12,0,0,0-.12.09.42.42,0,0,0,0,.16q0,.25.15.25a.12.12,0,0,0,.12-.1A.43.43,0,0,0,115.85,117.53Zm.14,0a.45.45,0,0,1-.06.24.25.25,0,0,1-.23.12.25.25,0,0,1-.23-.12.46.46,0,0,1-.06-.24.46.46,0,0,1,.06-.24.28.28,0,0,1,.46,0,.46.46,0,0,1,.06.24Z" transform="translate(-43.58 -76.34)" style="fill:#fff"/><path d="M116.48,117.52a.44.44,0,0,0,0-.16.13.13,0,0,0-.12-.09.12.12,0,0,0-.12.09.43.43,0,0,0,0,.16q0,.25.15.25a.12.12,0,0,0,.12-.1.45.45,0,0,0,0-.16Zm.14,0a.45.45,0,0,1-.06.24.28.28,0,0,1-.45,0,.53.53,0,0,1,0-.48.28.28,0,0,1,.46,0A.46.46,0,0,1,116.62,117.52Z" transform="translate(-43.58 -76.34)" style="fill:#fff"/><path d="M117.11,117.52a.44.44,0,0,0,0-.16.12.12,0,0,0-.24,0,.42.42,0,0,0,0,.16c0,.17.05.25.15.25a.12.12,0,0,0,.12-.1.43.43,0,0,0,0-.16Zm.14,0a.45.45,0,0,1-.06.24.28.28,0,0,1-.45,0,.45.45,0,0,1-.06-.24.45.45,0,0,1,.05-.24.28.28,0,0,1,.46,0,.45.45,0,0,1,.06.24Z" transform="translate(-43.58 -76.34)" style="fill:#fff"/><polygon points="92.72 50.76 92.72 77.3 91.69 76.88 90.53 77.3 90.05 76.9 88.61 77.3 87.63 77.05 85.91 77.3 84.32 77.05 82.5 77.3 81.28 76.9 79.61 77.3 78.25 77.05 76.71 77.3 75.08 77.05 74.01 77.3 72.84 77.05 71.53 77.3 71.53 50.76 92.72 50.76" style="fill:#b8d0d6"/><path d="M132.52,131H118.35a.22.22,0,1,1,0-.43h14.17a.22.22,0,1,1,0,.43Z" transform="translate(-43.58 -76.34)" style="fill:#6e808b"/><path d="M132.52,132.81H118.35a.22.22,0,1,1,0-.43h14.17a.22.22,0,1,1,0,.43Z" transform="translate(-43.58 -76.34)" style="fill:#6e808b"/><path d="M129.66,134.63h-8.44a.18.18,0,0,1-.19-.17v-.1a.18.18,0,0,1,.19-.17h8.44a.18.18,0,0,1,.19.17v.1A.18.18,0,0,1,129.66,134.63Z" transform="translate(-43.58 -76.34)" style="fill:#6e808b"/><path d="M129.66,136.46h-8.44a.18.18,0,0,1-.19-.17v-.1a.18.18,0,0,1,.19-.17h8.44a.18.18,0,0,1,.19.17v.1A.18.18,0,0,1,129.66,136.46Z" transform="translate(-43.58 -76.34)" style="fill:#6e808b"/><path d="M129.66,138.28h-8.44a.18.18,0,0,1-.19-.17V138a.18.18,0,0,1,.19-.17h8.44a.18.18,0,0,1,.19.17v.1A.18.18,0,0,1,129.66,138.28Z" transform="translate(-43.58 -76.34)" style="fill:#6e808b"/><path d="M125.45,141.69a3.59,3.59,0,1,0,4,3.56A3.83,3.83,0,0,0,125.45,141.69Zm0,7.44a3.91,3.91,0,1,1,4.39-3.88A4.16,4.16,0,0,1,125.45,149.13Z" transform="translate(-43.58 -76.34)" style="fill:#6e808b"/><polygon points="79.31 68.01 81.95 71.04 84.03 66.55 81.56 68.88 79.31 68.01" style="fill:#6e808b"/><path d="M157.62,129.17s.56-1.06.38-1.14-.5-.07-.54.11A5.56,5.56,0,0,0,157.62,129.17Z" transform="translate(-43.58 -76.34)" style="fill:#ffb27d"/><path d="M166.06,116.36s3.31-3.51,5.07-1.27a3.31,3.31,0,0,1,1.78,2.44c.48,2-1,3.53-1.81,3.15-.5-.24-.88.53-.88.53Z" transform="translate(-43.58 -76.34)" style="fill:#233862"/><path d="M161.95,135.05c-2.64-.86-5.17-4.83-5.17-4.83l.83-.51a20,20,0,0,0,3.81,2.61,18.71,18.71,0,0,1,.3-2.05c.86-4.2,2.84-5.45,3.37-5.71l.13-.06v.09c0,.13,0,.38-.05.73-.21,2.6-1,10.46-3.21,9.74Z" transform="translate(-43.58 -76.34)" style="fill:#ffb27d"/><path d="M170.76,114.74s.45-1.57,3.06-1.08c0,0-1.25-.14-1.6.29a2.3,2.3,0,0,1,1.62-.07c.62.34.72,1.47.63,1.81s-.78,1.37-1.23,1.37a2.24,2.24,0,0,1-1-.35l-1.49-2Z" transform="translate(-43.58 -76.34)" style="fill:#233862"/><path d="M174.68,139.35c-1.3-2.58-1.92-3.3-1.95-4.11,0-.64.34-1.33,1-3a5.71,5.71,0,0,0,.35-1.22c.55-3.27-1.59-6.8-2.92-7-.37-.09-1-1.27-1-3.17l-.17,0-2.8.49s.06.78.07,1.51,0,1.19-.2,1.26l-.32,0s-2.34,2.86-2.54,5.53,1.87,3.82,0,9.14,11.17,2,10.45.59Z" transform="translate(-43.58 -76.34)" style="fill:#ffb27d"/><path d="M167.23,121.29s.06.78.07,1.51a3.23,3.23,0,0,0,2.74-2Z" transform="translate(-43.58 -76.34)" style="fill:#e8945b"/><path d="M170.33,120.53a6.9,6.9,0,0,0,1-2.13,2.63,2.63,0,0,0-3.22-2.92,4.38,4.38,0,0,0-1.66.56c-.64.38-1.57,1.21-.53,3.47l.27.76,4.13.26Z" transform="translate(-43.58 -76.34)" style="fill:#233862"/><path d="M166.71,122s3.71.05,3.72-2,.48-3.41-1.89-3.53-2.83.66-3,1.34S165.74,121.92,166.71,122Z" transform="translate(-43.58 -76.34)" style="fill:#ffb27d"/><path d="M166.85,116.42s1,2.39,2.58,2.75a3.44,3.44,0,0,0,2.24,0,3.86,3.86,0,0,1-1.44-2.3S167.61,115.28,166.85,116.42Z" transform="translate(-43.58 -76.34)" style="fill:#233862"/><path d="M167.1,116.62a3,3,0,0,0-.95,1.05c-.18.52-.27,1.59-.62,1.55,0,0-.77-1.63.09-2.55s1.47-.06,1.47-.06Z" transform="translate(-43.58 -76.34)" style="fill:#233862"/><path d="M171.4,164.06a30.06,30.06,0,0,1-2.34,5.79l-1.22-.07a27.05,27.05,0,0,0,.56-5.92A22.15,22.15,0,0,0,167,156c-3.66-9.23-3.07-15.94-3.07-15.94l6.89.71.32,0c0,2.79.11,6.58.18,9.54.06,2.66.12,4.66.12,4.66,1.32,2.52.84,6.07,0,9.08Z" transform="translate(-43.58 -76.34)" style="fill:#1b0d59"/><path d="M179.51,142.08l-1.11.29s-3.68-5.38-4-6.78c-.11-.46-.38-1.37-.69-2.39-.64-2.12-1.48-4.71-1.48-4.71l-.28-1-.94-3.57a14.19,14.19,0,0,1,2.84.55,1.3,1.3,0,0,1,.7.46c.77,1.49,1.54,5.26,2.08,8a27.3,27.3,0,0,0,.65,2.91c.33.69,1.36,4.47,2.23,6.34Z" transform="translate(-43.58 -76.34)" style="fill:#ffb27d"/><path d="M175.35,163.53a13.82,13.82,0,0,1-2.14,6.14l-.58.38s-.55-2.63-.95-5.75c-.37-3-.88-6.11-1.46-7.07-2.3-3.8-3-18.17-3-18.17l7-.31a9.51,9.51,0,0,1,1.08,4.69A59.27,59.27,0,0,1,174,155.66h0a.29.29,0,0,0,0,.21A12.66,12.66,0,0,1,175.35,163.53Z" transform="translate(-43.58 -76.34)" style="fill:#291a6c"/><path d="M167,116.7s.72,2.51,2.69,3.31c0,0-2-1.54-2.14-3.19S167,116.7,167,116.7Z" transform="translate(-43.58 -76.34)" style="fill:#233862"/><path d="M175.56,141.21a1.27,1.27,0,0,1,0,.49c-.15.41-.66.6-1.89.49-.75-.07-1.09-1.18-1.24-2.14q-.68,2-1.91,2.28c-1.2.23-7.23.88-7.62-1.65-.44-2.78.87-7.71.94-10.37a11.62,11.62,0,0,1-.22-2.46,4.66,4.66,0,0,1,1.16-3.38,1.79,1.79,0,0,1,.82-.23l1.22-.16.22,0c-.1.16-1.47,2-1.36,2.46s5,0,5.29-.22a9.34,9.34,0,0,0,.86-2.34,7.4,7.4,0,0,1,2.55.7h0a.68.68,0,0,1,.22.2c.9,1.5,1.79,5.3,2.42,8a5,5,0,0,1-3.27.42c.54,3.12,1.77,6.47,1.85,7.89Z" transform="translate(-43.58 -76.34)" style="fill:#f33e53"/><path d="M157.61,129.71c0-.1.1-1.56-.2-1.87a2.73,2.73,0,0,0-1.09-.73,1.57,1.57,0,0,0-.71,1.55,5.5,5.5,0,0,0,1.16,1.57l.83-.51Z" transform="translate(-43.58 -76.34)" style="fill:#ffb27d"/><path d="M159,127.92l-1.72.45a.11.11,0,0,1-.13-.06l-1-2.89a.09.09,0,0,1,.07-.12l1.72-.45a.11.11,0,0,1,.13.06l1,2.89a.09.09,0,0,1-.07.12Z" transform="translate(-43.58 -76.34)" style="fill:#f33e53"/><path d="M158.51,128l-1.56.41a.2.2,0,0,1-.24-.11l-.93-2.75a.17.17,0,0,1,.13-.21l1.56-.41a.2.2,0,0,1,.24.11l.93,2.75A.17.17,0,0,1,158.51,128Z" transform="translate(-43.58 -76.34)" style="fill:#bd1e31"/><path d="M175.35,163.53a13.82,13.82,0,0,1-2.14,6.14l-.6.48s-.54-2.73-.93-5.85a7,7,0,0,0,3.67-.76Z" transform="translate(-43.58 -76.34)" style="fill:#ffb27d"/><path d="M171.4,164.06a30.06,30.06,0,0,1-2.34,5.79l-1.22-.07a27.05,27.05,0,0,0,.56-5.92,6.27,6.27,0,0,0,3,.21Z" transform="translate(-43.58 -76.34)" style="fill:#d9935c"/><path d="M169.76,170.75H169c-.26,0-.45-.1-.72-.13a.79.79,0,0,0-.63.13H164.3c-.08-.11,0-.35.08-.53a.46.46,0,0,1,.31-.25,3.83,3.83,0,0,0,1.68-.68c.36-.28,1.73-1,1.73-1h0s.17,0,.79.5c.32.24.87-.34.87-.34a.7.7,0,0,1,.18.22.65.65,0,0,1,.07.45,2.62,2.62,0,0,0,.24,1.09c.08.2.14.34.14.34s0,.17-.63.24Z" transform="translate(-43.58 -76.34)" style="fill:#1b0d59"/><path d="M169.94,168.63a2.63,2.63,0,0,1-.84.37c-.35,0-1-.75-1-.75h0s.17,0,.79.5c.32.24.87-.34.87-.34A.7.7,0,0,1,169.94,168.63Z" transform="translate(-43.58 -76.34)" style="fill:#291a6c"/><path d="M169.76,170.75H169c-.26,0-.45-.1-.72-.13a.79.79,0,0,0-.63.13H164.3c-.08-.11,0-.35.08-.53s.13.34.18.41a16.74,16.74,0,0,0,2.86-.07,1.79,1.79,0,0,1,1.25-.13,3.37,3.37,0,0,0,1.58-.26c.08.2.14.34.14.34s0,.17-.63.24Z" transform="translate(-43.58 -76.34)" style="fill:#291a6c"/><path d="M173.93,170.75h-.78c-.26,0-.45-.1-.72-.13a.79.79,0,0,0-.63.13h-3.33c-.08-.11,0-.35.08-.53a.46.46,0,0,1,.31-.25,3.84,3.84,0,0,0,1.68-.68c.36-.28,1.73-1,1.73-1h0s.17,0,.79.5c.32.24.87-.34.87-.34a.73.73,0,0,1,.18.22.65.65,0,0,1,.07.45,2.59,2.59,0,0,0,.24,1.09c.08.2.14.34.14.34s0,.17-.63.24Z" transform="translate(-43.58 -76.34)" style="fill:#1b0d59"/><path d="M174.11,168.63a2.64,2.64,0,0,1-.84.37c-.35,0-1-.75-1-.75h0s.17,0,.79.5c.32.24.87-.34.87-.34A.73.73,0,0,1,174.11,168.63Z" transform="translate(-43.58 -76.34)" style="fill:#291a6c"/><path d="M173.93,170.75h-.78c-.26,0-.45-.1-.72-.13a.79.79,0,0,0-.63.13h-3.33c-.08-.11,0-.35.08-.53s.13.34.18.41a16.76,16.76,0,0,0,2.86-.07,1.78,1.78,0,0,1,1.25-.13,3.37,3.37,0,0,0,1.58-.26c.08.2.14.34.14.34s0,.17-.63.24Z" transform="translate(-43.58 -76.34)" style="fill:#291a6c"/><path d="M175.56,141.21a7.17,7.17,0,0,1-3.17-2.35,6.41,6.41,0,0,1,.13-8.47c.41-.08,1.2,2.93,1.2,2.93C174.25,136.44,175.48,139.79,175.56,141.21Z" transform="translate(-43.58 -76.34)" style="fill:#bd1e31"/><path d="M164.94,124.39s-2.31,1-3.09,5.18a4,4,0,0,0,1.83,1.19,2.39,2.39,0,0,0,.47.07c1.31.06.79-6.43.79-6.43Z" transform="translate(-43.58 -76.34)" style="fill:#f33e53"/><path d="M156.14,127.22s.72-1,.89-.92-.65,1.31-.65,1.31.67-.92.77-.85-.14.74-.51,1.18c0,0,.67-.54.69-.44.08.34-.73,1.17-.73,1.17l-.45-.91Z" transform="translate(-43.58 -76.34)" style="fill:#ffb27d"/><path d="M155.61,128.12a20.15,20.15,0,0,1,.28-2.22c.07.22.25,1.44.25,1.44l-.54.78Z" transform="translate(-43.58 -76.34)" style="fill:#ffb27d"/><path d="M167.44,120.77s-.06.24-.74.2c0,0-.57,0-.55-.3A2.06,2.06,0,0,1,167.44,120.77Z" transform="translate(-43.58 -76.34)" style="fill:#fff"/><path d="M153,119.8a2.52,2.52,0,1,1,2.5,2.21A2.37,2.37,0,0,1,153,119.8Z" transform="translate(-43.58 -76.34)" style="fill:#fdfdfa"/><path d="M160,109.3a3.65,3.65,0,1,1,3.62,3.19A3.43,3.43,0,0,1,160,109.3Z" transform="translate(-43.58 -76.34)" style="fill:#fdfdfa"/><path d="M163.9,94.38c0-3.28,3-5.93,6.73-5.93s6.73,2.66,6.73,5.93-3,5.93-6.73,5.93S163.9,97.66,163.9,94.38Z" transform="translate(-43.58 -76.34)" style="fill:#fdfdfa"/><g id="_2156941229088" data-name=" 2156941229088"><path d="M92.3,122.43a2,2,0,1,1,2,1.87A1.93,1.93,0,0,1,92.3,122.43Z" transform="translate(-43.58 -76.34)" style="fill:#b8d0d6"/><path d="M93.46,122h.05v-.08h.27V122h.05v1.13h-.38Zm.84-.58.84.41H93.42Zm.8.58v1.13h-.35V122h.05v-.08h.24V122ZM94,122H94v-.08h.56V122h.05v1.13H94Zm1.53,1.19v0h0v0h-.24V122h.05v-.08h.24l-1.22-.61-1.27.61h.24V122h.05v1.13h-.22v0h0v0h0v0h2.48v0Z" transform="translate(-43.58 -76.34)" style="fill:#6e808b"/><path d="M94.36,121.64h0a0,0,0,0,1,0,0h0v0h0v0h0v0h0v.08h0v0h0a.07.07,0,0,0,0,0v0h0v0h0v0h0v-.08Z" transform="translate(-43.58 -76.34)" style="fill:#6e808b"/></g><path d="M87.49,125.28a3.07,3.07,0,0,1-1.27,1.62,2,2,0,0,0-.82.52l-.46-.24-.55-.28,0-.14c0-.09.07-.21.12-.35a.43.43,0,0,0,.07-.43.91.91,0,0,1,.09-.85c.18-.23.35-.79.46-.77.26,0-.13.81,0,1a.21.21,0,0,0,.25.08h0c.73-.28,1.61-1.8,2-1.6a2.73,2.73,0,0,1,.08,1.49Z" transform="translate(-43.58 -76.34)" style="fill:#ffb27d"/><path d="M85,126.2l.91.57a.16.16,0,0,0,.2,0l2.34-2.93a.12.12,0,0,0,0-.18l-.91-.57a.16.16,0,0,0-.2,0L84.94,126a.12.12,0,0,0,0,.18Z" transform="translate(-43.58 -76.34)" style="fill:#291a6c"/><path d="M85.81,126.72l.53.33a.12.12,0,0,0,.15,0l2.38-3a.09.09,0,0,0,0-.13l-.53-.33a.12.12,0,0,0-.15,0l-2.38,3a.09.09,0,0,0,0,.13Z" transform="translate(-43.58 -76.34)" style="fill:#1b0d59"/><path d="M71.89,122s4.64,7.14,6.32,8.45l6.17-4.06a2.21,2.21,0,0,1,1.29,1s-3.75,6.74-7.44,7-8.87-8.07-8.87-8.07Z" transform="translate(-43.58 -76.34)" style="fill:#1b0d59"/><path d="M61.4,170.55H58.71a1.43,1.43,0,0,1-.73-1.08c-.13-.76-1.1-1.18-1.31-1.8s.86-1.5.86-1.5l.18-.2.19-.21,1.78.37s0,.37.07.85a9.68,9.68,0,0,1,0,1.09,1.64,1.64,0,0,0,1.1,1.89C61.48,170.06,61.45,170.39,61.4,170.55Z" transform="translate(-43.58 -76.34)" style="fill:#bd1e31"/><path d="M77,170.55H70.82c-.29-.32-.19-1.49-.14-1.87l0-.12s2.09-1.48,2.38-.35l0,.1c.36,1.06,2,1.54,2.93,1.67A1.06,1.06,0,0,1,77,170.55Z" transform="translate(-43.58 -76.34)" style="fill:#bd1e31"/><path d="M75.79,140.36s-.32,3.5-.69,7.7c-.51,5.71-1.12,12.73-1.18,14.06-.1,2.31-.52,6-.52,6a3.6,3.6,0,0,1-3,.51,54.17,54.17,0,0,1-2.28-10.85l0-.28c-.47-5.68-1.2-17.63-1.2-17.63Z" transform="translate(-43.58 -76.34)" style="fill:#f33e53"/><path d="M75.79,140.36s-.32,3.5-.69,7.7l-7,9.72,0-.28c-.47-5.68-1.2-17.63-1.2-17.63Z" transform="translate(-43.58 -76.34)" style="fill:#bd1e31"/><path d="M74.33,140.78s-5.73,12.67-9.5,18.63S59.89,167,59.89,167s-2.16-.76-2.35-1.28c0,0,1.44-11.5,4-14.3,1.43-1.58,3.1-6.34,3.18-8s.51-5,.51-5l9.14,2.29Z" transform="translate(-43.58 -76.34)" style="fill:#f33e53"/><path d="M72.91,122.3c-2.24.62-6.11-1.06-6.11-1.06a5,5,0,0,0,2-4.21l1.73,1.23,1.18.84a11,11,0,0,1-.13,1.36c0,.23-.08.48-.13.76A5.23,5.23,0,0,1,72.91,122.3Z" transform="translate(-43.58 -76.34)" style="fill:#ffb27d"/><path d="M71.66,119.1a11,11,0,0,1-.13,1.36c-1.3-.2-2.78-2.06-2.78-2.06a4.68,4.68,0,0,1,1.74-.14l1.18.84Z" transform="translate(-43.58 -76.34)" style="fill:#ed975d"/><path d="M72.34,119.06s-3.7.54-4-1.49-1.06-3.34,1.29-3.77,2.94.28,3.24.94.47,4.13-.49,4.33Z" transform="translate(-43.58 -76.34)" style="fill:#ffb27d"/><path d="M76,140.65a.39.39,0,0,1-.24.08,41.28,41.28,0,0,1-5.37.21,17.07,17.07,0,0,1-5-1.26c-.22-.09-.73-.33-.72-.54s0-.58.07-1a48.14,48.14,0,0,0,.12-7.12q-.05-.84-.06-1.66c0-4.07.9-7.65,2.74-8.86a6.38,6.38,0,0,1,2,.7,4.11,4.11,0,0,0,2.41.26l.77.6a6.78,6.78,0,0,1,2.42,3.41,34,34,0,0,1,.73,6.33c.06,1.15.1,2.3.11,3.4v0c0,.11,0,.23,0,.34,0,2.82,0,5.05-.06,5.09Z" transform="translate(-43.58 -76.34)" style="fill:#291a6c"/><path d="M64.82,138.12a48.14,48.14,0,0,0,.12-7.12q-.05-.84-.06-1.66c.77-1.64,1.39-2.83,1.39-2.83h1.93s1.42,8.53-3.39,11.61Z" transform="translate(-43.58 -76.34)" style="fill:#1b0d59"/><path d="M54.93,147.78l8.23,1a2,2,0,0,0,2.23-1.47l.51-3.15a1.79,1.79,0,0,0-1.67-2l-8.23-1a2,2,0,0,0-2.23,1.47l-.51,3.15a1.79,1.79,0,0,0,1.67,2Z" transform="translate(-43.58 -76.34)" style="fill:#1b0d59"/><path d="M58.26,140.78a.23.23,0,0,1,.2-.18h.07l.37,0,1.35.17.74.09a.22.22,0,0,1,.21.24l-.11.68-2.94-.37.11-.68Zm6.43,2.39h0a1.92,1.92,0,0,0-1.36-1.05h0l-.19,0-1.64-.21.11-.68a.52.52,0,0,0-.12-.43.67.67,0,0,0-.43-.22l-.43-.05-1.72-.22-.31,0a.64.64,0,0,0-.74.49l-.11.68-2.83-.36a2,2,0,0,0-2.23,1.48l-.51,3.18a1.8,1.8,0,0,0,1.68,2l8.22,1a2.22,2.22,0,0,0,.43,0h0a2.16,2.16,0,0,0,.64-.14,1.8,1.8,0,0,0,1.16-1.35l.51-3.18a1.54,1.54,0,0,0-.12-.89Z" transform="translate(-43.58 -76.34)" style="fill:#291a6c"/><path d="M61.19,138.41a2.46,2.46,0,0,0-.45.71c-.12,1.38.6,1.57-1.25,2.33,0,0-.79.26-.8-.27s.55-.55.44-1.3-.11-.88.54-1.33l.43-.63,1.08.5Z" transform="translate(-43.58 -76.34)" style="fill:#ffb27d"/><path d="M60.09,138.8a7.17,7.17,0,0,0,1.45.07s2.06-5.62,2.33-6.14S70,126.14,70,126.14l-2.44-5.39s-6.34,9.35-7,10.66c-1.06,2.17-1.43,7-1.43,7A2.83,2.83,0,0,0,60.09,138.8Z" transform="translate(-43.58 -76.34)" style="fill:#291a6c"/><path d="M68.29,117.37a.41.41,0,0,0,.32-.52c-.06-.46-.06-1.06.36-1s.45.41.62.24a1.4,1.4,0,0,1,1.44-1c1.26-.05,1.78.34,2.37.11s.62-1,.62-1a1,1,0,0,1-.42.37s1-1.18-.15-2-2.29-.28-3-.25c-1.45.08-2.38.15-2.86,1A4.16,4.16,0,0,0,68.29,117.37Z" transform="translate(-43.58 -76.34)" style="fill:#291a6c"/><path d="M60.51,139s.42.38.44.54c.08.51.28.73.18.79s-.47-.26-.6-.6A1.37,1.37,0,0,1,60.51,139Z" transform="translate(-43.58 -76.34)" style="fill:#ffb27d"/><path d="M179.51,142.08a8.07,8.07,0,0,1,1.55,1.12c.2.33.68,1.56.68,1.56s-.34,0-.68-.48-1.47-.48-1.85-.77a4.46,4.46,0,0,1-.81-1.13Z" transform="translate(-43.58 -76.34)" style="fill:#ffb27d"/><path d="M178.54,142.64a3.65,3.65,0,0,0,.5,1.2c.27.27.65.73.8.6s-.17-1.13-.17-1.13l-1.13-.67Z" transform="translate(-43.58 -76.34)" style="fill:#ffb27d"/><path d="M180.87,143.31s1.22,1.15,1.22,1.15-.43.17-.55,0S180.87,143.31,180.87,143.31Z" transform="translate(-43.58 -76.34)" style="fill:#ffb27d"/><path d="M182.48,171H50a.17.17,0,0,1-.15-.18v-.06a.17.17,0,0,1,.15-.18H182.48a.17.17,0,0,1,.15.18v.06A.17.17,0,0,1,182.48,171Z" transform="translate(-43.58 -76.34)" style="fill:#dec0ab"/><g id="_2156941210336" data-name=" 2156941210336"><path d="M173.13,92.19a.18.18,0,0,0-.13-.05h-1a2,2,0,0,0-.36-.82H173a.17.17,0,0,0,.18-.18v-.58a.17.17,0,0,0-.18-.18h-4.72a.17.17,0,0,0-.18.18v.75a.18.18,0,0,0,.18.18h.82q1.2,0,1.52.64h-2.34a.17.17,0,0,0-.18.18v.58a.17.17,0,0,0,.18.18h2.42a1.11,1.11,0,0,1-.58.71,2.56,2.56,0,0,1-1.21.24h-.64a.18.18,0,0,0-.18.18v.72a.17.17,0,0,0,.05.12q1.09,1.16,2.83,3.24a.17.17,0,0,0,.14.07h1.11a.16.16,0,0,0,.16-.1.16.16,0,0,0,0-.19q-1.66-2-2.6-3a2.88,2.88,0,0,0,1.57-.62,2.12,2.12,0,0,0,.73-1.33h1a.18.18,0,0,0,.18-.18v-.58a.18.18,0,0,0-.05-.13Z" transform="translate(-43.58 -76.34)" style="fill:#b895c5"/></g><g id="_2156941203840" data-name=" 2156941203840"><path d="M164.89,108.21a.09.09,0,0,0-.07,0h-.49a1,1,0,0,0-.18-.41h.66a.09.09,0,0,0,.07,0,.09.09,0,0,0,0-.07v-.29a.09.09,0,0,0-.09-.09h-2.37a.09.09,0,0,0-.09.09v.38a.09.09,0,0,0,.09.09h.41q.6,0,.76.32h-1.17a.09.09,0,0,0-.09.09v.29a.09.09,0,0,0,.09.09h1.21a.55.55,0,0,1-.29.36,1.28,1.28,0,0,1-.6.12h-.32a.09.09,0,0,0-.09.09v.36a.08.08,0,0,0,0,.06q.55.58,1.42,1.62a.08.08,0,0,0,.07,0h.55a.08.08,0,0,0,.08-.05.08.08,0,0,0,0-.1q-.83-1-1.3-1.52a1.44,1.44,0,0,0,.78-.31,1.06,1.06,0,0,0,.37-.67h.48a.09.09,0,0,0,.09-.09v-.29a.09.09,0,0,0,0-.07Z" transform="translate(-43.58 -76.34)" style="fill:#b895c5"/></g><g id="_2156941196160" data-name=" 2156941196160"><path d="M156.23,119.17h-.32a.57.57,0,0,0-.11-.24h.39l0,0a.05.05,0,0,0,0,0v-.17a.05.05,0,0,0,0,0l0,0h-1.38l0,0a.05.05,0,0,0,0,0v.22a.05.05,0,0,0,0,0l0,0H155q.35,0,.44.19h-.72a.05.05,0,0,0,0,0v.17a.05.05,0,0,0,0,0h.75a.32.32,0,0,1-.17.21.75.75,0,0,1-.35.07h-.19l0,0a.05.05,0,0,0,0,0V120a0,0,0,0,0,0,0q.32.34.83.95l0,0H156a0,0,0,0,0,0,0,0,0,0,0,0,0-.06q-.48-.59-.76-.89a.84.84,0,0,0,.46-.18.62.62,0,0,0,.21-.39h.32a.05.05,0,0,0,0,0v-.17a.05.05,0,0,0,0,0Z" transform="translate(-43.58 -76.34)" style="fill:#b895c5"/></g><g id="_2156941257632" data-name=" 2156941257632"><path d="M86.42,156.05a.25.25,0,0,0-.19-.09l-1.54-.07a2.79,2.79,0,0,0-.38-1.31l2.1.09a.31.31,0,0,0,.33-.27l.14-.91a.26.26,0,0,0,0-.21.25.25,0,0,0-.2-.09l-7.48-.32a.31.31,0,0,0-.33.27l-.18,1.19a.26.26,0,0,0,.24.3l1.3.06q1.9.08,2.26,1.11l-3.71-.16a.32.32,0,0,0-.33.27l-.14.91a.25.25,0,0,0,.24.3l3.84.16a2,2,0,0,1-1.09,1.08,4.33,4.33,0,0,1-2,.3l-1,0a.33.33,0,0,0-.33.27L77.78,160a.24.24,0,0,0,.05.2q1.45,1.9,3.71,5.29a.24.24,0,0,0,.21.12l1.75.07a.3.3,0,0,0,.29-.15.24.24,0,0,0,0-.31q-2.15-3.31-3.41-5a5.09,5.09,0,0,0,2.63-.88,3.85,3.85,0,0,0,1.47-2l1.51.06a.31.31,0,0,0,.22-.07.31.31,0,0,0,.11-.2l.14-.91a.25.25,0,0,0-.05-.21Z" transform="translate(-43.58 -76.34)" style="fill:#ffa412"/></g><path d="M137.81,137.83a2.3,2.3,0,1,1,2.3,2.21A2.25,2.25,0,0,1,137.81,137.83Z" transform="translate(-43.58 -76.34)" style="fill:#b8d0d6"/><g id="_2156777268464" data-name=" 2156777268464"><path d="M140.84,137.19h-.32a.57.57,0,0,0-.11-.24h.39l0,0a.05.05,0,0,0,0,0v-.17a.05.05,0,0,0,0,0l0,0h-1.38l0,0a.05.05,0,0,0,0,0v.22a.05.05,0,0,0,0,0l0,0h.24q.35,0,.44.19h-.72a.05.05,0,0,0,0,0v.17a.05.05,0,0,0,0,0h.75a.32.32,0,0,1-.17.21.75.75,0,0,1-.35.07h-.19l0,0a.05.05,0,0,0,0,0V138a0,0,0,0,0,0,0q.32.34.83.95l0,0h.32a0,0,0,0,0,0,0,0,0,0,0,0,0-.06q-.48-.59-.76-.89a.84.84,0,0,0,.46-.18.62.62,0,0,0,.21-.39h.32a.05.05,0,0,0,0,0v-.17a.05.05,0,0,0,0,0Z" transform="translate(-43.58 -76.34)" style="fill:#6e808b"/></g><path d="M110.67,145.61a1.56,1.56,0,1,1,1.56,1.5A1.53,1.53,0,0,1,110.67,145.61Z" transform="translate(-43.58 -76.34)" style="fill:#b8d0d6"/><g id="_2156777259664" data-name=" 2156777259664"><path d="M112.72,145.18h-.22a.39.39,0,0,0-.07-.16h.29a0,0,0,0,0,0,0v-.11a0,0,0,0,0,0,0h-1a0,0,0,0,0,0,0V145a0,0,0,0,0,0,0h.19q.24,0,.3.13h-.49a0,0,0,0,0,0,0v.12a0,0,0,0,0,0,0h.51a.22.22,0,0,1-.12.14.51.51,0,0,1-.24,0h-.15v.17a0,0,0,0,0,0,0q.22.23.56.64h.25l0,0a0,0,0,0,0,0,0q-.33-.4-.52-.6a.57.57,0,0,0,.31-.12.42.42,0,0,0,.15-.26h.21a0,0,0,0,0,0,0v-.11a0,0,0,0,0,0,0Z" transform="translate(-43.58 -76.34)" style="fill:#6e808b"/></g><path d="M137.94,155.17a2.3,2.3,0,1,1,2.3,2.21A2.25,2.25,0,0,1,137.94,155.17Z" transform="translate(-43.58 -76.34)" style="fill:#b8d0d6"/><g id="_2156777251472" data-name=" 2156777251472"><path d="M141,154.53h-.32a.57.57,0,0,0-.11-.24h.39l0,0a.05.05,0,0,0,0,0v-.17a.05.05,0,0,0,0,0l0,0h-1.38l0,0a.05.05,0,0,0,0,0v.22a.05.05,0,0,0,0,0l0,0h.24q.35,0,.44.19h-.72a.05.05,0,0,0,0,0v.17a.05.05,0,0,0,0,0h.75a.32.32,0,0,1-.17.21.75.75,0,0,1-.35.07h-.19l0,0a.05.05,0,0,0,0,0v.21a0,0,0,0,0,0,0q.32.34.83.95l0,0h.32a0,0,0,0,0,0,0,0,0,0,0,0,0-.06q-.48-.59-.76-.89a.84.84,0,0,0,.46-.18.62.62,0,0,0,.21-.39H141a.05.05,0,0,0,0,0v-.17a.05.05,0,0,0,0,0Z" transform="translate(-43.58 -76.34)" style="fill:#6e808b"/></g><path d="M136.89,146.22a1.61,1.61,0,1,1,1.61,1.54A1.58,1.58,0,0,1,136.89,146.22Z" transform="translate(-43.58 -76.34)" style="fill:#b8d0d6"/><g id="_2156777302352" data-name=" 2156777302352"><path d="M139,145.77h-.23a.4.4,0,0,0-.07-.17h.3a0,0,0,0,0,0,0v-.12a0,0,0,0,0,0,0h-1a0,0,0,0,0,0,0v.15a0,0,0,0,0,0,0h.19q.24,0,.31.13H138a0,0,0,0,0,0,0v.12a0,0,0,0,0,0,0h.52a.23.23,0,0,1-.12.15.53.53,0,0,1-.25,0H138a0,0,0,0,0,0,0v.15a0,0,0,0,0,0,0q.22.24.58.66h.26a0,0,0,0,0,0,0,0,0,0,0,0,0,0q-.34-.42-.53-.62a.59.59,0,0,0,.32-.13.43.43,0,0,0,.15-.27H139a0,0,0,0,0,0,0v-.12A0,0,0,0,0,139,145.77Z" transform="translate(-43.58 -76.34)" style="fill:#6e808b"/></g><path d="M122.36,156.07a2,2,0,1,1,2,1.95A2,2,0,0,1,122.36,156.07Z" transform="translate(-43.58 -76.34)" style="fill:#b8d0d6"/><g id="_2156777295248" data-name=" 2156777295248"><path d="M125,155.51h-.28a.51.51,0,0,0-.09-.21H125a0,0,0,0,0,0,0v-.15a0,0,0,0,0,0,0h-1.29a0,0,0,0,0,0,0v.2a0,0,0,0,0,0,0H124q.31,0,.39.17h-.64a0,0,0,0,0,0,0v.15a0,0,0,0,0,0,0h.66a.29.29,0,0,1-.15.18.66.66,0,0,1-.31.06h-.2a0,0,0,0,0,0,0v.19a0,0,0,0,0,0,0q.28.3.73.84l0,0h.29a0,0,0,0,0,0,0,0,0,0,0,0,0,0q-.43-.53-.67-.79a.75.75,0,0,0,.4-.16.55.55,0,0,0,.19-.34H125a0,0,0,0,0,0,0v-.15a0,0,0,0,0,0,0Z" transform="translate(-43.58 -76.34)" style="fill:#6e808b"/></g><path d="M108.87,137a1.94,1.94,0,1,1,1.94,1.86A1.9,1.9,0,0,1,108.87,137Z" transform="translate(-43.58 -76.34)" style="fill:#b8d0d6"/><g id="_2156777287152" data-name=" 2156777287152"><path d="M111.42,136.42h-.27a.48.48,0,0,0-.09-.2h.36a0,0,0,0,0,0,0V136a0,0,0,0,0,0,0h-1.23a0,0,0,0,0,0,0v.19a0,0,0,0,0,0,0h.23q.29,0,.37.16h-.61a0,0,0,0,0,0,0v.14a0,0,0,0,0,0,0h.63a.27.27,0,0,1-.14.17.63.63,0,0,1-.3.06h-.19a0,0,0,0,0,0,0v.18a0,0,0,0,0,0,0q.27.28.7.8l0,0h.27a0,0,0,0,0,0,0,0,0,0,0,0,0,0q-.41-.5-.64-.75A.71.71,0,0,0,111,137a.52.52,0,0,0,.18-.33h.27a0,0,0,0,0,0,0v-.14a0,0,0,0,0,0,0Z" transform="translate(-43.58 -76.34)" style="fill:#6e808b"/></g><path d="M109.06,155a2.3,2.3,0,1,1,2.3,2.21A2.25,2.25,0,0,1,109.06,155Z" transform="translate(-43.58 -76.34)" style="fill:#b8d0d6"/><g id="_2156777278160" data-name=" 2156777278160"><path d="M112.1,154.32h-.32a.57.57,0,0,0-.11-.24h.39l0,0a.05.05,0,0,0,0,0v-.17a.05.05,0,0,0,0,0l0,0h-1.38l0,0a.05.05,0,0,0,0,0v.22a.05.05,0,0,0,0,0l0,0h.24q.35,0,.44.19h-.72a.05.05,0,0,0,0,0v.17a.05.05,0,0,0,0,0h.75a.32.32,0,0,1-.17.21.75.75,0,0,1-.35.07h-.19l0,0a.05.05,0,0,0,0,0v.21a0,0,0,0,0,0,0q.32.34.83.95l0,0h.32a0,0,0,0,0,0,0,0,0,0,0,0,0-.06q-.48-.59-.76-.89a.84.84,0,0,0,.46-.18.62.62,0,0,0,.21-.39h.32a.05.05,0,0,0,0,0v-.17a.05.05,0,0,0,0,0Z" transform="translate(-43.58 -76.34)" style="fill:#6e808b"/></g></g></svg>