<svg id="Layer_1" data-name="Layer 1" xmlns="http://www.w3.org/2000/svg" viewBox="0 0 580.57 442.94"><title>flight-booking</title><path d="M335.21,541.15a203.5,203.5,0,0,0,64.42-10.65A201.37,201.37,0,0,1,335.21,541.15Zm-128.9-45.87q-6.67-5.46-12.92-11.54,2.89,2.81,5.91,5.53Q202.76,492.37,206.31,495.29Zm286.52-29.92-.06,0h0l.06,0Zm13.26-18.66q4.83-7.62,8.91-15.56-4.07,7.94-8.85,15.53l-.06,0Z" transform="translate(-58.8 -129.27)" style="fill:#dbdadb"/><path d="M400.44,529.71c55.37,0,100.25,9.51,100.25,21.25s-44.88,21.25-100.25,21.25S300.19,562.7,300.19,551s44.88-21.25,100.25-21.25Z" transform="translate(-58.8 -129.27)" style="fill:#fff;opacity:0.329999983310699;isolation:isolate"/><path d="M130.54,532.42S58,458,104.18,370.48,212.41,327,209.44,225.12s142.68-110.58,189-81,46.06,65.14,141.77,53.4,114,86.4,89,136.4c-35.35,70.95,29,221.77-74.3,201.11-295.69-59.14-310.32,52.93-424.45-2.58Z" transform="translate(-58.8 -129.27)" style="fill:#9fc1b0;opacity:0.329999983310699;isolation:isolate"/><path d="M277.52,214l-.23.06c0-2.72-3.72-6.36-6.32-4.18-2.09-4.63-8.31-5.35-10,.54-5.23-1.84-7.46.84-7.85,6-2-1.29-7.17-.92-7.32,3.66-1.58-1.58-6.89-2.46-8.35,1.29a2,2,0,0,0-2-.36,20.14,20.14,0,0,0-2.22.85,8.2,8.2,0,0,1-2.51.6c-.39,0-1.3,0-1.57.39-.69,1,2.13,1.14,2.64,1.11,1.18-.05,2.3-.46,3.48-.5a9.57,9.57,0,0,1,3,.49,29.82,29.82,0,0,1,2.8,1.32,9.47,9.47,0,0,0,6.09.63,9.72,9.72,0,0,0,3.22-1.83,28.1,28.1,0,0,0,4.59,2.29c5,1.18,8.33-1.21,9.35-3.58,3,3.53,10.06,3.95,11.41-1.22,1.76,1.8,6,3,8,.07,1-1.47.47-4.1-1.77-4.15.38-2.91-2-4.08-4.48-3.46Z" transform="translate(-58.8 -129.27)" style="fill:#fff"/><path d="M341.48,177.71a9.16,9.16,0,0,1,2.25-4.87,6.21,6.21,0,0,1,4.8-2c3.09,0,7.12,2.3,7.94,5.44.76-1.56,4.93-.45,6.16.41,1.76,1.23,2.78,3.63,4,5.36a6.36,6.36,0,0,1,2.59-1.52,5,5,0,0,1,4.16.29,7.09,7.09,0,0,1,2.71,2.9,4.63,4.63,0,0,1,2.34-.51,5,5,0,0,1,3.21,1.52c.2.19.85,1,.85,1s1-.28,1.34-.34a5.3,5.3,0,0,1,3.4.46,13.85,13.85,0,0,0,3.95.95c.6.07,2.28-.08,2.6.6.63,1.33-1.92,1.44-2.57,1.47a14.88,14.88,0,0,1-3.68-.65c-.52,1.63-2.58,1.56-3.93,1.17l-2.29-.67s-.81.51-1.34.89a9,9,0,0,1-4.51,1.39,8.27,8.27,0,0,1-2.3-.16,13.38,13.38,0,0,1-3-1c-.35-.18-.95-.41-.95-.41s-1.14,1.09-1.6,1.42a16.23,16.23,0,0,1-2.15,1.29c-3.83,1.94-10.27,1.42-12-3.24a6.88,6.88,0,0,1-6.85,3.33,3.82,3.82,0,0,1-3.45-3.67c-1.23,1.69-5.4,2.43-7.2,1.43-1.17-.65-2.25-3.21-.73-4-2.2.61-6.87.05-6.41-3,.37-2.43,2.93-2.81,4.6-2.31-.13-4.49,5.26-5.93,8.07-2.89Z" transform="translate(-58.8 -129.27)" style="fill:#fff"/><g id="_2088391760448" data-name=" 2088391760448"><path d="M268.13,429.4c4.48,3.86,5.38,8.57,2,10.51l-6.1,3.52L183.52,418l36.89-29.69,47.73,41.12Z" transform="translate(-58.8 -129.27)" style="fill:#c6f2ed"/><path d="M239.26,425.26c6.27-.92,14.68-2.08,20.7-2.9l-39.55-34.07L183.52,418l80.53,25.46S228.35,426.86,239.26,425.26Z" transform="translate(-58.8 -129.27)" style="fill:#a8f0e8"/><path d="M264.05,443.43l6.1-3.52c3.37-1.94,2.46-6.65-2-10.51l-47.73-41.12s39.9,36.94,43.64,40.37S275,437.51,264.05,443.43Z" transform="translate(-58.8 -129.27)" style="fill:#d4f8f2"/><path d="M572.36,384.46,451.67,286.61l-.26-.18c-3.6-2.08-19,3.42-34.34,12.29L394.42,311.8c-15.36,8.87-24.9,17.74-21.29,19.83l.29.14L558.68,403.9l12.73-7.35c5.12-3,5.55-8.37,1-12.09Z" transform="translate(-58.8 -129.27)" style="fill:#c6f2ed"/><path d="M438.27,332.8l41.1-23.73-27.71-22.46-.26-.18c-3.6-2.08-19,3.42-34.34,12.29L394.42,311.8c-15.36,8.87-24.9,17.74-21.29,19.83l.29.14L558.68,403.9,438.55,343c-5.28-2.67-5.4-7.24-.28-10.19Z" transform="translate(-58.8 -129.27)" style="fill:#a8f0e8"/><path d="M568.64,398.15h0l2.77-1.6c5.12-3,5.55-8.37,1-12.09L451.67,286.61s107,89.42,112.53,95.14S578.61,392.39,568.64,398.15Z" transform="translate(-58.8 -129.27)" style="fill:#d4f8f2"/><path d="M461.05,338.27c-8.82,3.64-22.51,9.61-30.25,14.53,0,0-.49,1.79,2,3.24a10.73,10.73,0,0,0,5.6,1.16c8-4.21,17.68-11.48,24.05-16.56A1.39,1.39,0,0,0,461.05,338.27Z" transform="translate(-58.8 -129.27)" style="fill:#00a8a1"/><path d="M461.05,338.27c-8.82,3.64-22.51,9.61-30.25,14.53,0,0-.49,1.79,2,3.24a10.73,10.73,0,0,0,5.6,1.16c8-4.21,17.68-11.48,24.05-16.56A1.39,1.39,0,0,0,461.05,338.27Z" transform="translate(-58.8 -129.27)" style="fill:#00a8a1"/><path d="M461.05,338.27c-8.82,3.64-22.51,9.61-30.25,14.53,0,0-.49,1.79,2,3.24a10.73,10.73,0,0,0,5.6,1.16c8-4.21,17.68-11.48,24.05-16.56A1.39,1.39,0,0,0,461.05,338.27Z" transform="translate(-58.8 -129.27)" style="fill:#00a8a1"/><path d="M461.05,338.27c-8.82,3.64-22.51,9.61-30.25,14.53,0,0-.49,1.79,2,3.24a10.73,10.73,0,0,0,5.6,1.16c8-4.21,17.68-11.48,24.05-16.56A1.39,1.39,0,0,0,461.05,338.27Z" transform="translate(-58.8 -129.27)" style="fill:#00a8a1"/><path d="M461.05,338.27c-8.82,3.64-22.51,9.61-30.25,14.53,0,0-.49,1.79,2,3.24a10.73,10.73,0,0,0,5.6,1.16c8-4.21,17.68-11.48,24.05-16.56A1.39,1.39,0,0,0,461.05,338.27Z" transform="translate(-58.8 -129.27)" style="fill:#00a8a1"/><path d="M438.41,357.21c-2.06-.67-4.09-2.49-2.27-4.64.57-.68,3.24-2.34,6.69-4.29a14.5,14.5,0,0,0,2.59.25h.08a14.28,14.28,0,0,0,6.74-1.68,12.18,12.18,0,0,0,1.45.53c-.89.65-1.78,1.3-2.7,1.94a117.51,117.51,0,0,1-12.44,7.83l-.14.07h0Z" transform="translate(-58.8 -129.27)" style="fill:#26d9bb"/><path d="M432.87,351.55c2.22-1.3,4.76-2.65,7.46-4h0C437.64,348.9,435.09,350.25,432.87,351.55Z" transform="translate(-58.8 -129.27)" style="fill:#c1c0c0"/><path d="M437.77,357.23a10.31,10.31,0,0,1-5-1.19c-1.8-1-2.05-2.26-2.05-2.86a1.56,1.56,0,0,1,0-.37c.65-.41,1.34-.83,2.07-1.26,2.22-1.3,4.76-2.65,7.46-4a14.27,14.27,0,0,0,2.51.72c-3.45,1.95-6.12,3.61-6.69,4.29-1.82,2.15.21,4,2.27,4.64,0,0-.24,0-.65,0Z" transform="translate(-58.8 -129.27)" style="fill:#02b09f"/><path d="M496.76,358.12c-6.94,2.87-17.62,7.53-23.67,11.38,0,0-.38,1.41,1.58,2.55a8.45,8.45,0,0,0,4.41.91c6.28-3.29,13.8-8.94,18.81-12.94A1.12,1.12,0,0,0,496.76,358.12Z" transform="translate(-58.8 -129.27)" style="fill:#00a8a1"/><path d="M479.08,373s-3.3-2.16-1.8-3.66,5.75-3.63,12.12-6.91c4.72-2.44,7.09-3.54,8.18-3.54a.71.71,0,0,1,.73.39,1.14,1.14,0,0,0-1.09-1.21,1.19,1.19,0,0,0-.45.09c-6.94,2.87-17.62,7.53-23.67,11.38a1.28,1.28,0,0,0,0,.3h0a1.28,1.28,0,0,1,0-.3c6.06-3.85,16.73-8.51,23.67-11.38a1.16,1.16,0,0,1,.45-.09,1.14,1.14,0,0,1,1.1,1.14,1.07,1.07,0,0,1-.43.86c-2.88,2.3-6.59,5.14-10.42,7.77a85.75,85.75,0,0,1-8.33,5.13l-.06,0h0Z" transform="translate(-58.8 -129.27)" style="fill:#26d9bb"/><path d="M478.57,373a8.13,8.13,0,0,1-3.9-.93,2.66,2.66,0,0,1-1.61-2.25,1.28,1.28,0,0,1,0-.3c6.06-3.85,16.73-8.51,23.67-11.38a1.19,1.19,0,0,1,.45-.09,1.14,1.14,0,0,1,1.09,1.21.71.71,0,0,0-.73-.39c-1.09,0-3.46,1.1-8.18,3.54-6.37,3.29-10.61,5.41-12.12,6.91s1.8,3.66,1.8,3.66-.19,0-.51,0Z" transform="translate(-58.8 -129.27)" style="fill:#02b09f"/><path d="M533.31,379.41a.84.84,0,0,0-.84-1.44c-5.07,2.1-12.73,5.46-17.1,8.23,0,0-.28,1,1.15,1.86a6.17,6.17,0,0,0,3.21.67,97.06,97.06,0,0,0,13.57-9.32Z" transform="translate(-58.8 -129.27)" style="fill:#00a8a1"/><path d="M519.38,388.74a5.92,5.92,0,0,1-2.85-.68,5.93,5.93,0,0,0,2.85.68Zm.37,0c-1.19-.48-2.54-1.58-1.56-2.55s6.57-4,10.82-5.9c2.92-1.29,3.94-1.75,4.34-1.75.17,0,.23.08.28.22h0a.85.85,0,0,0-.74-.84.86.86,0,0,1,.75.86.82.82,0,0,1-.32.64,97.07,97.07,0,0,1-13.57,9.32h0Z" transform="translate(-58.8 -129.27)" style="fill:#26d9bb"/><path d="M519.38,388.74Z" transform="translate(-58.8 -129.27)" style="fill:#006e5d"/><path d="M519.7,388.73Z" transform="translate(-58.8 -129.27)" style="fill:#c1c0c0"/><path d="M519.34,384h0c4.14-2.15,9.22-4.36,13-5.91C528.56,379.6,523.48,381.8,519.34,384Z" transform="translate(-58.8 -129.27)" style="fill:#cac9c9"/><path d="M515.38,386.2c1.13-.72,2.49-1.48,4-2.25h0c-1.47.76-2.83,1.52-4,2.24Z" transform="translate(-58.8 -129.27)" style="fill:#c1c0c0"/><path d="M532.48,378a.88.88,0,0,1,.34-.07h0A.89.89,0,0,0,532.48,378Z" transform="translate(-58.8 -129.27)" style="fill:#cac9c9"/><path d="M519.38,388.74a5.93,5.93,0,0,1-2.85-.68h0a1.94,1.94,0,0,1-1.17-1.64,1,1,0,0,1,0-.22h0c4.32-2.75,11.85-6.05,16.92-8.16l.18-.07h0a.89.89,0,0,1,.34-.07h.07a.85.85,0,0,1,.74.84c0-.14-.11-.22-.28-.22-.41,0-1.43.46-4.34,1.75-4.25,1.89-9.85,4.93-10.82,5.9s.38,2.07,1.56,2.55h-.37Z" transform="translate(-58.8 -129.27)" style="fill:#02b09f"/><path d="M241.45,366.09l-66.78-79.83c-3.79-4.53-9.85-6.49-13.53-4.37l-6.67,3.85,26.1,115.5,60.89-35.15Z" transform="translate(-58.8 -129.27)" style="fill:#c6f2ed"/><path d="M241.45,366.09l-13.34-15.95c-5.84,3.68-27.82,16.65-40.52,11.94-14.73-5.46-29.76-61.44-29.76-61.44h0l22.73,100.6,60.89-35.15Z" transform="translate(-58.8 -129.27)" style="fill:#c6f2ed"/><path d="M186.41,397.71l55-31.78c-20.53,4.47-35,.34-47.1-11.29-15.32-14.7-39.88-69.06-39.88-69.06l25.66,113.59,6.28-1.46Z" transform="translate(-58.8 -129.27)" style="fill:#75ead6"/><path d="M203.43,361.64l0,0h0Z" transform="translate(-58.8 -129.27)" style="fill:#dcdddc"/><path d="M215,366.38a41.79,41.79,0,0,1-11.55-4.74h0A41.82,41.82,0,0,0,215,366.37Z" transform="translate(-58.8 -129.27)" style="fill:#cac9c9"/><path d="M179.28,395.4l-21.24-94c1.82,6.58,15.82,55.6,29.56,60.7a17.87,17.87,0,0,0,6.22,1,36.85,36.85,0,0,0,9.58-1.47l0,0A41.79,41.79,0,0,0,215,366.38C203.91,375,190.6,386,179.28,395.4Z" transform="translate(-58.8 -129.27)" style="fill:#26d9bb"/><path d="M173.5,290.5c-4-4.39-9.82-7.27-13.1-6.43l-5.93,1.52,6.67-3.77c3.68-2.08,9.74-.1,13.54,4.44l66.78,79.68Z" transform="translate(-58.8 -129.27)" style="fill:#d4f8f2"/><path d="M459.82,334.2a14.32,14.32,0,1,1-14.32-14.32A14.32,14.32,0,0,1,459.82,334.2Z" transform="translate(-58.8 -129.27)" style="fill:#e0e0e0"/><path d="M445.5,348.52h0Zm0,0h0Zm0,0a14.5,14.5,0,0,1-2.59-.25,14.32,14.32,0,0,1-8.18-23.42l2.64-1.53c-1.53,7.15,1.36,16,6.15,20.74.3.29-.07.5-.87.5-2,0-6.59-1.24-10.51-5.43A14.31,14.31,0,0,0,445.42,348.52Z" transform="translate(-58.8 -129.27)" style="fill:#8eede2"/><path d="M445.5,348.52h0a14.26,14.26,0,0,0,6.74-1.68h0A14.28,14.28,0,0,1,445.5,348.52Zm0,0h0Zm-.05,0h0Z" transform="translate(-58.8 -129.27)" style="fill:#009f8e"/><path d="M445.5,348.52h-.08a14.31,14.31,0,0,1-13.36-9.4c3.92,4.2,8.53,5.43,10.51,5.43.8,0,1.17-.2.87-.5-4.79-4.77-7.68-13.59-6.15-20.74l.25-.15c0,.08,0,.15,0,.23,0,8.26,5.76,18.3,12.9,22.51h.11l0,0a15.72,15.72,0,0,0,1.64.83,14.26,14.26,0,0,1-6.74,1.68Z" transform="translate(-58.8 -129.27)" style="fill:#02b09f"/><path d="M478.42,291.48c-13.85,0-37.49,23.3-38.77,24.94h0a10.72,10.72,0,0,0-2.11,7c0,8.32,5.84,18.44,13,22.6,2.76,1.59,5.32,2.07,7.42,1.6h0c2.07-.3,33.9-9.34,40.83-21.34l-20.43-34.8Z" transform="translate(-58.8 -129.27)" style="fill:#c6f2ed"/><path d="M452.24,346.84a15.72,15.72,0,0,1-1.64-.83l0,0,0,0a15.72,15.72,0,0,0,1.64.83Zm-1.69-.86h0Zm0,0h0Zm0,0h0Z" transform="translate(-58.8 -129.27)" style="fill:#a4a5a4"/><path d="M456.41,347.79a10.59,10.59,0,0,1-4.17-.95,15.72,15.72,0,0,1-1.64-.83l0,0h-.11c-5.82-3.43-10.72-10.73-12.34-17.79,2.76,3.58,5.13,5.33,9.27,5.33,3.12,0,7.24-1,13.29-2.94,14.08-4.53,14.28-6.92,11-13.84a26.48,26.48,0,0,1-2.3-11.91l.68-.39a19.88,19.88,0,0,0,1.27,4.59c2.16,7.75,7.62,15.52,14,19.21a13.6,13.6,0,0,0,6.7,2.05,7.44,7.44,0,0,0,6.48-3.48c-7.46,11.76-38.5,20.58-40.54,20.87h0a7.3,7.3,0,0,1-1.61.17Z" transform="translate(-58.8 -129.27)" style="fill:#a8f0e8"/><path d="M478.42,291.48c-13.85,0-37.49,23.3-38.77,24.94h0a10,10,0,0,0-2,5.58c.89-3.37,4.67-6.59,9.62-10.81s18.54-13.83,21.22-15.13-.18,5.48,2.89,12.91l8-15.85-1-1.65Z" transform="translate(-58.8 -129.27)" style="fill:#fafafa"/><path d="M500.39,319.52c0,9.57-6.72,13.45-15,8.66s-15-16.42-15-26,6.72-13.45,15-8.66S500.39,310,500.39,319.52Z" transform="translate(-58.8 -129.27)" style="fill:#3b5863"/><path d="M488.08,327.78l-5.26-8.31a2.56,2.56,0,0,0,.42-.07l4.84,8.38Zm3.31-2.5-7-6.47.32-.26Zm-8.35-.36-2-5.84a4.64,4.64,0,0,0,.48.2ZM493.84,322l-8.3-4.3.28-.33,8,4.63Zm-13.78,0-.48-3.14.15-.58.32.25V322Zm-1.65-2.09-.06-1.53.3-.52.22-.38.15.15-.61,2.28Zm-1-1.56.17-1,.64-.64,0,0,.06.08-.9,1.57Zm18.19,0-9-2,.24-.37Zm-19-1.18.29-.72.65-.37.07.09-1,1h0l0,0Zm-.66-1.17.38-.58h0l.73-.2.15,0c.05,0,0,0,0,.07l-1.27.74Zm-.61-1.2.8-.52h.72l0,.1h0l-1.52.41Zm12.32-.12.21-.39h8.36Zm-11.12-1.25h-1.94l1.56-.3.32.08Zm12.21-1,.17-.39,6.86-1.84-7,2.23Zm-12.48-.18-2.47-.66,2.24.15.17.1c0,.13,0,.27.05.4Zm-.08-1.41-3.38-2,3.41,1.64C476.18,310.58,476.17,310.68,476.16,310.79Zm.38-1.56L472,304.72l4.66,4.26-.14.25Zm13.29-.08a1.36,1.36,0,0,0,0-.26l4.45-2.57ZM477.7,308.1,474.2,302l.1-.06,3.81,6Zm9.95-.49-.32,0,4.3-4.3-4,4.35Zm-8.39-.06-2-7.31.05,0,2.22,7.27-.32.07Zm5.84-.25-.35,0,3.55-6.15Zm-4.18,0v-9.13h0l.34,9.1Zm2.14-.09h-.35l2.25-8.37Z" transform="translate(-58.8 -129.27)" style="fill:#9fb0b5"/><path d="M482.79,316.69l11.65,11.65.67.15.35-.18,0,0-.25-.34-11.86-11.85.07-.09,14.6,8.43a.36.36,0,0,0,.53-.19h0a.54.54,0,0,0-.23-.62l-14.47-8.35c-.2-.12-.18-.17,0-.1l14.95,4a.28.28,0,0,0,.38-.32v-.05a.66.66,0,0,0-.45-.54l-14.65-3.93c-.23-.06-.22-.11,0-.11h14a.33.33,0,0,0,.33-.42v0a.56.56,0,0,0-.53-.42H484.17c-.23,0-.24-.05,0-.11l12.64-3.39a.39.39,0,0,0,.27-.51h0a.48.48,0,0,0-.56-.29l-12.56,3.37c-.23.06-.25,0,0-.1l11-6.37.26-.45-.12-.23-.09-.14c-.05-.08-.26,0-.47.07l-11,6.38c-.21.12-.24.08-.07-.09l9.21-9.21,0-.64h0l-.57,0-9.27,9.27c-.17.17-.21.14-.09-.07l6.93-12a.56.56,0,0,0-.1-.66l0,0a.33.33,0,0,0-.53.08l-7,12.18c-.12.2-.17.19-.1,0l3.95-14.73a.67.67,0,0,0-.24-.66l0,0a.28.28,0,0,0-.47.18l-4,15c-.06.23-.11.22-.11,0V293.26a.54.54,0,0,0-.42-.51h0a.35.35,0,0,0-.42.36v17c0,.24,0,.24-.11,0l-4.39-16.36c-.06-.23-.14-.4-.19-.38l-.07,0-.31.2a.63.63,0,0,0-.19.64l4.31,16.09c.06.23,0,.25-.1,0l-6.84-11.85c-.12-.21-.27-.19-.32,0l-.09.39a1.31,1.31,0,0,0,.13.79l6.38,11c.12.21.08.24-.09.07l-6.26-6.26c-.17-.17-.28-.11-.27.12l0,.47a1.37,1.37,0,0,0,.35.73l5.55,5.55-.07.09-4.73-2.73c-.2-.12-.32,0-.25.2l.11.38a1.26,1.26,0,0,0,.5.62l3.94,2.27c.2.12.19.17,0,.1l-3.27-.87c-.23-.06-.34.07-.27.29l.06.18a.92.92,0,0,0,.57.51l2.68.72c.23.06.22.11,0,.11h-2.24a.24.24,0,0,0-.24.38l0,.09a.77.77,0,0,0,.62.38h1.81c.24,0,.24.05,0,.11l-1.52.41a.34.34,0,0,0-.22.5v0a.55.55,0,0,0,.61.27l1.34-.36c.23-.06.25,0,0,.1l-1.16.67c-.21.12-.33.28-.3.37l.08.15.14.22h.52l1.16-.67.07.09-1,1-.07.66v0l.54.05,1.1-1.1c.17-.17.21-.14.09.07l-.9,1.56,0,.73.05.09.45,0,1.12-1.93c.12-.2.16-.19.1,0l-.71,2.65a.94.94,0,0,0,.16.75l.13.15c.15.18.32.14.39-.09l.87-3.23c.06-.23.11-.22.11,0V322a1.25,1.25,0,0,0,.29.74l.27.27c.17.17.3.11.3-.12v-5.39c0-.24.05-.24.11,0l2,7.47a1.33,1.33,0,0,0,.45.67l.39.26c.2.13.3.05.25-.17l-2.26-8.44c-.06-.23,0-.25.1,0l6.29,10.9a1.29,1.29,0,0,0,.62.51l.39.12c.23.07.32-.05.2-.26l-6.75-11.7c-.12-.2-.08-.24.09-.07Z" transform="translate(-58.8 -129.27)" style="fill:#2f444d"/><path d="M489.65,308.5a1.45,1.45,0,0,0-1-.69v0s-7.63-1.63-11.22.44a3.14,3.14,0,0,0-1.31,2.89,9.88,9.88,0,0,0,4.47,7.75,3.14,3.14,0,0,0,3.16.31c3.59-2.07,6-9.5,6-9.5h0a1.45,1.45,0,0,0-.12-1.17Z" transform="translate(-58.8 -129.27)" style="fill:#d4f8f2"/><path d="M489.84,309.21v-.05h0Z" transform="translate(-58.8 -129.27)" style="fill:#3a555f"/><path d="M489.84,309.16a1.36,1.36,0,0,0,0-.26h0a1.36,1.36,0,0,1,0,.26Z" transform="translate(-58.8 -129.27)" style="fill:#909fa3"/><path d="M489.8,308.9a1.37,1.37,0,0,0-.16-.4,1.36,1.36,0,0,1,.16.4Z" transform="translate(-58.8 -129.27)" style="fill:#31444b"/><path d="M482.62,319.48h-.17a3.61,3.61,0,0,1-.94-.19,4.7,4.7,0,0,1-.6-.26l-.29-.16c-.19-.11-.38-.23-.57-.37l-.32-.25a8.34,8.34,0,0,1-.71-.65l-.15-.16c-.2-.22-.4-.45-.59-.69l-.07-.09a10.87,10.87,0,0,1-1.36-2.35,8.41,8.41,0,0,1-.7-3.19,3.14,3.14,0,0,1,1.31-2.89,6.92,6.92,0,0,1,1.83-.69c-1.52.69-2.36,2.18-1.69,4.47.5,1.7,1.84,3.37,3.69,3.37a3.93,3.93,0,0,0,2.13-.7c2.91-1.87,6.35-5,6.23-6.19h0a1.47,1.47,0,0,1,.19.66v.05a1.54,1.54,0,0,1-.07.46h0a32,32,0,0,1-2.46,5.49c-.15.26-.31.51-.47.76h0l-.24.37-.26.37c-.17.24-.34.47-.53.68l-.28.33-.26.28a8.32,8.32,0,0,1-.62.59l-.32.26L484,319l-.23.14a2.18,2.18,0,0,1-.55.22,2.56,2.56,0,0,1-.42.07h-.19Z" transform="translate(-58.8 -129.27)" style="fill:#a8f0e8"/><path d="M489.76,309.67a1.44,1.44,0,0,0-.12-1.17,1.46,1.46,0,0,0-1-.69v0s-7.63-1.63-11.22.44a2.52,2.52,0,0,0-1.09,1.51c.5-.95,1.95-1.78,5.65-1.89a23.93,23.93,0,0,1,6.71.51.8.8,0,0,0-.23,1c.23.63,1,.82,1.26.36Z" transform="translate(-58.8 -129.27)" style="fill:#a8f0e8"/><path d="M582.65,181.42s-7.39-10.3-23.28-8.92-30.88,7.78-57,22.85L337.13,290.76c-26.09,15.07-97.08,56.05-121.77,75.33s-60.89,50.22-60.89,50.22h0a13.83,13.83,0,0,0-6.25,10.83c0,2.84,1.43,4.45,3.5,4.43v0l.32,0h0c3.4-.18,33.63-2,82.06-11,51.47-9.63,71.78-21.35,103-39.39L563.28,250.59c20.86-12,40.64-33.51,43.49-50.22s-10.43-19.09-24.12-18.95Z" transform="translate(-58.8 -129.27)" style="fill:#fff"/><path d="M535,191.88c-10.9,11.6-15.19,23.56-32.59,33.6-16.63,9.6-220.88,121.72-257.45,140.61s-45.4,20.38-40.74,8.86h0c-23.14,18.64-49.73,41.36-49.73,41.36h0a13.83,13.83,0,0,0-6.25,10.83c0,2.84,1.43,4.45,3.5,4.43v0l.32,0h0c3.4-.18,33.63-2,82.06-11,51.47-9.63,71.78-21.35,103-39.39L563.28,250.59c20.86-12,40.64-33.51,43.49-50.22s-10.43-19.09-24.12-18.95c-9.84-2.09-36.76-1.14-47.67,10.46Z" transform="translate(-58.8 -129.27)" style="fill:#00a8a1"/><path d="M148.22,427.1h0Zm0,0v0Zm0,0v0Z" transform="translate(-58.8 -129.27)" style="fill:#57bec0"/><path d="M148.22,427a13.87,13.87,0,0,1,6.25-10.66h0s26.58-22.72,49.73-41.36h0a12.86,12.86,0,0,0-1.14,4.5c0,1.85,1,2.81,3.3,2.81,5.24,0,17.15-5.1,38.59-16.17,11-5.68,37.13-19.78,68.78-37l4.76.9a6.17,6.17,0,0,0,1,.11L311,354.33c-17.61,9.74-32.65,17.92-43.5,23.57-23.7,12.33-49.88,23-71.11,30.9l7.77-22.22-38.52,25.57-2.89,8.27c-4.53,1.43-7.47,2.28-8.32,2.47a2.52,2.52,0,0,1-.55.06c-1.74,0-2.15-2.18-1.27-5.25a14.06,14.06,0,0,0-4.44,9.27Z" transform="translate(-58.8 -129.27)" style="fill:#75ead6"/><path d="M387.77,311.43l8.57-24.54c.44-1.06.34-1.86-.4-2.35h-.1l-.22-.11c52.19-28.6,99.16-54.5,106.77-58.89,17.4-10,21.69-22,32.59-33.6,8.07-8.59,24.94-11.34,37.14-11.34a53.93,53.93,0,0,1,10.53.88h1.06c12,0,23.45,2.2,23.45,14.69h0c0-12.49-11.4-14.69-23.45-14.69h-1.06a53.93,53.93,0,0,0-10.53-.88c-12.2,0-29.07,2.75-37.14,11.34a135.21,135.21,0,0,1,43.46-7.47c8.82,0,15.88,1.08,19.63,2.85,8.13,3.86,9.49,10.25,7.86,16.64a30.77,30.77,0,0,0,.84-3.53c-2.85,16.71-22.63,38.17-43.49,50.22a116.94,116.94,0,0,0,30.65-25.9c5.86-10.35,8.59-19.86-1.49-19.86-6.48,0-18.24,3.92-37.86,14.07C522,235.73,452.37,275.1,387.77,311.43Z" transform="translate(-58.8 -129.27)" style="fill:#75ead6"/><path d="M605.93,203.9c1.64-6.38.27-12.78-7.86-16.64-3.75-1.78-10.81-2.85-19.63-2.85A135.21,135.21,0,0,0,535,191.88c8.07-8.59,24.94-11.34,37.14-11.34a53.93,53.93,0,0,1,10.53.88h1.06c12,0,23.45,2.2,23.45,14.69a25.4,25.4,0,0,1-.39,4.27h0a30.79,30.79,0,0,1-.84,3.53Z" transform="translate(-58.8 -129.27)" style="fill:#26d9bb"/><path d="M148.22,427.15v0Z" transform="translate(-58.8 -129.27)" style="fill:#66ada5"/><path d="M148.22,427.09v0Z" transform="translate(-58.8 -129.27)" style="fill:#66ada5"/><path d="M148.22,427a.11.11,0,0,1,0,0A.1.1,0,0,0,148.22,427Z" transform="translate(-58.8 -129.27)" style="fill:#66ada5"/><path d="M148.22,427v0Z" transform="translate(-58.8 -129.27)" style="fill:#66ada5"/><path d="M151.71,431.61v0h0c-2.05,0-3.47-1.6-3.47-4.43h0v0h0v0a.1.1,0,0,1,0,0v0a14.06,14.06,0,0,1,4.44-9.27c-.88,3.07-.48,5.25,1.27,5.25a2.52,2.52,0,0,0,.55-.06c.85-.18,3.79-1,8.32-2.47l2.89-8.27,38.52-25.57-7.77,22.22c21.23-7.87,47.41-18.56,71.11-30.9,10.86-5.65,25.89-13.83,43.5-23.57l8.46-24.22h.28c5.62,0,18.28-4.88,31.12-12.17,11.42-3.94,28.52-11.16,33.94-19.83l.22-.37,0-.07h0l.09-.17c6.06-4.31,10.1-8.15,11.13-10.63l-8.57,24.54c64.6-36.33,134.25-75.7,166.81-92.54,19.62-10.15,31.38-14.07,37.86-14.07,10.08,0,7.35,9.51,1.49,19.86a116.94,116.94,0,0,1-30.65,25.9h0l-12.44,7.18-12.06,7-53,30.59-1,.55-3.93,2.27-.86.49-2.76,1.59-.77.44L474.2,302l-.74.43-3,1.72-.36.21-.68.39-31.87,18.4-.25.15-2.64,1.53h0l-31.82,18.37-65.7,37.93c-27.06,15.62-45.92,26.51-83.91,35.4l-1.81.42c-5.37,1.23-11.11,2.42-17.3,3.57-10,1.86-19.16,3.42-27.51,4.72l-3.59.55c-30.09,4.55-48.36,5.64-51,5.78h-.33Z" transform="translate(-58.8 -129.27)" style="fill:#26d9bb"/><path d="M362.9,284.86a19.76,19.76,0,0,1,.57-5c.15-.57-.12-.79-.63-.49l-2.05,1.19a3,3,0,0,0-1.23,1.56,18.52,18.52,0,0,0-.59,5c0,.59.45.83,1,.53l2.05-1.19a2,2,0,0,0,.92-1.61Z" transform="translate(-58.8 -129.27)" style="fill:#3f5e69"/><path d="M370.23,280.62a19.73,19.73,0,0,1,.57-5c.15-.57-.12-.79-.63-.49l-2.05,1.19a3,3,0,0,0-1.23,1.56,18.55,18.55,0,0,0-.59,5c0,.59.45.83,1,.53l2.05-1.19a2,2,0,0,0,.92-1.61Z" transform="translate(-58.8 -129.27)" style="fill:#3f5e69"/><path d="M377.56,276.39a19.76,19.76,0,0,1,.57-5c.15-.57-.12-.79-.63-.49l-2.05,1.19a3,3,0,0,0-1.23,1.56,18.51,18.51,0,0,0-.59,5c0,.59.45.83,1,.53l2.05-1.19a2,2,0,0,0,.92-1.61Z" transform="translate(-58.8 -129.27)" style="fill:#3f5e69"/><path d="M384.89,272.16a19.84,19.84,0,0,1,.57-5c.15-.57-.11-.79-.62-.49l-2.05,1.19a3,3,0,0,0-1.23,1.56,18.51,18.51,0,0,0-.59,5c0,.59.45.83,1,.53l2.05-1.19a2,2,0,0,0,.92-1.61Z" transform="translate(-58.8 -129.27)" style="fill:#3b5863"/><path d="M392.23,267.92a19.83,19.83,0,0,1,.57-5c.15-.57-.11-.79-.63-.49l-2.05,1.19a3,3,0,0,0-1.23,1.56,18.61,18.61,0,0,0-.59,5c0,.59.45.83,1,.53l2.05-1.19a2.06,2.06,0,0,0,.92-1.61Z" transform="translate(-58.8 -129.27)" style="fill:#3b5863"/><path d="M399.56,263.69a19.75,19.75,0,0,1,.57-5c.15-.57-.11-.79-.62-.49l-2.05,1.19a3,3,0,0,0-1.23,1.56,18.51,18.51,0,0,0-.59,5c0,.59.44.83,1,.53l2.05-1.19a2,2,0,0,0,.92-1.61Z" transform="translate(-58.8 -129.27)" style="fill:#3b5863"/><path d="M406.89,259.46a19.75,19.75,0,0,1,.57-5c.15-.57-.11-.79-.63-.49l-2.05,1.19a3,3,0,0,0-1.23,1.56,18.52,18.52,0,0,0-.59,5c0,.59.44.83,1,.53l2.05-1.18a2.05,2.05,0,0,0,.92-1.61Z" transform="translate(-58.8 -129.27)" style="fill:#3b5863"/><path d="M414.22,255.22a19.85,19.85,0,0,1,.57-5c.15-.57-.11-.79-.62-.49l-2.06,1.19a3,3,0,0,0-1.23,1.56,18.41,18.41,0,0,0-.59,5c0,.59.44.83,1,.53l2.05-1.19A2,2,0,0,0,414.22,255.22Z" transform="translate(-58.8 -129.27)" style="fill:#3b5863"/><path d="M421.55,251a19.87,19.87,0,0,1,.57-5c.15-.57-.12-.79-.63-.49l-2.05,1.18a3,3,0,0,0-1.23,1.56,18.62,18.62,0,0,0-.59,5c0,.59.45.83,1,.53l2.05-1.19a2,2,0,0,0,.92-1.61Z" transform="translate(-58.8 -129.27)" style="fill:#3b5863"/><path d="M428.88,246.76a19.73,19.73,0,0,1,.57-5c.15-.57-.11-.79-.63-.49l-2.05,1.19a3,3,0,0,0-1.23,1.56,18.51,18.51,0,0,0-.59,5c0,.59.45.83,1,.53l2.05-1.19A2,2,0,0,0,428.88,246.76Z" transform="translate(-58.8 -129.27)" style="fill:#3b5863"/><path d="M436.21,242.53a19.75,19.75,0,0,1,.57-5c.15-.57-.12-.79-.63-.49l-2.05,1.19a3,3,0,0,0-1.23,1.56,18.63,18.63,0,0,0-.59,5c0,.59.45.83,1,.53l2.05-1.18a2,2,0,0,0,.92-1.61Z" transform="translate(-58.8 -129.27)" style="fill:#3b5863"/><path d="M443.55,238.29a19.73,19.73,0,0,1,.57-5c.15-.57-.11-.79-.63-.49L441.44,234a3,3,0,0,0-1.23,1.56,18.51,18.51,0,0,0-.59,5c0,.59.44.83,1,.53l2.05-1.19a2,2,0,0,0,.92-1.61Z" transform="translate(-58.8 -129.27)" style="fill:#3b5863"/><path d="M450.88,234.06a19.81,19.81,0,0,1,.57-5c.15-.57-.11-.79-.62-.49l-2.05,1.18a3,3,0,0,0-1.23,1.56,18.66,18.66,0,0,0-.59,5c0,.59.45.83,1,.53l2.06-1.19a2,2,0,0,0,.92-1.61Z" transform="translate(-58.8 -129.27)" style="fill:#3b5863"/><path d="M458.21,229.83a19.8,19.8,0,0,1,.57-5c.15-.57-.11-.79-.62-.49l-2.05,1.19a3,3,0,0,0-1.23,1.56,18.51,18.51,0,0,0-.59,5c0,.59.44.83,1,.53l2.05-1.19a2,2,0,0,0,.92-1.61Z" transform="translate(-58.8 -129.27)" style="fill:#3b5863"/><path d="M465.54,225.59a19.73,19.73,0,0,1,.57-5c.15-.57-.11-.79-.62-.49l-2.06,1.18a3,3,0,0,0-1.23,1.56,18.54,18.54,0,0,0-.59,5c0,.59.45.83,1,.53l2.05-1.19a2.05,2.05,0,0,0,.92-1.61Z" transform="translate(-58.8 -129.27)" style="fill:#3b5863"/><path d="M472.87,221.36a19.76,19.76,0,0,1,.57-5c.15-.57-.11-.79-.62-.49L470.76,217a3,3,0,0,0-1.23,1.56,18.44,18.44,0,0,0-.59,5c0,.59.45.83,1,.53l2.05-1.19A2,2,0,0,0,472.87,221.36Z" transform="translate(-58.8 -129.27)" style="fill:#3b5863"/><path d="M480.2,217.13a19.85,19.85,0,0,1,.57-5c.15-.57-.12-.79-.62-.49l-2.06,1.19a3,3,0,0,0-1.23,1.56,18.55,18.55,0,0,0-.59,5c0,.59.45.83,1,.53l2.05-1.19a2,2,0,0,0,.92-1.61Z" transform="translate(-58.8 -129.27)" style="fill:#3b5863"/><path d="M245.6,354.85a19.72,19.72,0,0,1,.57-5c.15-.57-.11-.79-.63-.49l-2.05,1.19a3,3,0,0,0-1.23,1.56,18.55,18.55,0,0,0-.59,5c0,.59.45.83,1,.53l2.05-1.19a2,2,0,0,0,.92-1.6Z" transform="translate(-58.8 -129.27)" style="fill:#3b5863"/><path d="M252.93,350.47a19.78,19.78,0,0,1,.57-5c.15-.57-.11-.79-.62-.49l-2.05,1.19a3,3,0,0,0-1.23,1.56,18.56,18.56,0,0,0-.59,5c0,.59.45.83,1,.53l2.05-1.19a2,2,0,0,0,.92-1.61Z" transform="translate(-58.8 -129.27)" style="fill:#3b5863"/><path d="M260.15,345.91a19.89,19.89,0,0,1,.57-5c.15-.57-.11-.79-.63-.49L258,341.58a3,3,0,0,0-1.23,1.56,18.4,18.4,0,0,0-.59,5c0,.59.44.83,1,.53l2.05-1.19a2,2,0,0,0,.92-1.61Z" transform="translate(-58.8 -129.27)" style="fill:#3b5863"/><path d="M267.44,341.47a19.8,19.8,0,0,1,.57-5c.15-.57-.12-.79-.63-.49l-2.06,1.19a3,3,0,0,0-1.23,1.56,18.52,18.52,0,0,0-.59,5c0,.59.45.83,1,.53l2.05-1.18a2,2,0,0,0,.92-1.61Z" transform="translate(-58.8 -129.27)" style="fill:#3b5863"/><path d="M274.74,337a19.72,19.72,0,0,1,.57-5c.15-.57-.11-.79-.62-.49l-2.06,1.19a3,3,0,0,0-1.23,1.56,18.5,18.5,0,0,0-.59,5c0,.59.44.83,1,.53l2.06-1.19a2,2,0,0,0,.92-1.61Z" transform="translate(-58.8 -129.27)" style="fill:#3b5863"/><path d="M282,332.61a19.73,19.73,0,0,1,.57-5c.15-.57-.12-.79-.63-.49l-2.05,1.19a3,3,0,0,0-1.23,1.56,18.53,18.53,0,0,0-.59,5c0,.59.44.83,1,.53l2.05-1.19a2,2,0,0,0,.92-1.61Z" transform="translate(-58.8 -129.27)" style="fill:#3b5863"/><path d="M289.35,328.2a19.77,19.77,0,0,1,.57-5c.15-.57-.12-.79-.63-.49l-2.05,1.19a3,3,0,0,0-1.23,1.56,18.55,18.55,0,0,0-.59,5c0,.59.45.83,1,.53l2.05-1.19A2,2,0,0,0,289.35,328.2Z" transform="translate(-58.8 -129.27)" style="fill:#3b5863"/><path d="M296.67,323.81a19.84,19.84,0,0,1,.57-5c.15-.57-.11-.79-.63-.49l-2.05,1.19a3,3,0,0,0-1.23,1.56,18.58,18.58,0,0,0-.59,5c0,.59.45.83,1,.53l2.05-1.19a2.05,2.05,0,0,0,.92-1.61Z" transform="translate(-58.8 -129.27)" style="fill:#3b5863"/><path d="M304,319.43a19.84,19.84,0,0,1,.57-5c.15-.57-.11-.79-.62-.49l-2.05,1.19a3,3,0,0,0-1.23,1.56,18.43,18.43,0,0,0-.59,5c0,.59.44.83,1,.53l2.05-1.19a2,2,0,0,0,.92-1.61Z" transform="translate(-58.8 -129.27)" style="fill:#3f5e69"/><path d="M311.34,315.06a19.76,19.76,0,0,1,.57-5c.15-.57-.11-.79-.63-.49l-2.05,1.19a3,3,0,0,0-1.23,1.56,18.54,18.54,0,0,0-.59,5c0,.59.45.83,1,.53l2.05-1.19a2,2,0,0,0,.92-1.61Z" transform="translate(-58.8 -129.27)" style="fill:#3f5e69"/><path d="M318.68,310.7a19.74,19.74,0,0,1,.57-5c.15-.57-.11-.79-.62-.49l-2.06,1.19a3,3,0,0,0-1.23,1.56,18.55,18.55,0,0,0-.59,5c0,.59.45.83,1,.53l2.05-1.19a2.06,2.06,0,0,0,.92-1.61Z" transform="translate(-58.8 -129.27)" style="fill:#3f5e69"/><path d="M326,306.36a19.8,19.8,0,0,1,.57-5c.15-.57-.11-.79-.62-.49L323.92,302a3,3,0,0,0-1.23,1.56,18.44,18.44,0,0,0-.59,5c0,.59.44.83,1,.53l2.05-1.19a2,2,0,0,0,.92-1.61Z" transform="translate(-58.8 -129.27)" style="fill:#3f5e69"/><path d="M333.39,302a19.73,19.73,0,0,1,.57-5c.15-.57-.11-.79-.63-.49l-2.05,1.19a3,3,0,0,0-1.23,1.56,18.45,18.45,0,0,0-.59,5c0,.59.44.83,1,.53l2.05-1.18A2.05,2.05,0,0,0,333.39,302Z" transform="translate(-58.8 -129.27)" style="fill:#3f5e69"/><path d="M340.75,297.72a19.79,19.79,0,0,1,.57-5c.15-.57-.12-.79-.63-.49l-2.05,1.19a3,3,0,0,0-1.23,1.56,18.53,18.53,0,0,0-.59,5c0,.59.45.83,1,.53l2.05-1.19a2,2,0,0,0,.92-1.61Z" transform="translate(-58.8 -129.27)" style="fill:#3f5e69"/><path d="M348.13,293.42a19.87,19.87,0,0,1,.57-5c.15-.57-.12-.79-.63-.49L346,289.08a3,3,0,0,0-1.23,1.56,18.55,18.55,0,0,0-.59,5c0,.59.45.83,1,.53l2.05-1.19a2.05,2.05,0,0,0,.92-1.61Z" transform="translate(-58.8 -129.27)" style="fill:#3f5e69"/><path d="M355.57,289.23a19.85,19.85,0,0,1,.57-5c.15-.57-.12-.79-.63-.49l-2.05,1.19a3,3,0,0,0-1.23,1.56,18.47,18.47,0,0,0-.59,5c0,.59.45.83,1,.53l2.05-1.19a2,2,0,0,0,.92-1.61Z" transform="translate(-58.8 -129.27)" style="fill:#3f5e69"/><path d="M204.2,386.58,90.81,384c-5.91-.13-14,1.66-18.06,4l-7.36,4.25,97.58,23a9.33,9.33,0,0,0,8-1.83l33.23-26.86Z" transform="translate(-58.8 -129.27)" style="fill:#c6f2ed"/><path d="M171,413.43l31.84-25.73c-6.9,5.34-25.53,16.74-35.89,18.56-11.16,2-101.53-14-101.53-14l97.58,23a9.33,9.33,0,0,0,8-1.83Z" transform="translate(-58.8 -129.27)" style="fill:#a8f0e8"/><path d="M204.2,386.58,90.81,384c-5.91-.13-14,1.66-18.06,4l-7.36,4.25c7.3-3.09,16.55-5.83,43.1-4.57s92,1.9,92,1.9l3.74-3Z" transform="translate(-58.8 -129.27)" style="fill:#d4f8f2"/><path d="M395.84,284.48a3.82,3.82,0,0,0-1.63-.42L83.4,263.35c-5.9-.39-13.61,3.09-17.21,7.77l-7.39,9.6L318.48,330c4.83,1,19.13-4.37,33.42-12.62l22.65-13.08c15.36-8.87,24.9-17.75,21.29-19.82Z" transform="translate(-58.8 -129.27)" style="fill:#c6f2ed"/><path d="M351.9,317.38l22.65-13.08a113.93,113.93,0,0,0,15.83-10.77c-13,10.52-67.55,21-96.74,18.27S58.8,280.72,58.8,280.72L318.48,330c4.83,1,19.13-4.37,33.42-12.62Z" transform="translate(-58.8 -129.27)" style="fill:#a8f0e8"/><path d="M395.84,284.48a3.82,3.82,0,0,0-1.63-.42L83.4,263.35c-5.9-.39-13.61,3.09-17.21,7.77L60.85,278c4.37-5.67,11.83-10.43,24-9.91S263,280.3,293.64,281.83s87.95,5.42,91.52,5.81c4.44.48,9.37,2,6,5.2C395.85,288.78,397.81,285.62,395.84,284.48Z" transform="translate(-58.8 -129.27)" style="fill:#d4f8f2"/><path d="M279.66,302.39c-8.82,3.64-22.51,9.61-30.25,14.54,0,0-.49,1.79,2,3.23a10.73,10.73,0,0,0,5.6,1.16c8-4.21,17.68-11.48,24.05-16.56A1.39,1.39,0,0,0,279.66,302.39Z" transform="translate(-58.8 -129.27)" style="fill:#00a8a1"/><path d="M256.33,321.35h0Zm23.89-19.07h-.09a1.49,1.49,0,0,0-.52.12c-8.82,3.64-22.51,9.61-30.25,14.54a1.7,1.7,0,0,0,0,.37c0,.6.25,1.82,2.05,2.86a10.28,10.28,0,0,0,4.91,1.19,10.28,10.28,0,0,1-4.91-1.19c-2.5-1.44-2-3.23-2-3.23a6.69,6.69,0,0,0,5.11,2.48c3.3,0,10-4.22,17.76-9.31s9.17-5.81,9.06-7.2a1.34,1.34,0,0,1-.15,1.77,1.32,1.32,0,0,0,.42-1,1.43,1.43,0,0,0-1.35-1.43Zm.81,2.49h0Zm0,0h0Zm0,0h0Zm0,0h0Zm0,0,0,0Zm0,0h0Zm0,0h0Z" transform="translate(-58.8 -129.27)" style="fill:#26d9bb"/><path d="M256.38,321.35h0c.4,0,.65,0,.65,0,1.28-.67,2.61-1.42,4-2.23h0c-1.35.81-2.67,1.56-4,2.23C257,321.32,256.78,321.35,256.38,321.35Z" transform="translate(-58.8 -129.27)" style="fill:#28373c"/><path d="M281.09,304.75h0Zm0,0h0Zm0,0h0Zm0,0h0Zm0,0Zm0,0h0Zm0,0Z" transform="translate(-58.8 -129.27)" style="fill:#cccccb"/><path d="M256.38,321.35a10.32,10.32,0,0,1-5-1.19c-2.5-1.44-2-3.23-2-3.23a6.69,6.69,0,0,0,5.11,2.48c3.3,0,10-4.22,17.76-9.31s9.17-5.81,9.06-7.2a1.34,1.34,0,0,1-.15,1.77h0l0,0h-.06c-1.86,1.48-4,3.15-6.28,4.87A165.17,165.17,0,0,1,261,319.09c-1.35.81-2.67,1.56-4,2.23,0,0-.24,0-.65,0Z" transform="translate(-58.8 -129.27)" style="fill:#02b09f"/><path d="M215.41,294.58c-6.94,2.87-17.62,7.53-23.68,11.38,0,0-.38,1.41,1.58,2.55a8.42,8.42,0,0,0,4.41.91c6.28-3.29,13.8-8.94,18.81-12.94a1.12,1.12,0,0,0-1.12-1.91Z" transform="translate(-58.8 -129.27)" style="fill:#00a8a1"/><path d="M194.46,309a6.22,6.22,0,0,1-1.11-.49l0,0a2.9,2.9,0,0,1-1.58-1.91,2,2,0,0,1,0-.34,1.29,1.29,0,0,1,0-.3c6.06-3.85,16.73-8.51,23.68-11.38a1.19,1.19,0,0,1,.45-.09,1.14,1.14,0,0,1,1.1,1.14,1.16,1.16,0,0,1,0,.3,1.14,1.14,0,0,0-1-1.42c.82.53.11,1.29-5.19,4.86s-11.18,7.95-13.86,8.22l-.54,0a8.63,8.63,0,0,1-4.61-1.65s-.38,1.41,1.59,2.55a6.33,6.33,0,0,0,1.14.51Z" transform="translate(-58.8 -129.27)" style="fill:#26d9bb"/><path d="M197.22,309.44a9,9,0,0,1-2.76-.42,9,9,0,0,0,2.75.42c.32,0,.51,0,.51,0,1-.53,2-1.12,3.1-1.75h0c-1.06.63-2.1,1.22-3.1,1.75Z" transform="translate(-58.8 -129.27)" style="fill:#006e5d"/><path d="M210.31,301.26h0c2.28-1.68,4.41-3.34,6.22-4.78a1.15,1.15,0,0,0,.39-.56,1.12,1.12,0,0,1-.39.56C214.73,297.93,212.6,299.58,210.31,301.26Z" transform="translate(-58.8 -129.27)" style="fill:#cccccb"/><path d="M200.83,307.67h0c3.15-1.89,6.45-4.17,9.49-6.41h0C207.28,303.5,204,305.78,200.83,307.67Z" transform="translate(-58.8 -129.27)" style="fill:#c1c0c0"/><path d="M197.21,309.44a9,9,0,0,1-2.75-.42,6.33,6.33,0,0,1-1.14-.51c-2-1.14-1.59-2.55-1.59-2.55a8.63,8.63,0,0,0,4.61,1.65l.54,0c2.68-.28,8.5-4.62,13.86-8.22s6-4.33,5.19-4.86a1.14,1.14,0,0,1,1,1.42,1.15,1.15,0,0,1-.39.56c-1.8,1.44-3.94,3.1-6.22,4.78-3,2.24-6.33,4.52-9.49,6.41-1.06.63-2.1,1.22-3.1,1.75,0,0-.19,0-.51,0Z" transform="translate(-58.8 -129.27)" style="fill:#02b09f"/><path d="M152,288.21a.84.84,0,0,0-.84-1.44c-5.07,2.1-12.73,5.45-17.1,8.23,0,0-.28,1,1.15,1.86a6.15,6.15,0,0,0,3.22.67A96.92,96.92,0,0,0,152,288.21Z" transform="translate(-58.8 -129.27)" style="fill:#00a8a1"/><path d="M138.06,297.54h.37a93.46,93.46,0,0,0,12.91-8.79c-1.53,1.21-3.32,2.57-5.19,3.91s-3.66,2.54-5.46,3.62c-.76.46-1.52.89-2.25,1.27h-.37Zm-2.85-.68a1.94,1.94,0,0,1-1.17-1.64,1,1,0,0,1,0-.22c4.37-2.78,12-6.13,17.1-8.23a.84.84,0,0,1,.34-.07.86.86,0,0,1,.82.86.81.81,0,0,1-.09.36.86.86,0,0,0-.52-1.19c.39.4-.39,1.47-4.8,4.27-3.52,2.24-6.64,4.65-9.94,4.65a6.86,6.86,0,0,1-2.91-.66s-.28,1,1.15,1.86ZM152,288.2h0Zm0,0h0Zm0,0h0Zm0,0h0Zm0,0h0Zm0,0h0Zm.19-.24h0Z" transform="translate(-58.8 -129.27)" style="fill:#26d9bb"/><path d="M138.06,297.54a5.92,5.92,0,0,1-2.85-.68h0a5.92,5.92,0,0,0,2.85.68Z" transform="translate(-58.8 -129.27)" style="fill:#006e5d"/><path d="M151.33,288.73l.66-.52h0Zm.67-.53h0Zm0,0h0Zm0,0h0Zm0,0h0Zm0,0h0Zm0,0a.81.81,0,0,0,.19-.24A.81.81,0,0,1,152,288.17Zm.19-.25Z" transform="translate(-58.8 -129.27)" style="fill:#cccccb"/><path d="M138.06,297.54a5.92,5.92,0,0,1-2.85-.68h0c-1.43-.83-1.15-1.86-1.15-1.86a6.86,6.86,0,0,0,2.91.66c3.31,0,6.42-2.4,9.94-4.65,4.4-2.8,5.19-3.87,4.8-4.27a.86.86,0,0,1,.52,1.19h0a.81.81,0,0,1-.19.24h0l-.66.52a93.46,93.46,0,0,1-12.91,8.79h-.37Z" transform="translate(-58.8 -129.27)" style="fill:#02b09f"/><path d="M540.11,183.61c-4.92,3.83-5.13,8.26-5.13,8.26,8.83-3.69,26.51-10.57,47.67-10.46a22.15,22.15,0,0,0-6.35-5.36C562.92,174,545,179.79,540.11,183.61Z" transform="translate(-58.8 -129.27)" style="fill:#3f5e69"/><path d="M342.18,306.4a15.75,15.75,0,1,1-15.75-15.75A15.75,15.75,0,0,1,342.18,306.4Z" transform="translate(-58.8 -129.27)" style="fill:#8eede2"/><path d="M326.43,322.15h0a15.67,15.67,0,0,0,7.41-1.85h0a15.68,15.68,0,0,1-7.41,1.85Zm0,0h0Zm-.06,0h0Z" transform="translate(-58.8 -129.27)" style="fill:#cac9c9"/><path d="M326.43,322.15h-.09a15.75,15.75,0,0,1-14.69-10.33c4.31,4.62,9.39,6,11.56,6,.88,0,1.28-.22,1-.54-5.53-5.5-8.75-15.89-6.49-23.93l0,0c0,.4,0,.82,0,1.24,0,8.09,5,17.72,11.65,23h0l.13.1,0,0h0l0,0h0l0,0h0l.09.07h0a21.78,21.78,0,0,0,2.22,1.51h0l0,0h0l0,0h0l0,0a16.85,16.85,0,0,0,1.8.91,15.67,15.67,0,0,1-7.41,1.85Z" transform="translate(-58.8 -129.27)" style="fill:#02b09f"/><path d="M362.64,259.41c-15.23,0-41.23,25.63-42.65,27.44h0a11.8,11.8,0,0,0-2.31,7.67c0,9.15,6.43,20.28,14.35,24.86,3,1.75,5.85,2.28,8.17,1.76h0c2.27-.32,37.29-10.28,44.91-23.47l-22.48-38.28Z" transform="translate(-58.8 -129.27)" style="fill:#c6f2ed"/><path d="M333.84,320.3a16.85,16.85,0,0,1-1.8-.91l0,0,0,0a16.85,16.85,0,0,0,1.8.91Zm-1.86-.94,0,0Zm0,0,0,0Zm0,0a21.79,21.79,0,0,1-2.22-1.51A21.78,21.78,0,0,0,331.89,319.31Zm-2.22-1.51-.09-.07Zm-.09-.07,0,0Zm-.05,0,0,0Zm0,0,0,0Zm-.15-.12h0Z" transform="translate(-58.8 -129.27)" style="fill:#b8b7b7"/><path d="M338.43,321.34a11.65,11.65,0,0,1-4.59-1,16.85,16.85,0,0,1-1.8-.91l0,0h0l0,0h0l0,0h0a21.79,21.79,0,0,1-2.22-1.51h0l-.09-.07h0l0,0h0l0,0h0l0,0-.13-.1h0a33.43,33.43,0,0,1-11-17.81c3,3.94,5.65,5.86,10.2,5.86,3.43,0,8-1.09,14.62-3.23,15.49-5,15.7-7.62,12.14-15.22a29.44,29.44,0,0,1-2.1-17.07,24.55,24.55,0,0,0,1.72,8.59c2.38,8.52,8.38,17.07,15.41,21.13a15,15,0,0,0,7.37,2.26,8.19,8.19,0,0,0,7.18-3.91c-8,12.78-41.39,22.43-44.52,23l-.12,0h0a8.17,8.17,0,0,1-1.77.19Zm46.64-23.59,0-.07h0Z" transform="translate(-58.8 -129.27)" style="fill:#a8f0e8"/><path d="M362.64,259.41c-15.23,0-41.23,25.63-42.65,27.44h0a11,11,0,0,0-2.21,6.14c1-3.71,5.14-7.24,10.59-11.89,5.6-4.78,20.4-15.21,23.34-16.64s-.2,6,3.18,14.2l8.81-17.44-1.06-1.81Z" transform="translate(-58.8 -129.27)" style="fill:#d4f8f2"/><path d="M386.81,290.25c0,10.53-7.39,14.79-16.51,9.53s-16.51-18.06-16.51-28.59,7.39-14.79,16.51-9.53S386.81,279.72,386.81,290.25Z" transform="translate(-58.8 -129.27)" style="fill:#3b5863"/><path d="M373.27,299.35l-5.8-9.16a2.81,2.81,0,0,0,.47-.08l5.31,9.2Zm3.63-2.76-7.75-7.11.35-.28Zm-9.19-.4-2.19-6.42a5,5,0,0,0,.52.21ZM379.6,293l-9.13-4.74.3-.36L379.6,293Zm-15.16,0-.53-3.46.17-.64.36.27v3.82Zm-1.81-2.3-.07-1.68.58-1,.17.17-.67,2.5Zm-1.14-1.72.18-1.08.71-.71,0,0,.07.09Zm20,0-9.86-2.17.27-.4Zm-20.89-1.3.32-.79h0l.71-.41a.5.5,0,0,1,.17-.07s0,.06-.1.17l-1.07,1.07,0,0Zm-.72-1.28.42-.64h0l.81-.22.16,0c.06,0,.05,0,0,.07Zm-.68-1.32.87-.57h.79l0,.11h0Zm13.55-.13.23-.43h9.2l-9.43.43Zm-14.36-1.38h0l1.72-.33.35.09.07.23ZM374,282.39l.18-.43,7.54-2L374,282.39Zm-13.73-.19-2.71-.73,2.46.17.19.11C360.2,281.9,360.22,282,360.25,282.2Zm-.09-1.55-3.71-2.14,3.74,1.8c0,.11,0,.23,0,.35Zm.42-1.71L355.63,274l0,0,5.14,4.71c-.06.09-.11.18-.16.28Zm14.62-.08a1.45,1.45,0,0,0,0-.28l4.9-2.83Zm-13.35-1.16-5-8.59-.28-.49,5.68,8.88-.44.2Zm10.94-.54-.36-.06,4.7-4.7Zm-9.23-.07-2.64-9.86,3,9.78Zm6.42-.28-.38,0,3.9-6.76Zm-4.6,0v-10l.37,10Zm2.35-.09h-.39l2.44-9.1,0-.16Z" transform="translate(-58.8 -129.27)" style="fill:#9fb0b5"/><path d="M367.45,287.14,380.26,300a.72.72,0,0,0,.74.16l.39-.2.05,0-.28-.37-13-13c-.18-.18-.15-.23.07-.1l16.06,9.27a.39.39,0,0,0,.58-.2h0a.59.59,0,0,0-.25-.68l-15.92-9.19c-.23-.13-.2-.18,0-.12l16.44,4.41a.31.31,0,0,0,.42-.35v-.06a.73.73,0,0,0-.5-.59l-16.12-4.32c-.25-.07-.25-.12,0-.12h15.41a.36.36,0,0,0,.37-.46v0a.62.62,0,0,0-.58-.46H369c-.26,0-.27-.05,0-.12l13.9-3.72a.43.43,0,0,0,.3-.57h0a.53.53,0,0,0-.62-.32l-13.82,3.7c-.25.07-.27,0,0-.11l12.14-7c.22-.13.35-.35.28-.49l-.13-.25-.1-.16c-.06-.08-.29,0-.51.08l-12.14,7c-.23.13-.26.09-.08-.1l10.13-10.13,0-.7h0l-.63,0-10.2,10.2c-.18.19-.23.15-.1-.07L375,267.46a.61.61,0,0,0-.1-.73l0,0a.36.36,0,0,0-.58.09l-7.74,13.4c-.13.23-.18.2-.11,0l4.34-16.2a.73.73,0,0,0-.27-.73l0,0a.32.32,0,0,0-.52.19l-4.43,16.53c-.07.25-.12.24-.12,0V261.36a.58.58,0,0,0-.46-.56h0a.39.39,0,0,0-.47.4v18.7c0,.26-.05.27-.12,0l-4.82-18c-.07-.25-.16-.44-.2-.42l-.08,0-.34.22a.7.7,0,0,0-.21.7l4.74,17.7c.07.25,0,.27-.11,0l-7.53-13c-.13-.22-.29-.21-.35,0l-.1.44a1.42,1.42,0,0,0,.15.87l7,12.15c.13.23.09.26-.1.08l-6.89-6.89c-.18-.18-.31-.12-.3.14l0,.51a1.5,1.5,0,0,0,.39.8l6.1,6.11c.18.18.15.23-.08.1l-5.2-3c-.23-.13-.35,0-.28.22l.13.41a1.38,1.38,0,0,0,.55.69l4.33,2.5c.23.13.21.18,0,.11l-3.59-1c-.25-.07-.38.08-.29.32l.07.2a1,1,0,0,0,.62.56l3,.79c.25.07.24.12,0,.12H358.4a.27.27,0,0,0-.26.42l.05.1a.86.86,0,0,0,.69.42h2c.26,0,.27.05,0,.12l-1.67.45a.37.37,0,0,0-.25.55v0a.61.61,0,0,0,.67.3l1.48-.4c.25-.07.27,0,0,.12l-1.28.74c-.23.13-.37.31-.33.4l.09.17.15.24c.09.13.34.13.56,0l1.27-.74c.23-.13.26-.09.07.1l-1.07,1.07a.6.6,0,0,0-.08.73v0a.37.37,0,0,0,.59.06l1.21-1.22c.18-.18.23-.15.1.07l-1,1.71a.86.86,0,0,0,0,.8l.06.1a.27.27,0,0,0,.5,0l1.22-2.12c.13-.22.18-.2.12,0l-.78,2.91a1,1,0,0,0,.18.82l.14.16c.17.2.36.15.43-.1l1-3.55c.07-.25.12-.25.12,0v5a1.35,1.35,0,0,0,.32.81l.29.3c.18.18.33.12.33-.14V288c0-.26.06-.27.12,0l2.2,8.22a1.5,1.5,0,0,0,.5.74l.43.28c.22.14.33.06.27-.19l-2.49-9.29c-.07-.25,0-.27.11,0l6.92,12a1.44,1.44,0,0,0,.68.56l.43.13c.25.07.35-.06.22-.28l-7.43-12.87c-.13-.22-.09-.26.1-.07Z" transform="translate(-58.8 -129.27)" style="fill:#2f444d"/><path d="M375,278.12a1.59,1.59,0,0,0-1.05-.76v0s-8.39-1.79-12.34.48a3.45,3.45,0,0,0-1.44,3.19,10.87,10.87,0,0,0,4.92,8.52,3.46,3.46,0,0,0,3.48.35c3.94-2.28,6.58-10.45,6.58-10.45h0a1.62,1.62,0,0,0-.13-1.29Z" transform="translate(-58.8 -129.27)" style="fill:#d4f8f2"/><path d="M360.19,280.3h0c0-.13,0-.25.06-.37h0C360.22,280.05,360.2,280.18,360.19,280.3Z" transform="translate(-58.8 -129.27)" style="fill:#3a555f"/><path d="M360.16,280.65h0c0-.12,0-.23,0-.35h0C360.18,280.41,360.16,280.53,360.16,280.65Z" transform="translate(-58.8 -129.27)" style="fill:#909fa3"/><path d="M360.74,278.66h0a2.92,2.92,0,0,1,.25-.34A2.92,2.92,0,0,0,360.74,278.66Z" transform="translate(-58.8 -129.27)" style="fill:#3a555f"/><path d="M360.58,278.93h0c.05-.1.1-.19.16-.28h0C360.68,278.74,360.63,278.84,360.58,278.93Z" transform="translate(-58.8 -129.27)" style="fill:#909fa3"/><path d="M360.15,280.9c0-.09,0-.17,0-.25h0C360.15,280.73,360.15,280.82,360.15,280.9Zm.1-1h0a3.93,3.93,0,0,1,.33-1h0A3.93,3.93,0,0,0,360.25,279.94Z" transform="translate(-58.8 -129.27)" style="fill:#31444b"/><path d="M367.27,290.2h-.18a4,4,0,0,1-1-.21,5.42,5.42,0,0,1-.66-.28l-.32-.17q-.32-.18-.62-.4l-.36-.27a9.16,9.16,0,0,1-.78-.72l-.17-.18c-.22-.24-.44-.49-.65-.76l-.07-.1a12,12,0,0,1-1.49-2.59,9.21,9.21,0,0,1-.77-3.51v-.11c0-.09,0-.17,0-.25s0-.23,0-.35,0-.25.06-.37a3.93,3.93,0,0,1,.33-1c.05-.1.1-.19.16-.28a2.92,2.92,0,0,1,.25-.34,2.39,2.39,0,0,1,.6-.49,7.5,7.5,0,0,1,2-.75c-1.67.77-2.59,2.4-1.86,4.92.54,1.87,2,3.71,4.06,3.71a4.31,4.31,0,0,0,2.34-.77c3.2-2.06,7-5.52,6.85-6.81a1.57,1.57,0,0,1,.21.79,1.75,1.75,0,0,1-.08.5h0a35.61,35.61,0,0,1-1.65,4c-.15.31-.31.62-.47.94s-.38.7-.58,1.05-.33.56-.51.84h0l-.27.4-.28.41q-.28.39-.58.75l-.3.36-.29.32c-.22.23-.45.45-.69.65l-.35.28-.35.24-.25.16a2.38,2.38,0,0,1-.6.25,2.81,2.81,0,0,1-.47.08h-.21Z" transform="translate(-58.8 -129.27)" style="fill:#a8f0e8"/><path d="M375.12,279.41a1.62,1.62,0,0,0-.13-1.29,1.59,1.59,0,0,0-1.05-.76v0s-8.39-1.79-12.34.48a2.8,2.8,0,0,0-1.2,1.66c.55-1,2.14-2,6.22-2.08A26.36,26.36,0,0,1,374,278a.88.88,0,0,0-.25,1.05c.26.69,1.07.9,1.39.4h0Z" transform="translate(-58.8 -129.27)" style="fill:#a8f0e8"/></g><g id="_2088391757600" data-name=" 2088391757600"><path d="M597,314.91a29.59,29.59,0,0,0-17.29-1.63s11.15-.76,17.76,6.32c0,0,4.62-7.09,12.27-8.72,0,0-5.69-.68-12.73,4Z" transform="translate(-58.8 -129.27)" style="fill:#fff"/><path d="M575.71,311.5a22.88,22.88,0,0,0-13.37-1.34s8.63-.54,13.71,5c0,0,3.61-5.46,9.53-6.69C585.58,308.44,581.18,307.88,575.71,311.5Z" transform="translate(-58.8 -129.27)" style="fill:#fff"/><path d="M556.94,308.91a20.84,20.84,0,0,0-12.21-.71s7.83-.82,12.66,4c0,0,3.07-5.11,8.41-6.45,0,0-4-.33-8.86,3.17Z" transform="translate(-58.8 -129.27)" style="fill:#fff"/><path d="M546.42,303.48a14.11,14.11,0,0,0-8.28.29s5.23-1,8.79,1.89a10.48,10.48,0,0,1,5.26-4.88,9.8,9.8,0,0,0-5.77,2.69Z" transform="translate(-58.8 -129.27)" style="fill:#fff"/><path d="M584.09,290.13a14.12,14.12,0,0,0-8.28-.14s5.27-.77,8.68,2.35a10.47,10.47,0,0,1,5.51-4.6,9.8,9.8,0,0,0-5.9,2.39Z" transform="translate(-58.8 -129.27)" style="fill:#fff"/><path d="M602.43,303a20.56,20.56,0,0,0-12-1.37s7.75-.38,12.25,4.62c0,0,3.31-4.86,8.64-5.89C611.33,300.36,607.38,299.81,602.43,303Z" transform="translate(-58.8 -129.27)" style="fill:#fff"/><path d="M595.19,294.87a19,19,0,0,0-11.13-.84s7.15-.62,11.48,3.84c0,0,2.89-4.61,7.77-5.74,0,0-3.67-.37-8.13,2.74Z" transform="translate(-58.8 -129.27)" style="fill:#fff"/></g><g id="_2088391750496" data-name=" 2088391750496"><polygon points="418.15 402.51 401.09 402.51 403.49 428.97 415.75 428.97 418.15 402.51" style="fill:#178573"/><path d="M468.25,536.19c-.31-10.95,2.25-33.61,6.83-42.84l.3.15c-4.39,8.85-7.11,31.64-6.79,42.68h-.34Z" transform="translate(-58.8 -129.27)" style="fill:#178573"/><path d="M469.94,514.63s-1.12-10.6-5.26-13.85C462.46,507.47,467,509.78,469.94,514.63Z" transform="translate(-58.8 -129.27)" style="fill:#02b09f"/><path d="M464.77,501.07c-1.47,4.7.52,7.18,2.82,10,.7.88,1.42,1.78,2.09,2.79-.34-2.42-1.65-10-4.91-12.82Zm5.18,13.73a.17.17,0,0,1-.15-.08,31.19,31.19,0,0,0-2.48-3.4c-2.4-3-4.47-5.57-2.8-10.59a.17.17,0,0,1,.27-.08c4.15,3.26,5.28,13.53,5.33,14a.17.17,0,0,1-.11.18h-.05Z" transform="translate(-58.8 -129.27)" style="fill:#02b09f;stroke:#02b09f;stroke-miterlimit:10;stroke-width:7.61999988555908px"/><path d="M470.56,510.62s4.39-9.8,9.37-11.54C479.86,506.13,474.91,507,470.56,510.62Z" transform="translate(-58.8 -129.27)" style="fill:#178573"/><path d="M479.75,499.33c-4,1.61-7.65,8.5-8.72,10.69.92-.72,1.86-1.33,2.77-1.92C476.92,506.07,479.62,504.31,479.75,499.33Zm-9.19,11.46a.17.17,0,0,1-.1,0,.17.17,0,0,1-.05-.2c.18-.4,4.48-9.89,9.47-11.63a.17.17,0,0,1,.15,0,.17.17,0,0,1,.07.14c0,5.35-2.86,7.18-6.11,9.3a33.42,33.42,0,0,0-3.32,2.37.17.17,0,0,1-.11,0Z" transform="translate(-58.8 -129.27)" style="fill:#178573"/><path d="M468.52,529.55s-1.7-14.75-6.84-18.64C459.1,519.15,464.82,523.67,468.52,529.55Z" transform="translate(-58.8 -129.27)" style="fill:#178573"/><path d="M461.79,511.27c-1.81,6.2,1.18,10.24,4.34,14.51.69.94,1.4,1.9,2.07,2.89C467.73,525.46,465.9,514.72,461.79,511.27Zm6.73,18.49a.21.21,0,0,1-.18-.1c-.79-1.26-1.69-2.47-2.55-3.64-3.27-4.42-6.36-8.6-4.31-15.17a.21.21,0,0,1,.32-.1c5.15,3.9,6.85,18.17,6.92,18.78a.21.21,0,0,1-.14.22Z" transform="translate(-58.8 -129.27)" style="fill:#178573"/><path d="M469.11,521.6s5.73-10.5,11.78-12.74C481,517.5,474.35,517,469.11,521.6Z" transform="translate(-58.8 -129.27)" style="fill:#02b09f"/><path d="M480.69,509.17c-4.73,2-9.28,9-10.83,11.56a29.88,29.88,0,0,1,4.23-2.54C477.59,516.34,480.63,514.73,480.69,509.17Zm-11.58,12.64a.21.21,0,0,1-.18-.31c.24-.43,5.84-10.6,11.9-12.83a.21.21,0,0,1,.28.19c.05,6.06-3.14,7.74-6.83,9.69a25.22,25.22,0,0,0-5,3.2.21.21,0,0,1-.14.05Z" transform="translate(-58.8 -129.27)" style="fill:#02b09f"/><path d="M471.81,503.91s-.78-7.39-3.67-9.66C466.59,498.92,469.76,500.53,471.81,503.91Z" transform="translate(-58.8 -129.27)" style="fill:#178573"/><path d="M468.2,494.45c-1,3.28.36,5,2,7,.49.61,1,1.24,1.46,1.94-.24-1.69-1.15-7-3.43-8.95Zm3.61,9.58a.12.12,0,0,1-.1-.06A21.77,21.77,0,0,0,470,501.6c-1.67-2.08-3.12-3.88-2-7.39a.12.12,0,0,1,.08-.08.12.12,0,0,1,.11,0c2.9,2.27,3.68,9.44,3.72,9.74a.12.12,0,0,1-.08.12h0Z" transform="translate(-58.8 -129.27)" style="fill:#178573"/><path d="M473.16,498.93s3.07-6.84,6.53-8C479.65,495.8,476.19,496.39,473.16,498.93Z" transform="translate(-58.8 -129.27)" style="fill:#02b09f"/><path d="M479.57,491.06c-2.79,1.12-5.34,5.93-6.08,7.46.65-.5,1.3-.93,1.93-1.34C477.59,495.76,479.48,494.53,479.57,491.06Zm-6.41,8-.07,0a.12.12,0,0,1,0-.14c.13-.28,3.13-6.9,6.6-8.11a.12.12,0,0,1,.16.11c0,3.73-2,5-4.26,6.49a23.23,23.23,0,0,0-2.32,1.65l-.08,0Z" transform="translate(-58.8 -129.27)" style="fill:#02b09f"/></g><g id="_2088392093552" data-name=" 2088392093552"><polygon points="293.94 425.11 320.57 425.11 320.57 425 293.94 425 293.94 425.11" style="fill:#ebecec"/><path d="M386.1,531.35H363.88a5.67,5.67,0,0,1,5.67-5.67H386.1Z" transform="translate(-58.8 -129.27)" style="fill:#e0e0e0"/><path d="M409,437.87c5.47,11.82,18.88,18.25,4.9,24.79s-15.36-11.36-15-16.81S406,431.48,409,437.87Z" transform="translate(-58.8 -129.27)" style="fill:#263238"/><path d="M419.38,454.67h0a.11.11,0,0,1-.09-.14c.72-3.4-1.81-5.92-4.75-8.83-2.19-2.17-4.67-4.63-6-7.79-.64-1.55-1.51-2.22-2.57-2-2.86.59-6.07,7.15-6,11a.11.11,0,0,1-.11.12.12.12,0,0,1-.12-.11c-.06-3.91,3.25-10.61,6.2-11.22.82-.17,2,.07,2.83,2.14,1.29,3.12,3.75,5.56,5.92,7.72,3,3,5.56,5.52,4.81,9a.11.11,0,0,1-.11.09Z" transform="translate(-58.8 -129.27)" style="fill:#263238"/><path d="M398.37,442c1.38.93,3.74-2.66,4.87-7.37-2.84-2.34-4.57-2-5.7.07C396.21,437.06,396.79,440.9,398.37,442Z" transform="translate(-58.8 -129.27)" style="fill:#263238"/><path d="M393.66,516.06s19.19-3.91,33.17-.64c-4.1-6.15-21.5-33.38-21.5-33.38l-8.27,9.83-3.41,24.18Z" transform="translate(-58.8 -129.27)" style="fill:#3a72b7"/><path d="M393.66,516.06m0,0a9.29,9.29,0,0,1,2.06-1.85q.08.73.18,1.45c-1.42.24-2.24.4-2.24.4Zm33.17-.64,0,0a58.69,58.69,0,0,0-13.11-1.31c-2.86,0-5.64.14-8.18.35-.33-9,1-19.56,2.19-27.15a163.42,163.42,0,0,0,4.42,25.11c10.18.06,14.68,3,14.68,3Z" transform="translate(-58.8 -129.27)" style="fill:#e0e0e0"/><path d="M399.64,456.85c-.3,1.31-.63,2.51-1,3.74s-.8,2.44-1.26,3.64-1,2.41-1.57,3.61a24.64,24.64,0,0,1-2.1,3.59l-.33.45c-.12.15-.21.28-.4.5a5.8,5.8,0,0,1-.51.53,6.18,6.18,0,0,1-.51.45,11.63,11.63,0,0,1-2,1.28,21.45,21.45,0,0,1-3.86,1.48,35.23,35.23,0,0,1-3.81.84,33.62,33.62,0,0,1-3.84.43l-.6-3.1c2.21-.85,4.49-1.72,6.55-2.72a21.34,21.34,0,0,0,2.84-1.6,6.62,6.62,0,0,0,1-.84,1.33,1.33,0,0,0,.16-.18.7.7,0,0,0,.11-.15l.15-.24.19-.31a25.08,25.08,0,0,0,1.38-2.91c.42-1,.82-2.13,1.19-3.24s.73-2.23,1.06-3.36.67-2.3,1-3.37l6.2,1.51Z" transform="translate(-58.8 -129.27)" style="fill:#f1f1f1"/><path d="M378.53,474.72l-3.61.19,2,3.7a4.84,4.84,0,0,0,2.88-3.09l-1.31-.8Z" transform="translate(-58.8 -129.27)" style="fill:#f7bebf"/><polygon points="313.46 348.01 316.38 350.31 318.17 349.35 316.12 345.64 313.46 348.01" style="fill:#f7bebf"/><polygon points="349.58 431.07 345.54 431.45 344.7 422.14 348.75 421.76 349.58 431.07" style="fill:#f7bebf"/><polygon points="381.28 417.31 378.34 420.06 372 413.1 374.94 410.34 381.28 417.31" style="fill:#f7bebf"/><path d="M436.33,548.61l2.21-4a.32.32,0,0,1,.4-.15l3.4,1.29a.65.65,0,0,1,.31.92c-.79,1.37-1.25,2-2.22,3.75-.6,1.08-1.76,3.54-2.58,5s-2.34.75-2.13.06a11.75,11.75,0,0,0,.5-6.2,1.06,1.06,0,0,1,.11-.71Z" transform="translate(-58.8 -129.27)" style="fill:#0d6b5b"/><path d="M403.8,559.51h4.8a.4.4,0,0,1,.38.29l1,3.8a.6.6,0,0,1-.59.76c-1.69,0-2.5,0-4.61,0h-6.46c-1.76,0-2.12-1.77-1.4-1.93,3.26-.72,5.13-1.71,6.14-2.66a1,1,0,0,1,.68-.26Z" transform="translate(-58.8 -129.27)" style="fill:#0d6b5b"/><polygon points="349.21 426.94 349.21 426.94 349.07 425.41 349.08 425.41 349.21 426.94" style="fill:#cccccb"/><polygon points="349.21 426.94 345.13 426.94 345.01 425.51 349.07 425.41 349.21 426.94" style="fill:#dc9e9a"/><path d="M432.11,543.81l-1.32-1.45h0l1.32,1.45Zm4.89-.61-3.27-3.59h0l3.27,3.59h0Z" transform="translate(-58.8 -129.27)" style="fill:#cccccb"/><polygon points="375.27 416.69 373.32 414.54 372 413.1 374.94 410.34 378.21 413.93 375.27 416.69" style="fill:#dc9e9a"/><path d="M393.36,457c.27,3,1.28,9.07,4.3,21L414,476.63c-.79-6.14-1.16-10.12.37-21.71a2.9,2.9,0,0,0-2.7-3.28c-1.16-.06-2.54-.1-3.92,0a52.28,52.28,0,0,0-7.44.64c-1.48.27-3.08.65-4.35,1a3.58,3.58,0,0,0-2.65,3.78Z" transform="translate(-58.8 -129.27)" style="fill:#27debf"/><path d="M406.33,443.28c-.26,2.43-.35,6.86,1.46,8.31,0,0,.14,2.51-5,3.34-3.59-.31-2.48-2.69-2.48-2.69,2.61-.87,2.37-2.84,1.75-4.66Z" transform="translate(-58.8 -129.27)" style="fill:#ffa8a7"/><path d="M402.45,448.87l0-.1,0,.1h0Zm-.34-1.3h0l.27-.27Z" transform="translate(-58.8 -129.27)" style="fill:#242f34"/><path d="M402.45,448.87l0-.1a7.91,7.91,0,0,0-.33-1.2l.27-.27,2.23-2.27a4.3,4.3,0,0,1,.32,1.48c0,1.08-1.47,2.12-2.48,2.36Z" transform="translate(-58.8 -129.27)" style="fill:#eb9896"/><path d="M408.47,439.48c-1,3.89-1.36,5.56-3.75,7.18-3.59,2.45-8.14.35-8.31-3.76-.15-3.7,1.54-9.44,5.7-10.25A5.48,5.48,0,0,1,408.47,439.48Z" transform="translate(-58.8 -129.27)" style="fill:#ffa8a7"/><path d="M400,432.35c-1.65,1.66,1.8,5.85,7.52,9.55,4.43-2.68,2.91-6.28.89-8.32s-6.52-3.13-8.41-1.23Z" transform="translate(-58.8 -129.27)" style="fill:#263238"/><path d="M401.51,436.65l-.08,0c-1.82-1.82-2.54-3.2-2.11-4.11.62-1.33,3.43-1.09,3.55-1.08a.11.11,0,1,1,0,.23s-2.77-.24-3.32.95c-.37.8.34,2.13,2.07,3.85a.11.11,0,0,1,0,.16l-.08,0Z" transform="translate(-58.8 -129.27)" style="fill:#263238"/><path d="M408.79,443a2.93,2.93,0,0,1-1.73,1.43c-1,.3-1.5-.58-1.24-1.52s1-2,2-1.91A1.32,1.32,0,0,1,408.79,443Z" transform="translate(-58.8 -129.27)" style="fill:#ffa8a7"/><path d="M397.66,478s-4.73,24.5-1,41.79c2.48,11.58,5.66,35,5.66,35l7-.18s-1.82-24.55-3.22-34.2c-2.39-16.51,3.6-43.44,3.6-43.44l-12,1Z" transform="translate(-58.8 -129.27)" style="fill:#27debf"/><path d="M405.54,508.24c-4.91-8.8-2.59-20.59-1.5-25.25l3.49,5.51A168.57,168.57,0,0,0,405.54,508.24Z" transform="translate(-58.8 -129.27)" style="fill:#178573"/><polygon points="342.87 425.82 351.1 425.8 351.08 423.04 342.36 422.93 342.87 425.82" style="fill:#178573"/><path d="M401.24,477.78s3.25,26,10.3,40.2c5.69,11.47,20.89,27.79,20.89,27.79l3.88-4S426,524,421.82,516.41c-10.38-18.68-1.9-32.93-7.78-39.79Z" transform="translate(-58.8 -129.27)" style="fill:#27debf"/><polygon points="373.24 417.04 378.25 412.16 376.59 409.89 371.27 415.2 373.24 417.04" style="fill:#178573"/><path d="M414.2,475.64l.87,1.4c.07.11-.06.24-.25.25l-17.18,1.49c-.15,0-.28,0-.29-.14l-.27-1.45c0-.1.1-.2.26-.21l16.59-1.43a.3.3,0,0,1,.28.1Z" transform="translate(-58.8 -129.27)" style="fill:#fefefe"/><path d="M412.13,477.69l.44,0c.09,0,.15-.06.14-.11l-.37-1.89c0-.06-.09-.09-.18-.09l-.44,0c-.09,0-.15.06-.14.11l.37,1.89c0,.06.09.09.18.09Z" transform="translate(-58.8 -129.27)" style="fill:#29383e"/><path d="M398.9,478.83l.44,0c.09,0,.15-.06.14-.11l-.37-1.89c0-.05-.09-.09-.18-.09l-.44,0c-.09,0-.15.06-.14.11l.37,1.89c0,.05.09.09.18.09Z" transform="translate(-58.8 -129.27)" style="fill:#29383e"/><path d="M405.52,478.26l.44,0c.09,0,.15-.06.14-.11l-.37-1.89c0-.06-.09-.09-.18-.09l-.44,0c-.09,0-.15.06-.14.11l.37,1.89c0,.06.09.09.18.09Z" transform="translate(-58.8 -129.27)" style="fill:#178573"/><path d="M401.89,439.35c-.06.32-.28.55-.49.51s-.33-.33-.27-.66.28-.55.49-.51.33.33.27.65Z" transform="translate(-58.8 -129.27)" style="fill:#263238"/><path d="M398.27,438.63c-.06.32-.28.55-.49.51s-.33-.33-.26-.65.28-.55.49-.51S398.33,438.31,398.27,438.63Z" transform="translate(-58.8 -129.27)" style="fill:#263238"/><path d="M398.09,438l-.73-.37S397.64,438.32,398.09,438Z" transform="translate(-58.8 -129.27)" style="fill:#263238"/><path d="M399.51,439.43a8.74,8.74,0,0,1-1.54,1.82,1.4,1.4,0,0,0,1.1.44Z" transform="translate(-58.8 -129.27)" style="fill:#eb9896"/><path d="M400.55,443.22a2.65,2.65,0,0,0,1.83-.69v-.11h-.11A2.61,2.61,0,0,1,400,443a.08.08,0,0,0-.09.06.08.08,0,0,0,.06.09A3.1,3.1,0,0,0,400.55,443.22Z" transform="translate(-58.8 -129.27)" style="fill:#263238"/><path d="M404.07,438.1l.08,0a.16.16,0,0,0,.05-.22,1.87,1.87,0,0,0-1.44-.93.16.16,0,0,0,0,.32,1.55,1.55,0,0,1,1.18.78.16.16,0,0,0,.14.08Z" transform="translate(-58.8 -129.27)" style="fill:#263238"/><path d="M397.26,436.82l.08,0a1.56,1.56,0,0,1,1.41-.09.16.16,0,0,0,.15-.28,1.87,1.87,0,0,0-1.72.1.16.16,0,0,0,.08.3Z" transform="translate(-58.8 -129.27)" style="fill:#263238"/><path d="M407.54,451.14a77.73,77.73,0,0,0-.61,11.36c0,4.65-1.15,25.47,5.22,49.94,10.18.06,14.68,3,14.68,3S417,475.6,415.72,455a4.06,4.06,0,0,0-3.8-3.81c-2-.13-4.37-.06-4.37-.06Z" transform="translate(-58.8 -129.27)" style="fill:#efefef"/><path d="M417.83,485.06l-.08,0c-2.86-1.71-5.79-6.49-5.91-6.69a.16.16,0,0,1,.27-.16s3,4.92,5.8,6.59a.16.16,0,0,1-.08.29Z" transform="translate(-58.8 -129.27)" style="fill:#fefefe"/><path d="M417.34,469.08h0c-.41-2.67-.76-5.27-1-7.72h0c.28,2.45.63,5,1,7.72Z" transform="translate(-58.8 -129.27)" style="fill:#cccccb"/><path d="M416.29,461.36l0-.17h0l0,.16h0Z" transform="translate(-58.8 -129.27)" style="fill:#242f34"/><path d="M417.33,469.08A39.83,39.83,0,0,1,413,458.3l3.3,2.89,0,.17c.28,2.45.64,5,1,7.72Z" transform="translate(-58.8 -129.27)" style="fill:#e0e0e0"/><path d="M399.85,451.93s-.36,4.31-.36,15.4c0,10.7,1.32,26.11-.71,45.51a9.87,9.87,0,0,0-5.11,3.21s2.75-35.23-.41-59.1a4,4,0,0,1,3.3-4.31c2-.37,3.3-.71,3.3-.71Z" transform="translate(-58.8 -129.27)" style="fill:#efefef"/><polygon points="372.89 358.14 363.04 360.7 362.13 357.2 371.98 354.64 372.89 358.14" style="fill:#02b09f"/><polygon points="372.58 356.94 372.56 356.86 372.56 356.86 372.58 356.94" style="fill:#fefefe"/><polygon points="362.87 360.05 362.7 359.42 372.56 356.86 372.58 356.94 372.72 357.49 362.87 360.05" style="fill:#26d9bb"/><polygon points="372.43 358.3 363.97 360.06 363.1 355.89 371.55 354.13 372.43 358.3" style="fill:#26d9bb"/><path d="M423,482.58l-.7,3.55,3.35-.85s.23-2.44-1.15-3.41Z" transform="translate(-58.8 -129.27)" style="fill:#f7bebf"/><polygon points="364.36 358.71 367.73 358.38 366.86 356.02 363.51 356.86 364.36 358.71" style="fill:#f7bebf"/><path d="M414.49,452.38c1,1,1.85,2,2.74,3.06s1.73,2.1,2.54,3.21,1.61,2.24,2.36,3.45c.37.61.74,1.22,1.08,1.89l.26.49.25.53.24.53c.08.17.16.4.24.6a15.74,15.74,0,0,1,.62,2.26c.15.72.27,1.42.37,2.12.19,1.39.3,2.75.38,4.11a64.93,64.93,0,0,1-.05,8.1l-3.16.17c-.51-2.55-1-5.14-1.52-7.65-.26-1.26-.55-2.5-.86-3.7-.16-.6-.32-1.18-.51-1.74a13.92,13.92,0,0,0-.58-1.51c-.06-.1-.09-.18-.16-.3l-.2-.35-.2-.35-.24-.36c-.3-.48-.66-1-1-1.47-.71-1-1.5-2-2.29-2.95-1.59-1.95-3.32-3.91-5-5.79l4.67-4.35Z" transform="translate(-58.8 -129.27)" style="fill:#f1f1f1"/><path d="M436.44,549.3c-.22.71-.51,1.18-.78,1.27a.38.38,0,0,1-.36-.08.15.15,0,0,1-.07-.14c0-.31.78-.8,1.22-1Zm-.89,1.45.16,0c.48-.16.8-1.05.94-1.57l0-.08h-.09c-.15.08-1.43.76-1.47,1.27a.31.31,0,0,0,.14.28.58.58,0,0,0,.35.13Z" transform="translate(-58.8 -129.27)" style="fill:#178573"/><path d="M436.4,549.14c-.43.19-1.28.3-1.52.1,0,0-.08-.09,0-.21a.32.32,0,0,1,.2-.19,2.25,2.25,0,0,1,1.34.31Zm-1,.36a2.88,2.88,0,0,0,1.26-.3l0-.07,0-.07s-1.06-.58-1.61-.39a.48.48,0,0,0-.3.28.32.32,0,0,0,.07.39.92.92,0,0,0,.58.14Z" transform="translate(-58.8 -129.27)" style="fill:#178573"/><path d="M402.7,560a3,3,0,0,1-1.87-.08.43.43,0,0,1-.17-.33.11.11,0,0,1,0-.11c.24-.17,1.28.19,2,.51Zm-1,.27a6.42,6.42,0,0,0,1.31-.17l.06-.07,0-.08c-.2-.09-1.94-.9-2.38-.6a.26.26,0,0,0-.11.25.58.58,0,0,0,.24.45,1.58,1.58,0,0,0,.93.22Z" transform="translate(-58.8 -129.27)" style="fill:#178573"/><path d="M401.76,558.5c.6,0,1,1,1.07,1.4-.57-.3-1.35-1-1.31-1.29,0,0,0-.08.18-.1h.07Zm1.19,1.63.05,0,0-.08c0-.07-.41-1.79-1.36-1.68-.24,0-.3.15-.31.24-.06.44,1,1.32,1.56,1.53Z" transform="translate(-58.8 -129.27)" style="fill:#178573"/><path d="M401.71,438.73l-.73-.37S401.26,439,401.71,438.73Z" transform="translate(-58.8 -129.27)" style="fill:#263238"/><path d="M408.74,451l-1.24,0a.15.15,0,0,0-.14.12c-.16.78-1,5.49-.45,14a75.64,75.64,0,0,1,2.38-8.83c-.48-.36-1.23-1-1.23-1l1.39-.89-.56-3.29A.15.15,0,0,0,408.74,451Z" transform="translate(-58.8 -129.27)" style="fill:#3a72b7"/><path d="M406.9,465.14c-.13-2-.18-3.85-.18-5.45a46.14,46.14,0,0,1,.63-8.51.15.15,0,0,1,.14-.12l1.24,0h0a.15.15,0,0,1,.15.13l.56,3.29-1.39.89h0s.76.61,1.23,1a75.59,75.59,0,0,0-2.38,8.83h0Z" transform="translate(-58.8 -129.27)" style="fill:#e0e0e0"/><path d="M398.49,452.06l1.47-.26s.13,4.21-.47,13.51c-.53-2.47-1.64-7.58-1.7-9,.48-.36,1.23-1,1.23-1l-1.39-.89.86-2.39Z" transform="translate(-58.8 -129.27)" style="fill:#3a72b7"/><path d="M399.49,465.31c-.53-2.47-1.64-7.58-1.7-9,.48-.36,1.23-1,1.23-1h0l-1.39-.89.86-2.39,1.47-.26s0,.38,0,1.17c0,1.83-.06,5.84-.48,12.35Z" transform="translate(-58.8 -129.27)" style="fill:#e0e0e0"/><path d="M379.49,509.72H362.63a7.39,7.39,0,0,0-7.36,7.36v35.52a7.39,7.39,0,0,0,7.36,7.36h16.87a7.38,7.38,0,0,0,7.36-7.36V517.08A7.38,7.38,0,0,0,379.49,509.72Z" transform="translate(-58.8 -129.27)" style="fill:#0d6b5b"/><path d="M373.29,476.3h-4.45a5,5,0,0,0-5,5v48a5,5,0,0,0,5,5h4.45a5,5,0,0,0,5-5v-48a5,5,0,0,0-5-5Zm0,.8a4.17,4.17,0,0,1,4.17,4.17v48a4.17,4.17,0,0,1-4.17,4.17h-4.45a4.17,4.17,0,0,1-4.17-4.17v-48a4.17,4.17,0,0,1,4.17-4.17h4.45Z" transform="translate(-58.8 -129.27)" style="fill:#0d6b5b"/><path d="M382.55,560.54a1.87,1.87,0,1,1-1.88-1.88A1.88,1.88,0,0,1,382.55,560.54Z" transform="translate(-58.8 -129.27)" style="fill:#0d6b5b"/><path d="M375.95,560.54a1.87,1.87,0,1,1-1.87-1.88A1.87,1.87,0,0,1,375.95,560.54Z" transform="translate(-58.8 -129.27)" style="fill:#0d6b5b"/><path d="M365.16,560.54a1.87,1.87,0,1,1-1.87-1.88A1.87,1.87,0,0,1,365.16,560.54Z" transform="translate(-58.8 -129.27)" style="fill:#0d6b5b"/><path d="M358.57,560.54a1.87,1.87,0,1,1-1.87-1.88A1.87,1.87,0,0,1,358.57,560.54Z" transform="translate(-58.8 -129.27)" style="fill:#0d6b5b"/><path d="M374.73,509.72H357.87a7.39,7.39,0,0,0-7.36,7.36v35.52a7.39,7.39,0,0,0,7.36,7.36h16.87a7.39,7.39,0,0,0,7.36-7.36V517.08A7.39,7.39,0,0,0,374.73,509.72Z" transform="translate(-58.8 -129.27)" style="fill:#3a72b7"/><path d="M374.73,560H357.87a7.3,7.3,0,0,1-2.7-.52,7.39,7.39,0,0,1-4.66-6.85V517.08a7.39,7.39,0,0,1,7.36-7.36h16.87a7.39,7.39,0,0,1,7.36,7.36v35.52a7.39,7.39,0,0,1-7.36,7.36Z" transform="translate(-58.8 -129.27)" style="fill:#26d9bb"/><path d="M371.41,514.4H357.68a6,6,0,0,0-6,6v28.9a6,6,0,0,0,6,6h13.72a6,6,0,0,0,6-6v-28.9A6,6,0,0,0,371.41,514.4Z" transform="translate(-58.8 -129.27)" style="fill:#02b09f"/><path d="M356,517.76a1.31,1.31,0,0,0-1.3,1.31v31.55a1.3,1.3,0,0,0,2.61,0V519.07A1.31,1.31,0,0,0,356,517.76Zm0,34.56a1.71,1.71,0,0,1-1.71-1.71V519.07a1.71,1.71,0,0,1,3.41,0v31.55A1.71,1.71,0,0,1,356,552.33Z" transform="translate(-58.8 -129.27)" style="fill:#26d9bb"/><path d="M373.1,517.76a1.31,1.31,0,0,0-1.31,1.31v31.55a1.31,1.31,0,0,0,2.61,0V519.07A1.31,1.31,0,0,0,373.1,517.76Zm0,34.56a1.71,1.71,0,0,1-1.71-1.71V519.07a1.71,1.71,0,0,1,3.41,0v31.55A1.71,1.71,0,0,1,373.1,552.33Z" transform="translate(-58.8 -129.27)" style="fill:#26d9bb"/><path d="M367.42,517.76a1.31,1.31,0,0,0-1.3,1.31v31.55a1.3,1.3,0,0,0,2.61,0V519.07A1.31,1.31,0,0,0,367.42,517.76Zm0,34.56a1.71,1.71,0,0,1-1.71-1.71V519.07a1.71,1.71,0,0,1,3.41,0v31.55A1.71,1.71,0,0,1,367.42,552.33Z" transform="translate(-58.8 -129.27)" style="fill:#26d9bb"/><path d="M361.73,517.76a1.31,1.31,0,0,0-1.31,1.31v31.55a1.3,1.3,0,0,0,2.61,0V519.07A1.31,1.31,0,0,0,361.73,517.76Zm0,34.56a1.71,1.71,0,0,1-1.71-1.71V519.07a1.71,1.71,0,1,1,3.41,0v31.55A1.71,1.71,0,0,1,361.73,552.33Z" transform="translate(-58.8 -129.27)" style="fill:#26d9bb"/></g></svg>