<svg id="Layer_1" data-name="Layer 1" xmlns="http://www.w3.org/2000/svg" xmlns:xlink="http://www.w3.org/1999/xlink" viewBox="0 0 279.87 250.67"><defs><linearGradient id="linear-gradient" x1="-357.11" y1="623.53" x2="-357.12" y2="623.01" gradientTransform="matrix(247.56, 0, 0, -194, 88531.69, 121031.16)" gradientUnits="userSpaceOnUse"><stop offset="0" stop-color="#fff" stop-opacity="0"/><stop offset="0.51" stop-color="#fff2f6" stop-opacity="0.4"/><stop offset="1" stop-color="#fff" stop-opacity="0"/></linearGradient><linearGradient id="linear-gradient-2" x1="-339.66" y1="605.79" x2="-340.27" y2="605.87" gradientTransform="matrix(19.25, 0, 0, -19.21, 6576.99, 11786.86)" gradientUnits="userSpaceOnUse"><stop offset="0" stop-color="#ffbf31"/><stop offset="1" stop-color="#fd3"/></linearGradient><linearGradient id="linear-gradient-3" x1="-352.08" y1="605.64" x2="-351.1" y2="605.64" gradientTransform="matrix(19.13, 0, 0, -19.03, 6534.74, 11675.29)" xlink:href="#linear-gradient-2"/></defs><title>mobile-recharge</title><path id="Path" d="M88.29,124.15c-76.34.63-115.46,56.71-66.88,77.5s5.68,35.91,68.77,44.73,180.45,6.93,179.18-34S200,187.79,193,144.95,88.29,124.15,88.29,124.15Z" style="fill:#fff;opacity:0.329999983310699;isolation:isolate"/><polygon id="Path-2" data-name="Path" points="248.66 194 1.1 186 1.1 0 248.66 0 248.66 194" style="fill:url(#linear-gradient)"/><path id="Path-3" data-name="Path" d="M162.67,15.18V41.86a4.38,4.38,0,0,0,4.45,4.38,405.87,405.87,0,0,1,72.72,5.86,4.38,4.38,0,0,0,5.11-4.32V21a4.38,4.38,0,0,0-3.65-4.32A400.83,400.83,0,0,0,167,10.8a4.39,4.39,0,0,0-4.32,4.38Z" style="fill:#ff85a3;opacity:0.150000005960464;isolation:isolate"/><path id="Path-4" data-name="Path" d="M232.55,25.89h-.08c-4.14-1.18-25.94-4.55-47.58-5.43a.33.33,0,1,1,0-.65h0c22.23.9,44,4.39,47.73,5.45a.33.33,0,0,1-.1.64Z" style="fill:#ff5e85;opacity:0.5;isolation:isolate"/><circle id="Oval" cx="214.85" cy="22.66" r="2.28" style="fill:#ff5e85"/><path id="Path-5" data-name="Path" d="M233.55,33.28h-.08c-4.14-1.18-25.94-4.55-47.58-5.43a.33.33,0,1,1,0-.65h0c21.69.88,43.57,4.26,47.73,5.45a.33.33,0,0,1-.1.64Z" style="fill:#ff5e85;opacity:0.5;isolation:isolate"/><circle id="Oval-2" data-name="Oval" cx="201.64" cy="28.84" r="2.28" style="fill:#ff5e85"/><path id="Path-6" data-name="Path" d="M233.54,42.19h-.08c-4.14-1.18-25.94-4.55-47.58-5.43a.33.33,0,1,1,0-.65h0c21.69.88,43.57,4.26,47.73,5.45a.33.33,0,0,1-.1.64Z" style="fill:#ff5e85;opacity:0.5;isolation:isolate"/><circle id="Oval-3" data-name="Oval" cx="206.2" cy="37.75" r="2.28" style="fill:#ff5e85"/><path id="Path-7" data-name="Path" d="M78.35,70.13V85.08a3.72,3.72,0,0,1-3.74,3.72,142.38,142.38,0,0,0-30.36,3.26,3.73,3.73,0,0,1-4.5-3.64V73.54a3.73,3.73,0,0,1,2.93-3.64,141.07,141.07,0,0,1,32-3.5A3.73,3.73,0,0,1,78.35,70.13Z" style="fill:#474bca;opacity:0.150000005960464;isolation:isolate"/><path id="Path-8" data-name="Path" d="M159.28,90l1.63,22.32a142.93,142.93,0,0,1,38.8,1.37l-1.64-22.44A140.88,140.88,0,0,0,159.28,90Z" style="fill:#474bca;opacity:0.150000005960464;isolation:isolate"/><rect id="Rectangle" x="72.73" y="0.39" width="105.99" height="197.4" rx="9.07" ry="9.07" style="fill:#474bca"/><path id="Rectangle-2" data-name="Rectangle" d="M176.19,10.86V187.31a7.56,7.56,0,0,1-7.56,7.56H82.81a7.56,7.56,0,0,1-7.56-7.56V10.86A7.56,7.56,0,0,1,82.81,3.3h85.82A7.56,7.56,0,0,1,176.19,10.86Z" style="fill:#fff"/><path id="Path-9" data-name="Path" d="M140.7,8.93H110.75a3.11,3.11,0,0,1-3.11-3.11V1.58h36.17V5.82a3.11,3.11,0,0,1-3.11,3.11Z" style="fill:#474bca"/><rect id="Rectangle-3" data-name="Rectangle" x="105.9" y="189.18" width="39.64" height="2.52" rx="0.45" ry="0.45" style="fill:#b2c3fb"/><rect id="Rectangle-4" data-name="Rectangle" x="89.13" y="26.71" width="33.43" height="33.39" rx="1.48" ry="1.48" style="fill:#dfcbff"/><rect id="Rectangle-5" data-name="Rectangle" x="100.02" y="159.15" width="49.7" height="17.38" rx="1.48" ry="1.48" style="fill:#dfcbff"/><rect id="Rectangle-6" data-name="Rectangle" x="139.17" y="85.23" width="23.59" height="21.16" rx="1.48" ry="1.48" style="fill:#dfcbff"/><rect id="Rectangle-7" data-name="Rectangle" x="129.3" y="34.72" width="34.28" height="5.04" rx="0.79" ry="0.79" style="fill:#dfcbff"/><rect id="Rectangle-8" data-name="Rectangle" x="129.3" y="41.02" width="26.08" height="2.73" rx="0.49" ry="0.49" style="fill:#dfcbff;opacity:0.5;isolation:isolate"/><g id="Group" style="opacity:0.740000009536743"><path id="Path-10" data-name="Path" d="M47.38,102.58V139a3.1,3.1,0,0,1-2.63,3.06c-8,1.22-31.71,5.94-31.71,19v-50s0-10.91,31.17-11.6a3.1,3.1,0,0,1,3.17,3.09Z" style="fill:#ff5e85;opacity:0.150000005960464;isolation:isolate"/><path id="Path-11" data-name="Path" d="M9.14,127v.36a2.19,2.19,0,0,1,0-.36Z" style="fill:#07ae7b;opacity:0.509999990463257;isolation:isolate"/><path id="Path-12" data-name="Path" d="M55.39,137.25v39.51a3.77,3.77,0,0,1-4.5,3.69c-15.64-3.09-31-8.81-37.85-19.36V111.45c.1,2.39,2.3,16,39.19,22.09A3.77,3.77,0,0,1,55.39,137.25Z" style="fill:#ff5e85;opacity:0.150000005960464;isolation:isolate"/></g><path id="Path-13" data-name="Path" d="M67.21,15.55V44.78A2.2,2.2,0,0,1,65,47C46.78,46.51,28,50.46,8.8,54.86a2.2,2.2,0,0,1-2.7-2.14V21.61a2.2,2.2,0,0,1,1.71-2.14,223.24,223.24,0,0,1,57.26-6.12,2.2,2.2,0,0,1,2.14,2.2Z" style="fill:#ff85a3;opacity:0.150000005960464;isolation:isolate"/><path id="Path-14" data-name="Path" d="M52.22,22.28v5.28A223.51,223.51,0,0,0,21.4,30.79V25.38A223,223,0,0,1,52.22,22.28Z" style="fill:#ffa3be"/><path id="Path-15" data-name="Path" d="M52.22,32.62v5.28A223.41,223.41,0,0,0,21.4,41.12V35.71A223.39,223.39,0,0,1,52.22,32.62Z" style="fill:#ffa3be"/><g id="Group-2" data-name="Group" style="opacity:0.740000009536743"><path id="Shape" d="M40.76,152a5.94,5.94,0,0,1-.09,1.14l2.86,1.54-1.2,2.79L41,157.26l-.37-.73-1.25-.68a5.43,5.43,0,0,1-.94.85l1.49,3-2.9,1-1.31-.18L35,157.72a6.71,6.71,0,0,1-.92-.06,7,7,0,0,1-.8-.16l-1.11,2.77-1.31-.18-.09-.55-1.68-.86,1.1-2.74a8.67,8.67,0,0,1-.91-.85l-2.71,1.17-1.31-.18.73-.45.06-.3-1.18-2.08,1.74-.75.55-2.8s0,0,0,0l-.36-.62-2.41-1.3.69-1.6-.8-1.36,1.31.18,2.35,1.27.68-.21.3-1.41L28,142.73l1.44-.52.15-.71,1.32.18,1.34,2.67a6.74,6.74,0,0,1,1.6,0l.4.07.2-2.5,1.32.18,3.09,1.59-1,2.48a8,8,0,0,1,.61.56L40,146l1.32.18,1.71,3-2.56,1.1A6.88,6.88,0,0,1,40.76,152Zm-6.88-4.69a3.14,3.14,0,0,0-3.76,3.21A4.61,4.61,0,0,0,34,154.76a3.14,3.14,0,0,0,3.76-3.21,4.62,4.62,0,0,0-3.91-4.28Z" style="fill:url(#linear-gradient-2)"/><path id="Shape-2" data-name="Shape" d="M39.45,151.78a5.94,5.94,0,0,1-.09,1.14l2.86,1.54L41,157.25l-2.93-1.59a5.43,5.43,0,0,1-.94.85l1.49,3-2.9,1-1.51-3a6.89,6.89,0,0,1-1.43-.05,7,7,0,0,1-.8-.16l-1.11,2.77-3.09-1.59,1.1-2.74a8.46,8.46,0,0,1-.91-.85l-2.71,1.17-1.71-3,2.64-1.13a6.89,6.89,0,0,1-.36-2,6.57,6.57,0,0,1,0-.82l-2.8-1.52,1.2-2.79L27,146.24a5.28,5.28,0,0,1,1-1l-1.36-2.71,2.9-1,1.34,2.67a6.73,6.73,0,0,1,1.6,0,7.22,7.22,0,0,1,.93.2l1-2.45,3.09,1.59-1,2.48a8.81,8.81,0,0,1,1,1L40,146l1.71,3-2.56,1.1A6.88,6.88,0,0,1,39.45,151.78Zm-6.87-4.69a3.14,3.14,0,0,0-3.76,3.21,4.61,4.61,0,0,0,3.91,4.28,3.14,3.14,0,0,0,3.76-3.21A4.62,4.62,0,0,0,32.57,147.09Z" style="fill:url(#linear-gradient-3)"/></g><path id="Path-16" data-name="Path" d="M222.43,149.73v6.57a3.42,3.42,0,0,1-5.13,3L211.6,156l-5.7-3.29a3.41,3.41,0,0,1,0-5.91l5.7-3.29,5.7-3.29a3.42,3.42,0,0,1,5.13,3Z" style="fill:#ff5e85;opacity:0.5;isolation:isolate"/><path id="Path-17" data-name="Path" d="M236.64,125.14l-8.36-3.42a2.87,2.87,0,0,1-1.71-2.41V111c0-.94.77-1.4,1.71-1l8.36,3.42a2.87,2.87,0,0,1,1.71,2.41v8.35C238.35,125.08,237.58,125.53,236.64,125.14Z" style="fill:#ff5e85;opacity:0.5;isolation:isolate"/><g id="Group-3" data-name="Group" style="opacity:0.150000005960464"><path id="Path-18" data-name="Path" d="M222.47,98.93v36.83s22.28,3.16,22.28,16.84V109.06S244.75,98.93,222.47,98.93Z" style="fill:#ff5e85;opacity:0.509999990463257;isolation:isolate"/><path id="Path-19" data-name="Path" d="M191.76,131.16l-.79,41.3s43,2.37,53.78-19.86V109.06S246.12,131.16,191.76,131.16Z" style="fill:#ff5e85;opacity:0.509999990463257;isolation:isolate"/></g><path id="Path-20" data-name="Path" d="M149.59,232.19c0,1.11.4,2.81-.37,3.23s-6,.43-9.59.71-7.1-1.44-7.62-2.5.64-2.53.64-2.53Z" style="fill:#fff"/><path id="Path-21" data-name="Path" d="M141.52,129.41c-.38.77-3.94,2.62-8.51,2.3a14.8,14.8,0,0,1-3.58-.69,15.58,15.58,0,0,1-3.61-1.72,17.79,17.79,0,0,1-2.45-1.89c-4.3-3.93-6.63-10.72-7.8-16.63a54.75,54.75,0,0,1-1-8,14.85,14.85,0,0,1,.08-3.12,3.72,3.72,0,0,1,.67-1.37h0c1.33-1.76,4.07-2.56,4.52,3.35.55,7.35,4.39,15.82,13.7,16.95C133.53,118.62,142.14,128.13,141.52,129.41Z" style="fill:#ffc1c2"/><path id="Path-22" data-name="Path" d="M117.57,102a3.56,3.56,0,0,1-3,1.65,14.92,14.92,0,0,1,0-3.12,3.7,3.7,0,0,1,.64-1.38A9.58,9.58,0,0,1,117.57,102Z" style="fill:#fc9d9d"/><path id="Path-23" data-name="Path" d="M119.66,99.3s.13,2.07-1.11,3a3.72,3.72,0,0,1-2.83.41,4.72,4.72,0,0,1-3-5.22c.48-2.42,3.06-1.66,4.16-1.86s-1.47-4.87-.56-5.82,2.47,3.45,3.12,7.56C119.53,98,119.61,98.67,119.66,99.3Z" style="fill:#ffc1c2"/><path id="Path-24" data-name="Path" d="M138.73,162.45c-2.45,10.91-4.4,26.38,1.63,29s28.3,9.71,29.11,8.73,1.13-3.85.32-4.72-15.41-6.95-17.85-15.9,3.59-25.57-.49-25.89S138.73,162.45,138.73,162.45Z" style="fill:#000b28"/><path id="Path-25" data-name="Path" d="M144.59,159.68c-3.1,10.1-6,20.19-6,28.66s5.17,36,5,37.75,3.68.11,5.07.11,0-19,2.64-28.58,16.79-26.06,15.33-39.08S144.59,159.68,144.59,159.68Z" style="fill:#000d3a"/><path id="Path-26" data-name="Path" d="M167.53,160.44c-2.27,3.23-7.86.07-13.41-.9a14.08,14.08,0,0,0-4-.19c-6.63.76-12.31,8.71-12.8,4s1.3-12.13,4.24-19.95-.9-12.21,2-19.13,10.52-6.35,15.33-8.87c0,0,9.21,1.74,8.13,9.66a43.84,43.84,0,0,0,0,7.74c.16,2.67.43,5.62.69,8.59.08.95.17,1.9.25,2.84C168.54,151.58,168.95,158.43,167.53,160.44Z" style="fill:#f05831"/><path id="Path-27" data-name="Path" d="M153.73,131.35c-.44.87-5.47,2.43-11.1,2.64h0c-.74,0-1.49,0-2.24,0a23.23,23.23,0,0,1-6-.91c-7.83-2.39-6-3.86-6-3.86L133,119.05c1.21.1,2.38.14,3.51.15,9,0,15.48-2.52,19.59-2.18C160.74,117.4,154.38,130,153.73,131.35Z" style="fill:#f05831"/><path id="Path-28" data-name="Path" d="M149.38,225.69c-.33-.79-6-.6-6.59.23s-.33,3.28-1.15,3.69-5.9-1-8.71.92,1.83,3.73,4.85,3.89,8.19.5,10.86-.62S149.8,226,149.38,225.69Z" style="fill:#152d54"/><path id="Path-29" data-name="Path" d="M167.92,144.23c-3.48-.37-5.91-.85-5.94-1.85s.48-1.26-.07-2.27-.41-8.85.28-12.13a15.64,15.64,0,0,1,4.06,3.61,8.56,8.56,0,0,1,.73,1.2C167.19,136.31,167.59,140.34,167.92,144.23Z" style="fill:#e32710"/><path id="Path-30" data-name="Path" d="M167.53,160.44c-2.27,3.23-7.86.07-13.41-.9,5.83-3.08,11.39-16.85,11.39-16.85a8.91,8.91,0,0,1,2.15-1.31c.08.95.17,1.9.25,2.84C168.54,151.58,168.95,158.43,167.53,160.44Z" style="fill:#e32710"/><path id="Path-31" data-name="Path" d="M174.5,136.57c0,1.78-.13,3.07-.22,4,0,.25-.05.48-.07.68a8.59,8.59,0,0,1-.26,1.45,48.36,48.36,0,0,1-9.68-1.9c-3.15-1.09-2.54-15.77-2.1-22.4.13-2,.25-3.22.25-3.22,7.94.11,11.85,5.54,12.07,15.42C174.54,133,174.54,135,174.5,136.57Z" style="fill:#f05831"/><path id="Path-32" data-name="Path" d="M174.12,141.53a23,23,0,0,1-2.7,10c-3,5.7-12.8,10.5-14.51,13.27s.49,9.36-2.69,6.27a7.33,7.33,0,0,1-.74-.83c-2.18-2.87-.77-6,2.13-9.84,3.18-4.23,8.48-11.56,9.13-18.89l9.38-.73S174.13,141.06,174.12,141.53Z" style="fill:#ffc1c2"/><path id="Path-33" data-name="Path" d="M174.12,141.53a23,23,0,0,1-2.7,10c-3,5.7-12.8,10.5-14.51,13.27s.49,9.36-2.69,6.27a7.33,7.33,0,0,1-.74-.83c1.93.79,1.08-.63,1.16-3.32.08-3,2.49-7.68,6.56-10.07s6.79-9.39,8.2-14.8A6.11,6.11,0,0,1,174.12,141.53Z" style="fill:#ffa7a6"/><path id="Path-34" data-name="Path" d="M174.5,136.57c0,1.78-.13,3.07-.22,4-3,.2-11-1.22-11-1.22.73-.7,2.37-1,4.9-.68S173.87,137.9,174.5,136.57Z" style="fill:#e32710"/><path id="Path-35" data-name="Path" d="M174.5,136.57c0,1.78-.13,3.07-.22,4,0,.25-.05.48-.07.68-1.82,0-3.24-2-1.76-3.14,2.24-1.79,2-7.52,1.1-11.07a12.33,12.33,0,0,0-11.37-8.64c.13-2,.25-3.22.25-3.22,7.94.11,11.85,5.54,12.07,15.42C174.54,133,174.54,135,174.5,136.57Z" style="fill:#e32710"/><path id="Path-36" data-name="Path" d="M173.13,138.92c1.79-.12,3.55-.08,3.46,1.34s0,3.09-1.26,3.26-12.75-.23-13-1.42-.38-2.5.43-2.88S171.72,139.22,173.13,138.92Z" style="fill:#f05831"/><path id="Path-37" data-name="Path" d="M140.39,134a23.23,23.23,0,0,1-6-.91c-7.83-2.39-6-3.86-6-3.86L133,119.05a16.39,16.39,0,0,0,2.08.13c-.34,1.11-1.17,4.95-2.12,7.81S135.72,133.5,140.39,134Z" style="fill:#e32710"/><path id="Path-38" data-name="Path" d="M129.42,131a15.58,15.58,0,0,1-3.61-1.72,17.79,17.79,0,0,1-2.45-1.89c-4.3-3.93-6.63-10.72-7.8-16.63,3.19,8,7.93,15.7,9.73,14.43,2-1.41,4.78-5.43,4.78-5.43S130.54,126.82,129.42,131Z" style="fill:#fc9d9d"/><path id="Path-39" data-name="Path" d="M134.4,117.26c-.68-.38-2.34-1.6-3.18-.3a69.13,69.13,0,0,0-4.16,8.77c-.57,1.79-1.18,3.75-.78,4.36a7.7,7.7,0,0,0,3.47,1.71c.65,0,5.06-12,5.46-12.91S134.4,117.26,134.4,117.26Z" style="fill:#f05831"/><path id="Path-40" data-name="Path" d="M175.43,196c1.06.33,2.82.38,3,1.23s-1.21,5.88-1.92,9.41-3.32,6.43-4.48,6.65-2.26-1.31-2.26-1.31Z" style="fill:#fff"/><path id="Path-41" data-name="Path" d="M169.12,194.39c-.85.11-2.21,5.6-1.57,6.39s3.07,1.21,3.25,2.1-2.54,5.41-1.48,8.62,4.09-.74,5.06-3.6,2.71-7.74,2.36-10.61S169.52,194.06,169.12,194.39Z" style="fill:#152d54"/><path id="Path-42" data-name="Path" d="M162.2,123.25c-1.41,5.48-10.17,7.6-12.34,2.55s1-7.59,3.47-8.62c2.09-.86,3.6-2.24,3.52-5,0-.55,0-1.14-.09-1.77l5.27-2.33a51,51,0,0,1,.82,7.44C162.75,117.71,163.61,117.77,162.2,123.25Z" style="fill:#ffa7a6"/><path id="Path-43" data-name="Path" d="M162.85,115.49c-.31-2.23-4.32-2.47-6-3.33,0-.55,0-1.14-.09-1.77l5.49-2.56A67.2,67.2,0,0,1,162.85,115.49Z" style="fill:#dd4e4f"/><path id="Path-44" data-name="Path" d="M157.87,111.62c-.22.08-.44.15-.65.2h0c-5.49,1.41-4.73-6.53-5.46-11.47l0-.11c0-.29-.09-.56-.15-.83,1.35-4.13,7.28-2.86,11.16-1.08,1.86.86,3.25,1.83,3.44,2.38C166.75,102.41,164.47,109.25,157.87,111.62Z" style="fill:#ffc1c2"/><path id="Path-45" data-name="Path" d="M157.87,111.62c-.22.08-.44.15-.65.2,5.09-1.68,5.12-5.09,6.32-6.1s.29-2.2-1.1-1.67-.45-1.59-3.06-1.67-6-.24-7.63-2l-.08-.08.06,0a23.18,23.18,0,0,1,11-1.91c1.86.86,3.25,1.83,3.44,2.38C166.75,102.41,164.47,109.25,157.87,111.62Z" style="fill:#ffa7a6"/><path id="Path-46" data-name="Path" d="M170.16,99.85c-1.1,4.76-5.38,8.62-6.71,8.73s1.25-3.45-1.14-5.16l-.08-.05c-2.53-1.68-3.07-1.47-5.06-1.68s-4.16-.22-5.26-1c-3.91-1.91-6.07-8.21-3.26-11.67s3.65,4.52,8.51,3.75,6.2,1,6.85,2.73c.32.85,2.09.76,3.66,1S170.72,97.43,170.16,99.85Z" style="fill:#152d54"/><path id="Path-47" data-name="Path" d="M151.19,99.67c-3.75-4.67-3.42-9-1.74-10.34S151.54,91.1,153,92s-1.44.31-2.19-.56-1.45,5,0,7.1S151.19,99.67,151.19,99.67Z" style="fill:#1d3e6d"/><path id="Path-48" data-name="Path" d="M170.16,99.85c-1.1,4.76-5.38,8.62-6.71,8.73s1.25-3.45-1.14-5.16l.82-.79c1.85-.16,1.94,2.56,2.79,2.21a7.54,7.54,0,0,0,3.55-5.43,2.66,2.66,0,0,0-1.8-2.9C169.3,96.79,170.72,97.43,170.16,99.85Z" style="fill:#10233f"/><path id="Path-49" data-name="Path" d="M164.81,104.45a3.33,3.33,0,0,1-2.11,2.42c-.57.22-1.08.22-1.26,0-.46-.52-.35-3.64-.35-3.64l.12-.08h0C162.74,102.26,165.21,102.36,164.81,104.45Z" style="fill:#ffc1c2"/><path id="Path-50" data-name="Path" d="M164.81,104.45a3.33,3.33,0,0,1-2.11,2.42c1.11-.95,1.74-4.07-1.49-3.7C162.74,102.26,165.21,102.36,164.81,104.45Z" style="fill:#ffa7a6"/><path id="Path-51" data-name="Path" d="M153.31,163.4c.12,0,.3,0,.23.13a5.62,5.62,0,0,0,1.61,8.27c2,.94.78,1.56-.28,1.33a5.79,5.79,0,0,1-4.58-6C150.43,163.56,152.54,163.36,153.31,163.4Z" style="fill:#000b28"/><path id="Path-52" data-name="Path" d="M174.06,219.28c-29.48,12-60.4,11.27-92.52,0A2.3,2.3,0,0,1,80,217.07V178.83a2.3,2.3,0,0,1,2.92-2.21c31.48,8.82,61.44,9.51,89.55.2a2.3,2.3,0,0,1,3,2.18v38.16a2.3,2.3,0,0,1-1.43,2.13Z" style="fill:#ac77ff;opacity:0.119999997317791;isolation:isolate"/><path id="Path-53" data-name="Path" d="M162,198.68c-21.78,8.9-44.63,8.35-68.37,0a1.56,1.56,0,0,1-1-1.47v-5.71a1.56,1.56,0,0,1,2-1.5c23.32,6.56,45.52,7.07,66.33.14a1.56,1.56,0,0,1,2.06,1.48v5.65a1.57,1.57,0,0,1-1,1.44Z" style="fill:#8f98f8;opacity:0.5"/><path id="Path-54" data-name="Path" d="M133.35,197v6.28a1.88,1.88,0,0,1-1.82,1.88c-12.38.34-25-1.91-38-6.49a1.49,1.49,0,0,1-1-1.41v-5.84a1.49,1.49,0,0,1,1.91-1.43,127.64,127.64,0,0,0,37,5.14,1.88,1.88,0,0,1,1.91,1.87Z" style="fill:#474bca;opacity:0.5"/><path id="Path-55" data-name="Path" d="M162,213.64c-21.81,8.93-44.7,8.38-68.47,0a1.49,1.49,0,0,1-1-1.41v-5.84a1.49,1.49,0,0,1,1.91-1.44c23.39,6.59,45.64,7.11,66.51.14a1.5,1.5,0,0,1,2,1.41v5.79a1.49,1.49,0,0,1-.92,1.38Z" style="fill:#8f98f8;opacity:0.5"/><path id="Path-56" data-name="Path" d="M116.13,211.08l-.46,6a1.87,1.87,0,0,1-2.17,1.7,115.71,115.71,0,0,1-20-5.22,1.44,1.44,0,0,1-1-1.36v-5.95a1.44,1.44,0,0,1,1.83-1.39,142.59,142.59,0,0,0,20.11,4.19,1.87,1.87,0,0,1,1.62,2Z" style="fill:#474bca;opacity:0.5"/><g id="Group-4" data-name="Group" style="opacity:0.740000009536743"><path id="Path-57" data-name="Path" d="M106.87,75.31v35.14s-30.43,3-30.43,16.07V85S76.44,75.31,106.87,75.31Z" style="fill:#ac77ff;opacity:0.150000005960464;isolation:isolate"/><path id="Path-58" data-name="Path" d="M76.45,85v.3A1.74,1.74,0,0,1,76.45,85Z" style="fill:#07ae7b;opacity:0.509999990463257;isolation:isolate"/><path id="Path-59" data-name="Path" d="M76.45,85v.3A1.74,1.74,0,0,1,76.45,85Z" style="fill:#07ae7b;opacity:0.509999990463257;isolation:isolate"/><path id="Path-60" data-name="Path" d="M114,104v39.25c-15.17-2.37-30.85-7.16-37.53-16.76V85.27C76.53,87.31,78.59,99.21,114,104Z" style="fill:#ac77ff;opacity:0.150000005960464;isolation:isolate"/><path id="Path-61" data-name="Path" d="M79,85.11c.06-.25.55-1.76,3.55-3.37s9.43-3.65,21.83-3.88v30.37a87.25,87.25,0,0,0-13.45,3A36.28,36.28,0,0,0,79,117Z" style="fill:#ac77ff;opacity:0.150000005960464;isolation:isolate"/><path id="Path-62" data-name="Path" d="M111.44,140.31c-16.2-2.88-27.37-7.9-32.48-14.61V94.38q.67.61,1.46,1.22c6.34,4.91,16.77,8.48,31,10.62Z" style="fill:#ac77ff;opacity:0.150000005960464;isolation:isolate"/></g><path id="Path-63" data-name="Path" d="M108.1,121.07l-.53,11.65a.81.81,0,0,1-1,.54c-8.16.39-19.75-3.47-24.34-9.1l.13-.39.5.18c.88.31,1.85-.47,2.55-.75l.17-.06a.5.5,0,0,1,.71.35,2.39,2.39,0,0,0,2.3,1.22h.15a3.85,3.85,0,0,0,1.54-.3,3.45,3.45,0,0,1,2.08-.14l.14,0a3.24,3.24,0,0,1,1.83,1.06,1.74,1.74,0,0,0,1.15.62l.14,0a4.14,4.14,0,0,0,2.75-.69,1.19,1.19,0,0,1,1-.27l.13.05c.53.26.85,1.1,1.26,1.79.25.42.9.36,1.68,0l.18-.09a9.06,9.06,0,0,0,3.41-3.24,6,6,0,0,1,1.08-1.4C108.1,122,107.57,121.44,108.1,121.07Z" style="fill:#dfcbff;opacity:0.5;isolation:isolate"/><rect id="Rectangle-9" data-name="Rectangle" x="95.66" y="82.75" width="3.59" height="23.94" rx="0.43" ry="0.43" style="fill:#dfcbff;opacity:0.5;isolation:isolate"/><rect id="Rectangle-10" data-name="Rectangle" x="87.94" y="85.57" width="3.59" height="23.94" rx="0.43" ry="0.43" style="fill:#dfcbff;opacity:0.5;isolation:isolate"/><rect id="Rectangle-11" data-name="Rectangle" x="81.74" y="88.29" width="3.59" height="23.94" rx="0.43" ry="0.43" style="fill:#dfcbff;opacity:0.5;isolation:isolate"/><path id="Path-64" data-name="Path" d="M265.21,203.85c0,.44,6.89-.83,12.75,4.15s-2.37,10.33-15.71,9.34-50.25-.64-52.32-3.8,7.13-8.77,9.5-9-4.83-2.37-4.58-4,4.88-4.84,7.27-4-3.19-3.75,0-5.64,5.24,1.27,5.31.51-9.07-6-4.85-11.2,13.49-9.1,22.94-2.06S250.88,190,252.45,189s1.13-4.08,4.79-3,3.32,7.12,3.75,7.4,3.12-1.41,5.95.24,1.92,6,1.22,7.42S264.47,203.66,265.21,203.85Z" style="fill:#ff5e85"/><g id="Group_102" data-name="Group 102"><g id="Group_101" data-name="Group 101"><g id="Group_99" data-name="Group 99"><path id="Path_196" data-name="Path 196" d="M115.41,36.35a6.67,6.67,0,0,0-3.76-4l-.47,1.12a5.45,5.45,0,0,1,2.6,7.8l1,.61A6.67,6.67,0,0,0,115.41,36.35Z" style="fill:none"/><path id="Path_197" data-name="Path 197" d="M113.11,37.11a4.25,4.25,0,0,0-2.4-2.58l-.44,1A3.11,3.11,0,0,1,111.76,40l1,.57A4.24,4.24,0,0,0,113.11,37.11Z" style="fill:none"/><path id="Path_198" data-name="Path 198" d="M110.89,37.85a1.91,1.91,0,0,0-1.08-1.15l-.74,1.76,1.64,1A1.9,1.9,0,0,0,110.89,37.85Z" style="fill:none"/><path id="Path_199" data-name="Path 199" d="M110.89,37.85a1.9,1.9,0,0,1-.17,1.57l1,.62a3.11,3.11,0,0,0-1.48-4.46l-.47,1.12a1.91,1.91,0,0,1,1.08,1.15Z" style="fill:#a9dae8"/><path id="Path_200" data-name="Path 200" d="M113.11,37.11a4.24,4.24,0,0,1-.37,3.5l1,.61a5.45,5.45,0,0,0-2.6-7.8l-.47,1.11A4.25,4.25,0,0,1,113.11,37.11Z" style="fill:#a9dae8"/><path id="Path_201" data-name="Path 201" d="M115.41,36.35a6.67,6.67,0,0,1-.59,5.49l1,.61a7.86,7.86,0,0,0-3.75-11.26l-.47,1.12A6.67,6.67,0,0,1,115.41,36.35Z" style="fill:#a9dae8"/></g><g id="Group_100" data-name="Group 100" style="opacity:0.25"><path id="Path_202" data-name="Path 202" d="M115.41,36.35h0l-1.15.38h0a5.46,5.46,0,0,1-.48,4.49l1,.61a6.67,6.67,0,0,0,.59-5.49Z" style="fill:#fff"/><path id="Path_203" data-name="Path 203" d="M113.11,37.11h0l-1.07.36h0a3.12,3.12,0,0,1-.27,2.57l1,.57A4.24,4.24,0,0,0,113.11,37.11Z" style="fill:#fff"/><path id="Path_204" data-name="Path 204" d="M110.89,37.85h0l-1.82.6h0l1.64,1a1.9,1.9,0,0,0,.17-1.57Z" style="fill:#fff"/><path id="Path_205" data-name="Path 205" d="M112,37.47h0l-1.15.38h0a1.9,1.9,0,0,1-.17,1.57l1,.62a3.12,3.12,0,0,0,.27-2.57Z" style="fill:#fff"/><path id="Path_206" data-name="Path 206" d="M114.26,36.73h0l-1.15.38h0a4.24,4.24,0,0,1-.37,3.5l1,.61a5.46,5.46,0,0,0,.48-4.49Z" style="fill:#fff"/><path id="Path_207" data-name="Path 207" d="M116.56,36h0l-1.15.38h0a6.67,6.67,0,0,1-.59,5.49l1,.61A7.87,7.87,0,0,0,116.56,36Z" style="fill:#fff"/><path id="Path_208" data-name="Path 208" d="M109.81,36.7l-.74,1.76,1.82-.6A1.91,1.91,0,0,0,109.81,36.7Z" style="fill:#fff"/></g></g><path id="Path_209" data-name="Path 209" d="M107.27,42.68a2.78,2.78,0,0,0-2.3-5.07Z" style="fill:#2ab0c3"/><polygon id="Path_210" data-name="Path 210" points="102.88 53.59 94.87 53.59 96.39 46.58 101.36 46.58 102.88 53.59" style="fill:#2ab0c3"/><polygon id="Path_211" data-name="Path 211" points="101.36 46.58 94.87 53.59 102.88 53.59 101.36 46.58" style="fill:#fff;opacity:0.25;isolation:isolate"/><polygon id="Path_212" data-name="Path 212" points="102.88 53.59 94.87 53.59 94.99 53.01 102.76 53.01 102.88 53.59" style="fill:#2f5971;opacity:0.349999994039536;isolation:isolate"/><path id="Path_213" data-name="Path 213" d="M101.8,32.8a8.09,8.09,0,0,0,6.68,14.72Z" style="fill:#2ab0c3"/><path id="Path_214" data-name="Path 214" d="M101.48,44.83a3.32,3.32,0,1,1-1-2.35,3.32,3.32,0,0,1,1,2.35Z" style="fill:#2ab0c3"/><circle id="Ellipse_33" data-name="Ellipse 33" cx="98.16" cy="44.83" r="2.35" style="fill:#2f5971;opacity:0.349999994039536;isolation:isolate"/></g></svg>