<svg id="_Layer_" data-name="&lt;Layer&gt;" xmlns="http://www.w3.org/2000/svg" viewBox="0 0 214.38 179.5"><title>money-transfer</title><path d="M80.75,6.78H71.07a.29.29,0,0,1,0-.58h9.69a.29.29,0,0,1,0,.58Z" transform="translate(-8.84 5.05)" style="fill:#fff"/><path d="M175.09,30.61a.29.29,0,0,1-.29-.29v-11H105a.29.29,0,0,1,0-.58h70.1a.29.29,0,0,1,.29.29V29.85l34.15-17.46L175.38-4.3V6.49a.29.29,0,0,1-.29.29H88.45a.29.29,0,0,1,0-.58H174.8v-11a.29.29,0,0,1,.14-.25.29.29,0,0,1,.28,0L210.3,12.12a.29.29,0,0,1,0,.52L175.22,30.58A.29.29,0,0,1,175.09,30.61Z" transform="translate(-8.84 5.05)" style="fill:#fff"/><path d="M156.93,150.61h-9.69a.29.29,0,0,1,0-.58h9.69a.29.29,0,0,1,0,.58Z" transform="translate(-8.84 5.05)" style="fill:#fff"/><path d="M139.55,150.61H52.91a.29.29,0,0,1-.29-.29V139.54l-3,1.49a.29.29,0,1,1-.25-.52l3.46-1.69a.29.29,0,0,1,.28,0,.29.29,0,0,1,.14.25v11h86.35a.29.29,0,1,1,0,.58Z" transform="translate(-8.84 5.05)" style="fill:#fff"/><path d="M52.91,174.45a.29.29,0,0,1-.13,0L17.69,156.48a.29.29,0,0,1,0-.52l23-11.23a.29.29,0,1,1,.25.52l-22.47,11,34.15,17.46V162.91a.29.29,0,0,1,.29-.29h52.44a.29.29,0,0,1,0,.58H53.2v11a.29.29,0,0,1-.29.29Z" transform="translate(-8.84 5.05)" style="fill:#fff"/><path d="M123,163.2h-9.62a.29.29,0,0,1,0-.58H123a.29.29,0,1,1,0,.58Z" transform="translate(-8.84 5.05)" style="fill:#fff"/><path d="M102.35,90.7H9.16a.32.32,0,0,1,0-.63h93.19a.32.32,0,0,1,0,.63Z" transform="translate(-8.84 5.05)" style="fill:#fff"/><path d="M222.91,63H209.84a.32.32,0,1,1,0-.63h13.07a.32.32,0,1,1,0,.63Z" transform="translate(-8.84 5.05)" style="fill:#fff"/><path d="M203,63H129.72a.32.32,0,0,1,0-.63H203a.32.32,0,1,1,0,.63Z" transform="translate(-8.84 5.05)" style="fill:#fff"/><path d="M191.66,144a4.6,4.6,0,0,1-4.35,4.81H124.87a4.6,4.6,0,0,1-4.35-4.81V14.58a4.6,4.6,0,0,1,4.35-4.81h62.44a4.6,4.6,0,0,1,4.35,4.81Z" transform="translate(-8.84 5.05)" style="fill:#197bdd"/><path d="M116.25,21.68h62a1.58,1.58,0,0,1,1.58,1.58V146.5a1.59,1.59,0,0,1-1.59,1.59h-62a1.59,1.59,0,0,1-1.59-1.59V23.27A1.59,1.59,0,0,1,116.25,21.68Z" style="fill:#9fc1e6"/><path d="M108.65,47.16V56.7a1,1,0,0,1-1,.87H106.4v86.34a4.6,4.6,0,0,1-4.35,4.81H39.61a4.6,4.6,0,0,1-4.35-4.81V14.53a4.6,4.6,0,0,1,4.35-4.81H102a4.6,4.6,0,0,1,4.35,4.81V46.3h1.22A1,1,0,0,1,108.65,47.16Z" transform="translate(-8.84 5.05)" style="fill:#197bdd"/><rect x="29.4" y="21.64" width="65.17" height="126.4" rx="1.59" ry="1.59" style="fill:#9fc1e6"/><circle cx="50.61" cy="67.61" r="12.69" style="fill:#2b97ef"/><circle cx="75.11" cy="47.96" r="12.69" style="fill:#2b97ef"/><path d="M83.95,56A13.07,13.07,0,1,1,97,42.9,13.09,13.09,0,0,1,83.95,56Zm0-25.38A12.31,12.31,0,1,0,96.26,42.9,12.32,12.32,0,0,0,83.95,30.6Z" transform="translate(-8.84 5.05)"/><circle cx="104.88" cy="37.82" r="12.69" style="fill:#2b97ef"/><circle cx="138.06" cy="46.68" r="12.69" style="fill:#2b97ef"/><path d="M146.91,54.7A13.07,13.07,0,1,1,160,41.63,13.09,13.09,0,0,1,146.91,54.7Zm0-25.38a12.31,12.31,0,1,0,12.31,12.31A12.32,12.32,0,0,0,146.91,29.32Z" transform="translate(-8.84 5.05)"/><path d="M179.22,58.37c-1.13,3.75-2,7.29-2.32,8.43l-5.4,1.62-4.29,1.29L162.94,71a.38.38,0,0,0-.26.46l0,.12a9.75,9.75,0,0,0-2.82-.08,10.52,10.52,0,0,1-1.08.18,12.3,12.3,0,1,1,20.4-13.32Z" transform="translate(-8.84 5.05)" style="fill:#2b97ef"/><path d="M172.7,59.67a.72.72,0,1,0,0-1.45h-8.82a.72.72,0,1,0,0,1.45h3a2.17,2.17,0,0,1,2,1.45h-5.08a.72.72,0,1,0,0,1.45H169a2.17,2.17,0,0,1-2,1.45h-3a.72.72,0,0,0-.55,1.19l6,7a.72.72,0,1,0,1.1-.94l-5-5.85h1.43a3.62,3.62,0,0,0,3.54-2.89h2.24a.72.72,0,1,0,0-1.45h-2.24a3.6,3.6,0,0,0-.65-1.45h2.89Z" transform="translate(-8.84 5.05)" style="fill:#fff"/><path d="M63.87,57.42a.72.72,0,0,0,0-1.45H55a.72.72,0,0,0,0,1.45h3a2.17,2.17,0,0,1,2,1.45H55a.72.72,0,1,0,0,1.45h5.08a2.17,2.17,0,0,1-2,1.45h-3A.72.72,0,0,0,54.54,63l6,7a.72.72,0,1,0,1.1-.94l-5-5.85h1.43a3.62,3.62,0,0,0,3.54-2.89h2.24a.72.72,0,0,0,0-1.45H61.63A3.6,3.6,0,0,0,61,57.42h2.89Z" transform="translate(-8.84 5.05)" style="fill:#fff"/><path d="M88.36,37.86a.72.72,0,0,0,0-1.45H79.54a.72.72,0,1,0,0,1.45h3a2.17,2.17,0,0,1,2,1.45H79.54a.72.72,0,0,0,0,1.45h5.08a2.17,2.17,0,0,1-2,1.45h-3A.72.72,0,0,0,79,43.39l6,7a.72.72,0,1,0,1.1-.94l-5-5.85h1.43a3.62,3.62,0,0,0,3.54-2.89h2.24a.72.72,0,0,0,0-1.45H86.12a3.6,3.6,0,0,0-.65-1.45h2.89Z" transform="translate(-8.84 5.05)" style="fill:#fff"/><path d="M118.13,27.81a.72.72,0,1,0,0-1.45h-8.82a.72.72,0,0,0,0,1.45h3a2.17,2.17,0,0,1,2,1.45h-5.08a.72.72,0,1,0,0,1.45h5.08a2.17,2.17,0,0,1-2,1.45h-3a.72.72,0,0,0-.55,1.19l6,7a.72.72,0,1,0,1.1-.94l-5-5.85h1.43a3.62,3.62,0,0,0,3.54-2.89h2.24a.72.72,0,1,0,0-1.45h-2.24a3.6,3.6,0,0,0-.65-1.45h2.89Z" transform="translate(-8.84 5.05)" style="fill:#fff"/><path d="M150.93,37.22a.72.72,0,1,0,0-1.45h-8.82a.72.72,0,1,0,0,1.45h3a2.17,2.17,0,0,1,2,1.45h-5.08a.72.72,0,1,0,0,1.45h5.08a2.17,2.17,0,0,1-2,1.45h-3a.72.72,0,0,0-.55,1.19l6,7a.72.72,0,1,0,1.1-.94l-5-5.85h1.43a3.62,3.62,0,0,0,3.54-2.89h2.24a.72.72,0,0,0,0-1.45h-2.24a3.6,3.6,0,0,0-.65-1.45h2.89Z" transform="translate(-8.84 5.05)" style="fill:#fff"/><path d="M198.24,143.28a14.53,14.53,0,0,0-1.81-1.29,5.3,5.3,0,0,0-.75-.4,3.67,3.67,0,0,1-.58-.22l0-.8,6.7-.5.14,1.6c0,.23-.27.56-.4.71a3.77,3.77,0,0,1-2.57,1.07A1.28,1.28,0,0,1,198.24,143.28Z" transform="translate(-8.84 5.05)" style="fill:#f5ae9e"/><path d="M26.79,34.86A3.82,3.82,0,0,0,26.67,37c.18.85.17,2.62-1.11,3.38H17.2a4.39,4.39,0,0,0,1.05-3.47c-.32-1.13-1-2.15-1.19-3.31A4.43,4.43,0,0,1,17.33,31a31,31,0,0,0,1.4-2.89,6.9,6.9,0,0,0-.06-2.84,6.4,6.4,0,0,1-.07-2.5,5.22,5.22,0,0,1,4.14-3.4,6.53,6.53,0,0,1,2.94.27,7.67,7.67,0,0,0-1.11,1.12,11.8,11.8,0,0,0-1,1.43,14.53,14.53,0,0,0-.72,1.77,11,11,0,0,0-.46,3.52A9.83,9.83,0,0,0,26.79,34.86Z" transform="translate(-8.84 5.05)" style="fill:#93d2db"/><path d="M40.73,25.34a3.58,3.58,0,0,1-2.88,1.34,12.94,12.94,0,0,1-2.11-.25,15.82,15.82,0,0,0-1.57-.22A6.33,6.33,0,0,0,28.61,29a2.25,2.25,0,0,0-1.87-1,1.8,1.8,0,0,0-1.51.74,1.84,1.84,0,0,0-.11,1.75A8.75,8.75,0,0,0,26,32.21a6.14,6.14,0,0,1,.79,1.67,8.74,8.74,0,0,1-.3-14,7.42,7.42,0,0,1,4.61-1.46,11.34,11.34,0,0,1,2.07.2A8.18,8.18,0,0,1,37.7,21l.48.37a4.8,4.8,0,0,1,2.61,2.44A1.77,1.77,0,0,1,40.73,25.34Z" transform="translate(-8.84 5.05)" style="fill:#93d2db"/><path d="M164.27,13.91H146a.38.38,0,1,1,0-.77h18.28a.38.38,0,0,1,0,.77Z" transform="translate(-8.84 5.05)"/><path d="M44.84,68.72c-.73,1-1.86,2.54-2.85,2.86,0-.56-.06-1.88,0-2s.14-.31.25-.5Z" transform="translate(-8.84 5.05)" style="fill:#789ed3"/><path d="M164.22,77.46a37.72,37.72,0,0,1-4.82,3.34l-.1.06a2.84,2.84,0,0,1-2.28.42,4.7,4.7,0,0,1-3-1.86c-.4-.71,3.1-4,4.52-4.84a.39.39,0,0,0,.19-.39.38.38,0,0,0-.29-.32,13,13,0,0,1-1.52-.46,2.46,2.46,0,0,1-.69-.83,2.3,2.3,0,0,1,.09-.33h0a.76.76,0,0,1,.22.07c1.14.47,3.5-.07,3.52-.07a8.22,8.22,0,0,1,2.85.17h0Z" transform="translate(-8.84 5.05)" style="fill:#f5ae9e"/><path d="M195.54,147.54c0,.47-.06.95-.14,1.41l-20,0a4.9,4.9,0,0,1,.86-3.62,2,2,0,0,1,2-.58,5.81,5.81,0,0,0,1.84-.08,40.23,40.23,0,0,0,6-2.18,5,5,0,0,1,2.09.91s1.08.73,1.62,1.18a2,2,0,0,0,1.24.35,4.38,4.38,0,0,0,3.31-1.54,2.55,2.55,0,0,0,.26-.43,4,4,0,0,0,.27.47,4.25,4.25,0,0,1,.39,1.16A10.56,10.56,0,0,1,195.54,147.54Z" transform="translate(-8.84 5.05)" style="fill:#9bd3d5"/><path d="M203.47,146.62s0,.1,0,.17,0-.11,0-.17Z" transform="translate(-8.84 5.05)" style="fill:#9bd3d5"/><path d="M203.47,146.62a5.77,5.77,0,0,1-.15,1.52h-7.06c0-.05.05-1.25.06-1.52a9.13,9.13,0,0,0-.58-3.18,3,3,0,0,0-.95-1.4v0A10.3,10.3,0,0,1,197,143.3a3.13,3.13,0,0,0,2,.92,4.1,4.1,0,0,0,3.57-2l.12.2a7.35,7.35,0,0,1,.78,3.31C203.47,145.82,203.49,146.19,203.47,146.62Z" transform="translate(-8.84 5.05)" style="fill:#9bd3d5"/><path d="M190.32,144c-.34-.28-.66-.52-1-.74a9,9,0,0,0-2.81-1.44l0-.07,7.33-.11.15.77a1.66,1.66,0,0,1-.39.69,3.75,3.75,0,0,1-2.58,1.08A1.27,1.27,0,0,1,190.32,144Z" transform="translate(-8.84 5.05)" style="fill:#f5ae9e"/><path d="M195.11,139.8l-.76,0v1l-9.89.16-.87-52.32a3.29,3.29,0,0,0,2.08-.83l1.19-.92,1.59,4.2a.36.36,0,0,0,.35.22l12.06-1.26-.6,4.91.21,16.83,2.1,27.39Z" transform="translate(-8.84 5.05)" style="fill:#93d2db"/><path d="M182.84,88.69v.24a1,1,0,0,0-.25,0,8.64,8.64,0,0,1-5.05-1c-.39-.26-.59-.28-.5-.82.06-.38,3.17-24.17,6-33.65a.38.38,0,0,0-.73-.22A180.66,180.66,0,0,0,178,75c-.08,0-12.86,2.82-12.86,2.82l-1.59-6.2,13.82-4.15a.38.38,0,0,0,.26-.28c1.14-4.58,4.35-16.26,6.33-18.77a4.3,4.3,0,0,1,.5-.52,6.86,6.86,0,0,1,3-1.4c0,.06,0,.11,0,.17-2.8,2.36-4.9,16-5.07,18.11-.08,1-.18,4.14-.26,6.66,0,1.46-.09,2.75-.11,3.32s.11,1.87.28,3.64a1.47,1.47,0,0,1-.44-.06,1,1,0,0,0-.87,0,1,1,0,0,0-.4,1,2.18,2.18,0,0,0,1.29,1.47,5.48,5.48,0,0,0,.89.21c-1.43,1.34-4.42,4.53-3.54,5.79A5.18,5.18,0,0,0,182.84,88.69Z" transform="translate(-8.84 5.05)" style="fill:#93d2db"/><path d="M200.83,76.26,203.06,89l-2.72.37L189,90.57c-.07-.16-1.46-3.88-1.54-4.14a16.42,16.42,0,0,0,3.64-3.65l.55.7a.38.38,0,0,0,.55.06Z" transform="translate(-8.84 5.05)" style="fill:#93d2db"/><path d="M205.37,69.38a4.92,4.92,0,0,1-.69,2.3,5.81,5.81,0,0,1-.87,1l-11.75,10L188,77.49l10.54-9.37a.38.38,0,0,0,.11-.4L195,56.23a.39.39,0,0,0-.48-.25.38.38,0,0,0-.25.48l3.58,11.25-10.63,9.44a.38.38,0,0,0,0,.52l.16.2a8.07,8.07,0,0,0-.84-.07c0-.62.09-4.85.16-5.79.15-1.93,4.79-20.7,6.83-24.44A10.58,10.58,0,0,0,196,46.2c.11.07,2,1.16,2.57,1.47.19.11,1.57,1.05,1.57,1.06.28.2.5.37.54.55l.22.76,4.22,17.15A6.91,6.91,0,0,1,205.37,69.38Z" transform="translate(-8.84 5.05)" style="fill:#93d2db"/><path d="M197.8,67.72l-.08.07a.45.45,0,0,1,0-.08.25.25,0,0,1,0-.09Z" transform="translate(-8.84 5.05)"/><path d="M33,138.5s-.1-2.78-.19-3.7c-.12-1.16-.44-2.46-.71-3.84-.82-4.2-1.75-9-1.31-12.37.19-1.5.66-5.13.82-6.3a.35.35,0,0,0-.33-.4v0l0-1.16H38.5s0,.8,0,1.06c-.09,1.28-3.09,23.38,1.1,29.66.39.58.45,1,.35,1.1s-.46.51-3.2-.68C35.61,141.34,33.05,139.4,33,138.5Z" transform="translate(-8.84 5.05)" style="fill:#f5ae9e"/><path d="M37,148.41H29a2.67,2.67,0,0,1-1.86-1.1,10.35,10.35,0,0,0-2.82-2.38l-.39,3.48H22.42l-.51-4.75-.43-.21a2.93,2.93,0,0,1,.11-2.49,5.85,5.85,0,0,1,1.13-1.79,7.25,7.25,0,0,0,1.05,1.1,11.35,11.35,0,0,0,2.68,1.81,8.48,8.48,0,0,0,3,.86,1.42,1.42,0,0,0,.92-.27,1.41,1.41,0,0,0,.27-.35s.36.37.52.52a11.5,11.5,0,0,0,4,2.52,2.61,2.61,0,0,1,1.65,1.84l.07.51Z" transform="translate(-8.84 5.05)" style="fill:#14365b"/><path d="M46.43,148.41h-8.7s0-.7,0-.78a3.41,3.41,0,0,0-2.23-3,11,11,0,0,1-4.6-3.25,4.2,4.2,0,0,1,.18-.54,5.69,5.69,0,0,1,1.27-1.93c.51,1.41,3.16,3.2,4.12,3.62a8.4,8.4,0,0,0,3,.86,1.3,1.3,0,0,0,1.05-.39.81.81,0,0,0,.14-.24,11.36,11.36,0,0,0,4,2.5,2.63,2.63,0,0,1,1.65,1.84l.08.51Z" transform="translate(-8.84 5.05)" style="fill:#14365b"/><path d="M30,142c-.07.12-.4.13-.52.14a7.71,7.71,0,0,1-2.69-.8c-1.14-.5-3.71-2.44-3.75-3.34l-.19-3.7c-.18-1.15-.44-2.46-.71-3.84-.82-4.2-1.75-9-1.31-12.37.22-1.76,1.69-7.37,1.71-7.42s7,0,7,0-4.13,24,.06,30.26C30,141.59,30,141.94,30,142Z" transform="translate(-8.84 5.05)" style="fill:#f5ae9e"/><path d="M41.83,80.84l-2,29.1H21.19c-.39-2.25-2.68-16-2.2-23.74.1-1.52.38-3.58.66-5.35l3,.31a.38.38,0,0,0,.38-.34.35.35,0,0,0,0-.22l1.44.15a.34.34,0,0,0,0,.1.38.38,0,0,0,.35.42c2.38.23,4.09.37,5.08.4h.48C33.15,81.68,39.59,81.06,41.83,80.84Z" transform="translate(-8.84 5.05)" style="fill:#93d2db"/><path d="M19.49,81.91v15.8A75.73,75.73,0,0,1,19,86.2C19.07,85,19.27,83.4,19.49,81.91Z" transform="translate(-8.84 5.05)" style="fill:#789ed3"/><path d="M21.51,80.54v29.4h-.33c-.08-.46-.24-1.4-.44-2.68V80.49Z" transform="translate(-8.84 5.05)" style="fill:#789ed3"/><path d="M23.53,80.68v29.26h-.77V80.63Z" transform="translate(-8.84 5.05)" style="fill:#789ed3"/><path d="M25.56,81.33v28.61h-.77V81.24S25.22,81.3,25.56,81.33Z" transform="translate(-8.84 5.05)" style="fill:#789ed3"/><path d="M27.59,81.32v28.62h-.77V81.31Z" transform="translate(-8.84 5.05)" style="fill:#789ed3"/><rect x="20" y="86.39" width="0.77" height="28.61" style="fill:#789ed3"/><path d="M31.64,81.31v28.63h-.77V81.32Z" transform="translate(-8.84 5.05)" style="fill:#789ed3"/><path d="M33.66,81.26v28.68H32.9V81.29H33Z" transform="translate(-8.84 5.05)" style="fill:#789ed3"/><path d="M35.69,81.17v28.77h-.77V81.21Z" transform="translate(-8.84 5.05)" style="fill:#789ed3"/><path d="M37.72,81v28.92H37V81.09Z" transform="translate(-8.84 5.05)" style="fill:#789ed3"/><path d="M39.74,80.81v29.13H39v-29Z" transform="translate(-8.84 5.05)" style="fill:#789ed3"/><path d="M41.77,80.5v1.23L41,92.6v-12Z" transform="translate(-8.84 5.05)" style="fill:#789ed3"/><path d="M27.28,42.1l1.15-.45a3.73,3.73,0,0,0,3.77,3.24c1.71,0,3.69-1,4-2.81l1.24.62L35.59,54.12Z" transform="translate(-8.84 5.05)" style="fill:#f8a404"/><path d="M35.21,40.05l.3,1.8v0c-.23,1.4-1.86,2.24-3.3,2.24a3,3,0,0,1-3-2.58,15.28,15.28,0,0,0,.69-3.42,8.25,8.25,0,0,0,4.93,2Z" transform="translate(-8.84 5.05)" style="fill:#f5ae9e"/><path d="M40.93,30a19.56,19.56,0,0,1-.28,2.35,15.76,15.76,0,0,1-.59,2.28c-.62,1.76-2.12,4.72-5.26,4.72-2.56,0-5.33-2.09-7-4.48,0-.05-.13-.52-.18-.68a7.28,7.28,0,0,0-1-2.34,8.38,8.38,0,0,1-.81-1.59,1.07,1.07,0,0,1,0-1,1,1,0,0,1,.88-.41,1.59,1.59,0,0,1,1.47,1.15.39.39,0,0,0,.7.05s1.78-3.26,5.21-3c.45,0,1,.12,1.49.21a13,13,0,0,0,2.25.27,4.89,4.89,0,0,0,3-1.1A19,19,0,0,1,40.93,30Z" transform="translate(-8.84 5.05)" style="fill:#f5ae9e"/><path d="M36.73,34.37a1.72,1.72,0,0,1-1.07-.28.38.38,0,1,1,.49-.59,1.93,1.93,0,0,0,1,.08v0l-.75-3.42a.38.38,0,1,1,.75-.16l.74,3.37a.72.72,0,0,1,0,.57.65.65,0,0,1-.42.41A4.62,4.62,0,0,1,36.73,34.37Z" transform="translate(-8.84 5.05)"/><path d="M36.27,36.77a2.72,2.72,0,0,1-1.5-.41l-.15-.11a.41.41,0,0,1-.08-.56.36.36,0,0,1,.51-.08l0,0,.13.1a2.2,2.2,0,0,0,1.76.16,1.43,1.43,0,0,0,.51-.31.38.38,0,1,1,.54.55,2.19,2.19,0,0,1-.78.49A2.82,2.82,0,0,1,36.27,36.77Z" transform="translate(-8.84 5.05)"/><path d="M29.73,24.5a.26.26,0,0,1-.17-.44A4,4,0,0,1,32,23a.26.26,0,0,1,.28.23.26.26,0,0,1-.23.28,3.5,3.5,0,0,0-2.14.88A.26.26,0,0,1,29.73,24.5Z" transform="translate(-8.84 5.05)"/><circle cx="23.94" cy="38.84" r="1.79" style="fill:#ee7e94"/><path d="M27.55,31.57a.26.26,0,0,1-.19-.08A2.74,2.74,0,0,1,26.58,30a.26.26,0,1,1,.51,0,2.36,2.36,0,0,0,.64,1.14.26.26,0,0,1-.19.43Z" transform="translate(-8.84 5.05)"/><path d="M39.74,31.23a.38.38,0,0,1-.38-.38v-.55a.38.38,0,1,1,.77,0v.55A.38.38,0,0,1,39.74,31.23Z" transform="translate(-8.84 5.05)"/><path d="M33.6,31.55a.38.38,0,0,1-.38-.38v-.51a.38.38,0,0,1,.77,0v.51A.38.38,0,0,1,33.6,31.55Z" transform="translate(-8.84 5.05)"/><path d="M40.68,32.17c0,.14-.05.27-.08.41a16.4,16.4,0,0,1-.66,2.31c-.08.23-.17.46-.27.67a1.76,1.76,0,0,1-1.27-1.81A1.72,1.72,0,0,1,40.13,32,1.47,1.47,0,0,1,40.68,32.17Z" transform="translate(-8.84 5.05)" style="fill:#ee7e94"/><path d="M44.45,63.67a4.58,4.58,0,0,1-.51,1.9,2.39,2.39,0,0,1-1.35,1.15,34,34,0,0,1-6.48,1.64l-.87-4.79A7.14,7.14,0,0,1,36.32,62a6.33,6.33,0,0,0,1.87-2.45.74.74,0,0,1,0-.12c0-.06.25.31.27.35a1.24,1.24,0,0,1,.15.75,11.53,11.53,0,0,1-.45,1.34.38.38,0,0,0,.09.4.35.35,0,0,0,.4.1,10.56,10.56,0,0,1,2.87-.54A10.94,10.94,0,0,1,43,61.81a2.27,2.27,0,0,1,1.16.2C44.53,62.28,44.47,63.25,44.45,63.67Z" transform="translate(-8.84 5.05)" style="fill:#f5ae9e"/><path d="M19.43,73l15.35-3-.73,10.76c-1.73.12-3.28.19-4.18.16s-2.67-.16-5-.39a.37.37,0,0,0-.41.29A10.86,10.86,0,0,1,23,80.64h0a.39.39,0,0,0-.32-.24L18.51,80A66.38,66.38,0,0,0,19.43,73Z" transform="translate(-8.84 5.05)" style="fill:#789ed3"/><path d="M19.15,72.28a3.82,3.82,0,0,1-3.23-.37c-1.88-1.16-2.33-3.85-1.77-5.85L18.5,46.6c.55-1.31,1.85-1.71,3.75-2.47.4-.16,3.16-1.3,4.3-1.75l8.89,12.85c0,.72-.12,6.8-.12,6.8s-1,1-1,1l1.09,6.07Z" transform="translate(-8.84 5.05)" style="fill:#789ed3"/><path d="M41.85,69.72c.06.83.33,10.33.33,10.33s-4.49.44-7.35.65l.73-10.86.42-.08a.38.38,0,0,0,.31-.44l0-.2a6.41,6.41,0,0,0,.65-.07v0a1,1,0,0,0,.18.84,1,1,0,0,0,.78.38Z" transform="translate(-8.84 5.05)" style="fill:#789ed3"/><path d="M43.9,51.83l-2.07.22c0-.18-.06-.35-.09-.51a7.51,7.51,0,0,0-.39-1.43.47.47,0,0,0-.2-.23.39.39,0,0,0-.56.28.38.38,0,0,0,.08.3,6.21,6.21,0,0,1,.3,1.09c0,.21.09.45.12.7-.1,0-.3.14-.36.58L39.17,59.4a.92.92,0,0,0-.31-.44,1.09,1.09,0,0,0-1-.22.87.87,0,0,0-.46.68,4.82,4.82,0,0,1-1.3,1.77s.06-5.16.06-6l2-12.32A18.62,18.62,0,0,1,41,44.39a7.75,7.75,0,0,1,1.24,1,1.65,1.65,0,0,1,.38.49S43.54,50.11,43.9,51.83Z" transform="translate(-8.84 5.05)" style="fill:#789ed3"/><path d="M31.53,60.85a17.47,17.47,0,0,1-5.13-.75.26.26,0,0,1,.15-.49,17.1,17.1,0,0,0,5.44.72.27.27,0,0,1,.26.25.26.26,0,0,1-.25.26Z" transform="translate(-8.84 5.05)"/><path d="M52.48,59l-1.41,5.07a.46.46,0,0,1-.46.29h-.73a.91.91,0,0,1-.72-.33.6.6,0,0,1-.11-.53l1-3.74a1.11,1.11,0,0,1,1.11-.74Z" transform="translate(-8.84 5.05)" style="fill:#f5ae9e"/><path d="M32.48,30.08a.38.38,0,0,1-.07-.76,4.84,4.84,0,0,0,1.24-.43.38.38,0,1,1,.34.68,5.55,5.55,0,0,1-1.44.49Z" transform="translate(-8.84 5.05)"/><path d="M40.2,29.73h-.07a2.72,2.72,0,0,1-1-.44.38.38,0,1,1,.44-.63,2,2,0,0,0,.74.32.38.38,0,0,1-.07.76Z" transform="translate(-8.84 5.05)"/><path d="M198.16,47.08a1.11,1.11,0,1,1-1.88-1,1.55,1.55,0,0,1,.51.2Z" transform="translate(-8.84 5.05)" style="fill:#2d255d"/><circle cx="188.23" cy="57.02" r="1.1" style="fill:#2d255d"/><path d="M202.18,52.91a1.06,1.06,0,0,1-.57.16,1.1,1.1,0,0,1,0-2.21h.06c.07.24.13.49.19.74Z" transform="translate(-8.84 5.05)" style="fill:#2d255d"/><circle cx="188.23" cy="67.19" r="1.1" style="fill:#2d255d"/><circle cx="192.78" cy="67.19" r="1.1" style="fill:#2d255d"/><circle cx="188.57" cy="77.35" r="1.1" style="fill:#2d255d"/><circle cx="193.12" cy="77.35" r="1.1" style="fill:#2d255d"/><circle cx="188.23" cy="62.1" r="1.1" style="fill:#2d255d"/><circle cx="192.78" cy="62.1" r="1.1" style="fill:#2d255d"/><circle cx="188.23" cy="72.27" r="1.1" style="fill:#2d255d"/><circle cx="192.78" cy="72.27" r="1.1" style="fill:#2d255d"/><circle cx="190.46" cy="54.48" r="0.68" style="fill:#789ed3"/><circle cx="190.46" cy="64.64" r="0.68" style="fill:#789ed3"/><circle cx="190.46" cy="74.81" r="0.68" style="fill:#789ed3"/><circle cx="195.15" cy="74.81" r="0.68" style="fill:#789ed3"/><circle cx="190.46" cy="59.56" r="0.68" style="fill:#789ed3"/><circle cx="190.46" cy="69.73" r="0.68" style="fill:#789ed3"/><circle cx="195.15" cy="69.73" r="0.68" style="fill:#789ed3"/><circle cx="174.17" cy="57.02" r="1.1" style="fill:#2d255d"/><circle cx="183.27" cy="57.02" r="1.1" style="fill:#2d255d"/><path d="M179.56,62.13a1.11,1.11,0,0,1-1.1,1.11c.17-.63.37-1.32.59-2A1.1,1.1,0,0,1,179.56,62.13Z" transform="translate(-8.84 5.05)" style="fill:#2d255d"/><path d="M183.41,61.11c-.12.7-.22,1.41-.31,2.13H183A1.11,1.11,0,0,1,183,61,1,1,0,0,1,183.41,61.11Z" transform="translate(-8.84 5.05)" style="fill:#2d255d"/><circle cx="183.27" cy="67.19" r="1.1" style="fill:#2d255d"/><circle cx="156.3" cy="77.35" r="1.1" style="fill:#2d255d"/><circle cx="160.85" cy="77.35" r="1.1" style="fill:#2d255d"/><circle cx="165.41" cy="77.35" r="1.1" style="fill:#2d255d"/><circle cx="169.96" cy="77.35" r="1.1" style="fill:#2d255d"/><circle cx="179.06" cy="77.35" r="1.1" style="fill:#2d255d"/><circle cx="183.61" cy="77.35" r="1.1" style="fill:#2d255d"/><circle cx="174.17" cy="62.1" r="1.1" style="fill:#2d255d"/><circle cx="183.27" cy="62.1" r="1.1" style="fill:#2d255d"/><circle cx="169.62" cy="72.27" r="1.1" style="fill:#2d255d"/><path d="M188.67,67.21a1.11,1.11,0,0,1-1.11,1.11,1.16,1.16,0,0,1-.47-.11c.14-.7.29-1.4.45-2.1h0A1.11,1.11,0,0,1,188.67,67.21Z" transform="translate(-8.84 5.05)" style="fill:#2d255d"/><circle cx="183.27" cy="72.27" r="1.1" style="fill:#2d255d"/><circle cx="176.96" cy="54.48" r="0.68" style="fill:#789ed3"/><circle cx="186.33" cy="54.48" r="0.68" style="fill:#789ed3"/><circle cx="172.27" cy="64.64" r="0.68" style="fill:#789ed3"/><circle cx="181.64" cy="64.64" r="0.68" style="fill:#789ed3"/><circle cx="186.33" cy="64.64" r="0.68" style="fill:#789ed3"/><circle cx="162.89" cy="74.81" r="0.68" style="fill:#789ed3"/><circle cx="167.58" cy="74.81" r="0.68" style="fill:#789ed3"/><circle cx="172.27" cy="74.81" r="0.68" style="fill:#789ed3"/><circle cx="181.64" cy="74.81" r="0.68" style="fill:#789ed3"/><circle cx="186.33" cy="74.81" r="0.68" style="fill:#789ed3"/><path d="M181.79,54.51a.68.68,0,0,1-.68.68l-.18,0,.42-1.28A.67.67,0,0,1,181.79,54.51Z" transform="translate(-8.84 5.05)" style="fill:#789ed3"/><circle cx="186.33" cy="59.56" r="0.68" style="fill:#789ed3"/><circle cx="172.27" cy="69.73" r="0.68" style="fill:#789ed3"/><circle cx="181.64" cy="69.73" r="0.68" style="fill:#789ed3"/><circle cx="186.33" cy="69.73" r="0.68" style="fill:#789ed3"/><circle cx="188.23" cy="82.77" r="1.1" style="fill:#2d255d"/><path d="M201.69,78.82h-.07a1.1,1.1,0,0,1-.18-2.19C201.48,77.19,201.56,77.94,201.69,78.82Z" transform="translate(-8.84 5.05)" style="fill:#2d255d"/><circle cx="188.23" cy="87.85" r="1.1" style="fill:#2d255d"/><circle cx="192.78" cy="87.85" r="1.1" style="fill:#2d255d"/><circle cx="188.23" cy="92.93" r="1.1" style="fill:#2d255d"/><circle cx="192.78" cy="92.93" r="1.1" style="fill:#2d255d"/><circle cx="190.46" cy="80.22" r="0.68" style="fill:#789ed3"/><circle cx="190.46" cy="85.31" r="0.68" style="fill:#789ed3"/><circle cx="190.46" cy="90.39" r="0.68" style="fill:#789ed3"/><path d="M165.91,77.71a1.07,1.07,0,0,1-.07.38l-.8.14a.72.72,0,0,1-.36,0c-.2-.08-.29-.32-.35-.53s-.15-.57-.22-.85a1.11,1.11,0,0,1,1.81.85Z" transform="translate(-8.84 5.05)" style="fill:#2d255d"/><path d="M179.56,77.71a1.11,1.11,0,0,1-1.1,1.11,1.14,1.14,0,0,1-.53-.13h0c.1-.73.19-1.42.27-2a1.06,1.06,0,0,1,.26,0A1.1,1.1,0,0,1,179.56,77.71Z" transform="translate(-8.84 5.05)" style="fill:#2d255d"/><circle cx="178.72" cy="82.77" r="1.1" style="fill:#2d255d"/><circle cx="183.27" cy="82.77" r="1.1" style="fill:#2d255d"/><circle cx="169.62" cy="87.85" r="1.1" style="fill:#2d255d"/><circle cx="183.27" cy="87.85" r="1.1" style="fill:#2d255d"/><circle cx="169.62" cy="92.93" r="1.1" style="fill:#2d255d"/><path d="M188.67,87.88a1.09,1.09,0,0,1-.45.89c-.24-.66-.46-1.32-.65-2A1.1,1.1,0,0,1,188.67,87.88Z" transform="translate(-8.84 5.05)" style="fill:#2d255d"/><circle cx="183.27" cy="92.93" r="1.1" style="fill:#2d255d"/><circle cx="158.2" cy="80.22" r="0.68" style="fill:#789ed3"/><circle cx="162.89" cy="80.22" r="0.68" style="fill:#789ed3"/><circle cx="167.58" cy="80.22" r="0.68" style="fill:#789ed3"/><circle cx="172.27" cy="80.22" r="0.68" style="fill:#789ed3"/><circle cx="181.64" cy="80.22" r="0.68" style="fill:#789ed3"/><circle cx="186.33" cy="80.22" r="0.68" style="fill:#789ed3"/><circle cx="172.27" cy="85.31" r="0.68" style="fill:#789ed3"/><circle cx="181.64" cy="85.31" r="0.68" style="fill:#789ed3"/><circle cx="186.33" cy="85.31" r="0.68" style="fill:#789ed3"/><circle cx="181.64" cy="95.48" r="0.68" style="fill:#789ed3"/><circle cx="181.64" cy="90.39" r="0.68" style="fill:#789ed3"/><circle cx="186.33" cy="90.39" r="0.68" style="fill:#789ed3"/><path d="M192.4,48c-2.23,5.08-6.38,21.85-6.55,24-.08,1-.16,5.23-.16,5.85a3.37,3.37,0,0,0-.86.13,10.23,10.23,0,0,1-1.82.42c-.17-1.71-.3-3.16-.28-3.55,0-.58.07-1.86.11-3.33.08-2.51.17-5.63.25-6.62.2-2.57,1.7-11.34,3.52-15.54A9.18,9.18,0,0,1,187.3,48a.8.8,0,0,0,.64.69,3.21,3.21,0,0,0,.62.06c.33,0,.75,0,1.59-.11A11.8,11.8,0,0,0,192.4,48Z" transform="translate(-8.84 5.05)" style="fill:#7aa6d7"/><path d="M190.6,82.09c0,.36-.39.77-.61,1-.84,1-4.82,4.18-4.82,4.18a2.84,2.84,0,0,1-2.22.65,4.71,4.71,0,0,1-3.17-1.55c-.47-.67,2.68-4.31,4-5.27a.39.39,0,0,0-.17-.69,4.91,4.91,0,0,1-1.6-.33c-.17-.09-.66-.42-.72-.72s0-.38.29-.3c1.18.36,3.47-.41,3.49-.42a6.53,6.53,0,0,1,2.53.07.37.37,0,0,0,.31,0Z" transform="translate(-8.84 5.05)" style="fill:#f5ae9e"/><path d="M185.92,27.29a2.85,2.85,0,0,1-1-.15.26.26,0,1,1,.17-.48,3.59,3.59,0,0,0,1.91,0,.26.26,0,1,1,.11.5A5.84,5.84,0,0,1,185.92,27.29Z" transform="translate(-8.84 5.05)"/><path d="M195.27,45.81a11.43,11.43,0,0,1-2.8,1.32,10.65,10.65,0,0,1-2.82.75,7.18,7.18,0,0,1-1.59,0c.09-.61.15-1.89.18-3.08,0,0,1.51-.16,1.89-.27A9.91,9.91,0,0,0,191.6,44,10.76,10.76,0,0,0,194,42.45C194.1,42.74,195.09,45.44,195.27,45.81Z" transform="translate(-8.84 5.05)" style="fill:#f5ae9e"/><path d="M196.58,34.57c.13.48-.29,1.35-1.1,2.28a2.17,2.17,0,0,0-.27,1.13,2.36,2.36,0,0,0,.19,1.14s.21.33.21.33A12.52,12.52,0,0,1,194.35,41a10,10,0,0,1-3.73,2.54,7.1,7.1,0,0,1-2.47.47,5.74,5.74,0,0,1-2.57-.61,7.12,7.12,0,0,1-2.94-2.82,10.5,10.5,0,0,1-1.35-4.68,11.69,11.69,0,0,1,.08-2.18c.07-.51.68-2.93.64-3l.31.2c3.46,2.13,8.67.33,11.24-1a5,5,0,0,1-.56,1.77,9.23,9.23,0,0,0-.47,1.19,1.78,1.78,0,0,0,.72,2,.93.93,0,0,0,1.18-.15c.75-.8,1.28-.78,1.58-.71C196.5,34.25,196.56,34.49,196.58,34.57Z" transform="translate(-8.84 5.05)" style="fill:#f5ae9e"/><path d="M183.63,37.45a1.79,1.79,0,0,1-1.79,1.79,1.27,1.27,0,0,1-.28,0,11,11,0,0,1-.66-3.28,1.73,1.73,0,0,1,.94-.27A1.79,1.79,0,0,1,183.63,37.45Z" transform="translate(-8.84 5.05)" style="fill:#ee7e94"/><path d="M185.82,38.27a3.28,3.28,0,0,1-1.23-.3.82.82,0,0,1-.47-.94l.88-3.7a.38.38,0,0,1,.74.18l-.88,3.7a.05.05,0,0,0,0,.06c.53.23,1,.3,1.22.17a.38.38,0,0,1,.48.6A1.21,1.21,0,0,1,185.82,38.27Z" transform="translate(-8.84 5.05)"/><path d="M186.72,41.08A2.81,2.81,0,0,1,186,41a2,2,0,0,1-1.59-1.31.38.38,0,1,1,.76-.12,1.44,1.44,0,0,0,1,.68,1.55,1.55,0,0,0,1.65-.47.38.38,0,1,1,.61.47A2.16,2.16,0,0,1,186.72,41.08Z" transform="translate(-8.84 5.05)"/><path d="M183.41,34.91a.38.38,0,0,1-.38-.38v-.65a.38.38,0,1,1,.77,0v.65A.38.38,0,0,1,183.41,34.91Z" transform="translate(-8.84 5.05)"/><path d="M188.81,35.18a.38.38,0,0,1-.38-.38v-.65a.38.38,0,1,1,.77,0v.65A.38.38,0,0,1,188.81,35.18Z" transform="translate(-8.84 5.05)"/><circle cx="181.07" cy="42.97" r="1.79" style="fill:#ee7e94"/><path d="M181,31.66c-.11.46-.21.94-.29,1.42s-.13,1.05-.13,1.05a5.54,5.54,0,0,1-.83-3.41c0-.42.48-2,.48-2a5.63,5.63,0,0,0,1.15,1.49S181,31.37,181,31.66Z" transform="translate(-8.84 5.05)" style="fill:#f8a404"/><path d="M200.68,32.45l0,.19c-.19,2.17-.31,3.49-1.87,5A4.5,4.5,0,0,1,196.25,39a1.7,1.7,0,0,1-.13-1.73c.14-.26.39-.47.55-.72a4.82,4.82,0,0,0,.49-.88,1.92,1.92,0,0,0,.08-1.55,1.68,1.68,0,0,0-1-.79,2.38,2.38,0,0,0-2.35.92s-.1.1-.25,0a1,1,0,0,1-.37-1.14,7.77,7.77,0,0,1,.43-1.09,4.71,4.71,0,0,0,.61-2.5c.19-.12.35-.22.47-.31a.38.38,0,0,0-.45-.62c-1.86,1.37-8,3.87-11.61,1.69a4.58,4.58,0,0,1-2.31-3.79,1.92,1.92,0,0,1,.15-.78,3.57,3.57,0,0,1,3.08-2.24,2.6,2.6,0,0,1,1.11.4.39.39,0,0,0,.35,0,19,19,0,0,1,3.49-.94,11.91,11.91,0,0,1,4.08.11c1.76.33,3.79,1.62,4.29,3.48a.38.38,0,0,0,.29.28C199.42,27.32,200.88,30.24,200.68,32.45Z" transform="translate(-8.84 5.05)" style="fill:#f8a404"/><path d="M194.55,36.39h-.07a.26.26,0,0,1-.17-.32c.17-.59,1-1,1-1a.26.26,0,1,1,.23.45c-.17.09-.7.42-.79.74A.25.25,0,0,1,194.55,36.39Z" transform="translate(-8.84 5.05)"/><path d="M189.21,29.65a.26.26,0,0,1-.06-.5A20.84,20.84,0,0,0,192.48,28a.26.26,0,0,1,.2.47,21.26,21.26,0,0,1-3.41,1.18Z" transform="translate(-8.84 5.05)"/><path d="M186.88,29.94a7.54,7.54,0,0,1-2.94-.58,5.79,5.79,0,0,1-2.31-2,.26.26,0,0,1,.48-.18,5.46,5.46,0,0,0,2,1.73,7.06,7.06,0,0,0,2.95.53c.26,0,.51,0,.77-.05a.26.26,0,0,1,.28.23.26.26,0,0,1-.23.28c-.27,0-.54,0-.81.06Z" transform="translate(-8.84 5.05)"/><path d="M189.92,33.38a.38.38,0,0,1-.17,0,4.26,4.26,0,0,0-1.58-.44.37.37,0,0,1-.4-.36.38.38,0,0,1,.36-.4,4.74,4.74,0,0,1,1.95.52.38.38,0,0,1-.17.73Z" transform="translate(-8.84 5.05)"/><path d="M182.66,33.25a.38.38,0,0,1-.14-.74,3.13,3.13,0,0,1,1.61-.2.38.38,0,0,1-.21.74,2.43,2.43,0,0,0-1.12.18Z" transform="translate(-8.84 5.05)"/><polygon points="72 126.62 72 131.13 69.38 131.13 69.38 153.7 42.96 153.7 42.96 131.13 45.58 131.13 45.58 126.62 43.92 126.62 43.92 122.1 70.35 122.1 70.35 126.62 72 126.62" style="fill:#2b97ef"/><polygon points="164.5 135.65 164.5 144.67 160.48 144.67 160.48 149.19 162.13 149.19 162.13 153.7 135.71 153.7 135.71 149.19 134.05 149.19 134.05 144.67 138.08 144.67 138.08 135.65 136.07 135.65 136.07 131.13 162.49 131.13 162.49 135.65 164.5 135.65" style="fill:#2b97ef"/><rect x="122.35" y="134.14" width="26.42" height="4.51" transform="translate(-62.5 175.79) rotate(-55.46)" style="fill:#2b97ef"/><path d="M52.66,52l-1.52,6.33a1.88,1.88,0,0,0-1.78,1.3l-1,3.74a1.36,1.36,0,0,0,.24,1.19,1.61,1.61,0,0,0,.95.59l-.65,2.69a.22.22,0,0,1-.18.17L37.85,69.51c-.15,0-.25-.15-.21-.28l.08-.33a51.26,51.26,0,0,0,5.09-1.44,3,3,0,0,0,1.81-1.53,5.28,5.28,0,0,0,.37-4c-.51-1.24-3.74-.84-5.5-.47l2-8.4a.22.22,0,0,1,.19-.17l10.78-1.16A.22.22,0,0,1,52.66,52Z" transform="translate(-8.84 5.05)" style="fill:#9bd3d5"/><polygon points="99.12 144.67 99.12 149.19 100.78 149.19 100.78 153.7 74.35 153.7 74.35 149.19 72.7 149.19 72.7 144.67 76.73 144.67 76.73 140.16 103.15 140.16 103.15 144.67 99.12 144.67" style="fill:#2b97ef"/><path d="M79.07,13.91H60.79a.38.38,0,0,1,0-.77H79.07a.38.38,0,1,1,0,.77Z" transform="translate(-8.84 5.05)"/><path d="M210.46,148.14h-6.34a10.71,10.71,0,0,0-.77-6.06,2.13,2.13,0,0,0-.66-.77l-.11-1.29.44,0a.39.39,0,0,0,.35-.41l-2.13-27.75L201,92.5s.7-2.48.7-2.51l1.87-.26a.39.39,0,0,0,.33-.44L201.5,75.68l2.8-2.38a4.92,4.92,0,0,0,1-1.12,5.69,5.69,0,0,0,.82-2.3,7.33,7.33,0,0,0-.21-2.88l-4.22-17.15-.22-.76a1.76,1.76,0,0,0-.84-1s-.7-.52-1-.72-3.63-2.12-3.72-2.17c-.21-.51-1.15-3.09-1.25-3.32,0,0,1-1.11,1.34-1.56.07-.08.3-.55.4-.56a5.18,5.18,0,0,0,3-1.59c1.76-1.71,1.89-3.22,2.1-5.48l0-.19c.22-2.5-1.35-5.67-3.81-6.34a6.37,6.37,0,0,0-4.82-3.81c-.25,0-.53-.09-.82-.13v-7.7a5,5,0,0,0-4.74-5.19H124.81a5,5,0,0,0-4.74,5.19v6.81a13.06,13.06,0,0,0-13.3.35V14.53A5,5,0,0,0,102,9.34H39.61a5,5,0,0,0-4.74,5.19v3.8a10.1,10.1,0,0,0-1.58-.42,9.11,9.11,0,0,0-6.91,1.14,6.91,6.91,0,0,0-3.75-.48,6,6,0,0,0-4.78,4,7.09,7.09,0,0,0,.06,2.8A6.15,6.15,0,0,1,18,27.88c-.14.55-1.18,2.37-1.36,2.79a5.19,5.19,0,0,0-.31,3A10.33,10.33,0,0,0,17,35.63a12.13,12.13,0,0,1,.54,1.44,4,4,0,0,1-1.47,3.34.39.39,0,0,0,.22.69h9.38a.37.37,0,0,0,.18,0c1.76-.94,1.82-3.12,1.58-4.26a3.09,3.09,0,0,1,0-1.26,12.84,12.84,0,0,0,1.74,2,14.75,14.75,0,0,1-.52,3.26L22,43.36c-1.85.68-3.63,1.44-4.27,3,0,0-4.37,19.54-4.37,19.55-.64,2.36-.08,5.33,2.12,6.69a4.56,4.56,0,0,0,3.12.63c-.23,3.17-1,7-1,7.07s0,.31.35.38l.84.11c-.28,1.79-.56,3.85-.66,5.38-.53,8.54,2.24,24.08,2.27,24.24a.38.38,0,0,0,.38.32h.7S20.26,116.32,20,118c-.44,3.53.5,8.36,1.32,12.61.27,1.38.52,2.67.7,3.77l.19,3.66a1.29,1.29,0,0,0,.09.4,6.34,6.34,0,0,0-1.45,2.2,3.52,3.52,0,0,0,0,3.25c.06.09.13.14.33.25l.44,4.24H15.31a.36.36,0,0,0-.38.35c0,.21.17.26.38.26H174.66a2.68,2.68,0,0,0,0,.35.39.39,0,0,0,.39.34h20.64a.39.39,0,0,0,.37-.31s0-.15.08-.39h14.3C210.91,149,211,148.14,210.46,148.14Zm-8-11-5.76.43a.26.26,0,0,0,0,.51h0l5.76-.43.12,1.58-7.47.56S195,115,195,115a.36.36,0,0,0-.38-.37.37.37,0,0,0-.38.37l.15,23.79h-4.93L189.17,112l3-19.89a.26.26,0,0,0-.51-.08l-3,19.93.27,29-4.46.07,0-1.73h3.39a.26.26,0,0,0,0-.51h-3.4l-.38-24.28-.46-25.81a3.29,3.29,0,0,0,2.08-.83l1.19-.92,1.59,4.2a.36.36,0,0,0,.35.22l12.06-1.26L194.3,113.2a.38.38,0,0,0,.74.21L200.26,95l.21,16.83Zm-.46,4.52c0,.23-.27.56-.4.71a3.77,3.77,0,0,1-2.57,1.07,1.28,1.28,0,0,1-.75-.17,14.53,14.53,0,0,0-1.81-1.29,5.3,5.3,0,0,0-.75-.4,3.67,3.67,0,0,1-.58-.22l0-.8,6.7-.5Zm-15.42.15,0-.07,7.33-.11.15.77a1.66,1.66,0,0,1-.39.69,3.75,3.75,0,0,1-2.58,1.08,1.27,1.27,0,0,1-.75-.18c-.34-.28-.66-.52-1-.74A9,9,0,0,0,186.54,141.82Zm1.15,1.31c-.31.17-4.38,2.05-4.42,2.06a2.86,2.86,0,0,1-2-.3,1.62,1.62,0,0,1-.45-.36,28.66,28.66,0,0,0,5.32-2h0A5.47,5.47,0,0,1,187.69,143.13Zm1.75-2.18,0-1.64h4.93v1.57Zm-7.15-87.69A180.66,180.66,0,0,0,178,75c-.08,0-12.86,2.82-12.86,2.82l-1.59-6.2,13.47-4a6.69,6.69,0,0,1,.7,1.61.39.39,0,0,0,.37.28l.11,0a.38.38,0,0,0,.27-.47,7.28,7.28,0,0,0-.82-1.85c1.15-4.62,4.34-16.2,6.32-18.7a4.3,4.3,0,0,1,.5-.52,6.86,6.86,0,0,1,3-1.4c0,.06,0,.11,0,.17-2.8,2.36-4.9,16-5.07,18.11-.08,1-.18,4.14-.26,6.66,0,1.46-.09,2.75-.11,3.32s.11,1.87.28,3.64a1.47,1.47,0,0,1-.44-.06,1,1,0,0,0-.87,0,1,1,0,0,0-.4,1,2.18,2.18,0,0,0,1.29,1.47,5.48,5.48,0,0,0,.89.21c-1.43,1.34-4.42,4.53-3.54,5.79a5.18,5.18,0,0,0,3.68,1.85v.24a1,1,0,0,0-.25,0,8.64,8.64,0,0,1-5.05-1c-.39-.26-.59-.28-.5-.82.06-.38,3.17-24.17,6-33.65A.38.38,0,0,0,182.29,53.25ZM158.45,73.88a13,13,0,0,1-1.52-.46,2.46,2.46,0,0,1-.69-.83,2.3,2.3,0,0,1,.09-.33h0a.76.76,0,0,1,.22.07c1.14.47,3.5-.07,3.52-.07a8.22,8.22,0,0,1,2.85.17h0l1.29,5a37.72,37.72,0,0,1-4.82,3.34l-.1.06a2.84,2.84,0,0,1-2.28.42,4.7,4.7,0,0,1-3-1.86c-.4-.71,3.1-4,4.52-4.84a.39.39,0,0,0,.19-.39A.38.38,0,0,0,158.45,73.88Zm4.24-2.42,0,.12a9.75,9.75,0,0,0-2.82-.08,10.52,10.52,0,0,1-1.08.18,12.3,12.3,0,1,1,20.4-13.32c-1.13,3.75-2,7.29-2.32,8.43l-14,4.2A.38.38,0,0,0,162.68,71.46Zm28.51-22.24a.26.26,0,0,0-.33-.16c-.86.3-3.24.82-4-.28a6.12,6.12,0,0,1,.45-.82.8.8,0,0,0,.64.69,3.21,3.21,0,0,0,.62.06c.33,0,.75,0,1.59-.11A11.8,11.8,0,0,0,192.4,48c-2.23,5.08-6.38,21.85-6.55,24-.08,1-.16,5.23-.16,5.85a3.37,3.37,0,0,0-.86.13,10.23,10.23,0,0,1-1.82.42c-.17-1.71-.3-3.16-.28-3.55,0-.58.07-1.86.11-3.33.08-2.51.17-5.63.25-6.62.2-2.57,1.7-11.34,3.52-15.54a2.77,2.77,0,0,0,2,.66,8.49,8.49,0,0,0,2.42-.42A.26.26,0,0,0,191.19,49.22ZM179.78,86.39c-.47-.67,2.68-4.31,4-5.27a.39.39,0,0,0-.17-.69,4.91,4.91,0,0,1-1.6-.33c-.17-.09-.66-.42-.72-.72s0-.38.29-.3c1.18.36,3.47-.41,3.49-.42a6.53,6.53,0,0,1,2.53.07.37.37,0,0,0,.31,0l2.69,3.42c0,.36-.39.77-.61,1-.84,1-4.82,4.18-4.82,4.18a2.84,2.84,0,0,1-2.22.65A4.71,4.71,0,0,1,179.78,86.39ZM203.06,89l-2.72.37L189,90.57c-.07-.16-1.46-3.88-1.54-4.14a16.42,16.42,0,0,0,3.64-3.65l.55.7a.38.38,0,0,0,.55.06l8.58-7.29ZM196,46.2c.11.07,2,1.16,2.57,1.47.19.11,1.57,1.05,1.57,1.06.28.2.5.37.54.55l.22.76,4.22,17.15a6.91,6.91,0,0,1,.23,2.19,4.92,4.92,0,0,1-.69,2.3,5.81,5.81,0,0,1-.87,1l-11.75,10L188,77.49l10.39-9.23a5.22,5.22,0,0,1,1.44.67.38.38,0,0,0,.53-.11.38.38,0,0,0-.1-.53,6.19,6.19,0,0,0-1.67-.78L195,56.23a.39.39,0,0,0-.48-.25.38.38,0,0,0-.25.48l3.55,11.15,0,.1-.08.07h0l-10.54,9.36a.38.38,0,0,0,0,.52l.16.2a8.07,8.07,0,0,0-.84-.07c0-.62.09-4.85.16-5.79.15-1.93,4.79-20.7,6.83-24.44A10.58,10.58,0,0,0,196,46.2Zm-.75-.39a11.43,11.43,0,0,1-2.8,1.32,10.65,10.65,0,0,1-2.82.75,7.18,7.18,0,0,1-1.59,0c.09-.61.15-1.89.18-3.08,0,0,1.51-.16,1.89-.27A9.91,9.91,0,0,0,191.6,44,10.76,10.76,0,0,0,194,42.45C194.1,42.74,195.09,45.44,195.27,45.81Zm.14-6.69s.21.33.21.33A12.52,12.52,0,0,1,194.35,41a10,10,0,0,1-3.73,2.54,7.1,7.1,0,0,1-2.47.47,5.74,5.74,0,0,1-2.57-.61,7.12,7.12,0,0,1-2.94-2.82,10.5,10.5,0,0,1-1.35-4.68,11.69,11.69,0,0,1,.08-2.18c.07-.51.68-2.93.64-3l.31.2c3.46,2.13,8.67.33,11.24-1a5,5,0,0,1-.56,1.77,9.23,9.23,0,0,0-.47,1.19,1.78,1.78,0,0,0,.72,2,.93.93,0,0,0,1.18-.15c.75-.8,1.28-.78,1.58-.71.48.16.55.4.57.48.13.48-.29,1.35-1.1,2.28a2.17,2.17,0,0,0-.27,1.13A2.36,2.36,0,0,0,195.41,39.12ZM181,31.66c-.11.46-.21.94-.29,1.42s-.13,1.05-.13,1.05a5.54,5.54,0,0,1-.83-3.41c0-.42.48-2,.48-2a5.63,5.63,0,0,0,1.15,1.49S181,31.37,181,31.66Zm11.69-8.55c1.76.33,3.79,1.62,4.29,3.48a.38.38,0,0,0,.29.28c2.17.45,3.63,3.37,3.43,5.58l0,.19c-.19,2.17-.31,3.49-1.87,5A4.5,4.5,0,0,1,196.25,39a1.7,1.7,0,0,1-.13-1.73c.14-.26.39-.47.55-.72a4.82,4.82,0,0,0,.49-.88,1.92,1.92,0,0,0,.08-1.55,1.68,1.68,0,0,0-1-.79,2.38,2.38,0,0,0-2.35.92s-.1.1-.25,0a1,1,0,0,1-.37-1.14,7.77,7.77,0,0,1,.43-1.09,4.71,4.71,0,0,0,.61-2.5c.19-.12.35-.22.47-.31a.38.38,0,0,0-.45-.62c-1.86,1.37-8,3.87-11.61,1.69a4.58,4.58,0,0,1-2.31-3.79,1.92,1.92,0,0,1,.15-.78,3.57,3.57,0,0,1,3.08-2.24,2.6,2.6,0,0,1,1.11.4.39.39,0,0,0,.35,0,19,19,0,0,1,3.49-.94A11.91,11.91,0,0,1,192.67,23.11Zm-78.95-2.65a12.31,12.31,0,1,1-12.31,12.31A12.32,12.32,0,0,1,113.72,20.46Zm-6.94,26.22h.84c.35,0,.65.22.65.48V56.7c0,.27-.3.48-.65.48h-.84Zm0,26.5a44.15,44.15,0,0,1,13.3-.1V83.56a44.1,44.1,0,0,0-13.3.1ZM26.48,19.93a7.42,7.42,0,0,1,4.61-1.46,11.34,11.34,0,0,1,2.07.2A8.18,8.18,0,0,1,37.7,21l.07.07c-.63,1.12-2.2,1.41-3.37,1.63l-.16,0a.25.25,0,0,0-.2.3.25.25,0,0,0,.25.21h0l.16,0c1.26-.23,2.94-.55,3.69-1.82a4.8,4.8,0,0,1,2.61,2.44,1.77,1.77,0,0,1-.06,1.54,3.63,3.63,0,0,1-1.44,1l-.08,0a3,3,0,0,1-1.35.27,12.94,12.94,0,0,1-2.11-.25,15.82,15.82,0,0,0-1.57-.22A6.33,6.33,0,0,0,28.61,29a2.25,2.25,0,0,0-1.87-1,1.8,1.8,0,0,0-1.51.74,1.84,1.84,0,0,0-.11,1.75A8.75,8.75,0,0,0,26,32.21a6.14,6.14,0,0,1,.79,1.67,8.74,8.74,0,0,1-.3-14Zm.18,17c.18.85.17,2.62-1.11,3.38h-6.2a4.3,4.3,0,0,0,.92-3.92,8.12,8.12,0,0,0-.51-1.27,4.86,4.86,0,0,1-.61-2.48,3.89,3.89,0,0,1,.92-2.27c.21-.25-.16-.59-.38-.34a4.49,4.49,0,0,0-1,2.5,5.34,5.34,0,0,0,.65,2.81,7.23,7.23,0,0,1,.48,1.18,3.76,3.76,0,0,1-1.15,3.78H17.2a4.39,4.39,0,0,0,1.05-3.47c-.32-1.13-1-2.15-1.19-3.31A4.43,4.43,0,0,1,17.33,31a31,31,0,0,0,1.4-2.89,6.9,6.9,0,0,0-.06-2.84,6.4,6.4,0,0,1-.07-2.5,5.22,5.22,0,0,1,4.14-3.4,6.53,6.53,0,0,1,2.94.27,7.67,7.67,0,0,0-1.11,1.12c.12-.14-.93-.38-1-.39a2.37,2.37,0,0,0-1.14.2,4.1,4.1,0,0,0-1.91,2.09.25.25,0,0,0,.46.22,3.64,3.64,0,0,1,1.5-1.75,2.21,2.21,0,0,1,1.85,0c-.14,0-.73,1.17-.81,1.31a9.32,9.32,0,0,0-.63,1.55,11,11,0,0,0-.46,3.52,9.83,9.83,0,0,0,4.39,7.43A3.82,3.82,0,0,0,26.67,37Zm1.17-2.13a.35.35,0,0,0,0-.14,8,8,0,0,0-1.16-2.87,8.38,8.38,0,0,1-.81-1.59,1.07,1.07,0,0,1,0-1,1,1,0,0,1,.88-.41,1.59,1.59,0,0,1,1.47,1.15.39.39,0,0,0,.7.05s1.78-3.26,5.21-3c.45,0,1,.12,1.49.21a13,13,0,0,0,2.25.27,3.74,3.74,0,0,0,1.7-.35l.08,0a7.43,7.43,0,0,0,1.2-.71A19,19,0,0,1,40.93,30a19.56,19.56,0,0,1-.28,2.35,15.76,15.76,0,0,1-.59,2.28c-.62,1.76-2.12,4.72-5.26,4.72C32.25,39.3,29.47,37.22,27.84,34.82Zm7.67,7v0c-.23,1.4-1.86,2.24-3.3,2.24a3,3,0,0,1-3-2.58,15.28,15.28,0,0,0,.69-3.42,8.25,8.25,0,0,0,4.93,2l.4,0Zm-7.07-.21a3.73,3.73,0,0,0,3.77,3.24c1.71,0,3.69-1,4-2.81l1.24.62L35.59,54.12l-5.79-8.37a5.6,5.6,0,0,0,2,.63,6.08,6.08,0,0,0,4.48-1.31.25.25,0,1,0-.34-.38,5.44,5.44,0,0,1-4.07,1.18,5.05,5.05,0,0,1-2.93-1.39h0L27.28,42.1ZM50.28,65.16h.33a1.22,1.22,0,0,0,1.2-.85l1.41-5.07a.77.77,0,0,0-.78-.94h-.51s1.5-6.31,1.5-6.45a12.2,12.2,0,0,1,6-1.59A12.31,12.31,0,1,1,48.81,68.73a1,1,0,0,0,.8-.74Zm-1.12-1.1a.6.6,0,0,1-.11-.53l1-3.74a1.11,1.11,0,0,1,1.11-.74l1.27,0-1.41,5.07a.46.46,0,0,1-.46.29h-.73A.91.91,0,0,1,49.16,64.07ZM52.66,52l-1.52,6.33a1.88,1.88,0,0,0-1.78,1.3l-1,3.74a1.36,1.36,0,0,0,.24,1.19,1.61,1.61,0,0,0,.95.59l-.65,2.69a.22.22,0,0,1-.18.17L37.85,69.51c-.15,0-.25-.15-.21-.28l.08-.33a51.26,51.26,0,0,0,5.09-1.44,3,3,0,0,0,1.81-1.53,5.28,5.28,0,0,0,.37-4c-.51-1.24-3.74-.84-5.5-.47l2-8.4a.22.22,0,0,1,.19-.17l10.78-1.16A.22.22,0,0,1,52.66,52ZM44.23,69.38a5.34,5.34,0,0,1-1.55,1.5q0-.6-.06-1.27Zm-6-7.07a.35.35,0,0,0,.4.1,10.56,10.56,0,0,1,2.87-.54A10.94,10.94,0,0,1,43,61.81a2.27,2.27,0,0,1,1.16.2c.41.26.35,1.24.33,1.65a4.58,4.58,0,0,1-.51,1.9,2.39,2.39,0,0,1-1.35,1.15,34,34,0,0,1-6.48,1.64l-.87-4.79A7.14,7.14,0,0,1,36.32,62a6.33,6.33,0,0,0,1.87-2.45.74.74,0,0,1,0-.12c0-.06.25.31.27.35a1.24,1.24,0,0,1,.15.75,11.53,11.53,0,0,1-.45,1.34A.38.38,0,0,0,38.28,62.31ZM36,69.75a.38.38,0,0,0,.31-.44l0-.2a6.41,6.41,0,0,0,.65-.07v0a1,1,0,0,0,.18.84,1,1,0,0,0,.78.38l4-.56c.06.83.33,10.33.33,10.33s-4.49.44-7.35.65l.73-10.86Zm5.85-17.69c0-.18-.06-.35-.09-.51a7.51,7.51,0,0,0-.39-1.43.47.47,0,0,0-.2-.23.39.39,0,0,0-.56.28.38.38,0,0,0,.08.3,6.21,6.21,0,0,1,.3,1.09c0,.22.09.46.13.72a1,1,0,0,0-.37.56L39.17,59.4a.92.92,0,0,0-.31-.44,1.09,1.09,0,0,0-1-.22.87.87,0,0,0-.46.68,4.82,4.82,0,0,1-1.3,1.77l0-.3c.08-1.15,0-5.27,0-5.74l2-12.25A18.62,18.62,0,0,1,41,44.39a7.75,7.75,0,0,1,1.24,1,1.65,1.65,0,0,1,.38.49s.89,4.24,1.25,6ZM15.92,71.91c-1.88-1.16-2.33-3.85-1.77-5.85L18.5,46.6c.55-1.31,1.85-1.71,3.75-2.47.4-.16,3.16-1.3,4.3-1.75l8.89,12.85c0,.72-.12,6.8-.12,6.8s-.19.26-.28.4a.39.39,0,0,0-.43-.26L21.72,64.46c.34-1.35,2.21-9.85,2.75-11.3a.38.38,0,0,0-.23-.49.38.38,0,0,0-.49.22c-.55,1.51-2.42,10.05-2.86,11.71l-3.46.61a.38.38,0,0,0,.13.76l16.8-3,1.09,6.07-16.3,3.21A3.82,3.82,0,0,1,15.92,71.91Zm5.27,38c-.39-2.25-2.68-16-2.2-23.74.1-1.52.38-3.58.66-5.35l3,.31a.38.38,0,0,0,0-.76L18.51,80A66.38,66.38,0,0,0,19.43,73l15.35-3-.73,10.76c-1.73.12-3.28.19-4.18.16s-2.67-.16-5-.39a.38.38,0,0,0-.42.34.38.38,0,0,0,.35.42c2.38.23,4.09.37,5.08.4h.48c2.82,0,9.26-.62,11.5-.84l-2,29.1Zm10.09,1.94a.36.36,0,0,0-.43.3c-.15,1.17-.63,4.8-.82,6.3-.45,3.53.49,8.36,1.32,12.61.27,1.38.58,2.66.7,3.77.08.79.16,3.16.16,3.16a5.43,5.43,0,0,0-1.54,1.84c-.12.22-.35.75-.36.77s-.47-.79-.64-1.18a16.58,16.58,0,0,1-1-4.79,50,50,0,0,1-.16-6.11c.06-2.14.29-4.27.4-6.41s1.44-11.45,1.44-11.45H38.5s0,.8,0,1.06c-.09,1.28-3.09,23.38,1.1,29.66.39.58.45,1,.35,1.1s-.46.51-3.2-.68c-1.14-.5-3.7-2.44-3.75-3.34,0,0-.1-2.78-.19-3.7-.12-1.16-.44-2.46-.71-3.84-.82-4.2-1.75-9-1.31-12.37.19-1.5.66-5.13.82-6.3A.35.35,0,0,0,31.28,111.89ZM22.11,130.5c-.82-4.2-1.75-9-1.31-12.37.22-1.76,1.69-7.37,1.71-7.42s7,0,7,0-4.13,24,.06,30.26c.41.62.43,1,.37,1.07s-.22.14-.48.14a7.45,7.45,0,0,1-2.74-.8c-1.14-.5-3.71-2.44-3.75-3.34l-.19-3.7C22.63,133.18,22.38,131.88,22.11,130.5Zm1.82,17.91H22.42l-.4-3.85a21.89,21.89,0,0,1,2.19,1.21Zm.77,0,.22-2.15a8,8,0,0,1,1.6,1.52,4.52,4.52,0,0,0,.57.63Zm12.13,0s-7.76,0-7.83,0a2.67,2.67,0,0,1-1.86-1.1c-1.4-1.84-4.06-3.1-5.2-3.63l-.46-.23a2.93,2.93,0,0,1,.11-2.49,5.85,5.85,0,0,1,1.13-1.79,7.25,7.25,0,0,0,1.05,1.1A4.53,4.53,0,0,0,22.69,143a.26.26,0,0,0,.24.27h0a.25.25,0,0,0,.26-.25,4,4,0,0,1,1-2.42,12.08,12.08,0,0,0,2.29,1.48,8.48,8.48,0,0,0,3,.86,1.17,1.17,0,0,0,1.15-.55l0-.07,0,0a11.67,11.67,0,0,0,4.5,3,2.61,2.61,0,0,1,1.65,1.84H29.11a.25.25,0,0,0-.26.26.26.26,0,0,0,.26.26h7.83l0,.69C37,148.5,36.83,148.41,36.83,148.41Zm9.45,0H37.73c.07,0,0-.7,0-.78a3.41,3.41,0,0,0-2.23-3,11,11,0,0,1-4.6-3.25,4.2,4.2,0,0,1,.18-.54,5.69,5.69,0,0,1,1.27-1.93c.51,1.41,3.16,3.2,4.12,3.62a8.4,8.4,0,0,0,3,.86,1.3,1.3,0,0,0,1.05-.39.81.81,0,0,0,.14-.24,11.36,11.36,0,0,0,4,2.5,2.63,2.63,0,0,1,1.65,1.84H38.57a.26.26,0,0,0,0,.51h7.83l0,.79C46.43,148.49,46.28,148.41,46.28,148.41Zm31.57,0H52.19v-3.89H77.84Zm0-4.65H52.19V140H77.84Zm0-4.52H52.19v-3.75H77.84Zm0-4.51H52.19V131H77.84Zm0-4.51H52.19v-3.75H77.84Zm-23-8.26H80.46v3.75H54.8Zm-1.66-.77v-3.75H78.81v3.75Zm56.09,27.15-25.66.08v-3.89h25.66ZM107.58,140v3.75H81.93V140ZM86,139.24v-3.75h25.66v3.75Zm24,9.1v-4.2a.38.38,0,0,0-.38-.38h-1.27V140H112a.38.38,0,0,0,.38-.38v-4.51a.39.39,0,0,0-.38-.38h-5.21V86a.38.38,0,0,0-.77,0v48.77H85.57a.38.38,0,0,0-.38.38v4.13H81.54a.38.38,0,0,0-.38.38v4.52a.38.38,0,0,0,.38.38h1.27v3.89H78.61V126.46h2.24a.38.38,0,0,0,.38-.38v-4.51a.38.38,0,0,0-.38-.38H79.57v-4.13a.39.39,0,0,0-.38-.38H52.76a.39.39,0,0,0-.38.38v4.52a.39.39,0,0,0,.38.38H54v3.75H51.8a.38.38,0,0,0-.38.38v22.33h-4.3l0-.88a3.4,3.4,0,0,0-2.23-3,10.93,10.93,0,0,1-4.42-3,4.13,4.13,0,0,0-.29-.5c-4.06-6.09-1-28.92-1-29.15,0,0,0-1.14,0-1.14h.88a.38.38,0,0,0,.38-.36l2.08-29.58a.39.39,0,0,0,.35-.39s-.22-8.48-.23-8.64a5.41,5.41,0,0,0,2.42-2.49l2.85-.4a13.07,13.07,0,1,0,5.08-17.69,1,1,0,0,0-.74-.22l-7.68.82-1.26-6a1.62,1.62,0,0,0-.46-.8c-1.77-2-4.48-2.66-6.78-3.81L36,39.95c2.13-.46,3.82-2.24,4.82-5.1a15.63,15.63,0,0,0,.63-2.39A19.23,19.23,0,0,0,41.69,30a17.71,17.71,0,0,0-.21-4.46,2.51,2.51,0,0,0,0-2,5.5,5.5,0,0,0-3-2.87,3,3,0,0,1-.22-.21,8.51,8.51,0,0,0-2.6-1.81v-4.1a4.22,4.22,0,0,1,4-4.43H102a4.22,4.22,0,0,1,4,4.43v7.68a13.06,13.06,0,0,0,0,21.1V72.48a55,55,0,0,0-21.16,8.93.38.38,0,0,0,.43.63A54,54,0,0,1,106,73.31V83.79a54.28,54.28,0,0,0-20,8.14l2.28-4.7a.38.38,0,0,0-.69-.33L84.8,92.77c-.12.26-.17.71.28.7l6.69-.19c.47,0,.46-.8,0-.77l-5.43.15c11-7.15,22.44-9.91,33.76-8.28v59.52a5.43,5.43,0,0,0,2.18,4.42Zm34.17,0H130.56l14-20.31v2.57a.38.38,0,0,0,.38.38h1.63v8.26H142.9a.39.39,0,0,0-.38.38v4.52a.39.39,0,0,0,.38.38h1.28Zm-14.34-.3-3.09-2.12,14.55-21.14,3.09,2.13Zm17.48-8.79v-3.75H173v3.75Zm21.63.77v3.75H143.28V140Zm-21.63-5.28V131H173v3.75ZM171,130.21H145.3v-3.75H171Zm-.36,18.12H144.94v-3.81H170.6Zm4.21-1.47a13.09,13.09,0,0,0-.14,1.47h-3.3v-4.2a.38.38,0,0,0-.38-.38H169.7V140h3.64a.38.38,0,0,0,.38-.38v-9a.38.38,0,0,0-.38-.38h-1.63v-4.13a.39.39,0,0,0-.38-.38H144.91a.38.38,0,0,0-.38.38l-3.12-2.15a.39.39,0,0,0-.53.1l-15,21.76a.39.39,0,0,0,.1.54l2.92,2s-4.54,0-4.75,0a4.39,4.39,0,0,1-3.32-4.42V84.5a53.64,53.64,0,0,1,21.42,8.85c.4.27.85-.35.43-.63a54.7,54.7,0,0,0-21.84-9V73.19a53.07,53.07,0,0,1,20.38,8.17l-5.29-.15a.38.38,0,0,0,0,.77l6.7.19a.38.38,0,0,0,.35-.55l-2.92-6a.38.38,0,0,0-.69.33l2.34,4.82A56,56,0,0,0,123.95,73a44.93,44.93,0,0,0-10.18-1.18,44.13,44.13,0,0,0-7,.56V57.95h.84A1.34,1.34,0,0,0,109,56.7V47.16a1.34,1.34,0,0,0-1.41-1.25h-.84V43.84a13.06,13.06,0,0,0,13.3.35V71.08a.38.38,0,0,0,.77,0V43.73a13.06,13.06,0,0,0,0-21.92V14.53a4.22,4.22,0,0,1,4-4.43h62.44a4.22,4.22,0,0,1,4,4.43v7.61a10.38,10.38,0,0,0-2.77.1,20.54,20.54,0,0,0-3.47.92,3,3,0,0,0-1.34-.42h0a4.16,4.16,0,0,0-4,3.77,4.16,4.16,0,0,0,.16,1.19c-.11.34-.29.65-.39,1a11.63,11.63,0,0,0-.44,1.92,6.27,6.27,0,0,0,.23,2.48,3.55,3.55,0,0,0,1.3,2.06v.22a13.47,13.47,0,0,0,.2,2.12,12.69,12.69,0,0,0,.4,1.56,9.91,9.91,0,0,0,.43,1.08,8.07,8.07,0,0,0,4.71,4.34,10.14,10.14,0,0,0,1.19.26h0c0,.32,0,.63,0,.94a8.71,8.71,0,0,0-2.71,1,5.21,5.21,0,0,0-.9.67,6.14,6.14,0,0,0-1.47,2.13.4.4,0,0,0,0,.17,62.55,62.55,0,0,0-2.79,7.62,13.06,13.06,0,1,0-21.66,14.43,2.85,2.85,0,0,1-1-.14,1,1,0,0,0-.87,0,1.23,1.23,0,0,0-.5.93c-.09.51.78,1.43,1.14,1.6a6.15,6.15,0,0,0,.86.3c-1.56,1.18-4.85,4.06-4.1,5.4A5.43,5.43,0,0,0,156.9,82a4.72,4.72,0,0,0,.83.08,3.27,3.27,0,0,0,2-.63l0,0a41.17,41.17,0,0,0,4.64-3.17l0,.09a.38.38,0,0,0,.37.29h.08l12.93-2.86c-.54,3.63-1.48,10.85-1.54,11.22a1.51,1.51,0,0,0,.11,1,3,3,0,0,0,1.16.81,8.58,8.58,0,0,0,4.07.9,11.16,11.16,0,0,0,1.24,0l.41,24.78s.42,26.83.42,26.9a.39.39,0,0,0,.39.38l1.66,0a17,17,0,0,1-2.81,1.28,14.43,14.43,0,0,1-4.1,1,3.63,3.63,0,0,1-.49,0,2.79,2.79,0,0,0-2.65.83A4.22,4.22,0,0,0,174.8,146.86Zm20.74.68H193.1a1.85,1.85,0,0,1,.25-.89c.31-.42-.23-.71-.41-.34a3.67,3.67,0,0,0-.36,1.23h-16.3a.26.26,0,0,0,0,.51H195.5c0,.21-.09.81-.11.9l-20,0a4.9,4.9,0,0,1,.86-3.62,2,2,0,0,1,2-.58,3.72,3.72,0,0,0,.6,0,7.55,7.55,0,0,0,1.41-.15,2,2,0,0,0,.75.68,3.37,3.37,0,0,0,1.65.42,3,3,0,0,0,.73-.08c.6-.13,4.72-2.2,4.83-2.26s1.08.73,1.62,1.18a2,2,0,0,0,1.24.35,4.38,4.38,0,0,0,3.31-1.54,2.55,2.55,0,0,0,.26-.43,3.93,3.93,0,0,0,.27.47,6.91,6.91,0,0,1,.26.66,5.29,5.29,0,0,0-1.68,1.34.25.25,0,0,0,.32.37,1,1,0,0,0,.28-.26,4,4,0,0,1,1.22-1A10.56,10.56,0,0,1,195.54,147.54Zm7.78.6h-7.06c0-.05,0-.55.05-.82l7.11,0C203.4,147.6,203.33,148.09,203.32,148.14Zm.14-1.34H201a3.74,3.74,0,0,1,1.47-2.43.26.26,0,0,0-.32-.4,4.26,4.26,0,0,0-1.67,2.83h-4.19a9.43,9.43,0,0,0-.59-3.37,3,3,0,0,0-.95-1.4v0A10.3,10.3,0,0,1,197,143.3l.74.57a1.92,1.92,0,0,0,1.23.35,4.1,4.1,0,0,0,3.57-2l.12.2A8.6,8.6,0,0,1,203.46,146.8Z" transform="translate(-8.84 5.05)"/></svg>