<svg id="Layer_1" data-name="Layer 1" xmlns="http://www.w3.org/2000/svg" xmlns:xlink="http://www.w3.org/1999/xlink" viewBox="0 0 522.99 478.57"><defs><radialGradient id="radial-gradient" cx="10063.53" cy="-8680.35" r="1124.1" gradientTransform="matrix(0.03, 0, 0, -0.03, 274.98, 251.63)" gradientUnits="userSpaceOnUse"><stop offset="0" stop-color="#fff"/><stop offset="1" stop-color="#fff" stop-opacity="0.94"/></radialGradient><linearGradient id="linear-gradient" x1="2858.57" y1="-9891.77" x2="2682.91" y2="-7020.1" gradientTransform="matrix(0.03, 0, 0, -0.03, 274.98, 251.63)" gradientUnits="userSpaceOnUse"><stop offset="0" stop-color="#5f2f81"/><stop offset="0.99" stop-color="#290e50"/><stop offset="1" stop-color="#290e50"/></linearGradient><linearGradient id="linear-gradient-2" x1="4334.84" y1="-11042.52" x2="11118.48" y2="-11907.56" gradientTransform="matrix(0.03, 0, 0, -0.03, 274.98, 251.63)" gradientUnits="userSpaceOnUse"><stop offset="0" stop-color="#ff6e26"/><stop offset="0.99" stop-color="#e03347"/><stop offset="1" stop-color="#e03347"/></linearGradient><linearGradient id="linear-gradient-3" x1="5084.79" y1="-11202.82" x2="11199.49" y2="-11982.57" gradientTransform="matrix(0.03, 0, 0, -0.03, 274.98, 251.63)" gradientUnits="userSpaceOnUse"><stop offset="0" stop-color="#c63e26"/><stop offset="0.99" stop-color="#a4152b"/><stop offset="1" stop-color="#a4152b"/></linearGradient><linearGradient id="linear-gradient-4" x1="6570.05" y1="-9320.18" x2="7549.64" y2="-9375.78" gradientTransform="matrix(0.03, 0, 0, -0.03, 274.98, 251.63)" gradientUnits="userSpaceOnUse"><stop offset="0" stop-color="#290e50"/><stop offset="1" stop-color="#2e174c"/></linearGradient><linearGradient id="linear-gradient-5" x1="6587.83" y1="-9257.49" x2="7634.88" y2="-9365.07" gradientTransform="matrix(0.03, 0, 0, -0.03, 274.98, 251.63)" gradientUnits="userSpaceOnUse"><stop offset="0" stop-color="#2e174c"/><stop offset="0.99" stop-color="#290e50"/><stop offset="1" stop-color="#290e50"/></linearGradient><linearGradient id="linear-gradient-6" x1="6744.2" y1="-9275.74" x2="7505.4" y2="-9318.94" gradientTransform="matrix(0.03, 0, 0, -0.03, 274.98, 251.63)" gradientUnits="userSpaceOnUse"><stop offset="0" stop-color="#688dff"/><stop offset="0.99" stop-color="#4c346c"/><stop offset="1" stop-color="#4c346c"/></linearGradient><linearGradient id="linear-gradient-7" x1="6712.99" y1="-9255.53" x2="7317.08" y2="-9317.59" xlink:href="#linear-gradient-5"/><linearGradient id="linear-gradient-8" x1="1590858.58" y1="15397076.82" x2="1627783.29" y2="15756503.51" gradientTransform="matrix(0.03, 0, 0, -0.03, 274.98, 251.63)" gradientUnits="userSpaceOnUse"><stop offset="0"/><stop offset="1" stop-color="#bcb3b1"/></linearGradient><radialGradient id="radial-gradient-2" cx="7876.88" cy="-1523.58" r="164.87" gradientTransform="matrix(0.03, 0, 0, -0.01, 261.24, 496.88)" gradientUnits="userSpaceOnUse"><stop offset="0" stop-color="#ff7e00"/><stop offset="0.39" stop-color="#7f3f00"/><stop offset="1"/></radialGradient><linearGradient id="linear-gradient-9" x1="-4797.37" y1="1379.98" x2="-3266.57" y2="-757.3" gradientTransform="matrix(0.03, 0, 0, -0.03, 274.98, 251.63)" gradientUnits="userSpaceOnUse"><stop offset="0" stop-color="#ff8347"/><stop offset="0.03" stop-color="#ff8347"/><stop offset="0.26" stop-color="#ec3d47"/><stop offset="1" stop-color="#ff8326"/></linearGradient><linearGradient id="linear-gradient-10" x1="-4489.74" y1="1578.28" x2="-2989.01" y2="-517.04" gradientTransform="matrix(0.03, 0, 0, -0.03, 274.98, 251.63)" gradientUnits="userSpaceOnUse"><stop offset="0" stop-color="#ffa700"/><stop offset="1" stop-color="#ffd327"/></linearGradient><linearGradient id="linear-gradient-11" x1="-4395.12" y1="1497.48" x2="-3030.84" y2="-407.32" xlink:href="#linear-gradient-9"/><linearGradient id="linear-gradient-12" x1="-4426.72" y1="1470.17" x2="-3066.87" y2="-428.44" gradientTransform="matrix(0.03, 0, 0, -0.03, 274.98, 251.63)" gradientUnits="userSpaceOnUse"><stop offset="0" stop-color="#ffa700"/><stop offset="1" stop-color="#ff9c27"/></linearGradient><linearGradient id="linear-gradient-13" x1="-1921.72" y1="954.52" x2="-1169.24" y2="-874.87" xlink:href="#linear-gradient-9"/><linearGradient id="linear-gradient-14" x1="-1658.76" y1="1038.28" x2="-921.03" y2="-755.2" xlink:href="#linear-gradient-10"/><linearGradient id="linear-gradient-15" x1="-1603.4" y1="962.79" x2="-932.75" y2="-667.62" xlink:href="#linear-gradient-9"/><linearGradient id="linear-gradient-16" x1="-1631.24" y1="948.25" x2="-962.79" y2="-676.88" xlink:href="#linear-gradient-12"/><linearGradient id="linear-gradient-17" x1="1418.87" y1="-7518.93" x2="1418.87" y2="-3068.71" gradientTransform="matrix(0.03, 0, 0, -0.03, 193.22, 138.4)" gradientUnits="userSpaceOnUse"><stop offset="0" stop-color="#e2dcea"/><stop offset="0.01" stop-color="#e2dcea"/><stop offset="1" stop-color="#fff"/></linearGradient><linearGradient id="linear-gradient-18" x1="-740.93" y1="-6042.4" x2="-740.93" y2="-3573.45" gradientTransform="matrix(0.03, 0, 0, -0.03, 193.22, 138.4)" gradientUnits="userSpaceOnUse"><stop offset="0" stop-color="#ca80b8"/><stop offset="1" stop-color="#785ba6"/></linearGradient><linearGradient id="linear-gradient-19" x1="3909.49" y1="-7068.11" x2="3909.49" y2="-6352.87" gradientTransform="matrix(0.03, 0, 0, -0.03, 193.22, 138.4)" gradientUnits="userSpaceOnUse"><stop offset="0" stop-color="#e03347"/><stop offset="1" stop-color="#ff6e26"/></linearGradient><linearGradient id="linear-gradient-20" x1="-4600.6" y1="-3787.9" x2="-4600.6" y2="-2653.09" xlink:href="#linear-gradient-2"/><radialGradient id="radial-gradient-3" cx="-380.68" cy="-5617.94" r="410.49" gradientTransform="matrix(0.04, 0, 0, -0.04, 194.72, 149.95)" gradientUnits="userSpaceOnUse"><stop offset="0" stop-color="#ffd1a9"/><stop offset="1" stop-color="#f89b98"/></radialGradient><linearGradient id="linear-gradient-21" x1="-2149.28" y1="-3787.9" x2="-2149.28" y2="-2653.09" xlink:href="#linear-gradient-2"/><radialGradient id="radial-gradient-4" cx="2072.9" cy="-5620.23" r="399.47" gradientTransform="matrix(0.04, 0, 0, -0.04, 164.84, 149.78)" xlink:href="#radial-gradient-3"/><linearGradient id="linear-gradient-22" x1="302.44" y1="-3787.9" x2="302.44" y2="-2653.09" xlink:href="#linear-gradient-2"/><radialGradient id="radial-gradient-5" cx="4532.25" cy="-5621.98" r="392.28" gradientTransform="matrix(0.04, 0, 0, -0.04, 134.85, 149.67)" xlink:href="#radial-gradient-3"/><linearGradient id="linear-gradient-23" x1="2762.91" y1="-3787.9" x2="2762.91" y2="-2653.09" xlink:href="#linear-gradient-2"/><radialGradient id="radial-gradient-6" cx="6985.02" cy="-5619.83" r="401.36" gradientTransform="matrix(0.04, 0, 0, -0.04, 105.14, 149.81)" xlink:href="#radial-gradient-3"/><linearGradient id="linear-gradient-24" x1="5214.56" y1="-3787.9" x2="5214.56" y2="-2653.09" xlink:href="#linear-gradient-2"/><radialGradient id="radial-gradient-7" cx="9433.52" cy="-5617.39" r="412.58" gradientTransform="matrix(0.04, 0, 0, -0.04, 75.61, 149.97)" xlink:href="#radial-gradient-3"/><linearGradient id="linear-gradient-25" x1="7665.82" y1="-3787.9" x2="7665.82" y2="-2653.09" xlink:href="#linear-gradient-2"/><linearGradient id="linear-gradient-26" x1="1534.19" y1="-2809.76" x2="1534.19" y2="-1924.63" gradientTransform="matrix(0.03, 0, 0, -0.03, 274.98, 251.63)" gradientUnits="userSpaceOnUse"><stop offset="0" stop-color="#ff8329"/><stop offset="0.99" stop-color="#ff6253"/><stop offset="1" stop-color="#ff6253"/></linearGradient><radialGradient id="radial-gradient-8" cx="-6837.1" cy="-6770.35" r="538.64" gradientTransform="matrix(0.03, 0, 0, -0.03, 285.54, 292.53)" gradientUnits="userSpaceOnUse"><stop offset="0" stop-color="#ead7e3"/><stop offset="0.99" stop-color="#bcafd2"/><stop offset="1" stop-color="#bcafd2"/></radialGradient><linearGradient id="linear-gradient-27" x1="-4673.5" y1="-6968.45" x2="-4694.5" y2="-6649.38" gradientTransform="matrix(0.03, 0, 0, -0.03, 193.22, 138.4)" xlink:href="#linear-gradient-3"/><linearGradient id="linear-gradient-28" x1="-3801.78" y1="-11034.25" x2="-4090.27" y2="-6652.68" gradientTransform="matrix(0.03, 0, 0, -0.03, 193.22, 138.4)" gradientUnits="userSpaceOnUse"><stop offset="0" stop-color="#ff8547"/><stop offset="1" stop-color="#ffb834"/></linearGradient><linearGradient id="linear-gradient-29" x1="-5571.19" y1="-11120.55" x2="-5848.16" y2="-6914.29" gradientTransform="matrix(0.03, 0, 0, -0.03, 193.22, 138.4)" gradientUnits="userSpaceOnUse"><stop offset="0" stop-color="#c93347"/><stop offset="1" stop-color="#ff7526"/></linearGradient><linearGradient id="linear-gradient-30" x1="-4075.13" y1="-7370.78" x2="-4075.13" y2="-5312.61" gradientTransform="matrix(0.03, 0, 0, -0.03, 274.98, 251.63)" gradientUnits="userSpaceOnUse"><stop offset="0" stop-color="#bc8ad2"/><stop offset="0.01" stop-color="#bc8ad2"/><stop offset="1" stop-color="#ead7e3"/></linearGradient><mask id="mask" x="433.93" y="377.72" width="89.11" height="13.47" maskUnits="userSpaceOnUse"><g transform="translate(-81.76 -113.24)"><g id="id0"><rect x="515.69" y="490.96" width="89.11" height="13.47" style="fill:url(#radial-gradient)"/></g></g></mask></defs><title>wholesale-market</title><g id="Layer_1-2" data-name="Layer_1"><path d="M426.93,172.72c0,4.28-6.38,7.75-10.66,7.75a7.75,7.75,0,0,1,0-15.51c4.28,0,10.66,3.47,10.66,7.75Z" transform="translate(-81.76 -113.24)" style="fill:#9cb7e7"/><path d="M338.62,161.19a12.36,12.36,0,0,1,23.89,6.4c-1.77,6.6-7.65,7.15-14.24,5.38s-11.41-5.18-9.64-11.78Z" transform="translate(-81.76 -113.24)" style="fill:#9cb7e7"/><path d="M330.55,167.51a2.34,2.34,0,1,1-2.34-2.34A2.34,2.34,0,0,1,330.55,167.51Z" transform="translate(-81.76 -113.24)" style="fill:#9cb7e7"/><path d="M380.13,165.46a2.51,2.51,0,1,1-2.51-2.51A2.51,2.51,0,0,1,380.13,165.46Z" transform="translate(-81.76 -113.24)" style="fill:#9cb7e7"/><path d="M216.89,184.37a1.25,1.25,0,1,1-1.25-1.25A1.25,1.25,0,0,1,216.89,184.37Z" transform="translate(-81.76 -113.24)" style="fill:#9cb7e7;fill-opacity:0.580392003059387"/><path d="M283.15,148.15a2.66,2.66,0,1,1-2.66-2.66A2.66,2.66,0,0,1,283.15,148.15Z" transform="translate(-81.76 -113.24)" style="fill:#9cb7e7;fill-opacity:0.580392003059387"/><path d="M393.66,148.15a3.93,3.93,0,1,1-3.93-3.93A3.93,3.93,0,0,1,393.66,148.15Z" transform="translate(-81.76 -113.24)" style="fill:#9cb7e7"/><path d="M309.87,114.89a1.65,1.65,0,1,1-1.65-1.65A1.65,1.65,0,0,1,309.87,114.89Z" transform="translate(-81.76 -113.24)" style="fill:#9cb7e7;fill-opacity:0.580392003059387"/><path d="M316.06,520.46a2.34,2.34,0,1,1-2.34-2.34A2.34,2.34,0,0,1,316.06,520.46Z" transform="translate(-81.76 -113.24)" style="fill:#e7e8ff"/><path d="M211.34,537.23a2.34,2.34,0,1,1-2.34-2.34A2.34,2.34,0,0,1,211.34,537.23Z" transform="translate(-81.76 -113.24)" style="fill:#e7e8ff"/><path d="M282.15,514.29a.83.83,0,1,1-.83-.83A.83.83,0,0,1,282.15,514.29Z" transform="translate(-81.76 -113.24)" style="fill:#e7e8ff"/><path d="M407.45,149.43a.83.83,0,1,1-.83-.83A.83.83,0,0,1,407.45,149.43Z" transform="translate(-81.76 -113.24)" style="fill:#9cb7e7"/><path d="M419.83,165.46a.83.83,0,1,1-.83-.83A.83.83,0,0,1,419.83,165.46Z" transform="translate(-81.76 -113.24)" style="fill:#9cb7e7"/><path d="M194.27,181.3a.83.83,0,1,1-.83-.83A.83.83,0,0,1,194.27,181.3Z" transform="translate(-81.76 -113.24)" style="fill:#9cb7e7;fill-opacity:0.580392003059387"/><path d="M324.42,166.68a.83.83,0,1,1-.83-.83A.83.83,0,0,1,324.42,166.68Z" transform="translate(-81.76 -113.24)" style="fill:#9cb7e7;fill-opacity:0.580392003059387"/><path d="M284.14,157.9a.83.83,0,1,1-.83-.83A.83.83,0,0,1,284.14,157.9Z" transform="translate(-81.76 -113.24)" style="fill:#9cb7e7;fill-opacity:0.580392003059387"/><g id="_2945461250416" data-name=" 2945461250416"><path d="M464,240.06A173.34,173.34,0,0,1,206.68,472.37c-64.15-71.06-77.63-201.81-6.57-266S399.87,169,464,240.06Z" transform="translate(-81.76 -113.24)" style="fill:#9cb7e7"/><path d="M445.46,200.73c.53-17.13,36.72-24.15,53.85-23.62a31,31,0,0,1,30.06,32c-.53,17.13-11.94,49.52-29.07,49s-55.37-40.21-54.85-57.34Z" transform="translate(-81.76 -113.24)" style="fill:#9cb7e7"/><path d="M514.73,325.9c-4.45,1.14-8.49-14-8.38-18.69.13-5.68,1.45-12.13,5.91-13.27s10.41,7.11,11.85,12.74S519.19,324.76,514.73,325.9Z" transform="translate(-81.76 -113.24)" style="fill:#9cb7e7"/></g><g id="_2945459671856" data-name=" 2945459671856"><path d="M356.34,515.43A152,152,0,0,1,321,506.77c-16.31-6-46.15-19.83-62.79-45.14l1.17-.77c28.37,43.17,100.07,58.66,114.85,52a45.08,45.08,0,0,0,13.86-9.67l-.35-.2c-10.92-6.48-15-15.6-11-24.39,3.18-6.94,10.87-11.66,16.15-9.87,4.05,1.36,6.54,5.33,6.82,10.9.36,7.08-2.79,15.8-9.4,23.23,24.44,13.7,58.15,17.54,58.49,17.58l-.15,1.4c-.35,0-34.6-3.94-59.32-17.91a46.29,46.29,0,0,1-14.52,10.23c-3.87,1.75-10.43,2.13-18.47,1.31Zm34.78-45.68h0c-4.54-.47-10.46,3.65-13.1,9.41-1.78,3.88-4.32,13.84,10.43,22.6l.61.36c6.49-7.18,9.58-15.62,9.24-22.45-.25-5-2.39-8.47-5.86-9.64A6.14,6.14,0,0,0,391.12,469.75Z" transform="translate(-81.76 -113.24)" style="fill:url(#linear-gradient)"/><path d="M418.42,574.15c-8.47-4.49-14.16-6.85-20.74-13.19,0,0,60.49,10.69,101.27,5.45l92,11.73S522.43,603.33,418.42,574.15Z" transform="translate(-81.76 -113.24)" style="fill:url(#linear-gradient-2)"/><path d="M418.42,574.15s99.75,26.92,172.49,4a8,8,0,0,1,1.92,7.42s-83.47,18-174.94-7.23A8.93,8.93,0,0,1,418.42,574.15Z" transform="translate(-81.76 -113.24)" style="fill:url(#linear-gradient-3)"/><path d="M397.68,561a12.21,12.21,0,0,0-.77,6.05l21,11.32.53-4.18S403.76,566.4,397.68,561Z" transform="translate(-81.76 -113.24)" style="fill:#8d003e"/><path d="M444,566.63a218.58,218.58,0,0,0,50.1,17s20.7,1.82,30.74-.51L480,567.78s-29.31-.77-36-1.15Z" transform="translate(-81.76 -113.24)" style="fill:#791a36;fill-opacity:0.450980007648468"/><path d="M531.64,550a22.26,22.26,0,0,1-6.94,10.54s-8.86,6-34.17-3.19C466.06,548.46,442.33,527,442.33,527l-2.38-9.13s22.13-4.12,39.76,5.55S521.41,550.1,531.64,550Z" transform="translate(-81.76 -113.24)" style="fill:#09f"/><path d="M521.24,554.26c-21.31-1.14-35.07-25.43-53.76-32A75.14,75.14,0,0,0,440,517.84h-.06c9.71-4.8,40.4-11.19,65.3,0,15.09,6.74,26,20,26.62,28.53,0,.28,0,.56,0,.82a2.79,2.79,0,0,1,0,.34c-.18,4.34-3.41,7.16-10.63,6.77Z" transform="translate(-81.76 -113.24)" style="fill:#0033ac"/><path d="M461.09,520.42l-.12-.25c9-4.24,20.09-7.12,28.25-7.36v.28c-8.13.23-19.17,3.11-28.14,7.33Z" transform="translate(-81.76 -113.24)" style="fill:url(#linear-gradient-4)"/><path d="M461.74,513.33s13-.08,22.54,5.46l7.06-1.61a55.85,55.85,0,0,0-25.82-4.33l-3.77.48Z" transform="translate(-81.76 -113.24)" style="fill:url(#linear-gradient-5)"/><path d="M484.28,518.78l3.14-.71s-7.07-9.73-21-4.84l15.79,4.46Z" transform="translate(-81.76 -113.24)" style="fill:url(#linear-gradient-6)"/><path d="M482.23,517.7s-5.18-7.36-16.87-4.2Z" transform="translate(-81.76 -113.24)" style="fill:url(#linear-gradient-7)"/><path d="M517.33,556.75c-12-1.23-22.84-10.61-32.73-19.14-5.15-4.44-10-8.63-14.68-11.42-12.93-7.72-29.4-6.71-29.56-6.7l0-.28c.16,0,16.72-1,29.72,6.74,4.69,2.8,9.56,7,14.72,11.45,13.11,11.31,28,24.12,44.71,17.3l.1.26a25.11,25.11,0,0,1-12.26,1.8Z" transform="translate(-81.76 -113.24)" style="fill:#5d2f75"/><path d="M490.54,557.36l7.39-13.78s6.66,6,14.1,8.72l-7.33,9.1a74.7,74.7,0,0,1-14.16-4Z" transform="translate(-81.76 -113.24)" style="fill-opacity:0.50196099281311;fill:url(#linear-gradient-8)"/><path d="M521.24,554.26c-21.31-1.14-35.07-25.43-53.76-32A75.14,75.14,0,0,0,440,517.84a68.36,68.36,0,0,1,31.87,4.67c18.14,7.54,27.63,26.85,45.27,30.18,13.72,2.6,14.47-2.78,14.72-5.19C531.69,551.83,528.46,554.65,521.24,554.26Z" transform="translate(-81.76 -113.24)" style="fill:#09f"/><path d="M463.69,521l.13-1.24a51.78,51.78,0,0,1,15.42,6.63l-1.39,1.34s-6.91-5.32-14.16-6.73Z" transform="translate(-81.76 -113.24)" style="fill:#5555b1;fill-opacity:0.50196099281311"/><path d="M440,517.84a72.05,72.05,0,0,1,29.08,5.76c15.13,6.76,27.1,23,41.88,28.28,0,0-8.71-3.33-18.86-12.64s-20.86-21.79-52.1-21.4Z" transform="translate(-81.76 -113.24)" style="fill:#dedde7"/><path d="M490.95,518.33c.79.28,1.31.86,1.16,1.29s-.92.54-1.71.26-1.31-.86-1.16-1.29.92-.54,1.71-.26Z" transform="translate(-81.76 -113.24)" style="fill:#fff"/><path d="M495.3,520.38c-.35,1.28-2.71,1.75-5.27,1s-4.34-2.32-4-3.6,2.71-1.75,5.27-1S495.65,519.1,495.3,520.38Z" transform="translate(-81.76 -113.24)" style="fill:url(#radial-gradient-2)"/></g><path d="M147.71,206.9a27,27,0,0,0-9.62,6.89s-5.43,12.74,11.65,36.59,32,22.46,32,22.46,7.14-3.19,10.59-8.74l-44.6-57.2Z" transform="translate(-81.76 -113.24)" style="fill:url(#linear-gradient-9)"/><path d="M155.51,246.24c-11.75-16.4-15.24-34-7.8-39.34s23,3.65,34.74,20.05,15.24,34,7.8,39.34S167.26,262.64,155.51,246.24Z" transform="translate(-81.76 -113.24)" style="fill:url(#linear-gradient-10)"/><path d="M177.14,265.79l-12.3-56.17s-7.41-4.63-11.16-4.23l12.63,53s5.91,5.69,10.82,7.4Z" transform="translate(-81.76 -113.24)" style="fill:#fbf8f9"/><path d="M157.49,245c-10.17-14.2-13.55-29.4-8-35a6.8,6.8,0,0,1,.89-.77c6.76-4.84,20.91,3.32,31.59,18.23s13.84,30.92,7.09,35.76a6.8,6.8,0,0,1-1,.59c-7.09,3.45-20.38-4.63-30.55-18.82Z" transform="translate(-81.76 -113.24)" style="fill:url(#linear-gradient-11)"/><path d="M157.49,245c-10.17-14.2-13.55-29.4-8-35,7.09-3.45,20.39,4.64,30.56,18.83s13.54,29.38,8,35c-7.09,3.45-20.38-4.63-30.55-18.82Z" transform="translate(-81.76 -113.24)" style="fill:url(#linear-gradient-12)"/><path d="M177.14,265.79l-6,4.3a36.2,36.2,0,0,1-10.72-7.47l5.9-4.22S172.18,264.08,177.14,265.79Z" transform="translate(-81.76 -113.24)" style="fill:#fbe569"/><path d="M144.26,212.48l-6.9,4.95a25.76,25.76,0,0,0,.13,5.49l6.49-3.45s-.69-4.31.29-7Z" transform="translate(-81.76 -113.24)" style="fill:#fbe569"/><path d="M194,253.72s-3.18,6-1,9.18A15.71,15.71,0,0,0,194,253.72Z" transform="translate(-81.76 -113.24)" style="fill:#fbf8b7"/><path d="M228,222.2a20.35,20.35,0,0,0-8.24,3.39s-6.18,8.39,2.22,28.81,19.55,22,19.55,22,5.78-1.1,9.26-4.58L228,222.2Z" transform="translate(-81.76 -113.24)" style="fill:url(#linear-gradient-13)"/><path d="M226.89,252.36c-5.77-14-5.29-27.54,1.07-30.16s16.21,6.64,22,20.68,5.29,27.54-1.07,30.16S232.66,266.4,226.89,252.36Z" transform="translate(-81.76 -113.24)" style="fill:url(#linear-gradient-14)"/><path d="M239.36,270.41l.68-43.26s-4.63-4.67-7.44-5l.11,41S236.06,268.32,239.36,270.41Z" transform="translate(-81.76 -113.24)" style="fill:#fbf8f9"/><path d="M228.56,251.77c-5-12.15-4.85-23.87.18-27a5.11,5.11,0,0,1,.79-.41c5.79-2.38,14.74,6,20,18.8s4.8,25-1,27.42a5.14,5.14,0,0,1-.85.26c-5.79,1.31-14.13-6.91-19.13-19.06Z" transform="translate(-81.76 -113.24)" style="fill:url(#linear-gradient-15)"/><path d="M228.56,251.77c-5-12.15-4.85-23.87.18-27,5.79-1.31,14.13,6.91,19.13,19.07s4.85,23.86-.19,27C241.9,272.13,233.55,263.92,228.56,251.77Z" transform="translate(-81.76 -113.24)" style="fill:url(#linear-gradient-16)"/><path d="M239.36,270.41l-5.14,2.11a27.25,27.25,0,0,1-6.56-7.32l5-2.08S236,268.31,239.36,270.41Z" transform="translate(-81.76 -113.24)" style="fill:#fbe569"/><path d="M224.47,225.7l-5.91,2.43a19.38,19.38,0,0,0-.85,4l5.35-1.41a13,13,0,0,1,1.42-5.06Z" transform="translate(-81.76 -113.24)" style="fill:#fbe569"/><path d="M253.78,264.48s-3.36,3.82-2.34,6.54A11.82,11.82,0,0,0,253.78,264.48Z" transform="translate(-81.76 -113.24)" style="fill:#fbf8b7"/><g id="_2945459665104" data-name=" 2945459665104"><path d="M120.61,353.05l0-.31s4.92.71,7.54-3.31a20.92,20.92,0,0,0,1.55-3.09c1.6-3.67,3.26-7.47,11.33-8.53a24.42,24.42,0,0,1,11.4,1.26c4.28,1.32,7.12,2.2,12.4-4.29l.24.19c-5.41,6.65-8.32,5.75-12.73,4.39a24.13,24.13,0,0,0-11.27-1.25c-7.89,1-9.52,4.76-11.08,8.35a21.12,21.12,0,0,1-1.58,3.13c-2.73,4.19-7.79,3.46-7.84,3.45Z" transform="translate(-81.76 -113.24)" style="fill:#49aef0"/><path d="M119.33,355.45a1.16,1.16,0,1,1,.57-1.54A1.16,1.16,0,0,1,119.33,355.45Zm.11-3.19-8.35-2.06a2.17,2.17,0,0,0-1.43.14L83,362.58A2.17,2.17,0,0,0,82,365.45l4.47,9.74a2.17,2.17,0,0,0,2.88,1.07L116,364a2.17,2.17,0,0,0,1-1l3.88-7.68a2.17,2.17,0,0,0-1.42-3.08Z" transform="translate(-81.76 -113.24)" style="fill:#09f"/><path d="M93.6,369.24a3.82,3.82,0,0,1-1.23.33,3.07,3.07,0,0,1-1.19-.1l.25-1.25a.82.82,0,0,0,.27.1,2.75,2.75,0,0,0,.47.06,2.82,2.82,0,0,0,.59,0,2.4,2.4,0,0,0,.62-.19,1.24,1.24,0,0,0,.62-.51.66.66,0,0,0,0-.6.44.44,0,0,0-.21-.22.92.92,0,0,0-.34-.08,2.54,2.54,0,0,0-.45,0l-.55.07a2.67,2.67,0,0,1-1.11,0,1,1,0,0,1-.66-.61,2.06,2.06,0,0,1-.2-1,2.25,2.25,0,0,1,.23-.89,2.53,2.53,0,0,1,.57-.75,3.2,3.2,0,0,1,.83-.55,2.8,2.8,0,0,1,1.08-.27,3.17,3.17,0,0,1,.94.1L93.88,364a.7.7,0,0,0-.22-.08,1.9,1.9,0,0,0-.38,0,2.43,2.43,0,0,0-.47,0,1.82,1.82,0,0,0-.49.15,1.17,1.17,0,0,0-.62.53.75.75,0,0,0,0,.65.44.44,0,0,0,.17.2.64.64,0,0,0,.28.08,2.08,2.08,0,0,0,.39,0l.5-.07a4.9,4.9,0,0,1,.66-.07,1.9,1.9,0,0,1,.56.06,1.16,1.16,0,0,1,.45.24,1.32,1.32,0,0,1,.33.46,2.07,2.07,0,0,1,.21,1A2,2,0,0,1,95,368a2.46,2.46,0,0,1-.6.7,3.9,3.9,0,0,1-.83.52Z" transform="translate(-81.76 -113.24)" style="fill:#fff"/><path d="M98,366.15a1,1,0,0,0,.26-.18,1.37,1.37,0,0,0,.23-.28,2,2,0,0,0,.17-.34,1.5,1.5,0,0,0,.09-.37l-.25-1.08a1.07,1.07,0,0,0-.54-.45.8.8,0,0,0-.63,0,1.1,1.1,0,0,0-.43.36,1.55,1.55,0,0,0-.26.54,2,2,0,0,0-.06.62,1.67,1.67,0,0,0,.15.61,1.17,1.17,0,0,0,.54.59.81.81,0,0,0,.74,0Zm-.06,1.12a1.56,1.56,0,0,1-.68.15,1.47,1.47,0,0,1-.63-.15,1.75,1.75,0,0,1-.54-.41,2.42,2.42,0,0,1-.41-.62,2.91,2.91,0,0,1-.27-1.07,3.07,3.07,0,0,1,.12-1.05,2.72,2.72,0,0,1,.46-.9,2,2,0,0,1,.76-.61,1.31,1.31,0,0,1,.83-.11,1.22,1.22,0,0,1,.68.39l-.17-.78,1.06-.49.72,3.19a.61.61,0,0,0,0,.15q.08.17.27.09l.22,1-.23.15-.18.1a.79.79,0,0,1-.49.08.45.45,0,0,1-.33-.28,1.65,1.65,0,0,1-.09-.32,2.2,2.2,0,0,1-.43.92,2,2,0,0,1-.72.58Z" transform="translate(-81.76 -113.24)" style="fill:#fff"/><path d="M102.24,365.27a1,1,0,0,1-.7.1.74.74,0,0,1-.46-.43l-.06-.15,0-.17-1.18-5.28,1.05-.48,1.1,4.87,0,.08,0,.08a.32.32,0,0,0,.47.17.87.87,0,0,0,.19-.12,1.54,1.54,0,0,0,.18-.18l.34.82a2.55,2.55,0,0,1-.44.4,3.12,3.12,0,0,1-.49.29Z" transform="translate(-81.76 -113.24)" style="fill:#fff"/><path d="M104.65,359.92a1.21,1.21,0,0,0-.39.28,1.34,1.34,0,0,0-.25.39,1.79,1.79,0,0,0-.12.46,2.09,2.09,0,0,0,0,.49l.25-.1.24-.11A5,5,0,0,0,105,361a1.64,1.64,0,0,0,.37-.31.63.63,0,0,0,.15-.29.48.48,0,0,0,0-.28.42.42,0,0,0-.33-.26A.89.89,0,0,0,104.65,359.92Zm.85,3.87a2,2,0,0,1-.77.19,1.67,1.67,0,0,1-1.29-.52,2.28,2.28,0,0,1-.44-.65,2.66,2.66,0,0,1-.25-1.07,2.81,2.81,0,0,1,.18-1.06,2.93,2.93,0,0,1,.57-.93,2.84,2.84,0,0,1,.94-.68,1.93,1.93,0,0,1,1.21-.2,1.1,1.1,0,0,1,.79.67q.61,1.34-1.77,2.43l-.29.13-.32.13,0,.1a1.24,1.24,0,0,0,.5.59.76.76,0,0,0,.72,0,1.38,1.38,0,0,0,.53-.42,1.27,1.27,0,0,0,.25-.62l1-.12a2.43,2.43,0,0,1-.19.62,2.76,2.76,0,0,1-.34.57,3,3,0,0,1-.47.48,2.64,2.64,0,0,1-.57.36Z" transform="translate(-81.76 -113.24)" style="fill:#fff"/></g><g id="_2945458363280" data-name=" 2945458363280"><path d="M483.56,308.06,478.36,433l-1.83,44a8.85,8.85,0,0,1-8.83,8.44h-305a8.85,8.85,0,0,1-8.84-8.54l-5.38-168.9a8.85,8.85,0,0,1,8.83-9.16H474.73A8.85,8.85,0,0,1,483.56,308.06Z" transform="translate(-81.76 -113.24)" style="fill:#09f"/><polygon points="78.93 195.28 81.63 351.35 386.11 351.05 391.69 194.65 78.93 195.28" style="fill:#0033ac"/><path d="M153.88,476.85V473L476.8,471.1l-.27,5.84s.09,7.82-8.84,8.44h-305s-8.56-.48-8.84-8.54Z" transform="translate(-81.76 -113.24)" style="fill:#0033ac"/><path d="M451,478.24a2.64,2.64,0,1,1-2.64-2.64A2.64,2.64,0,0,1,451,478.24Z" transform="translate(-81.76 -113.24)" style="fill:#09f"/><polygon points="204.9 372.15 211.73 404.32 252.06 404.32 258.68 372.15 204.9 372.15" style="fill:#09f"/><polygon points="207.28 383.34 255.37 388.23 258.68 372.15 204.9 372.15 207.28 383.34" style="fill:#401734;fill-opacity:0.50196099281311"/><polygon points="181.47 404.32 181.47 410.46 279.94 410.46 279.94 404.32 181.47 404.32" style="fill:#0033ac"/><polygon points="279.94 404.32 252.74 401.04 211.03 401.04 181.47 404.32 279.94 404.32" style="fill:#0033ac"/><polygon points="113.83 225.38 116.41 350.92 348.13 351.53 353.06 225.87 113.83 225.38" style="fill:url(#linear-gradient-17)"/><polygon points="333.98 232.5 336.25 230.24 343.88 239.18 342.75 240.32 333.98 232.5" style="fill:#401734;fill-opacity:0.200000002980232"/><polygon points="342.27 230.24 344.54 232.5 335.59 240.14 334.46 239 342.27 230.24" style="fill:#401734;fill-opacity:0.200000002980232"/><polygon points="256.72 410.46 256.72 404.32 278.21 404.32 276.89 410.46 256.72 410.46" style="fill:#fbf8f9;fill-opacity:0.800000011920929"/><path d="M483.56,308.05,478.36,433l-1.56,12.68-5.52-7.14L475.93,306H313.75l-7.24-7.25H474.73a8.85,8.85,0,0,1,8.84,9.26Z" transform="translate(-81.76 -113.24)" style="fill:#09f;fill-opacity:0.800000011920929"/><polygon points="241.72 194.95 387.33 316.72 391.69 194.65 241.72 194.95" style="fill:#fbf8f9;fill-opacity:0.50196099281311"/><path d="M151.81,411.85l8.87,6.2,1.55,47.58h76.64l17.79,19.75H162.72a9,9,0,0,1-8.84-7.14l-2.07-66.39Z" transform="translate(-81.76 -113.24)" style="fill:#fbf8f9;fill-opacity:0.800000011920929"/><polygon points="80.91 309.48 142.84 351.29 81.63 351.35 80.91 309.48" style="fill:#fbf8f9;fill-opacity:0.50196099281311"/><polygon points="261.73 252.29 229.41 252.29 229.41 250.03 261.73 250.03 261.73 252.29" style="fill:#5d1765;fill-opacity:0.200000002980232"/><polygon points="278.18 256.44 229.41 256.44 229.41 254.18 278.18 254.18 278.18 256.44" style="fill:#5d1765;fill-opacity:0.200000002980232"/><polygon points="261.73 248.3 229.41 248.3 229.41 246.03 261.73 246.03 261.73 248.3" style="fill:#5d1765;fill-opacity:0.200000002980232"/><polygon points="248.79 243.77 229.41 243.77 229.41 241.5 248.79 241.5 248.79 243.77" style="fill:#5d1765;fill-opacity:0.200000002980232"/><polygon points="242.74 260.54 229.41 260.54 229.41 258.27 242.74 258.27 242.74 260.54" style="fill:#5d1765;fill-opacity:0.200000002980232"/><polygon points="276.82 260.54 251.25 260.54 251.25 258.27 276.82 258.27 276.82 260.54" style="fill:#5d1765;fill-opacity:0.200000002980232"/><polygon points="249.71 260.54 245.57 260.54 245.57 258.27 249.71 258.27 249.71 260.54" style="fill:#5d1765;fill-opacity:0.200000002980232"/><polygon points="267.93 252.15 263.79 252.15 263.79 249.89 267.93 249.89 267.93 252.15" style="fill:#5d1765;fill-opacity:0.200000002980232"/><polygon points="261.73 264.38 229.41 264.38 229.41 262.12 261.73 262.12 261.73 264.38" style="fill:#5d1765;fill-opacity:0.200000002980232"/><polygon points="278.18 268.53 229.41 268.53 229.41 266.27 278.18 266.27 278.18 268.53" style="fill:#5d1765;fill-opacity:0.200000002980232"/><polygon points="242.74 272.63 229.41 272.63 229.41 270.37 242.74 270.37 242.74 272.63" style="fill:#5d1765;fill-opacity:0.200000002980232"/><polygon points="249.71 272.63 245.57 272.63 245.57 270.37 249.71 270.37 249.71 272.63" style="fill:#5d1765;fill-opacity:0.200000002980232"/><polygon points="270.64 243.77 251.25 243.77 251.25 241.5 270.64 241.5 270.64 243.77" style="fill:#5d1765;fill-opacity:0.200000002980232"/><polygon points="122.48 239.69 123.83 309.68 221.96 309.68 221.96 239.69 122.48 239.69" style="fill:url(#linear-gradient-18)"/><polygon points="276.82 318.48 276.82 338.75 330.52 338.75 331.26 318.48 276.82 318.48" style="fill:url(#linear-gradient-19)"/><polygon points="123.83 323.28 124.21 338.98 138.94 338.98 138.94 323.28 123.83 323.28" style="fill:#5d1765;fill-opacity:0.200000002980232"/><polygon points="140.47 323.28 140.85 338.98 155.58 338.98 155.58 323.28 140.47 323.28" style="fill:#5d1765;fill-opacity:0.200000002980232"/><polygon points="157.03 323.28 157.03 338.98 172.14 338.98 172.14 323.28 157.03 323.28" style="fill:#5d1765;fill-opacity:0.200000002980232"/><polygon points="173.65 323.28 174.03 338.98 188.76 338.98 188.76 323.28 173.65 323.28" style="fill:#5d1765;fill-opacity:0.200000002980232"/><polygon points="190.29 323.28 190.67 338.98 205.4 338.98 205.4 323.28 190.29 323.28" style="fill:#5d1765;fill-opacity:0.200000002980232"/><polygon points="206.85 323.28 206.85 338.98 221.96 338.98 221.96 323.28 206.85 323.28" style="fill:#5d1765;fill-opacity:0.200000002980232"/><polygon points="68.77 258.27 398.96 263.25 401.08 215.36 68.77 231 68.77 258.27" style="fill:#801734;fill-opacity:0.50196099281311"/><path d="M147.31,359c-9.44,0-17.84-5.61-18.74-12.54L126,326.84h35l2.08,19.63C163.82,353.39,156.75,359,147.31,359Z" transform="translate(-81.76 -113.24)" style="fill:url(#linear-gradient-20)"/><path d="M181.51,359c-9.45,0-17.7-5.61-18.43-12.54L161,326.84h35l1.6,19.63C198.16,353.39,191,359,181.51,359Z" transform="translate(-81.76 -113.24)" style="fill:url(#radial-gradient-3)"/><path d="M215.72,359c-9.45,0-17.56-5.61-18.13-12.54L196,326.84h35l1.12,19.63c.4,6.93-6.94,12.54-16.39,12.54Z" transform="translate(-81.76 -113.24)" style="fill:url(#linear-gradient-21)"/><path d="M249.92,359c-9.45,0-17.42-5.61-17.82-12.54L231,326.84h35l.64,19.63c.22,6.93-7.25,12.54-16.69,12.54Z" transform="translate(-81.76 -113.24)" style="fill:url(#radial-gradient-4)"/><path d="M284.12,359c-9.45,0-17.28-5.61-17.51-12.54L266,326.84h35l.16,19.63C301.18,353.39,293.57,359,284.12,359Z" transform="translate(-81.76 -113.24)" style="fill:url(#linear-gradient-22)"/><path d="M318.33,359c-9.45,0-17.15-5.61-17.2-12.54L301,326.84h35l-.33,19.63C335.52,353.39,327.77,359,318.33,359Z" transform="translate(-81.76 -113.24)" style="fill:url(#radial-gradient-5)"/><path d="M352.53,359c-9.44,0-17-5.61-16.89-12.54l.33-19.63h35l-.81,19.63C369.86,353.39,362,359,352.53,359Z" transform="translate(-81.76 -113.24)" style="fill:url(#linear-gradient-23)"/><path d="M386.73,359c-9.44,0-16.87-5.61-16.58-12.54l.81-19.63h35l-1.29,19.63C404.2,353.39,396.18,359,386.73,359Z" transform="translate(-81.76 -113.24)" style="fill:url(#radial-gradient-6)"/><path d="M420.94,359c-9.45,0-16.73-5.61-16.28-12.54L406,326.84h35l-1.77,19.63c-.63,6.93-8.79,12.54-18.23,12.54Z" transform="translate(-81.76 -113.24)" style="fill:url(#linear-gradient-24)"/><path d="M455.14,359c-9.44,0-16.59-5.61-16-12.54l1.77-19.63h35l-2.25,19.63c-.8,6.93-9.1,12.54-18.54,12.54Z" transform="translate(-81.76 -113.24)" style="fill:url(#radial-gradient-7)"/><path d="M489.34,359c-9.45,0-16.46-5.61-15.66-12.54l2.25-19.63h35l-2.74,19.63C507.23,353.39,498.79,359,489.34,359Z" transform="translate(-81.76 -113.24)" style="fill:url(#linear-gradient-25)"/><path d="M161.27,307.5,126,326.84c142.44,5.8,238.9,6,384.93,0l-36.79-20.65L161.27,307.5Z" transform="translate(-81.76 -113.24)" style="fill:url(#linear-gradient-26)"/><polygon points="79.38 214.95 105.04 194.24 126.67 194.06 114.23 216.1 79.38 214.95" style="fill:#f8c68b"/><polygon points="79.38 214.95 105.04 194.24 126.67 194.06 114.23 216.1 79.38 214.95" style="fill:#f8c68b"/><polygon points="79.38 214.95 105.04 194.24 126.67 194.06 114.23 216.1 79.38 214.95" style="fill:#f8c78c"/><polygon points="79.38 214.95 105.04 194.24 126.67 194.06 114.23 216.1 79.38 214.95" style="fill:#f8c78d"/><polygon points="79.38 214.95 105.04 194.24 126.67 194.06 114.23 216.1 79.38 214.95" style="fill:#f8c98e"/><polygon points="79.38 214.95 105.04 194.24 126.67 194.06 114.23 216.1 79.38 214.95" style="fill:#f8ca8f"/><polygon points="79.38 214.95 105.04 194.24 126.67 194.06 114.23 216.1 79.38 214.95" style="fill:#f9cb90"/><polygon points="79.38 214.95 105.04 194.24 126.67 194.06 114.23 216.1 79.38 214.95" style="fill:#f9cb91"/><polygon points="79.38 214.95 105.04 194.24 126.67 194.06 114.23 216.1 79.38 214.95" style="fill:#f9cc92"/><polygon points="79.38 214.95 105.04 194.24 126.67 194.06 114.23 216.1 79.38 214.95" style="fill:#f9cd93"/><polygon points="79.38 214.95 105.04 194.24 126.67 194.06 114.23 216.1 79.38 214.95" style="fill:#f9ce94"/><polygon points="79.38 214.95 105.04 194.24 126.67 194.06 114.23 216.1 79.38 214.95" style="fill:#f9ce95"/><polygon points="79.38 214.95 105.04 194.24 126.67 194.06 114.23 216.1 79.38 214.95" style="fill:#f9cf97"/><polygon points="79.38 214.95 105.04 194.24 126.67 194.06 114.23 216.1 79.38 214.95" style="fill:#f9d098"/><polygon points="79.38 214.95 105.04 194.24 126.67 194.06 114.23 216.1 79.38 214.95" style="fill:#fbd099"/><polygon points="79.38 214.95 105.04 194.24 126.67 194.06 114.23 216.1 79.38 214.95" style="fill:#fbd19a"/><polygon points="79.38 214.95 105.04 194.24 126.67 194.06 114.23 216.1 79.38 214.95" style="fill:#fbd29b"/><polygon points="79.38 214.95 105.04 194.24 126.67 194.06 114.23 216.1 79.38 214.95" style="fill:#fbd39c"/><polygon points="79.38 214.95 105.04 194.24 126.67 194.06 114.23 216.1 79.38 214.95" style="fill:#fbd39d"/><polygon points="79.38 214.95 105.04 194.24 126.67 194.06 114.23 216.1 79.38 214.95" style="fill:#fbd49e"/><path d="M165.63,328.34q-.17-1.79-.22-3.6l21.38-17.26,21.63-.17-12.44,22-30.35-1Z" transform="translate(-81.76 -113.24)" style="fill:#fbd59f"/><path d="M170.31,328.49a48.7,48.7,0,0,1-.25-5.29q0-1.14.07-2.27l16.67-13.46,21.63-.17-12.44,22Z" transform="translate(-81.76 -113.24)" style="fill:#fbd6a0"/><path d="M175,328.65a47.21,47.21,0,0,1,.2-11.8l11.61-9.37,21.63-.17-12.44,22-21-.69Z" transform="translate(-81.76 -113.24)" style="fill:#fbd6a1"/><path d="M179.67,328.8a45.74,45.74,0,0,1,1.09-16.46l6-4.87,21.63-.17-12.44,22Z" transform="translate(-81.76 -113.24)" style="fill:#fbd7a2"/><path d="M184.35,329a44.09,44.09,0,0,1-.33-5.66,45.13,45.13,0,0,1,2.84-15.39l.16-.43,21.4-.17-12.44,22Z" transform="translate(-81.76 -113.24)" style="fill:#fbd8a3"/><path d="M189,329.11a42.61,42.61,0,0,1-.36-5.78,43.57,43.57,0,0,1,2.75-14.86q.19-.52.39-1l16.61-.13-12.44,22-7-.23Z" transform="translate(-81.76 -113.24)" style="fill:#fbd8a4"/><path d="M193.72,329.26a41.11,41.11,0,0,1-.39-5.91,42.34,42.34,0,0,1,3.29-16l11.81-.09-12.44,22-2.27-.07Z" transform="translate(-81.76 -113.24)" style="fill:#fbd9a5"/><path d="M198,325.7q-.06-1.15-.05-2.32a40.91,40.91,0,0,1,3.44-16l7-.06Z" transform="translate(-81.76 -113.24)" style="fill:#fbdaa7"/><path d="M203.37,316.27a41,41,0,0,1,2.89-8.95l2.17,0Z" transform="translate(-81.76 -113.24)" style="fill:#fbdba8"/><polygon points="149.42 217.03 156.74 193.92 186.69 193.81 183.72 217.66 149.42 217.03" style="fill:#f8c68b"/><polygon points="149.42 217.03 156.74 193.92 186.69 193.81 183.72 217.66 149.42 217.03" style="fill:#f8c68b"/><polygon points="149.42 217.03 156.74 193.92 186.69 193.81 183.72 217.66 149.42 217.03" style="fill:#f8c78c"/><polygon points="149.42 217.03 156.74 193.92 186.69 193.81 183.72 217.66 149.42 217.03" style="fill:#f8c78d"/><polygon points="149.42 217.03 156.74 193.92 186.69 193.81 183.72 217.66 149.42 217.03" style="fill:#f8c98e"/><polygon points="149.42 217.03 156.74 193.92 186.69 193.81 183.72 217.66 149.42 217.03" style="fill:#f8ca8f"/><polygon points="149.42 217.03 156.74 193.92 186.69 193.81 183.72 217.66 149.42 217.03" style="fill:#f9cb90"/><polygon points="149.42 217.03 156.74 193.92 186.69 193.81 183.72 217.66 149.42 217.03" style="fill:#f9cb91"/><polygon points="149.42 217.03 156.74 193.92 186.69 193.81 183.72 217.66 149.42 217.03" style="fill:#f9cc92"/><polygon points="149.42 217.03 156.74 193.92 186.69 193.81 183.72 217.66 149.42 217.03" style="fill:#f9cd93"/><polygon points="149.42 217.03 156.74 193.92 186.69 193.81 183.72 217.66 149.42 217.03" style="fill:#f9ce94"/><polygon points="149.42 217.03 156.74 193.92 186.69 193.81 183.72 217.66 149.42 217.03" style="fill:#f9ce95"/><polygon points="149.42 217.03 156.74 193.92 186.69 193.81 183.72 217.66 149.42 217.03" style="fill:#f9cf97"/><polygon points="149.42 217.03 156.74 193.92 186.69 193.81 183.72 217.66 149.42 217.03" style="fill:#f9d098"/><polygon points="149.42 217.03 156.74 193.92 186.69 193.81 183.72 217.66 149.42 217.03" style="fill:#fbd099"/><polygon points="149.42 217.03 156.74 193.92 186.69 193.81 183.72 217.66 149.42 217.03" style="fill:#fbd19a"/><polygon points="149.42 217.03 156.74 193.92 186.69 193.81 183.72 217.66 149.42 217.03" style="fill:#fbd29b"/><polygon points="149.42 217.03 156.74 193.92 186.69 193.81 183.72 217.66 149.42 217.03" style="fill:#fbd39c"/><polygon points="149.42 217.03 156.74 193.92 186.69 193.81 183.72 217.66 149.42 217.03" style="fill:#fbd39d"/><polygon points="149.42 217.03 156.74 193.92 186.69 193.81 183.72 217.66 149.42 217.03" style="fill:#fbd49e"/><polygon points="149.42 217.03 156.74 193.92 186.69 193.81 183.72 217.66 149.42 217.03" style="fill:#fbd59f"/><polygon points="149.42 217.03 156.74 193.92 186.69 193.81 183.72 217.66 149.42 217.03" style="fill:#fbd6a0"/><polygon points="149.42 217.03 156.74 193.92 186.69 193.81 183.72 217.66 149.42 217.03" style="fill:#fbd6a1"/><polygon points="149.42 217.03 156.74 193.92 186.69 193.81 183.72 217.66 149.42 217.03" style="fill:#fbd7a2"/><polygon points="149.42 217.03 156.74 193.92 186.69 193.81 183.72 217.66 149.42 217.03" style="fill:#fbd8a3"/><polygon points="149.42 217.03 156.74 193.92 186.69 193.81 183.72 217.66 149.42 217.03" style="fill:#fbd8a4"/><polygon points="149.42 217.03 156.74 193.92 186.69 193.81 183.72 217.66 149.42 217.03" style="fill:#fbd9a5"/><polygon points="149.42 217.03 156.74 193.92 186.69 193.81 183.72 217.66 149.42 217.03" style="fill:#fbdaa7"/><polygon points="149.42 217.03 156.74 193.92 186.69 193.81 183.72 217.66 149.42 217.03" style="fill:#fbdba8"/><polygon points="149.42 217.03 156.74 193.92 186.69 193.81 183.72 217.66 149.42 217.03" style="fill:#fbdba9"/><polygon points="149.42 217.03 156.74 193.92 186.69 193.81 183.72 217.66 149.42 217.03" style="fill:#fbdcaa"/><polygon points="149.42 217.03 156.74 193.92 186.69 193.81 183.72 217.66 149.42 217.03" style="fill:#fcddab"/><polygon points="149.42 217.03 156.74 193.92 186.69 193.81 183.72 217.66 149.42 217.03" style="fill:#fcddac"/><polygon points="149.42 217.03 156.74 193.92 186.69 193.81 183.72 217.66 149.42 217.03" style="fill:#fcdead"/><polygon points="149.42 217.03 156.74 193.92 186.69 193.81 183.72 217.66 149.42 217.03" style="fill:#fcdfae"/><path d="M235.75,330.35a27.52,27.52,0,0,1-.52-5.51,30.41,30.41,0,0,1,6.16-17.69l27.06-.09-3,23.84-29.73-.55Z" transform="translate(-81.76 -113.24)" style="fill:#fce0af"/><path d="M240.45,330.43a26,26,0,0,1-.57-5.57,29,29,0,0,1,6.34-17.42l.24-.32,22-.07-3,23.84-25-.46Z" transform="translate(-81.76 -113.24)" style="fill:#fce0b0"/><path d="M245.16,330.52a24.53,24.53,0,0,1-.62-5.62c0-6.37,2.57-12.4,7.07-17.79l16.82-.06-3,23.84Z" transform="translate(-81.76 -113.24)" style="fill:#fce1b1"/><path d="M249.88,330.61a23,23,0,0,1-.68-5.68c0-6.44,2.8-12.5,7.64-17.84l11.6,0-3,23.84-15.59-.29Z" transform="translate(-81.76 -113.24)" style="fill:#fce2b2"/><path d="M254.61,330.7a21.54,21.54,0,0,1-.74-5.74c0-6.51,3.06-12.61,8.31-17.88l6.27,0-3,23.84-10.87-.2Z" transform="translate(-81.76 -113.24)" style="fill:#fce3b3"/><path d="M259.34,330.78a20.05,20.05,0,0,1-.82-5.79c0-6.6,3.37-12.74,9.11-17.93h.81l-3,23.84-6.13-.11Z" transform="translate(-81.76 -113.24)" style="fill:#fee3b4"/><path d="M264.09,330.87a18.59,18.59,0,0,1-.91-5.85,20.53,20.53,0,0,1,4.57-12.42l-2.28,18.29-1.38,0Z" transform="translate(-81.76 -113.24)" style="fill:#fee4b5"/><polygon points="253.88 218.04 219.41 218.04 218.32 193.95 250.85 193.83 253.88 218.04" style="fill:#f8c68b"/><polygon points="219.41 218.04 218.32 193.95 250.85 193.83 253.88 218.04 219.41 218.04" style="fill:#f8c68b"/><polygon points="219.41 218.04 218.32 193.95 250.85 193.83 253.88 218.04 219.41 218.04" style="fill:#f8c78c"/><polygon points="219.41 218.04 218.32 193.95 250.85 193.83 253.88 218.04 219.41 218.04" style="fill:#f8c78d"/><polygon points="219.41 218.04 218.32 193.95 250.85 193.83 253.88 218.04 219.41 218.04" style="fill:#f8c98e"/><polygon points="219.41 218.04 218.32 193.95 250.85 193.83 253.88 218.04 219.41 218.04" style="fill:#f8ca8f"/><polygon points="219.41 218.04 218.32 193.95 250.85 193.83 253.88 218.04 219.41 218.04" style="fill:#f9cb90"/><polygon points="219.41 218.04 218.32 193.95 250.85 193.83 253.88 218.04 219.41 218.04" style="fill:#f9cb91"/><polygon points="219.41 218.04 218.32 193.95 250.85 193.83 253.88 218.04 219.41 218.04" style="fill:#f9cc92"/><polygon points="219.41 218.04 218.32 193.95 250.85 193.83 253.88 218.04 219.41 218.04" style="fill:#f9cd93"/><polygon points="219.41 218.04 218.32 193.95 250.85 193.83 253.88 218.04 219.41 218.04" style="fill:#f9ce94"/><polygon points="219.41 218.04 218.32 193.95 250.85 193.83 253.88 218.04 219.41 218.04" style="fill:#f9ce95"/><polygon points="219.41 218.04 218.32 193.95 250.85 193.83 253.88 218.04 219.41 218.04" style="fill:#f9cf97"/><polygon points="219.41 218.04 218.32 193.95 250.85 193.83 253.88 218.04 219.41 218.04" style="fill:#f9d098"/><polygon points="219.41 218.04 218.32 193.95 250.85 193.83 253.88 218.04 219.41 218.04" style="fill:#fbd099"/><polygon points="219.41 218.04 218.32 193.95 250.85 193.83 253.88 218.04 219.41 218.04" style="fill:#fbd19a"/><polygon points="219.41 218.04 218.32 193.95 250.85 193.83 253.88 218.04 219.41 218.04" style="fill:#fbd29b"/><polygon points="219.41 218.04 218.32 193.95 250.85 193.83 253.88 218.04 219.41 218.04" style="fill:#fbd39c"/><polygon points="219.41 218.04 218.32 193.95 250.85 193.83 253.88 218.04 219.41 218.04" style="fill:#fbd39d"/><polygon points="219.41 218.04 218.32 193.95 250.85 193.83 253.88 218.04 219.41 218.04" style="fill:#fbd49e"/><polygon points="219.41 218.04 218.32 193.95 250.85 193.83 253.88 218.04 219.41 218.04" style="fill:#fbd59f"/><polygon points="219.41 218.04 218.32 193.95 250.85 193.83 253.88 218.04 219.41 218.04" style="fill:#fbd6a0"/><polygon points="219.41 218.04 218.32 193.95 250.85 193.83 253.88 218.04 219.41 218.04" style="fill:#fbd6a1"/><polygon points="219.41 218.04 218.32 193.95 250.85 193.83 253.88 218.04 219.41 218.04" style="fill:#fbd7a2"/><polygon points="219.41 218.04 218.32 193.95 250.85 193.83 253.88 218.04 219.41 218.04" style="fill:#fbd8a3"/><polygon points="219.41 218.04 218.32 193.95 250.85 193.83 253.88 218.04 219.41 218.04" style="fill:#fbd8a4"/><polygon points="219.41 218.04 218.32 193.95 250.85 193.83 253.88 218.04 219.41 218.04" style="fill:#fbd9a5"/><polygon points="219.41 218.04 218.32 193.95 250.85 193.83 253.88 218.04 219.41 218.04" style="fill:#fbdaa7"/><polygon points="219.41 218.04 218.32 193.95 250.85 193.83 253.88 218.04 219.41 218.04" style="fill:#fbdba8"/><polygon points="219.41 218.04 218.32 193.95 250.85 193.83 253.88 218.04 219.41 218.04" style="fill:#fbdba9"/><polygon points="219.41 218.04 218.32 193.95 250.85 193.83 253.88 218.04 219.41 218.04" style="fill:#fbdcaa"/><polygon points="219.41 218.04 218.32 193.95 250.85 193.83 253.88 218.04 219.41 218.04" style="fill:#fcddab"/><polygon points="219.41 218.04 218.32 193.95 250.85 193.83 253.88 218.04 219.41 218.04" style="fill:#fcddac"/><polygon points="219.41 218.04 218.32 193.95 250.85 193.83 253.88 218.04 219.41 218.04" style="fill:#fcdead"/><polygon points="219.41 218.04 218.32 193.95 250.85 193.83 253.88 218.04 219.41 218.04" style="fill:#fcdfae"/><polygon points="219.41 218.04 218.32 193.95 250.85 193.83 253.88 218.04 219.41 218.04" style="fill:#fce0af"/><polygon points="219.41 218.04 218.32 193.95 250.85 193.83 253.88 218.04 219.41 218.04" style="fill:#fce0b0"/><polygon points="219.41 218.04 218.32 193.95 250.85 193.83 253.88 218.04 219.41 218.04" style="fill:#fce1b1"/><polygon points="219.41 218.04 218.32 193.95 250.85 193.83 253.88 218.04 219.41 218.04" style="fill:#fce2b2"/><polygon points="219.41 218.04 218.32 193.95 250.85 193.83 253.88 218.04 219.41 218.04" style="fill:#fce3b3"/><polygon points="219.41 218.04 218.32 193.95 250.85 193.83 253.88 218.04 219.41 218.04" style="fill:#fee3b4"/><polygon points="219.41 218.04 218.32 193.95 250.85 193.83 253.88 218.04 219.41 218.04" style="fill:#fee4b5"/><polygon points="219.41 218.04 218.32 193.95 250.85 193.83 253.88 218.04 219.41 218.04" style="fill:#fee5b6"/><polygon points="219.41 218.04 218.32 193.95 250.85 193.83 253.88 218.04 219.41 218.04" style="fill:#fee5b6"/><polygon points="219.41 218.04 218.32 193.95 250.85 193.83 253.88 218.04 219.41 218.04" style="fill:#fee6b7"/><polygon points="219.41 218.04 218.32 193.95 250.85 193.83 253.88 218.04 219.41 218.04" style="fill:#fee7b8"/><path d="M300.21,310a49,49,0,0,1,11.8-2.85l13.44,0a53.41,53.41,0,0,1,7.33,1.33l2.86,22.86H301.17Z" transform="translate(-81.76 -113.24)" style="fill:#fee8b9"/><path d="M300.36,313.35a43.16,43.16,0,0,1,18.94-3.91,46.67,46.67,0,0,1,13.87,2.12l2.47,19.72H301.17l-.81-17.93Z" transform="translate(-81.76 -113.24)" style="fill:#fee8ba"/><path d="M300.53,317.15c4.4-3.09,11.17-5,18.75-5a37.09,37.09,0,0,1,14.31,2.8l2,16.33H301.17l-.64-14.14Z" transform="translate(-81.76 -113.24)" style="fill:#ffe8bb"/><path d="M335.64,331.28H302.9a10,10,0,0,1-1.83-2.22l-.29-6.39c2.26-4.56,9.69-7.87,18.48-7.82,6,0,11.35,1.64,14.83,4.11Z" transform="translate(-81.76 -113.24)" style="fill:#ffe9bc"/><path d="M333.52,325.78c0,2.14-1.48,4.07-3.87,5.5H308.88c-2.51-1.48-4-3.49-4-5.69,0-4.48,6.47-8.08,14.39-8s14.31,3.73,14.28,8.21Z" transform="translate(-81.76 -113.24)" style="fill:#ffeabd"/><path d="M328.75,325.75c0,3-4.32,5.38-9.59,5.35s-9.54-2.49-9.52-5.48,4.31-5.38,9.59-5.35S328.77,322.76,328.75,325.75Z" transform="translate(-81.76 -113.24)" style="fill:#ffeabe"/><path d="M324,325.72c0,1.49-2.16,2.69-4.8,2.68s-4.77-1.24-4.76-2.74,2.16-2.69,4.8-2.67,4.77,1.24,4.76,2.74Z" transform="translate(-81.76 -113.24)" style="fill:#ffebbf"/><polygon points="289.03 217.68 280.67 193.42 309.85 193.3 324.23 217.04 289.03 217.68" style="fill:#f8c68b"/><polygon points="289.03 217.68 280.67 193.42 309.85 193.3 324.23 217.04 289.03 217.68" style="fill:#f8c68b"/><polygon points="289.03 217.68 280.67 193.42 309.85 193.3 324.23 217.04 289.03 217.68" style="fill:#f8c78c"/><polygon points="289.03 217.68 280.67 193.42 309.85 193.3 324.23 217.04 289.03 217.68" style="fill:#f8c78d"/><polygon points="289.03 217.68 280.67 193.42 309.85 193.3 324.23 217.04 289.03 217.68" style="fill:#f8c98e"/><polygon points="289.03 217.68 280.67 193.42 309.85 193.3 324.23 217.04 289.03 217.68" style="fill:#f8ca8f"/><polygon points="289.03 217.68 280.67 193.42 309.85 193.3 324.23 217.04 289.03 217.68" style="fill:#f9cb90"/><polygon points="289.03 217.68 280.67 193.42 309.85 193.3 324.23 217.04 289.03 217.68" style="fill:#f9cb91"/><polygon points="289.03 217.68 280.67 193.42 309.85 193.3 324.23 217.04 289.03 217.68" style="fill:#f9cc92"/><polygon points="289.03 217.68 280.67 193.42 309.85 193.3 324.23 217.04 289.03 217.68" style="fill:#f9cd93"/><polygon points="289.03 217.68 280.67 193.42 309.85 193.3 324.23 217.04 289.03 217.68" style="fill:#f9ce94"/><polygon points="289.03 217.68 280.67 193.42 309.85 193.3 324.23 217.04 289.03 217.68" style="fill:#f9ce95"/><polygon points="289.03 217.68 280.67 193.42 309.85 193.3 324.23 217.04 289.03 217.68" style="fill:#f9cf97"/><polygon points="289.03 217.68 280.67 193.42 309.85 193.3 324.23 217.04 289.03 217.68" style="fill:#f9d098"/><polygon points="289.03 217.68 280.67 193.42 309.85 193.3 324.23 217.04 289.03 217.68" style="fill:#fbd099"/><polygon points="289.03 217.68 280.67 193.42 309.85 193.3 324.23 217.04 289.03 217.68" style="fill:#fbd19a"/><polygon points="289.03 217.68 280.67 193.42 309.85 193.3 324.23 217.04 289.03 217.68" style="fill:#fbd29b"/><polygon points="289.03 217.68 280.67 193.42 309.85 193.3 324.23 217.04 289.03 217.68" style="fill:#fbd39c"/><polygon points="289.03 217.68 280.67 193.42 309.85 193.3 324.23 217.04 289.03 217.68" style="fill:#fbd39d"/><polygon points="289.03 217.68 280.67 193.42 309.85 193.3 324.23 217.04 289.03 217.68" style="fill:#fbd49e"/><polygon points="289.03 217.68 280.67 193.42 309.85 193.3 324.23 217.04 289.03 217.68" style="fill:#fbd59f"/><polygon points="289.03 217.68 280.67 193.42 309.85 193.3 324.23 217.04 289.03 217.68" style="fill:#fbd6a0"/><polygon points="289.03 217.68 280.67 193.42 309.85 193.3 324.23 217.04 289.03 217.68" style="fill:#fbd6a1"/><polygon points="289.03 217.68 280.67 193.42 309.85 193.3 324.23 217.04 289.03 217.68" style="fill:#fbd7a2"/><polygon points="289.03 217.68 280.67 193.42 309.85 193.3 324.23 217.04 289.03 217.68" style="fill:#fbd8a3"/><polygon points="289.03 217.68 280.67 193.42 309.85 193.3 324.23 217.04 289.03 217.68" style="fill:#fbd8a4"/><polygon points="289.03 217.68 280.67 193.42 309.85 193.3 324.23 217.04 289.03 217.68" style="fill:#fbd9a5"/><polygon points="289.03 217.68 280.67 193.42 309.85 193.3 324.23 217.04 289.03 217.68" style="fill:#fbdaa7"/><polygon points="289.03 217.68 280.67 193.42 309.85 193.3 324.23 217.04 289.03 217.68" style="fill:#fbdba8"/><polygon points="289.03 217.68 280.67 193.42 309.85 193.3 324.23 217.04 289.03 217.68" style="fill:#fbdba9"/><polygon points="289.03 217.68 280.67 193.42 309.85 193.3 324.23 217.04 289.03 217.68" style="fill:#fbdcaa"/><polygon points="289.03 217.68 280.67 193.42 309.85 193.3 324.23 217.04 289.03 217.68" style="fill:#fcddab"/><polygon points="289.03 217.68 280.67 193.42 309.85 193.3 324.23 217.04 289.03 217.68" style="fill:#fcddac"/><polygon points="289.03 217.68 280.67 193.42 309.85 193.3 324.23 217.04 289.03 217.68" style="fill:#fcdead"/><polygon points="289.03 217.68 280.67 193.42 309.85 193.3 324.23 217.04 289.03 217.68" style="fill:#fcdfae"/><path d="M403.47,326.13a27.57,27.57,0,0,1-.37,4.2l-32.31.59-8.36-24.26,29.18-.12Z" transform="translate(-81.76 -113.24)" style="fill:#fce0af"/><path d="M398.8,326a26,26,0,0,1-.42,4.46l-27.6.5-8.36-24.26,28.78-.12q1,1.18,1.85,2.4l2.67,4.41A27.36,27.36,0,0,1,398.8,326Z" transform="translate(-81.76 -113.24)" style="fill:#fce0b0"/><path d="M394.13,325.92a24.51,24.51,0,0,1-.46,4.58l-22.88.42-8.36-24.26,23.62-.1c5.21,5.82,8.13,12.41,8.08,19.36Z" transform="translate(-81.76 -113.24)" style="fill:#fce1b1"/><path d="M389.46,325.89a23.05,23.05,0,0,1-.52,4.7l-18.15.33-8.36-24.26,18.37-.08c5.56,5.74,8.7,12.32,8.66,19.31Z" transform="translate(-81.76 -113.24)" style="fill:#fce2b2"/><path d="M384.78,325.86a21.49,21.49,0,0,1-.58,4.81l-13.42.24-8.36-24.26,13-.05c6,5.64,9.37,12.23,9.33,19.26Z" transform="translate(-81.76 -113.24)" style="fill:#fce3b3"/><path d="M380.11,325.83a20,20,0,0,1-.65,4.93l-8.67.16-8.36-24.26,7.55,0C376.42,312.14,380.16,318.75,380.11,325.83Z" transform="translate(-81.76 -113.24)" style="fill:#fee3b4"/><path d="M375.44,325.8a18.53,18.53,0,0,1-.74,5l-3.91.07-8.36-24.26h1.89c7,5.36,11.16,12,11.11,19.15Z" transform="translate(-81.76 -113.24)" style="fill:#fee4b5"/><path d="M370.77,325.77a16.88,16.88,0,0,1-.45,3.77L364,311.17c4.35,4.31,6.82,9.3,6.78,14.6Z" transform="translate(-81.76 -113.24)" style="fill:#fee5b6"/><polygon points="359.19 216.12 345.31 193.15 370.67 192.95 394.02 214.97 359.19 216.12" style="fill:#f8c68b"/><polygon points="359.19 216.12 345.31 193.15 370.67 192.95 394.02 214.97 359.19 216.12" style="fill:#f8c68b"/><polygon points="359.19 216.12 345.31 193.15 370.67 192.95 394.02 214.97 359.19 216.12" style="fill:#f8c78c"/><polygon points="359.19 216.12 345.31 193.15 370.67 192.95 394.02 214.97 359.19 216.12" style="fill:#f8c78d"/><polygon points="359.19 216.12 345.31 193.15 370.67 192.95 394.02 214.97 359.19 216.12" style="fill:#f8c98e"/><polygon points="359.19 216.12 345.31 193.15 370.67 192.95 394.02 214.97 359.19 216.12" style="fill:#f8ca8f"/><polygon points="359.19 216.12 345.31 193.15 370.67 192.95 394.02 214.97 359.19 216.12" style="fill:#f9cb90"/><polygon points="359.19 216.12 345.31 193.15 370.67 192.95 394.02 214.97 359.19 216.12" style="fill:#f9cb91"/><polygon points="359.19 216.12 345.31 193.15 370.67 192.95 394.02 214.97 359.19 216.12" style="fill:#f9cc92"/><polygon points="359.19 216.12 345.31 193.15 370.67 192.95 394.02 214.97 359.19 216.12" style="fill:#f9cd93"/><polygon points="359.19 216.12 345.31 193.15 370.67 192.95 394.02 214.97 359.19 216.12" style="fill:#f9ce94"/><polygon points="359.19 216.12 345.31 193.15 370.67 192.95 394.02 214.97 359.19 216.12" style="fill:#f9ce95"/><polygon points="359.19 216.12 345.31 193.15 370.67 192.95 394.02 214.97 359.19 216.12" style="fill:#f9cf97"/><polygon points="359.19 216.12 345.31 193.15 370.67 192.95 394.02 214.97 359.19 216.12" style="fill:#f9d098"/><polygon points="359.19 216.12 345.31 193.15 370.67 192.95 394.02 214.97 359.19 216.12" style="fill:#fbd099"/><polygon points="359.19 216.12 345.31 193.15 370.67 192.95 394.02 214.97 359.19 216.12" style="fill:#fbd19a"/><polygon points="359.19 216.12 345.31 193.15 370.67 192.95 394.02 214.97 359.19 216.12" style="fill:#fbd29b"/><polygon points="359.19 216.12 345.31 193.15 370.67 192.95 394.02 214.97 359.19 216.12" style="fill:#fbd39c"/><polygon points="359.19 216.12 345.31 193.15 370.67 192.95 394.02 214.97 359.19 216.12" style="fill:#fbd39d"/><polygon points="359.19 216.12 345.31 193.15 370.67 192.95 394.02 214.97 359.19 216.12" style="fill:#fbd49e"/><path d="M473.26,325.83q0,1.23-.11,2.46l-32.21,1.07-13.88-23,25.36-.2Z" transform="translate(-81.76 -113.24)" style="fill:#fbd59f"/><path d="M468.62,325.21q0,1.63-.13,3.23l-27.54.91-13.88-23,25.36-.2,16.06,15.14q.14,1.93.13,3.88Z" transform="translate(-81.76 -113.24)" style="fill:#fbd6a0"/><path d="M464,325.18q0,1.72-.15,3.42l-22.87.76-13.88-23,25.36-.2,10.76,10.14A47.33,47.33,0,0,1,464,325.18Z" transform="translate(-81.76 -113.24)" style="fill:#fbd6a1"/><path d="M459.31,325.15q0,1.81-.17,3.61l-18.2.6-13.88-23,25.36-.2,4.6,4.34a46.44,46.44,0,0,1,2.28,14.62Z" transform="translate(-81.76 -113.24)" style="fill:#fbd7a2"/><path d="M454.66,325.12q0,1.91-.19,3.79l-13.52.45-13.88-23,23.56-.18a45.84,45.84,0,0,1,4,18.92Z" transform="translate(-81.76 -113.24)" style="fill:#fbd8a3"/><path d="M450,325.09q0,2-.21,4l-8.85.29-13.88-23,18.78-.15A44.39,44.39,0,0,1,450,325.09Z" transform="translate(-81.76 -113.24)" style="fill:#fbd8a4"/><path d="M445.35,325.06a41.13,41.13,0,0,1-.24,4.16l-4.17.14-13.88-23,14-.11a43,43,0,0,1,4.29,18.78Z" transform="translate(-81.76 -113.24)" style="fill:#fbd9a5"/><path d="M440.7,325q0,1.82-.19,3.61l-13.44-22.25,9.2-.07A41.54,41.54,0,0,1,440.7,325Z" transform="translate(-81.76 -113.24)" style="fill:#fbdaa7"/><path d="M431.46,306.35a41,41,0,0,1,4.39,14.58l-8.79-14.54Z" transform="translate(-81.76 -113.24)" style="fill:#fbdba8"/></g><polygon points="92.68 347.63 108.5 346.7 118.3 372.15 88.03 372.15 92.68 347.63" style="fill:#801734;fill-opacity:0.50196099281311"/><g id="_2945458359792" data-name=" 2945458359792"><path d="M90.5,488.85c9.42,0,24.55-8.87,32-18.12a1.11,1.11,0,1,0-1.73-1.39c-8.77,10.89-27.43,20-33.85,16.54-3.15-1.7-2.39-6.41-1.2-10.07C92.83,454,134.58,447.7,135,447.64a1.11,1.11,0,0,0-.32-2.2c-1.77.26-43.55,6.53-51.09,29.69-2.63,8.07-.22,11.37,2.26,12.71a9.71,9.71,0,0,0,4.65,1Z" transform="translate(-81.76 -113.24)" style="fill:url(#radial-gradient-8)"/><polygon points="106.13 324.81 81.18 325.48 14.68 336.7 28.91 338 106.13 324.81" style="fill:url(#linear-gradient-27)"/><polygon points="133.4 433.81 106.13 324.81 28.91 338 48.2 453.37 133.4 433.81" style="fill:url(#linear-gradient-28)"/><polygon points="48.2 453.37 28.63 447.01 14.68 336.7 32.7 334.64 28.91 338 48.2 453.37" style="fill:url(#linear-gradient-29)"/><polygon points="28.63 447.01 41.48 436.3 48.2 453.37 28.63 447.01" style="fill:#ff9f56"/><polygon points="41.48 436.3 26.06 335.4 32.7 334.64 28.91 338 48.2 453.37 41.48 436.3" style="fill:#801734;fill-opacity:0.50196099281311"/><path d="M163.58,453c.51,2.51,2.26,4.27,3.92,3.93s2.59-2.64,2.08-5.15-2.26-4.27-3.92-3.93-2.58,2.64-2.08,5.15Z" transform="translate(-81.76 -113.24)" style="fill:#94285b"/><path d="M134.74,459.53c.51,2.51,2.26,4.27,3.92,3.93s2.58-2.64,2.08-5.15-2.26-4.27-3.92-3.93S134.23,457,134.74,459.53Z" transform="translate(-81.76 -113.24)" style="fill:#94285b"/><path d="M165.29,453.26a29.9,29.9,0,0,0,6.32-5.68,52.08,52.08,0,0,0,5-6.68,70.11,70.11,0,0,0,3.94-7.29,48.75,48.75,0,0,0,2.95-7.82,25.31,25.31,0,0,0,.84-8.49,17.66,17.66,0,0,0-2.65-8.32,14.46,14.46,0,0,0-6.82-5.8,13.86,13.86,0,0,0-9-.38,12.85,12.85,0,0,0-7.25,5.46,30.55,30.55,0,0,0-3.51,7.85c-1.62,5.34-2.66,10.67-4,15.87a63.07,63.07,0,0,1-5.6,14.87,34.16,34.16,0,0,1-10.32,11.69h0a1.11,1.11,0,0,0,1.26,1.84,36.67,36.67,0,0,0,11.48-12.16A65.63,65.63,0,0,0,154,432.79c1.51-5.28,2.53-10.65,4.13-15.7a27.48,27.48,0,0,1,3.15-7,10.86,10.86,0,0,1,2.4-2.59,10.33,10.33,0,0,1,1.44-.93,11.57,11.57,0,0,1,8.56-.41,11.76,11.76,0,0,1,5.52,4.42,15.08,15.08,0,0,1,2.51,7,11.59,11.59,0,0,1,.12,1.91,10.43,10.43,0,0,1,0,1.92l-.19,1.93c-.12.64-.27,1.27-.41,1.91A29.76,29.76,0,0,1,180,429c-.45,1.24-1,2.47-1.55,3.7a67.94,67.94,0,0,1-3.77,7.07,49.92,49.92,0,0,1-4.71,6.43,27.15,27.15,0,0,1-5.81,5.13l-.1.06a1.11,1.11,0,0,0,1.16,1.89h0Z" transform="translate(-81.76 -113.24)" style="fill:url(#linear-gradient-30)"/><polygon points="115.25 403.83 109.21 364.49 43.37 373.38 54.2 415.81 115.25 403.83" style="fill:#ffe556"/></g><g id="_2945458355536" data-name=" 2945458355536"><polygon points="290.64 316.71 311.48 316.71 311.48 295.88 290.64 295.88 290.64 316.71" style="fill:#4659c3"/><path d="M401.91,417.43c-2.27,0-4.11,2.18-4.11,4.86s1.85,4.86,4.11,4.86S406,425,406,422.28,404.18,417.43,401.91,417.43Zm0,10.14c-2.5,0-4.54-2.37-4.54-5.28s2-5.28,4.54-5.28,4.54,2.37,4.54,5.28S404.41,427.56,401.91,427.56Z" transform="translate(-81.76 -113.24)" style="fill:#252e3b"/><polygon points="308.77 342.05 331.53 342.05 331.53 309.05 308.77 309.05 308.77 342.05" style="fill:#49aef0"/><path d="M349.62,415.73c-3.48,0-6.31,3.34-6.31,7.44s2.83,7.43,6.31,7.43,6.31-3.34,6.31-7.43S353.1,415.73,349.62,415.73Zm0,15.38c-3.76,0-6.82-3.56-6.82-7.94s3.06-7.94,6.82-7.94,6.81,3.56,6.81,7.94S353.37,431.1,349.62,431.1Z" transform="translate(-81.76 -113.24)" style="fill:#252e3b"/><polygon points="251.8 342.05 283.93 342.05 283.93 309.92 251.8 309.92 251.8 342.05" style="fill:#49aef0"/><path d="M386.91,409.12c0,2.66-1.83,4.82-4.09,4.82s-4.09-2.16-4.09-4.82h-.33c0,2.84,2,5.15,4.42,5.15s4.42-2.31,4.42-5.15h-.33Z" transform="translate(-81.76 -113.24)" style="fill:#252e3b"/><polygon points="311.36 342.05 325.37 342.05 325.37 328.04 311.36 328.04 311.36 342.05" style="fill:#38d2e0"/><path d="M402.87,441.28a2.79,2.79,0,1,1-5.5,0h-.22a3,3,0,1,0,5.94,0Z" transform="translate(-81.76 -113.24)" style="fill:#252e3b"/><polygon points="283.93 342.05 311.36 342.05 311.36 316.71 283.93 316.71 283.93 342.05" style="fill:#eb4747"/><polygon points="283.53 320.71 311.76 320.71 311.76 316.71 283.53 316.71 283.53 320.71" style="fill:#c73c3c"/><polygon points="269.02 342.05 295.57 342.05 295.57 323.81 269.02 323.81 269.02 342.05" style="fill:#faa146"/><polygon points="268.47 326.99 296.12 326.99 296.12 323.81 268.47 323.81 268.47 326.99" style="fill:#e69440"/></g><g style="mask:url(#mask)"><path d="M604.75,497.69c0,3.69-19.93,6.68-44.51,6.68s-44.51-3-44.51-6.68S535.66,491,560.24,491,604.75,494,604.75,497.69Z" transform="translate(-81.76 -113.24)" style="fill:#9cb7e7"/></g><g id="_2945458339344" data-name=" 2945458339344"><polygon points="496.51 376.82 495.88 368.57 490.13 368.83 491.01 376.9 496.51 376.82" style="fill:#dd905d"/><path d="M578.27,490.05l5.87,4.49a3.61,3.61,0,0,1,1,2.55H572.65l.11-7,5.51-.08Z" transform="translate(-81.76 -113.24)" style="fill:#0033ac"/><polygon points="503.34 385.29 490.9 385.29 490.9 383.86 503.34 383.86 503.34 385.29" style="fill:#dde3fd"/><path d="M578.12,491.72l2.26-.43a.23.23,0,1,1,.09.45l-2.26.43a.23.23,0,0,1-.09-.45Z" transform="translate(-81.76 -113.24)" style="fill:#fff"/><path d="M579.07,492.73l2.64-.47a.23.23,0,0,1,.08.45l-2.64.47a.23.23,0,0,1-.08-.45Z" transform="translate(-81.76 -113.24)" style="fill:#fff"/><path d="M580.62,493.65l2.22-.4a.23.23,0,0,1,.08.45l-2.22.4a.23.23,0,0,1-.08-.45Z" transform="translate(-81.76 -113.24)" style="fill:#fff"/><polygon points="479.95 320.64 483.6 321.86 489.48 374.79 497.25 374.44 493.73 311.58 480.39 312.21 479.95 320.64" style="fill:#0033ac"/><polygon points="469.57 376.82 471.54 368.7 465.48 368.97 463.76 376.9 469.57 376.82" style="fill:#dd905d"/><path d="M545.51,490.14l-10.22,5.22a1.81,1.81,0,0,0-1,2l18.56-.29-1.58-7-5.81.08Z" transform="translate(-81.76 -113.24)" style="fill:#0033ac"/><path d="M552.9,497.09l0,1.41-17,.09a1.71,1.71,0,0,1-1.64-1.21l18.56-.29Z" transform="translate(-81.76 -113.24)" style="fill:#dde3fd"/><path d="M542.52,491.42l1.48.68a.23.23,0,0,1-.19.41l-1.48-.68a.23.23,0,0,1,.19-.41Z" transform="translate(-81.76 -113.24)" style="fill:#fff"/><path d="M541,492.1l1.53.72a.23.23,0,1,1-.19.41l-1.53-.72a.23.23,0,1,1,.19-.41Z" transform="translate(-81.76 -113.24)" style="fill:#fff"/><path d="M539.57,493l1.47.67a.23.23,0,1,1-.19.41l-1.47-.67a.23.23,0,1,1,.19-.41Z" transform="translate(-81.76 -113.24)" style="fill:#fff"/><polygon points="474.64 310.65 463.36 374.09 471.64 374.56 485.26 311.62 474.64 310.65" style="fill:#0033ac"/><polygon points="483.1 321.69 480.88 320.95 481.22 330.43 483.1 321.69" style="fill:#09f"/><path d="M527.11,404.07c2.55,1.19,4.61.94,5.43-1a3.84,3.84,0,0,0-2.05-5,3.42,3.42,0,0,0-4.67,1.51A3,3,0,0,0,527.11,404.07Z" transform="translate(-81.76 -113.24)" style="fill:#dd905d"/><path d="M527.11,398.29s.23-1.28,2.42-1.14c2,.13,4.22,2.24,3,5.91Z" transform="translate(-81.76 -113.24)" style="fill:#dd905d"/><path d="M527.46,399.24l-4-2.32a.74.74,0,0,1-.34-1,.63.63,0,0,1,.79-.33l4.68,1.72Z" transform="translate(-81.76 -113.24)" style="fill:#dd905d"/><path d="M547.24,405.62l-15.06-4.79-2.28,3.45,14.91,7.57c2.13,1.06,4.17-.53,4.72-2.85.43-1.8-.55-2.71-2.28-3.38Z" transform="translate(-81.76 -113.24)" style="fill:#dd905d"/><path d="M559.8,400l-14.73,5c-2,1-3.47,2.52-2.62,4.56a4.22,4.22,0,0,0,5.49,2.29L563.49,408c2.05-.84,3.39-2.44,3-4.62A4.67,4.67,0,0,0,559.8,400Z" transform="translate(-81.76 -113.24)" style="fill:#dd905d"/><path d="M552.12,402.6l2.45,9,9.11-2.49-1.14-11a25.9,25.9,0,0,0-10.42,4.55Z" transform="translate(-81.76 -113.24)" style="fill:#09f"/><polygon points="477.74 296.98 475.55 293.41 472.81 298.33 477.74 296.98" style="fill:#0033ac"/><path d="M557.43,400.09l-2.35,27.07s8.88,3.89,21,.44l.58-26.1a1,1,0,0,0-.57-.9,38.17,38.17,0,0,0-7.11-2.45s-7.61-1.31-11.54,1.94Z" transform="translate(-81.76 -113.24)" style="fill:#09f"/><polygon points="494.65 299.34 492.76 298.36 494.55 303.85 494.65 299.34" style="fill:#0033ac"/><path d="M571,398.68l-6.48,3.69-2-4.31A18.6,18.6,0,0,1,571,398.68Z" transform="translate(-81.76 -113.24)" style="fill:#dd905d"/><polygon points="505.63 299.51 494.87 313.33 495.39 317.1 509.01 305.39 505.63 299.51" style="fill:#dd905d"/><path d="M575.11,429.75a1.25,1.25,0,0,0,2.41-.09,4.76,4.76,0,0,0-.28-2.54c-1.31-3.64-2.76-2.9-3.73-2.8Z" transform="translate(-81.76 -113.24)" style="fill:#dd905d"/><path d="M575.38,429.1s-.33-.82-1.37-.33c-.54.25-1,.52-1.4.72a.62.62,0,1,1-.56-1.11l3.37-1.53,0,2.25Z" transform="translate(-81.76 -113.24)" style="fill:#dd905d"/><path d="M571.27,428.83l4.28-2-.6-1-4.19,2a.6.6,0,1,0,.52,1.09Z" transform="translate(-81.76 -113.24)" style="fill:#dd905d"/><path d="M570.75,427.77l4.34-2s-.27-.95-.54-.92a8.89,8.89,0,0,0-4.44,1.89.61.61,0,0,0,.63,1Z" transform="translate(-81.76 -113.24)" style="fill:#dd905d"/><path d="M576.62,425.71s-1.57-3.78-5.24-2.3a.57.57,0,0,0,.36,1.08c.62-.14,1.62-.24,2,.48s1.26.2,1.26.2Z" transform="translate(-81.76 -113.24)" style="fill:#dd905d"/><path d="M574.65,408.36l11.54,10.33a3.1,3.1,0,0,0,4,.41,3.38,3.38,0,0,0,.58-4.94l-10.85-11a3.56,3.56,0,0,0-5-.42,3.89,3.89,0,0,0-.31,5.62Z" transform="translate(-81.76 -113.24)" style="fill:#dd905d"/><path d="M574.83,400.09s4.2.8,10,7.94l-5.13,6.85-7.48-4.7Z" transform="translate(-81.76 -113.24)" style="fill:#09f"/><path d="M575.34,383.28c-.32,3.49-5.84,6-8.33,5.69a6.44,6.44,0,0,1-5.74-6.89,6.34,6.34,0,0,1,6.89-5.74c3.49.32,7.54,3,7.18,6.94Z" transform="translate(-81.76 -113.24)" style="fill:#541207"/><path d="M564.32,386.68a1.91,1.91,0,0,1-2.29,1.6,2.28,2.28,0,0,1-1.73-2.56c.15-1.13,1.12-1.5,2.25-1.35a2.06,2.06,0,0,1,1.77,2.31Z" transform="translate(-81.76 -113.24)" style="fill:#c7784a"/><polygon points="487.65 275.5 487.47 286.39 482.02 285.95 483.15 276.51 487.65 275.5" style="fill:#dd905d"/><path d="M564.37,394.21a8,8,0,0,0,5.31-4.05l-4.91.74-.4,3.31Z" transform="translate(-81.76 -113.24)" style="fill:#060606"/><path d="M565.95,377.14s-4.51-.26-4.71,5.68.35,7.58,2.61,9c2,1.31,4.84.56,6.61-1.81a9,9,0,0,0,1.48-3.52l.49-1.51s2.56-7.51-6.48-7.87Z" transform="translate(-81.76 -113.24)" style="fill:#dd905d"/><polygon points="482.62 272.04 481.96 272.9 482.51 273.4 482.51 273.52 482.4 273.52 481.79 272.97 481.78 272.86 482.49 271.94 482.6 271.93 482.62 272.04"/><path d="M567.43,383.92s-1.44-.28-1.61.42,1.55.87,1.55.87,1.47.31,1.61-.35S567.43,383.92,567.43,383.92Z" transform="translate(-81.76 -113.24)" style="fill:#fff"/><path d="M568,384.69a.76.76,0,0,1-.48.56l-.2,0a4.67,4.67,0,0,1-.87-.18.76.76,0,0,1-.22-.67.74.74,0,0,1,.34-.49,3.49,3.49,0,0,1,.82,0h0l.38.08A.76.76,0,0,1,568,384.69Z" transform="translate(-81.76 -113.24)" style="fill:#060606"/><path d="M562.72,383.63s1,0,1.05.66-1.22.49-1.22.49-1.08,0-1.07-.64S562.72,383.63,562.72,383.63Z" transform="translate(-81.76 -113.24)" style="fill:#fff"/><path d="M562,384.16a.7.7,0,0,0,.28.59,2.35,2.35,0,0,0,.32,0,2.81,2.81,0,0,0,.4,0,.7.7,0,0,0,.16-1.11,2.11,2.11,0,0,0-.4-.06h0a3,3,0,0,0-.53,0A.7.7,0,0,0,562,384.16Z" transform="translate(-81.76 -113.24)" style="fill:#060606"/><path d="M561.26,387l.2.51a.64.64,0,0,0,.51.41.41.41,0,0,0,.19,0,4.57,4.57,0,0,1,4.35.4c2.73,1.58,4.53-4.37,4.53-4.37l.53,1.51s-1.17,3.08-.52,3.6c0,0-.44,4.73-6.18,3.88C560,392.15,561.26,387,561.26,387Z" transform="translate(-81.76 -113.24)" style="fill:#541207"/><path d="M569.4,383.2l-3.62-.66s.27-.72,2-.4c1.47.27,1.63,1.06,1.63,1.06Z" transform="translate(-81.76 -113.24)" style="fill:#060606"/><path d="M561,383l2.59-.44s-.22-.65-1.44-.44c-1.05.18-1.15.88-1.15.88Z" transform="translate(-81.76 -113.24)" style="fill:#060606"/><path d="M571.36,387s-2.58-5.54.57-7.5c0,0,2.65,2.63,1.93,4.32A10.2,10.2,0,0,1,571.36,387Z" transform="translate(-81.76 -113.24)" style="fill:#541207"/><path d="M570.65,388.09c-.07,1.13.58,1.39,2.06,1.23a2.27,2.27,0,0,0,1.75-2.55c-.14-1.13-1-1.51-2.15-1.08a2.85,2.85,0,0,0-1.66,2.4Z" transform="translate(-81.76 -113.24)" style="fill:#dd905d"/><path d="M572.52,380.46s-6.67,2.52-11.22-.66a2.44,2.44,0,0,1-1.12-2.68c.3-1,1.33-1.72,4.41-.53,5.69,2.18,7.93,1.62,7.93,1.62Z" transform="translate(-81.76 -113.24)" style="fill:#541207"/><path d="M573.21,380.27s-7.09,2.6-10-2.32a3.75,3.75,0,0,1,0-4c.55-.74,2.51-.74,4.81.78,1.2.79,2.37.69,3.29,1.1a3.33,3.33,0,0,1,1.9,4.45Z" transform="translate(-81.76 -113.24)" style="fill:#541207"/></g><g id="_2945458330128" data-name=" 2945458330128"><path d="M174.19,231.45a.86.86,0,0,0-.5-.12l-3.12.25a11,11,0,0,0-2.5-2.38l4.25-.34a.37.37,0,0,0,.34-.19.44.44,0,0,0,0-.41l-.94-1.75a1,1,0,0,0-.38-.38.86.86,0,0,0-.5-.12l-15.18,1.23a.37.37,0,0,0-.34.19.44.44,0,0,0,0,.41l1.23,2.28a1,1,0,0,0,.38.37.86.86,0,0,0,.5.13l2.65-.21q3.85-.31,5.93,1.54l-7.54.61a.37.37,0,0,0-.34.19.44.44,0,0,0,0,.41l.94,1.75a1,1,0,0,0,.38.38.86.86,0,0,0,.5.12l7.79-.63a2.08,2.08,0,0,1-.72,2.3,6.46,6.46,0,0,1-3.48,1.05l-2,.17a.36.36,0,0,0-.32.2.43.43,0,0,0,0,.4l1.17,2.18a.92.92,0,0,0,.37.36q5.39,3.22,14.36,9.07a.85.85,0,0,0,.57.17l3.56-.29q.38,0,.36-.35a.66.66,0,0,0-.39-.58q-8.64-5.72-13.33-8.52a5.93,5.93,0,0,0,4-2.3,4.56,4.56,0,0,0,.19-4.21l3.07-.25a.37.37,0,0,0,.34-.19.44.44,0,0,0,0-.41l-.94-1.75a1,1,0,0,0-.38-.38Z" transform="translate(-81.76 -113.24)" style="fill:#d03b48"/></g><g id="_2945457073696" data-name=" 2945457073696"><path d="M175.4,230.46a.86.86,0,0,0-.5-.12l-3.12.25a11,11,0,0,0-2.5-2.38l4.25-.34a.37.37,0,0,0,.34-.19.44.44,0,0,0,0-.41l-.94-1.75a1,1,0,0,0-.38-.38.86.86,0,0,0-.5-.12l-15.18,1.23a.37.37,0,0,0-.34.19.44.44,0,0,0,0,.41l1.23,2.28a1,1,0,0,0,.38.37.86.86,0,0,0,.5.13l2.65-.21q3.85-.31,5.93,1.54l-7.54.61a.37.37,0,0,0-.34.19.44.44,0,0,0,0,.41l.94,1.75a1,1,0,0,0,.38.38.86.86,0,0,0,.5.12l7.79-.63a2.08,2.08,0,0,1-.72,2.3,6.46,6.46,0,0,1-3.48,1.05l-2,.17a.36.36,0,0,0-.32.2.42.42,0,0,0,0,.4l1.17,2.18a.92.92,0,0,0,.37.36q5.39,3.22,14.36,9.07a.85.85,0,0,0,.57.17l3.56-.29q.38,0,.36-.35a.66.66,0,0,0-.39-.58q-8.64-5.72-13.33-8.52a5.93,5.93,0,0,0,4-2.3,4.56,4.56,0,0,0,.19-4.21l3.07-.25a.37.37,0,0,0,.34-.19.44.44,0,0,0,0-.41l-.94-1.75a1,1,0,0,0-.38-.38Z" transform="translate(-81.76 -113.24)" style="fill:#ffd025"/></g><g id="_2945457067936" data-name=" 2945457067936"><path d="M242.69,243.56a.62.62,0,0,0-.36-.11l-2.34.05a7.47,7.47,0,0,0-1.65-1.85l3.19-.07a.3.3,0,0,0,.27-.12.32.32,0,0,0,0-.3l-.55-1.32a.65.65,0,0,0-.25-.3.62.62,0,0,0-.36-.11l-11.38.26a.3.3,0,0,0-.27.12.32.32,0,0,0,0,.3l.72,1.72a.65.65,0,0,0,.25.29.62.62,0,0,0,.36.12l2,0a5.49,5.49,0,0,1,4.27,1.38l-5.65.13a.3.3,0,0,0-.27.12.32.32,0,0,0,0,.3l.55,1.32a.64.64,0,0,0,.25.3.62.62,0,0,0,.36.11l5.84-.13a1.6,1.6,0,0,1-.73,1.65,5.09,5.09,0,0,1-2.67.62l-1.53,0a.29.29,0,0,0-.26.13.31.31,0,0,0,0,.29l.68,1.65a.63.63,0,0,0,.24.28q3.72,2.59,9.88,7.25a.61.61,0,0,0,.41.15l2.67-.06q.29,0,.3-.24a.45.45,0,0,0-.24-.44q-5.92-4.55-9.16-6.81a4.76,4.76,0,0,0,3.18-1.51,3.38,3.38,0,0,0,.5-3.07l2.3-.05a.3.3,0,0,0,.27-.12.32.32,0,0,0,0-.3l-.55-1.32a.65.65,0,0,0-.25-.3Z" transform="translate(-81.76 -113.24)" style="fill:#d03b48"/></g><g id="_2945457059424" data-name=" 2945457059424"><path d="M243.67,242.89a.62.62,0,0,0-.36-.11l-2.34.05a7.48,7.48,0,0,0-1.65-1.85l3.19-.07a.3.3,0,0,0,.27-.12.32.32,0,0,0,0-.3l-.55-1.32a.65.65,0,0,0-.25-.3.62.62,0,0,0-.36-.11l-11.38.26a.3.3,0,0,0-.27.12.32.32,0,0,0,0,.3l.72,1.72a.64.64,0,0,0,.25.29.62.62,0,0,0,.36.12l2,0a5.49,5.49,0,0,1,4.27,1.38l-5.65.13a.3.3,0,0,0-.27.12.32.32,0,0,0,0,.3l.55,1.32a.65.65,0,0,0,.25.3.62.62,0,0,0,.36.11l5.84-.13a1.6,1.6,0,0,1-.73,1.65,5.09,5.09,0,0,1-2.67.62l-1.53,0a.29.29,0,0,0-.26.13.31.31,0,0,0,0,.29l.68,1.65a.62.62,0,0,0,.24.28q3.72,2.59,9.88,7.25a.61.61,0,0,0,.41.15l2.67-.06c.19,0,.29-.09.3-.24a.45.45,0,0,0-.24-.44q-5.92-4.55-9.16-6.81a4.75,4.75,0,0,0,3.18-1.51,3.38,3.38,0,0,0,.51-3.07l2.3-.05a.3.3,0,0,0,.27-.12.32.32,0,0,0,0-.3l-.55-1.32a.65.65,0,0,0-.25-.3Z" transform="translate(-81.76 -113.24)" style="fill:#ffd025"/></g></g></svg>