<svg xmlns="http://www.w3.org/2000/svg" xmlns:xlink="http://www.w3.org/1999/xlink" width="460" zoomAndPan="magnify" viewBox="0 0 345 74.999997" height="100" preserveAspectRatio="xMidYMid meet" version="1.2"><defs/><g id="183ff7fb9d"><rect x="0" width="345" y="0" height="74.999997" style="fill:#ffffff;fill-opacity:1;stroke:none;"/><rect x="0" width="345" y="0" height="74.999997" style="fill:#ffffff;fill-opacity:1;stroke:none;"/><g style="fill:#ff0000;fill-opacity:1;"><g transform="translate(7.708067, 52.758134)"><path style="stroke:none" d="M 16.375 4.921875 C 14.613281 4.921875 12.910156 4.695312 11.265625 4.25 C 9.617188 3.800781 8.148438 3.039062 6.859375 1.96875 C 5.578125 0.90625 4.546875 -0.507812 3.765625 -2.28125 C 2.992188 -4.050781 2.609375 -6.253906 2.609375 -8.890625 C 2.609375 -10.796875 2.769531 -12.613281 3.09375 -14.34375 C 3.425781 -16.082031 3.851562 -17.703125 4.375 -19.203125 C 4.90625 -20.703125 5.484375 -22.082031 6.109375 -23.34375 C 6.742188 -24.601562 7.359375 -25.726562 7.953125 -26.71875 C 8.554688 -27.71875 9.109375 -28.566406 9.609375 -29.265625 C 10.109375 -29.972656 10.484375 -30.519531 10.734375 -30.90625 L 11.5 -30.453125 C 11.40625 -30.285156 11.195312 -29.921875 10.875 -29.359375 C 10.550781 -28.796875 10.171875 -28.054688 9.734375 -27.140625 C 9.304688 -26.222656 8.847656 -25.15625 8.359375 -23.9375 C 7.878906 -22.71875 7.4375 -21.363281 7.03125 -19.875 C 6.625 -18.394531 6.289062 -16.804688 6.03125 -15.109375 C 5.769531 -13.410156 5.640625 -11.625 5.640625 -9.75 C 5.640625 -7.476562 5.882812 -5.488281 6.375 -3.78125 C 6.863281 -2.070312 7.5625 -0.644531 8.46875 0.5 C 9.375 1.644531 10.476562 2.507812 11.78125 3.09375 C 13.082031 3.675781 14.539062 3.96875 16.15625 3.96875 C 17.4375 3.96875 18.585938 3.734375 19.609375 3.265625 C 20.628906 2.796875 21.546875 2.148438 22.359375 1.328125 C 23.171875 0.515625 23.875 -0.429688 24.46875 -1.515625 C 25.070312 -2.609375 25.59375 -3.78125 26.03125 -5.03125 C 26.46875 -6.28125 26.828125 -7.578125 27.109375 -8.921875 C 27.398438 -10.265625 27.625 -11.59375 27.78125 -12.90625 C 27.945312 -14.21875 28.0625 -15.476562 28.125 -16.6875 C 28.195312 -17.894531 28.234375 -19 28.234375 -20 C 28.234375 -22.226562 28.117188 -24.28125 27.890625 -26.15625 C 27.671875 -28.03125 27.421875 -29.679688 27.140625 -31.109375 C 26.867188 -32.546875 26.601562 -33.742188 26.34375 -34.703125 C 26.082031 -35.671875 25.90625 -36.363281 25.8125 -36.78125 L 26.671875 -37.078125 C 27.203125 -35.179688 27.664062 -33.363281 28.0625 -31.625 C 28.457031 -29.882812 28.78125 -28.117188 29.03125 -26.328125 C 29.28125 -24.546875 29.46875 -22.695312 29.59375 -20.78125 C 29.71875 -18.875 29.78125 -16.785156 29.78125 -14.515625 C 29.78125 -12.828125 29.675781 -11.171875 29.46875 -9.546875 C 29.257812 -7.921875 28.929688 -6.390625 28.484375 -4.953125 C 28.035156 -3.515625 27.460938 -2.191406 26.765625 -0.984375 C 26.066406 0.222656 25.21875 1.265625 24.21875 2.140625 C 23.21875 3.023438 22.066406 3.707031 20.765625 4.1875 C 19.460938 4.675781 18 4.921875 16.375 4.921875 Z M 16.375 4.921875 "/></g></g><g style="fill:#daa520;fill-opacity:1;"><g transform="translate(51.665783, 15.968641)"><path style="stroke:none" d="M -16.375 -4.921875 C -14.613281 -4.921875 -12.910156 -4.695312 -11.265625 -4.25 C -9.617188 -3.800781 -8.148438 -3.039062 -6.859375 -1.96875 C -5.578125 -0.90625 -4.546875 0.507812 -3.765625 2.28125 C -2.992188 4.050781 -2.609375 6.253906 -2.609375 8.890625 C -2.609375 10.796875 -2.769531 12.613281 -3.09375 14.34375 C -3.425781 16.082031 -3.851562 17.703125 -4.375 19.203125 C -4.90625 20.703125 -5.484375 22.082031 -6.109375 23.34375 C -6.742188 24.601562 -7.359375 25.726562 -7.953125 26.71875 C -8.554688 27.71875 -9.109375 28.566406 -9.609375 29.265625 C -10.109375 29.972656 -10.484375 30.519531 -10.734375 30.90625 L -11.5 30.453125 C -11.40625 30.285156 -11.195312 29.921875 -10.875 29.359375 C -10.550781 28.796875 -10.171875 28.054688 -9.734375 27.140625 C -9.304688 26.222656 -8.847656 25.15625 -8.359375 23.9375 C -7.878906 22.71875 -7.4375 21.363281 -7.03125 19.875 C -6.625 18.394531 -6.289062 16.804688 -6.03125 15.109375 C -5.769531 13.410156 -5.640625 11.625 -5.640625 9.75 C -5.640625 7.476562 -5.882812 5.488281 -6.375 3.78125 C -6.863281 2.070312 -7.5625 0.644531 -8.46875 -0.5 C -9.375 -1.644531 -10.476562 -2.507812 -11.78125 -3.09375 C -13.082031 -3.675781 -14.539062 -3.96875 -16.15625 -3.96875 C -17.4375 -3.96875 -18.585938 -3.734375 -19.609375 -3.265625 C -20.628906 -2.796875 -21.546875 -2.148438 -22.359375 -1.328125 C -23.171875 -0.515625 -23.875 0.429688 -24.46875 1.515625 C -25.070312 2.609375 -25.59375 3.78125 -26.03125 5.03125 C -26.46875 6.28125 -26.828125 7.578125 -27.109375 8.921875 C -27.398438 10.265625 -27.625 11.59375 -27.78125 12.90625 C -27.945312 14.21875 -28.0625 15.476562 -28.125 16.6875 C -28.195312 17.894531 -28.234375 19 -28.234375 20 C -28.234375 22.226562 -28.117188 24.28125 -27.890625 26.15625 C -27.671875 28.03125 -27.421875 29.679688 -27.140625 31.109375 C -26.867188 32.546875 -26.601562 33.742188 -26.34375 34.703125 C -26.082031 35.671875 -25.90625 36.363281 -25.8125 36.78125 L -26.671875 37.078125 C -27.203125 35.179688 -27.664062 33.363281 -28.0625 31.625 C -28.457031 29.882812 -28.78125 28.117188 -29.03125 26.328125 C -29.28125 24.546875 -29.46875 22.695312 -29.59375 20.78125 C -29.71875 18.875 -29.78125 16.785156 -29.78125 14.515625 C -29.78125 12.828125 -29.675781 11.171875 -29.46875 9.546875 C -29.257812 7.921875 -28.929688 6.390625 -28.484375 4.953125 C -28.035156 3.515625 -27.460938 2.191406 -26.765625 0.984375 C -26.066406 -0.222656 -25.21875 -1.265625 -24.21875 -2.140625 C -23.21875 -3.023438 -22.066406 -3.707031 -20.765625 -4.1875 C -19.460938 -4.675781 -18 -4.921875 -16.375 -4.921875 Z M -16.375 -4.921875 "/></g></g><g style="fill:#ff0000;fill-opacity:1;"><g transform="translate(59.276947, 54.477661)"><path style="stroke:none" d="M 10.265625 0 C 9.160156 0 8.125 -0.164062 7.15625 -0.5 C 6.15625 -0.832031 5.304688 -1.332031 4.609375 -2 C 3.867188 -2.664062 3.296875 -3.515625 2.890625 -4.546875 C 2.441406 -5.546875 2.21875 -6.710938 2.21875 -8.046875 L 2.21875 -40.1875 L 7.609375 -40.1875 L 7.609375 -8.046875 C 7.609375 -7.679688 7.625 -7.273438 7.65625 -6.828125 C 7.65625 -6.347656 7.75 -5.90625 7.9375 -5.5 C 8.082031 -5.050781 8.34375 -4.695312 8.71875 -4.4375 C 9.082031 -4.144531 9.597656 -4 10.265625 -4 C 10.929688 -4 11.453125 -4.144531 11.828125 -4.4375 C 12.160156 -4.695312 12.421875 -5.050781 12.609375 -5.5 C 12.753906 -5.90625 12.84375 -6.347656 12.875 -6.828125 C 12.914062 -7.273438 12.9375 -7.679688 12.9375 -8.046875 L 12.9375 -40.1875 L 18.3125 -40.1875 L 18.3125 -8.046875 C 18.3125 -6.710938 18.109375 -5.546875 17.703125 -4.546875 C 17.265625 -3.515625 16.691406 -2.664062 15.984375 -2 C 15.242188 -1.332031 14.394531 -0.832031 13.4375 -0.5 C 12.4375 -0.164062 11.378906 0 10.265625 0 Z M 10.265625 0 "/></g></g><g style="fill:#ff0000;fill-opacity:1;"><g transform="translate(93.919553, 54.477661)"><path style="stroke:none" d="M 3.546875 -28.59375 L 2.21875 -32.140625 L 7.546875 -32.140625 L 15.59375 -11.046875 L 15.59375 -32.140625 L 18.265625 -32.140625 L 18.265625 0 L 14.265625 0 L 6.21875 -21.421875 L 6.21875 0 L 3.546875 0 Z M 3.546875 -28.59375 "/></g></g><g style="fill:#ff0000;fill-opacity:1;"><g transform="translate(129.339336, 54.477661)"><path style="stroke:none" d="M 3.046875 -32.140625 L 8.4375 -32.140625 L 8.4375 0 L 3.046875 0 Z M 3.046875 -32.140625 "/></g></g><g style="fill:#daa520;fill-opacity:1;"><g transform="translate(154.93897, 54.477661)"><path style="stroke:none" d="M 3.546875 -36.140625 L 2.21875 -40.1875 L 8.9375 -40.1875 C 10.71875 -40.1875 12.269531 -39.984375 13.59375 -39.578125 C 14.925781 -39.171875 16.054688 -38.503906 16.984375 -37.578125 C 17.867188 -36.660156 18.535156 -35.421875 18.984375 -33.859375 C 19.429688 -32.304688 19.65625 -30.398438 19.65625 -28.140625 C 19.65625 -25.296875 19.320312 -23.039062 18.65625 -21.375 C 17.945312 -19.664062 16.910156 -18.390625 15.546875 -17.546875 C 16.910156 -16.910156 17.945312 -15.945312 18.65625 -14.65625 C 19.320312 -13.363281 19.65625 -11.601562 19.65625 -9.375 C 19.65625 -7.601562 19.429688 -6.125 18.984375 -4.9375 C 18.535156 -3.71875 17.867188 -2.753906 16.984375 -2.046875 C 16.054688 -1.304688 14.925781 -0.789062 13.59375 -0.5 C 12.269531 -0.164062 10.71875 0 8.9375 0 L 3.546875 0 Z M 8.9375 -19.375 C 9.9375 -19.414062 10.769531 -19.691406 11.4375 -20.203125 C 12.101562 -20.679688 12.617188 -21.332031 12.984375 -22.15625 C 13.359375 -22.96875 13.617188 -23.890625 13.765625 -24.921875 C 13.910156 -25.960938 13.984375 -27.035156 13.984375 -28.140625 C 13.984375 -29.210938 13.910156 -30.269531 13.765625 -31.3125 C 13.617188 -32.34375 13.359375 -33.269531 12.984375 -34.09375 C 12.617188 -34.90625 12.101562 -35.566406 11.4375 -36.078125 C 10.769531 -36.597656 9.9375 -36.859375 8.9375 -36.859375 Z M 8.9375 -2.546875 C 9.9375 -2.585938 10.769531 -2.8125 11.4375 -3.21875 C 12.101562 -3.59375 12.617188 -4.113281 12.984375 -4.78125 C 13.359375 -5.40625 13.617188 -6.125 13.765625 -6.9375 C 13.910156 -7.71875 13.984375 -8.53125 13.984375 -9.375 C 13.984375 -10.226562 13.910156 -11.0625 13.765625 -11.875 C 13.617188 -12.65625 13.359375 -13.359375 12.984375 -13.984375 C 12.617188 -14.578125 12.101562 -15.078125 11.4375 -15.484375 C 10.769531 -15.859375 9.9375 -16.0625 8.9375 -16.09375 Z M 8.9375 -2.546875 "/></g></g><g style="fill:#ff8c00;fill-opacity:1;"><g transform="translate(190.915999, 54.477661)"><path style="stroke:none" d="M 12.375 0 C 10.707031 0 9.210938 -0.273438 7.890625 -0.828125 C 6.554688 -1.347656 5.425781 -2.238281 4.5 -3.5 C 3.570312 -4.757812 2.867188 -6.425781 2.390625 -8.5 C 1.910156 -10.53125 1.671875 -13.0625 1.671875 -16.09375 C 1.671875 -19.09375 1.910156 -21.628906 2.390625 -23.703125 C 2.867188 -25.742188 3.570312 -27.390625 4.5 -28.640625 C 5.425781 -29.898438 6.554688 -30.804688 7.890625 -31.359375 C 9.210938 -31.878906 10.707031 -32.140625 12.375 -32.140625 C 12.863281 -32.140625 13.328125 -32.101562 13.765625 -32.03125 C 14.210938 -31.957031 14.640625 -31.863281 15.046875 -31.75 L 15.046875 -27.75 C 14.265625 -28.90625 13.375 -29.484375 12.375 -29.484375 C 11.34375 -29.484375 10.398438 -28.832031 9.546875 -27.53125 C 9.253906 -27.050781 8.992188 -26.40625 8.765625 -25.59375 C 8.515625 -24.78125 8.3125 -23.875 8.15625 -22.875 C 7.976562 -21.832031 7.847656 -20.738281 7.765625 -19.59375 C 7.691406 -18.414062 7.65625 -17.234375 7.65625 -16.046875 C 7.65625 -14.859375 7.691406 -13.691406 7.765625 -12.546875 C 7.847656 -11.398438 7.976562 -10.328125 8.15625 -9.328125 C 8.3125 -8.285156 8.515625 -7.359375 8.765625 -6.546875 C 8.992188 -5.734375 9.253906 -5.085938 9.546875 -4.609375 C 10.359375 -3.316406 11.300781 -2.671875 12.375 -2.671875 C 13.375 -2.671875 14.265625 -3.242188 15.046875 -4.390625 L 15.046875 -0.4375 C 14.160156 -0.144531 13.269531 0 12.375 0 Z M 12.375 0 "/></g></g><g style="fill:#ff8c00;fill-opacity:1;"><g transform="translate(221.72823, 54.477661)"><path style="stroke:none" d="M 11.71875 0 C 10.15625 0 8.75 -0.273438 7.5 -0.828125 C 6.238281 -1.347656 5.179688 -2.238281 4.328125 -3.5 C 3.472656 -4.757812 2.828125 -6.425781 2.390625 -8.5 C 1.910156 -10.53125 1.671875 -13.0625 1.671875 -16.09375 C 1.671875 -19.09375 1.910156 -21.628906 2.390625 -23.703125 C 2.828125 -25.742188 3.472656 -27.390625 4.328125 -28.640625 C 5.179688 -29.898438 6.238281 -30.804688 7.5 -31.359375 C 8.75 -31.878906 10.15625 -32.140625 11.71875 -32.140625 C 13.269531 -32.140625 14.675781 -31.878906 15.9375 -31.359375 C 17.195312 -30.804688 18.25 -29.898438 19.09375 -28.640625 C 19.945312 -27.390625 20.613281 -25.742188 21.09375 -23.703125 C 21.539062 -21.628906 21.765625 -19.09375 21.765625 -16.09375 C 21.765625 -13.0625 21.539062 -10.53125 21.09375 -8.5 C 20.613281 -6.425781 19.945312 -4.757812 19.09375 -3.5 C 18.25 -2.238281 17.195312 -1.347656 15.9375 -0.828125 C 14.675781 -0.273438 13.269531 0 11.71875 0 Z M 11.71875 -2.671875 C 12.488281 -2.671875 13.171875 -3.039062 13.765625 -3.78125 C 14.316406 -4.519531 14.800781 -5.5 15.21875 -6.71875 C 15.582031 -7.90625 15.859375 -9.273438 16.046875 -10.828125 C 16.234375 -12.378906 16.328125 -13.96875 16.328125 -15.59375 C 16.328125 -17.300781 16.234375 -18.988281 16.046875 -20.65625 C 15.816406 -22.320312 15.519531 -23.820312 15.15625 -25.15625 C 14.75 -26.445312 14.269531 -27.5 13.71875 -28.3125 C 13.125 -29.09375 12.457031 -29.484375 11.71875 -29.484375 C 10.976562 -29.484375 10.328125 -29.09375 9.765625 -28.3125 C 9.171875 -27.5 8.691406 -26.445312 8.328125 -25.15625 C 7.921875 -23.851562 7.625 -22.390625 7.4375 -20.765625 C 7.21875 -19.128906 7.109375 -17.460938 7.109375 -15.765625 C 7.109375 -14.097656 7.203125 -12.488281 7.390625 -10.9375 C 7.566406 -9.34375 7.859375 -7.9375 8.265625 -6.71875 C 8.640625 -5.5 9.125 -4.519531 9.71875 -3.78125 C 10.269531 -3.039062 10.9375 -2.671875 11.71875 -2.671875 Z M 11.71875 -2.671875 "/></g></g><g style="fill:#ff8c00;fill-opacity:1;"><g transform="translate(259.257495, 54.477661)"><path style="stroke:none" d="M 3.546875 -28.140625 L 2.21875 -32.140625 L 7.546875 -32.140625 L 15.59375 -8.046875 L 23.65625 -32.140625 L 27.640625 -32.140625 L 27.640625 0 L 22.3125 0 L 22.3125 -20.09375 L 15.59375 0 L 12.9375 0 L 6.21875 -20.09375 L 6.21875 0 L 3.546875 0 Z M 3.546875 -28.140625 "/></g></g><g style="fill:#ff8c00;fill-opacity:1;"><g transform="translate(304.058923, 54.477661)"><path style="stroke:none" d="M 3.546875 -28.140625 L 2.21875 -32.140625 L 8.9375 -32.140625 C 10.488281 -32.140625 11.859375 -31.992188 13.046875 -31.703125 C 14.191406 -31.367188 15.171875 -30.847656 15.984375 -30.140625 C 16.765625 -29.398438 17.359375 -28.441406 17.765625 -27.265625 C 18.128906 -26.035156 18.3125 -24.535156 18.3125 -22.765625 C 18.3125 -20.984375 18.128906 -19.5 17.765625 -18.3125 C 17.359375 -17.09375 16.765625 -16.132812 15.984375 -15.4375 C 15.171875 -14.695312 14.191406 -14.175781 13.046875 -13.875 C 11.859375 -13.539062 10.488281 -13.375 8.9375 -13.375 L 8.9375 0 L 3.546875 0 Z M 8.9375 -15.984375 C 9.820312 -15.984375 10.5625 -16.1875 11.15625 -16.59375 C 11.707031 -16.96875 12.148438 -17.488281 12.484375 -18.15625 C 12.816406 -18.78125 13.0625 -19.5 13.21875 -20.3125 C 13.320312 -21.09375 13.375 -21.910156 13.375 -22.765625 C 13.375 -23.609375 13.320312 -24.441406 13.21875 -25.265625 C 13.0625 -26.035156 12.816406 -26.753906 12.484375 -27.421875 C 12.148438 -28.054688 11.707031 -28.578125 11.15625 -28.984375 C 10.5625 -29.347656 9.820312 -29.550781 8.9375 -29.59375 Z M 8.9375 -15.984375 "/></g></g></g></svg>